%TF.GenerationSoftware,KiCad,Pcbnew,9.0.7*%
%TF.CreationDate,2026-04-29T04:09:03+05:30*%
%TF.ProjectId,SmartWatch_MT2025513,536d6172-7457-4617-9463-685f4d543230,rev?*%
%TF.SameCoordinates,Original*%
%TF.FileFunction,Other,Comment*%
%FSLAX45Y45*%
G04 Gerber Fmt 4.5, Leading zero omitted, Abs format (unit mm)*
G04 Created by KiCad (PCBNEW 9.0.7) date 2026-04-29 04:09:03*
%MOMM*%
%LPD*%
G01*
G04 APERTURE LIST*
%ADD10C,0.150000*%
G04 APERTURE END LIST*
D10*
X14241809Y-9938910D02*
X14289428Y-9938910D01*
X14232286Y-9967482D02*
X14265619Y-9867482D01*
X14265619Y-9867482D02*
X14298952Y-9967482D01*
X14332286Y-9900815D02*
X14332286Y-9967482D01*
X14332286Y-9910339D02*
X14337048Y-9905577D01*
X14337048Y-9905577D02*
X14346571Y-9900815D01*
X14346571Y-9900815D02*
X14360857Y-9900815D01*
X14360857Y-9900815D02*
X14370381Y-9905577D01*
X14370381Y-9905577D02*
X14375143Y-9915101D01*
X14375143Y-9915101D02*
X14375143Y-9967482D01*
X14408476Y-9900815D02*
X14446571Y-9900815D01*
X14422762Y-9867482D02*
X14422762Y-9953196D01*
X14422762Y-9953196D02*
X14427524Y-9962720D01*
X14427524Y-9962720D02*
X14437048Y-9967482D01*
X14437048Y-9967482D02*
X14446571Y-9967482D01*
X14518000Y-9962720D02*
X14508476Y-9967482D01*
X14508476Y-9967482D02*
X14489429Y-9967482D01*
X14489429Y-9967482D02*
X14479905Y-9962720D01*
X14479905Y-9962720D02*
X14475143Y-9953196D01*
X14475143Y-9953196D02*
X14475143Y-9915101D01*
X14475143Y-9915101D02*
X14479905Y-9905577D01*
X14479905Y-9905577D02*
X14489429Y-9900815D01*
X14489429Y-9900815D02*
X14508476Y-9900815D01*
X14508476Y-9900815D02*
X14518000Y-9905577D01*
X14518000Y-9905577D02*
X14522762Y-9915101D01*
X14522762Y-9915101D02*
X14522762Y-9924625D01*
X14522762Y-9924625D02*
X14475143Y-9934149D01*
X14565619Y-9900815D02*
X14565619Y-9967482D01*
X14565619Y-9910339D02*
X14570381Y-9905577D01*
X14570381Y-9905577D02*
X14579905Y-9900815D01*
X14579905Y-9900815D02*
X14594190Y-9900815D01*
X14594190Y-9900815D02*
X14603714Y-9905577D01*
X14603714Y-9905577D02*
X14608476Y-9915101D01*
X14608476Y-9915101D02*
X14608476Y-9967482D01*
X14656095Y-9900815D02*
X14656095Y-9967482D01*
X14656095Y-9910339D02*
X14660857Y-9905577D01*
X14660857Y-9905577D02*
X14670381Y-9900815D01*
X14670381Y-9900815D02*
X14684667Y-9900815D01*
X14684667Y-9900815D02*
X14694190Y-9905577D01*
X14694190Y-9905577D02*
X14698952Y-9915101D01*
X14698952Y-9915101D02*
X14698952Y-9967482D01*
X14789429Y-9967482D02*
X14789429Y-9915101D01*
X14789429Y-9915101D02*
X14784667Y-9905577D01*
X14784667Y-9905577D02*
X14775143Y-9900815D01*
X14775143Y-9900815D02*
X14756095Y-9900815D01*
X14756095Y-9900815D02*
X14746571Y-9905577D01*
X14789429Y-9962720D02*
X14779905Y-9967482D01*
X14779905Y-9967482D02*
X14756095Y-9967482D01*
X14756095Y-9967482D02*
X14746571Y-9962720D01*
X14746571Y-9962720D02*
X14741810Y-9953196D01*
X14741810Y-9953196D02*
X14741810Y-9943672D01*
X14741810Y-9943672D02*
X14746571Y-9934149D01*
X14746571Y-9934149D02*
X14756095Y-9929387D01*
X14756095Y-9929387D02*
X14779905Y-9929387D01*
X14779905Y-9929387D02*
X14789429Y-9924625D01*
X13308714Y-9065744D02*
X13308714Y-8865744D01*
X13423000Y-9065744D02*
X13337286Y-8951458D01*
X13423000Y-8865744D02*
X13308714Y-8980030D01*
X13508714Y-8960982D02*
X13575381Y-8960982D01*
X13603952Y-9065744D02*
X13508714Y-9065744D01*
X13508714Y-9065744D02*
X13508714Y-8865744D01*
X13508714Y-8865744D02*
X13603952Y-8865744D01*
X13689667Y-8960982D02*
X13756333Y-8960982D01*
X13784905Y-9065744D02*
X13689667Y-9065744D01*
X13689667Y-9065744D02*
X13689667Y-8865744D01*
X13689667Y-8865744D02*
X13784905Y-8865744D01*
X13870619Y-9065744D02*
X13870619Y-8865744D01*
X13870619Y-8865744D02*
X13946809Y-8865744D01*
X13946809Y-8865744D02*
X13965857Y-8875268D01*
X13965857Y-8875268D02*
X13975381Y-8884791D01*
X13975381Y-8884791D02*
X13984905Y-8903839D01*
X13984905Y-8903839D02*
X13984905Y-8932410D01*
X13984905Y-8932410D02*
X13975381Y-8951458D01*
X13975381Y-8951458D02*
X13965857Y-8960982D01*
X13965857Y-8960982D02*
X13946809Y-8970506D01*
X13946809Y-8970506D02*
X13870619Y-8970506D01*
X14070619Y-8989553D02*
X14223000Y-8989553D01*
X14356333Y-8865744D02*
X14394428Y-8865744D01*
X14394428Y-8865744D02*
X14413476Y-8875268D01*
X14413476Y-8875268D02*
X14432524Y-8894315D01*
X14432524Y-8894315D02*
X14442047Y-8932410D01*
X14442047Y-8932410D02*
X14442047Y-8999077D01*
X14442047Y-8999077D02*
X14432524Y-9037172D01*
X14432524Y-9037172D02*
X14413476Y-9056220D01*
X14413476Y-9056220D02*
X14394428Y-9065744D01*
X14394428Y-9065744D02*
X14356333Y-9065744D01*
X14356333Y-9065744D02*
X14337286Y-9056220D01*
X14337286Y-9056220D02*
X14318238Y-9037172D01*
X14318238Y-9037172D02*
X14308714Y-8999077D01*
X14308714Y-8999077D02*
X14308714Y-8932410D01*
X14308714Y-8932410D02*
X14318238Y-8894315D01*
X14318238Y-8894315D02*
X14337286Y-8875268D01*
X14337286Y-8875268D02*
X14356333Y-8865744D01*
X14527762Y-8865744D02*
X14527762Y-9027649D01*
X14527762Y-9027649D02*
X14537286Y-9046696D01*
X14537286Y-9046696D02*
X14546809Y-9056220D01*
X14546809Y-9056220D02*
X14565857Y-9065744D01*
X14565857Y-9065744D02*
X14603952Y-9065744D01*
X14603952Y-9065744D02*
X14623000Y-9056220D01*
X14623000Y-9056220D02*
X14632524Y-9046696D01*
X14632524Y-9046696D02*
X14642047Y-9027649D01*
X14642047Y-9027649D02*
X14642047Y-8865744D01*
X14708714Y-8865744D02*
X14823000Y-8865744D01*
X14765857Y-9065744D02*
X14765857Y-8865744D01*
X15023000Y-8865744D02*
X15156333Y-8865744D01*
X15156333Y-8865744D02*
X15023000Y-9065744D01*
X15023000Y-9065744D02*
X15156333Y-9065744D01*
X15270619Y-8865744D02*
X15308714Y-8865744D01*
X15308714Y-8865744D02*
X15327762Y-8875268D01*
X15327762Y-8875268D02*
X15346809Y-8894315D01*
X15346809Y-8894315D02*
X15356333Y-8932410D01*
X15356333Y-8932410D02*
X15356333Y-8999077D01*
X15356333Y-8999077D02*
X15346809Y-9037172D01*
X15346809Y-9037172D02*
X15327762Y-9056220D01*
X15327762Y-9056220D02*
X15308714Y-9065744D01*
X15308714Y-9065744D02*
X15270619Y-9065744D01*
X15270619Y-9065744D02*
X15251571Y-9056220D01*
X15251571Y-9056220D02*
X15232524Y-9037172D01*
X15232524Y-9037172D02*
X15223000Y-8999077D01*
X15223000Y-8999077D02*
X15223000Y-8932410D01*
X15223000Y-8932410D02*
X15232524Y-8894315D01*
X15232524Y-8894315D02*
X15251571Y-8875268D01*
X15251571Y-8875268D02*
X15270619Y-8865744D01*
X15442048Y-9065744D02*
X15442048Y-8865744D01*
X15442048Y-8865744D02*
X15556333Y-9065744D01*
X15556333Y-9065744D02*
X15556333Y-8865744D01*
X15651571Y-8960982D02*
X15718238Y-8960982D01*
X15746809Y-9065744D02*
X15651571Y-9065744D01*
X15651571Y-9065744D02*
X15651571Y-8865744D01*
X15651571Y-8865744D02*
X15746809Y-8865744D01*
%TO.C,H4*%
X15670000Y-9440000D02*
G75*
G02*
X15270000Y-9440000I-200000J0D01*
G01*
X15270000Y-9440000D02*
G75*
G02*
X15670000Y-9440000I200000J0D01*
G01*
%TO.C,H3*%
X15670000Y-12640000D02*
G75*
G02*
X15270000Y-12640000I-200000J0D01*
G01*
X15270000Y-12640000D02*
G75*
G02*
X15670000Y-12640000I200000J0D01*
G01*
%TO.C,H2*%
X13170000Y-12640000D02*
G75*
G02*
X12770000Y-12640000I-200000J0D01*
G01*
X12770000Y-12640000D02*
G75*
G02*
X13170000Y-12640000I200000J0D01*
G01*
%TO.C,H1*%
X13170000Y-9440000D02*
G75*
G02*
X12770000Y-9440000I-200000J0D01*
G01*
X12770000Y-9440000D02*
G75*
G02*
X13170000Y-9440000I200000J0D01*
G01*
%TD*%
M02*
