%TF.GenerationSoftware,KiCad,Pcbnew,9.0.7*%
%TF.CreationDate,2026-04-29T04:09:03+05:30*%
%TF.ProjectId,SmartWatch_MT2025513,536d6172-7457-4617-9463-685f4d543230,rev?*%
%TF.SameCoordinates,Original*%
%TF.FileFunction,Legend,Top*%
%TF.FilePolarity,Positive*%
%FSLAX45Y45*%
G04 Gerber Fmt 4.5, Leading zero omitted, Abs format (unit mm)*
G04 Created by KiCad (PCBNEW 9.0.7) date 2026-04-29 04:09:03*
%MOMM*%
%LPD*%
G01*
G04 APERTURE LIST*
%ADD10C,0.100000*%
%ADD11C,0.127000*%
%ADD12C,0.200000*%
%ADD13C,0.120000*%
G04 APERTURE END LIST*
D10*
X15617680Y-10834952D02*
X15621489Y-10823524D01*
X15621489Y-10823524D02*
X15621489Y-10804476D01*
X15621489Y-10804476D02*
X15617680Y-10796857D01*
X15617680Y-10796857D02*
X15613870Y-10793048D01*
X15613870Y-10793048D02*
X15606251Y-10789238D01*
X15606251Y-10789238D02*
X15598632Y-10789238D01*
X15598632Y-10789238D02*
X15591013Y-10793048D01*
X15591013Y-10793048D02*
X15587204Y-10796857D01*
X15587204Y-10796857D02*
X15583394Y-10804476D01*
X15583394Y-10804476D02*
X15579585Y-10819714D01*
X15579585Y-10819714D02*
X15575775Y-10827333D01*
X15575775Y-10827333D02*
X15571966Y-10831143D01*
X15571966Y-10831143D02*
X15564347Y-10834952D01*
X15564347Y-10834952D02*
X15556728Y-10834952D01*
X15556728Y-10834952D02*
X15549108Y-10831143D01*
X15549108Y-10831143D02*
X15545299Y-10827333D01*
X15545299Y-10827333D02*
X15541489Y-10819714D01*
X15541489Y-10819714D02*
X15541489Y-10800667D01*
X15541489Y-10800667D02*
X15545299Y-10789238D01*
X15621489Y-10713048D02*
X15621489Y-10758762D01*
X15621489Y-10735905D02*
X15541489Y-10735905D01*
X15541489Y-10735905D02*
X15552918Y-10743524D01*
X15552918Y-10743524D02*
X15560537Y-10751143D01*
X15560537Y-10751143D02*
X15564347Y-10758762D01*
X13912048Y-12220489D02*
X13912048Y-12285251D01*
X13912048Y-12285251D02*
X13915857Y-12292870D01*
X13915857Y-12292870D02*
X13919667Y-12296680D01*
X13919667Y-12296680D02*
X13927286Y-12300489D01*
X13927286Y-12300489D02*
X13942524Y-12300489D01*
X13942524Y-12300489D02*
X13950143Y-12296680D01*
X13950143Y-12296680D02*
X13953952Y-12292870D01*
X13953952Y-12292870D02*
X13957762Y-12285251D01*
X13957762Y-12285251D02*
X13957762Y-12220489D01*
X14037762Y-12300489D02*
X13992047Y-12300489D01*
X14014905Y-12300489D02*
X14014905Y-12220489D01*
X14014905Y-12220489D02*
X14007286Y-12231918D01*
X14007286Y-12231918D02*
X13999667Y-12239537D01*
X13999667Y-12239537D02*
X13992047Y-12243347D01*
X15077238Y-12306489D02*
X15077238Y-12226489D01*
X15077238Y-12226489D02*
X15103905Y-12283632D01*
X15103905Y-12283632D02*
X15130571Y-12226489D01*
X15130571Y-12226489D02*
X15130571Y-12306489D01*
X15168667Y-12306489D02*
X15168667Y-12226489D01*
X15214381Y-12306489D02*
X15180095Y-12260775D01*
X15214381Y-12226489D02*
X15168667Y-12272204D01*
X15290571Y-12306489D02*
X15244857Y-12306489D01*
X15267714Y-12306489D02*
X15267714Y-12226489D01*
X15267714Y-12226489D02*
X15260095Y-12237918D01*
X15260095Y-12237918D02*
X15252476Y-12245537D01*
X15252476Y-12245537D02*
X15244857Y-12249347D01*
X13374333Y-11360489D02*
X13374333Y-11417632D01*
X13374333Y-11417632D02*
X13370524Y-11429061D01*
X13370524Y-11429061D02*
X13362905Y-11436680D01*
X13362905Y-11436680D02*
X13351476Y-11440489D01*
X13351476Y-11440489D02*
X13343857Y-11440489D01*
X13454333Y-11440489D02*
X13408619Y-11440489D01*
X13431476Y-11440489D02*
X13431476Y-11360489D01*
X13431476Y-11360489D02*
X13423857Y-11371918D01*
X13423857Y-11371918D02*
X13416238Y-11379537D01*
X13416238Y-11379537D02*
X13408619Y-11383347D01*
X12620680Y-10709667D02*
X12624489Y-10698238D01*
X12624489Y-10698238D02*
X12624489Y-10679191D01*
X12624489Y-10679191D02*
X12620680Y-10671571D01*
X12620680Y-10671571D02*
X12616870Y-10667762D01*
X12616870Y-10667762D02*
X12609251Y-10663952D01*
X12609251Y-10663952D02*
X12601632Y-10663952D01*
X12601632Y-10663952D02*
X12594013Y-10667762D01*
X12594013Y-10667762D02*
X12590204Y-10671571D01*
X12590204Y-10671571D02*
X12586394Y-10679191D01*
X12586394Y-10679191D02*
X12582585Y-10694429D01*
X12582585Y-10694429D02*
X12578775Y-10702048D01*
X12578775Y-10702048D02*
X12574966Y-10705857D01*
X12574966Y-10705857D02*
X12567347Y-10709667D01*
X12567347Y-10709667D02*
X12559728Y-10709667D01*
X12559728Y-10709667D02*
X12552108Y-10705857D01*
X12552108Y-10705857D02*
X12548299Y-10702048D01*
X12548299Y-10702048D02*
X12544489Y-10694429D01*
X12544489Y-10694429D02*
X12544489Y-10675381D01*
X12544489Y-10675381D02*
X12548299Y-10663952D01*
X12544489Y-10637286D02*
X12624489Y-10618238D01*
X12624489Y-10618238D02*
X12567347Y-10603000D01*
X12567347Y-10603000D02*
X12624489Y-10587762D01*
X12624489Y-10587762D02*
X12544489Y-10568714D01*
X12624489Y-10496333D02*
X12624489Y-10542048D01*
X12624489Y-10519190D02*
X12544489Y-10519190D01*
X12544489Y-10519190D02*
X12555918Y-10526810D01*
X12555918Y-10526810D02*
X12563537Y-10534429D01*
X12563537Y-10534429D02*
X12567347Y-10542048D01*
X15600952Y-11366489D02*
X15646667Y-11366489D01*
X15623809Y-11446489D02*
X15623809Y-11366489D01*
X15665714Y-11366489D02*
X15719048Y-11446489D01*
X15719048Y-11366489D02*
X15665714Y-11446489D01*
X15791428Y-11446489D02*
X15745714Y-11446489D01*
X15768571Y-11446489D02*
X15768571Y-11366489D01*
X15768571Y-11366489D02*
X15760952Y-11377918D01*
X15760952Y-11377918D02*
X15753333Y-11385537D01*
X15753333Y-11385537D02*
X15745714Y-11389347D01*
X15508905Y-12248299D02*
X15501286Y-12244489D01*
X15501286Y-12244489D02*
X15489857Y-12244489D01*
X15489857Y-12244489D02*
X15478428Y-12248299D01*
X15478428Y-12248299D02*
X15470809Y-12255918D01*
X15470809Y-12255918D02*
X15467000Y-12263537D01*
X15467000Y-12263537D02*
X15463190Y-12278775D01*
X15463190Y-12278775D02*
X15463190Y-12290204D01*
X15463190Y-12290204D02*
X15467000Y-12305442D01*
X15467000Y-12305442D02*
X15470809Y-12313061D01*
X15470809Y-12313061D02*
X15478428Y-12320680D01*
X15478428Y-12320680D02*
X15489857Y-12324489D01*
X15489857Y-12324489D02*
X15497476Y-12324489D01*
X15497476Y-12324489D02*
X15508905Y-12320680D01*
X15508905Y-12320680D02*
X15512714Y-12316870D01*
X15512714Y-12316870D02*
X15512714Y-12290204D01*
X15512714Y-12290204D02*
X15497476Y-12290204D01*
X15547000Y-12324489D02*
X15547000Y-12244489D01*
X15547000Y-12244489D02*
X15577476Y-12244489D01*
X15577476Y-12244489D02*
X15585095Y-12248299D01*
X15585095Y-12248299D02*
X15588905Y-12252108D01*
X15588905Y-12252108D02*
X15592714Y-12259728D01*
X15592714Y-12259728D02*
X15592714Y-12271156D01*
X15592714Y-12271156D02*
X15588905Y-12278775D01*
X15588905Y-12278775D02*
X15585095Y-12282585D01*
X15585095Y-12282585D02*
X15577476Y-12286394D01*
X15577476Y-12286394D02*
X15547000Y-12286394D01*
X15627000Y-12324489D02*
X15627000Y-12244489D01*
X15680333Y-12244489D02*
X15695571Y-12244489D01*
X15695571Y-12244489D02*
X15703190Y-12248299D01*
X15703190Y-12248299D02*
X15710809Y-12255918D01*
X15710809Y-12255918D02*
X15714619Y-12271156D01*
X15714619Y-12271156D02*
X15714619Y-12297823D01*
X15714619Y-12297823D02*
X15710809Y-12313061D01*
X15710809Y-12313061D02*
X15703190Y-12320680D01*
X15703190Y-12320680D02*
X15695571Y-12324489D01*
X15695571Y-12324489D02*
X15680333Y-12324489D01*
X15680333Y-12324489D02*
X15672714Y-12320680D01*
X15672714Y-12320680D02*
X15665095Y-12313061D01*
X15665095Y-12313061D02*
X15661286Y-12297823D01*
X15661286Y-12297823D02*
X15661286Y-12271156D01*
X15661286Y-12271156D02*
X15665095Y-12255918D01*
X15665095Y-12255918D02*
X15672714Y-12248299D01*
X15672714Y-12248299D02*
X15680333Y-12244489D01*
X15790809Y-12324489D02*
X15745095Y-12324489D01*
X15767952Y-12324489D02*
X15767952Y-12244489D01*
X15767952Y-12244489D02*
X15760333Y-12255918D01*
X15760333Y-12255918D02*
X15752714Y-12263537D01*
X15752714Y-12263537D02*
X15745095Y-12267347D01*
X15641571Y-11664489D02*
X15614905Y-11626394D01*
X15595857Y-11664489D02*
X15595857Y-11584489D01*
X15595857Y-11584489D02*
X15626333Y-11584489D01*
X15626333Y-11584489D02*
X15633952Y-11588299D01*
X15633952Y-11588299D02*
X15637762Y-11592108D01*
X15637762Y-11592108D02*
X15641571Y-11599728D01*
X15641571Y-11599728D02*
X15641571Y-11611156D01*
X15641571Y-11611156D02*
X15637762Y-11618775D01*
X15637762Y-11618775D02*
X15633952Y-11622585D01*
X15633952Y-11622585D02*
X15626333Y-11626394D01*
X15626333Y-11626394D02*
X15595857Y-11626394D01*
X15668238Y-11584489D02*
X15721571Y-11664489D01*
X15721571Y-11584489D02*
X15668238Y-11664489D01*
X15793952Y-11664489D02*
X15748238Y-11664489D01*
X15771095Y-11664489D02*
X15771095Y-11584489D01*
X15771095Y-11584489D02*
X15763476Y-11595918D01*
X15763476Y-11595918D02*
X15755857Y-11603537D01*
X15755857Y-11603537D02*
X15748238Y-11607347D01*
X12621680Y-11272667D02*
X12625489Y-11261238D01*
X12625489Y-11261238D02*
X12625489Y-11242190D01*
X12625489Y-11242190D02*
X12621680Y-11234571D01*
X12621680Y-11234571D02*
X12617870Y-11230762D01*
X12617870Y-11230762D02*
X12610251Y-11226952D01*
X12610251Y-11226952D02*
X12602632Y-11226952D01*
X12602632Y-11226952D02*
X12595013Y-11230762D01*
X12595013Y-11230762D02*
X12591204Y-11234571D01*
X12591204Y-11234571D02*
X12587394Y-11242190D01*
X12587394Y-11242190D02*
X12583585Y-11257429D01*
X12583585Y-11257429D02*
X12579775Y-11265048D01*
X12579775Y-11265048D02*
X12575966Y-11268857D01*
X12575966Y-11268857D02*
X12568347Y-11272667D01*
X12568347Y-11272667D02*
X12560728Y-11272667D01*
X12560728Y-11272667D02*
X12553108Y-11268857D01*
X12553108Y-11268857D02*
X12549299Y-11265048D01*
X12549299Y-11265048D02*
X12545489Y-11257429D01*
X12545489Y-11257429D02*
X12545489Y-11238381D01*
X12545489Y-11238381D02*
X12549299Y-11226952D01*
X12545489Y-11200286D02*
X12625489Y-11181238D01*
X12625489Y-11181238D02*
X12568347Y-11166000D01*
X12568347Y-11166000D02*
X12625489Y-11150762D01*
X12625489Y-11150762D02*
X12545489Y-11131714D01*
X12553108Y-11105048D02*
X12549299Y-11101238D01*
X12549299Y-11101238D02*
X12545489Y-11093619D01*
X12545489Y-11093619D02*
X12545489Y-11074571D01*
X12545489Y-11074571D02*
X12549299Y-11066952D01*
X12549299Y-11066952D02*
X12553108Y-11063143D01*
X12553108Y-11063143D02*
X12560728Y-11059333D01*
X12560728Y-11059333D02*
X12568347Y-11059333D01*
X12568347Y-11059333D02*
X12579775Y-11063143D01*
X12579775Y-11063143D02*
X12625489Y-11108857D01*
X12625489Y-11108857D02*
X12625489Y-11059333D01*
X15594857Y-12064585D02*
X15621524Y-12064585D01*
X15632952Y-12106489D02*
X15594857Y-12106489D01*
X15594857Y-12106489D02*
X15594857Y-12026489D01*
X15594857Y-12026489D02*
X15632952Y-12026489D01*
X15667238Y-12106489D02*
X15667238Y-12026489D01*
X15667238Y-12026489D02*
X15712952Y-12106489D01*
X15712952Y-12106489D02*
X15712952Y-12026489D01*
X15792952Y-12106489D02*
X15747238Y-12106489D01*
X15770095Y-12106489D02*
X15770095Y-12026489D01*
X15770095Y-12026489D02*
X15762476Y-12037918D01*
X15762476Y-12037918D02*
X15754857Y-12045537D01*
X15754857Y-12045537D02*
X15747238Y-12049347D01*
X15509238Y-11804489D02*
X15535905Y-11884489D01*
X15535905Y-11884489D02*
X15562571Y-11804489D01*
X15589238Y-11884489D02*
X15589238Y-11804489D01*
X15589238Y-11804489D02*
X15608286Y-11804489D01*
X15608286Y-11804489D02*
X15619714Y-11808299D01*
X15619714Y-11808299D02*
X15627333Y-11815918D01*
X15627333Y-11815918D02*
X15631143Y-11823537D01*
X15631143Y-11823537D02*
X15634952Y-11838775D01*
X15634952Y-11838775D02*
X15634952Y-11850204D01*
X15634952Y-11850204D02*
X15631143Y-11865442D01*
X15631143Y-11865442D02*
X15627333Y-11873061D01*
X15627333Y-11873061D02*
X15619714Y-11880680D01*
X15619714Y-11880680D02*
X15608286Y-11884489D01*
X15608286Y-11884489D02*
X15589238Y-11884489D01*
X15669238Y-11884489D02*
X15669238Y-11804489D01*
X15669238Y-11804489D02*
X15688286Y-11804489D01*
X15688286Y-11804489D02*
X15699714Y-11808299D01*
X15699714Y-11808299D02*
X15707333Y-11815918D01*
X15707333Y-11815918D02*
X15711143Y-11823537D01*
X15711143Y-11823537D02*
X15714952Y-11838775D01*
X15714952Y-11838775D02*
X15714952Y-11850204D01*
X15714952Y-11850204D02*
X15711143Y-11865442D01*
X15711143Y-11865442D02*
X15707333Y-11873061D01*
X15707333Y-11873061D02*
X15699714Y-11880680D01*
X15699714Y-11880680D02*
X15688286Y-11884489D01*
X15688286Y-11884489D02*
X15669238Y-11884489D01*
X15791143Y-11884489D02*
X15745428Y-11884489D01*
X15768286Y-11884489D02*
X15768286Y-11804489D01*
X15768286Y-11804489D02*
X15760667Y-11815918D01*
X15760667Y-11815918D02*
X15753048Y-11823537D01*
X15753048Y-11823537D02*
X15745428Y-11827347D01*
X15551952Y-11146299D02*
X15544333Y-11142490D01*
X15544333Y-11142490D02*
X15532905Y-11142490D01*
X15532905Y-11142490D02*
X15521476Y-11146299D01*
X15521476Y-11146299D02*
X15513857Y-11153918D01*
X15513857Y-11153918D02*
X15510048Y-11161537D01*
X15510048Y-11161537D02*
X15506238Y-11176775D01*
X15506238Y-11176775D02*
X15506238Y-11188204D01*
X15506238Y-11188204D02*
X15510048Y-11203442D01*
X15510048Y-11203442D02*
X15513857Y-11211061D01*
X15513857Y-11211061D02*
X15521476Y-11218680D01*
X15521476Y-11218680D02*
X15532905Y-11222489D01*
X15532905Y-11222489D02*
X15540524Y-11222489D01*
X15540524Y-11222489D02*
X15551952Y-11218680D01*
X15551952Y-11218680D02*
X15555762Y-11214870D01*
X15555762Y-11214870D02*
X15555762Y-11188204D01*
X15555762Y-11188204D02*
X15540524Y-11188204D01*
X15590048Y-11222489D02*
X15590048Y-11142490D01*
X15590048Y-11142490D02*
X15635762Y-11222489D01*
X15635762Y-11222489D02*
X15635762Y-11142490D01*
X15673857Y-11222489D02*
X15673857Y-11142490D01*
X15673857Y-11142490D02*
X15692905Y-11142490D01*
X15692905Y-11142490D02*
X15704333Y-11146299D01*
X15704333Y-11146299D02*
X15711952Y-11153918D01*
X15711952Y-11153918D02*
X15715762Y-11161537D01*
X15715762Y-11161537D02*
X15719571Y-11176775D01*
X15719571Y-11176775D02*
X15719571Y-11188204D01*
X15719571Y-11188204D02*
X15715762Y-11203442D01*
X15715762Y-11203442D02*
X15711952Y-11211061D01*
X15711952Y-11211061D02*
X15704333Y-11218680D01*
X15704333Y-11218680D02*
X15692905Y-11222489D01*
X15692905Y-11222489D02*
X15673857Y-11222489D01*
X15795762Y-11222489D02*
X15750047Y-11222489D01*
X15772905Y-11222489D02*
X15772905Y-11142490D01*
X15772905Y-11142490D02*
X15765286Y-11153918D01*
X15765286Y-11153918D02*
X15757667Y-11161537D01*
X15757667Y-11161537D02*
X15750047Y-11165347D01*
D11*
%TO.C,S1*%
X15963250Y-10782000D02*
X15897750Y-10782000D01*
X15897750Y-10302000D02*
X15963250Y-10302000D01*
D12*
X15618250Y-10666500D02*
G75*
G02*
X15598250Y-10666500I-10000J0D01*
G01*
X15598250Y-10666500D02*
G75*
G02*
X15618250Y-10666500I10000J0D01*
G01*
D13*
%TO.C,U1*%
X13603000Y-10263500D02*
X13553000Y-10263500D01*
X13603000Y-10213500D01*
X13603000Y-10263500D01*
G36*
X13603000Y-10263500D02*
G01*
X13553000Y-10263500D01*
X13603000Y-10213500D01*
X13603000Y-10263500D01*
G37*
X15443000Y-12161000D02*
X15443000Y-12061000D01*
X15443000Y-12161000D02*
X15293000Y-12161000D01*
X15443000Y-9576000D02*
X15443000Y-10196000D01*
X13603000Y-12161000D02*
X13753000Y-12161000D01*
X13603000Y-12061000D02*
X13603000Y-12161000D01*
X13603000Y-9576000D02*
X15443000Y-9576000D01*
X13603000Y-9576000D02*
X13603000Y-10196000D01*
D12*
%TO.C,MK1*%
X14908000Y-12662000D02*
G75*
G02*
X14888000Y-12662000I-10000J0D01*
G01*
X14888000Y-12662000D02*
G75*
G02*
X14908000Y-12662000I10000J0D01*
G01*
D11*
X15037700Y-12609500D02*
X15134700Y-12609500D01*
X15037700Y-12344500D02*
X15134700Y-12344500D01*
D13*
%TO.C,J1*%
X12847500Y-12345000D02*
X13017500Y-12345000D01*
X12847500Y-11411000D02*
X13017500Y-11411000D01*
D12*
%TO.C,SW1*%
X12779000Y-10230000D02*
G75*
G02*
X12779000Y-10210000I0J10000D01*
G01*
X12779000Y-10210000D02*
G75*
G02*
X12779000Y-10230000I0J-10000D01*
G01*
D10*
X13359000Y-10440000D02*
X13359000Y-10540000D01*
X12949000Y-10750000D02*
X13249000Y-10750000D01*
X12949000Y-10230000D02*
X13249000Y-10230000D01*
X12839000Y-10440000D02*
X12839000Y-10540000D01*
D13*
%TO.C,TX1*%
X15898000Y-11522000D02*
G75*
G02*
X15758000Y-11522000I-70000J0D01*
G01*
X15758000Y-11522000D02*
G75*
G02*
X15898000Y-11522000I70000J0D01*
G01*
%TO.C,R19*%
X14743000Y-12520238D02*
X14743000Y-12553762D01*
X14819000Y-12520238D02*
X14819000Y-12553762D01*
%TO.C,C2*%
X12653000Y-11160417D02*
X12653000Y-11183584D01*
X12725000Y-11160417D02*
X12725000Y-11183584D01*
%TO.C,R1*%
X15694738Y-10870000D02*
X15728262Y-10870000D01*
X15694738Y-10946000D02*
X15728262Y-10946000D01*
%TO.C,GPIO1*%
X15898000Y-12402000D02*
G75*
G02*
X15758000Y-12402000I-70000J0D01*
G01*
X15758000Y-12402000D02*
G75*
G02*
X15898000Y-12402000I70000J0D01*
G01*
%TO.C,R4*%
X12648000Y-10399762D02*
X12648000Y-10366238D01*
X12724000Y-10399762D02*
X12724000Y-10366238D01*
%TO.C,R5*%
X13447762Y-11840000D02*
X13414238Y-11840000D01*
X13447762Y-11916000D02*
X13414238Y-11916000D01*
%TO.C,RX1*%
X15898000Y-11742000D02*
G75*
G02*
X15758000Y-11742000I-70000J0D01*
G01*
X15758000Y-11742000D02*
G75*
G02*
X15898000Y-11742000I70000J0D01*
G01*
%TO.C,R6*%
X13447762Y-11940000D02*
X13414238Y-11940000D01*
X13447762Y-12016000D02*
X13414238Y-12016000D01*
%TO.C,C12*%
X14943416Y-12232000D02*
X14966583Y-12232000D01*
X14943416Y-12304000D02*
X14966583Y-12304000D01*
%TO.C,R3*%
X12650000Y-10962762D02*
X12650000Y-10929238D01*
X12726000Y-10962762D02*
X12726000Y-10929238D01*
D10*
%TO.C,SW2*%
X12839000Y-10994000D02*
X12839000Y-11094000D01*
X12949000Y-10784000D02*
X13249000Y-10784000D01*
X12949000Y-11304000D02*
X13249000Y-11304000D01*
X13359000Y-10994000D02*
X13359000Y-11094000D01*
D12*
X12779000Y-10764000D02*
G75*
G02*
X12779000Y-10784000I0J-10000D01*
G01*
X12779000Y-10784000D02*
G75*
G02*
X12779000Y-10764000I0J10000D01*
G01*
D13*
%TO.C,EN1*%
X15898000Y-12182000D02*
G75*
G02*
X15758000Y-12182000I-70000J0D01*
G01*
X15758000Y-12182000D02*
G75*
G02*
X15898000Y-12182000I70000J0D01*
G01*
%TO.C,D1*%
X15685000Y-11107500D02*
X15931000Y-11107500D01*
X15931000Y-10960500D02*
X15685000Y-10960500D01*
X15931000Y-11107500D02*
X15931000Y-10960500D01*
%TO.C,R2*%
X15554000Y-10324762D02*
X15554000Y-10291238D01*
X15630000Y-10324762D02*
X15630000Y-10291238D01*
%TO.C,C3*%
X15557000Y-10545584D02*
X15557000Y-10522417D01*
X15629000Y-10545584D02*
X15629000Y-10522417D01*
%TO.C,R7*%
X13414238Y-12040000D02*
X13447762Y-12040000D01*
X13414238Y-12116000D02*
X13447762Y-12116000D01*
%TO.C,VDD1*%
X15898000Y-11962000D02*
G75*
G02*
X15758000Y-11962000I-70000J0D01*
G01*
X15758000Y-11962000D02*
G75*
G02*
X15898000Y-11962000I70000J0D01*
G01*
%TO.C,R8*%
X13414238Y-11715000D02*
X13447762Y-11715000D01*
X13414238Y-11791000D02*
X13447762Y-11791000D01*
%TO.C,GND1*%
X15898000Y-11302000D02*
G75*
G02*
X15758000Y-11302000I-70000J0D01*
G01*
X15758000Y-11302000D02*
G75*
G02*
X15898000Y-11302000I70000J0D01*
G01*
%TO.C,C1*%
X12650000Y-10597417D02*
X12650000Y-10620584D01*
X12722000Y-10597417D02*
X12722000Y-10620584D01*
%TD*%
M02*
