%TF.GenerationSoftware,KiCad,Pcbnew,9.0.7*%
%TF.CreationDate,2026-04-29T04:09:03+05:30*%
%TF.ProjectId,SmartWatch_MT2025513,536d6172-7457-4617-9463-685f4d543230,rev?*%
%TF.SameCoordinates,Original*%
%TF.FileFunction,Paste,Bot*%
%TF.FilePolarity,Positive*%
%FSLAX45Y45*%
G04 Gerber Fmt 4.5, Leading zero omitted, Abs format (unit mm)*
G04 Created by KiCad (PCBNEW 9.0.7) date 2026-04-29 04:09:03*
%MOMM*%
%LPD*%
G01*
G04 APERTURE LIST*
G04 Aperture macros list*
%AMRoundRect*
0 Rectangle with rounded corners*
0 $1 Rounding radius*
0 $2 $3 $4 $5 $6 $7 $8 $9 X,Y pos of 4 corners*
0 Add a 4 corners polygon primitive as box body*
4,1,4,$2,$3,$4,$5,$6,$7,$8,$9,$2,$3,0*
0 Add four circle primitives for the rounded corners*
1,1,$1+$1,$2,$3*
1,1,$1+$1,$4,$5*
1,1,$1+$1,$6,$7*
1,1,$1+$1,$8,$9*
0 Add four rect primitives between the rounded corners*
20,1,$1+$1,$2,$3,$4,$5,0*
20,1,$1+$1,$4,$5,$6,$7,0*
20,1,$1+$1,$6,$7,$8,$9,0*
20,1,$1+$1,$8,$9,$2,$3,0*%
G04 Aperture macros list end*
%ADD10RoundRect,0.155000X-0.155000X0.212500X-0.155000X-0.212500X0.155000X-0.212500X0.155000X0.212500X0*%
%ADD11RoundRect,0.060000X0.240000X0.060000X-0.240000X0.060000X-0.240000X-0.060000X0.240000X-0.060000X0*%
%ADD12RoundRect,0.025000X0.100000X0.145000X-0.100000X0.145000X-0.100000X-0.145000X0.100000X-0.145000X0*%
%ADD13RoundRect,0.106000X0.644000X0.424000X-0.644000X0.424000X-0.644000X-0.424000X0.644000X-0.424000X0*%
%ADD14R,1.700000X0.600000*%
%ADD15R,2.700000X1.000000*%
%ADD16RoundRect,0.160000X0.197500X0.160000X-0.197500X0.160000X-0.197500X-0.160000X0.197500X-0.160000X0*%
%ADD17RoundRect,0.155000X-0.212500X-0.155000X0.212500X-0.155000X0.212500X0.155000X-0.212500X0.155000X0*%
%ADD18RoundRect,0.155000X0.212500X0.155000X-0.212500X0.155000X-0.212500X-0.155000X0.212500X-0.155000X0*%
%ADD19RoundRect,0.160000X-0.160000X0.197500X-0.160000X-0.197500X0.160000X-0.197500X0.160000X0.197500X0*%
%ADD20RoundRect,0.250001X0.849999X-0.462499X0.849999X0.462499X-0.849999X0.462499X-0.849999X-0.462499X0*%
%ADD21RoundRect,0.160000X-0.197500X-0.160000X0.197500X-0.160000X0.197500X0.160000X-0.197500X0.160000X0*%
%ADD22RoundRect,0.218750X0.218750X0.256250X-0.218750X0.256250X-0.218750X-0.256250X0.218750X-0.256250X0*%
%ADD23R,0.250000X0.675000*%
%ADD24R,0.575000X0.250000*%
%ADD25RoundRect,0.160000X0.160000X-0.197500X0.160000X0.197500X-0.160000X0.197500X-0.160000X-0.197500X0*%
%ADD26R,1.100000X0.400000*%
%ADD27RoundRect,0.155000X0.155000X-0.212500X0.155000X0.212500X-0.155000X0.212500X-0.155000X-0.212500X0*%
%ADD28R,1.270000X0.558800*%
%ADD29R,0.800000X0.300000*%
%ADD30R,1.000000X0.400000*%
%ADD31R,1.320800X0.558800*%
%ADD32RoundRect,0.087500X0.287500X0.087500X-0.287500X0.087500X-0.287500X-0.087500X0.287500X-0.087500X0*%
G04 APERTURE END LIST*
D10*
%TO.C,C15*%
X14398000Y-11933750D03*
X14398000Y-11820250D03*
%TD*%
D11*
%TO.C,U7*%
X14194000Y-12222000D03*
X14194000Y-12272000D03*
X14194000Y-12322000D03*
X14194000Y-12372000D03*
X14194000Y-12422000D03*
X14474000Y-12422000D03*
X14474000Y-12372000D03*
X14474000Y-12322000D03*
X14474000Y-12272000D03*
X14474000Y-12222000D03*
D12*
X14309000Y-12169000D03*
X14309000Y-12475000D03*
D13*
X14334000Y-12259000D03*
X14334000Y-12385000D03*
D12*
X14359000Y-12169000D03*
X14359000Y-12475000D03*
%TD*%
D14*
%TO.C,J3*%
X12951500Y-10457500D03*
X12951500Y-10582500D03*
D15*
X12631500Y-10272500D03*
X12631500Y-10767500D03*
%TD*%
D16*
%TO.C,R16*%
X14873750Y-11720250D03*
X14754250Y-11720250D03*
%TD*%
D17*
%TO.C,C9*%
X15004250Y-11719250D03*
X15117750Y-11719250D03*
%TD*%
D18*
%TO.C,C18*%
X14080750Y-12412000D03*
X13967250Y-12412000D03*
%TD*%
%TO.C,C7*%
X13971750Y-11252000D03*
X13858250Y-11252000D03*
%TD*%
%TO.C,C5*%
X13971750Y-10953000D03*
X13858250Y-10953000D03*
%TD*%
%TO.C,C8*%
X13971750Y-11154000D03*
X13858250Y-11154000D03*
%TD*%
D19*
%TO.C,R20*%
X15374000Y-11622250D03*
X15374000Y-11741750D03*
%TD*%
D20*
%TO.C,L1*%
X14768000Y-12284000D03*
X14768000Y-12051500D03*
%TD*%
D21*
%TO.C,R23*%
X13962250Y-12511000D03*
X14081750Y-12511000D03*
%TD*%
D19*
%TO.C,R17*%
X14591000Y-11476500D03*
X14591000Y-11596000D03*
%TD*%
D22*
%TO.C,D2*%
X13830500Y-12089940D03*
X13673000Y-12089940D03*
%TD*%
D23*
%TO.C,U4*%
X15154000Y-11295750D03*
D24*
X15160250Y-11377000D03*
X15160250Y-11427000D03*
X15160250Y-11477000D03*
X15160250Y-11527000D03*
D23*
X15154000Y-11608250D03*
X15104000Y-11608250D03*
X15054000Y-11608250D03*
X15004000Y-11608250D03*
X14954000Y-11608250D03*
X14904000Y-11608250D03*
X14854000Y-11608250D03*
X14804000Y-11608250D03*
X14754000Y-11608250D03*
X14704000Y-11608250D03*
D24*
X14697750Y-11527000D03*
X14697750Y-11477000D03*
X14697750Y-11427000D03*
X14697750Y-11377000D03*
D23*
X14704000Y-11295750D03*
X14754000Y-11295750D03*
X14804000Y-11295750D03*
X14854000Y-11295750D03*
X14904000Y-11295750D03*
X14954000Y-11295750D03*
X15004000Y-11295750D03*
X15054000Y-11295750D03*
X15104000Y-11295750D03*
%TD*%
D25*
%TO.C,R15*%
X15267000Y-11477000D03*
X15267000Y-11357500D03*
%TD*%
D21*
%TO.C,R14*%
X13853250Y-10854000D03*
X13972750Y-10854000D03*
%TD*%
D19*
%TO.C,R18*%
X14591000Y-11248500D03*
X14591000Y-11368000D03*
%TD*%
D16*
%TO.C,R21*%
X13546500Y-12188940D03*
X13427000Y-12188940D03*
%TD*%
D26*
%TO.C,U2*%
X14519000Y-10771500D03*
X14519000Y-10706500D03*
X14519000Y-10641500D03*
X14519000Y-10576500D03*
X14949000Y-10576500D03*
X14949000Y-10641500D03*
X14949000Y-10706500D03*
X14949000Y-10771500D03*
%TD*%
D10*
%TO.C,C20*%
X14581000Y-12215250D03*
X14581000Y-12328750D03*
%TD*%
D27*
%TO.C,C14*%
X13857750Y-12505690D03*
X13857750Y-12392190D03*
%TD*%
D16*
%TO.C,R11*%
X15205750Y-10571000D03*
X15086250Y-10571000D03*
%TD*%
D28*
%TO.C,U5*%
X13733000Y-12309020D03*
X13733000Y-12403000D03*
X13733000Y-12496980D03*
X13473920Y-12496980D03*
X13473920Y-12309020D03*
%TD*%
D18*
%TO.C,C10*%
X15087750Y-11088250D03*
X14974250Y-11088250D03*
%TD*%
%TO.C,C11*%
X15087750Y-11185250D03*
X14974250Y-11185250D03*
%TD*%
D21*
%TO.C,R13*%
X14262500Y-10558500D03*
X14382000Y-10558500D03*
%TD*%
D16*
%TO.C,R9*%
X15206000Y-10869500D03*
X15086500Y-10869500D03*
%TD*%
D10*
%TO.C,C19*%
X14087000Y-12194250D03*
X14087000Y-12307750D03*
%TD*%
D17*
%TO.C,C13*%
X13474000Y-12585940D03*
X13587500Y-12585940D03*
%TD*%
D18*
%TO.C,C6*%
X13971750Y-11051000D03*
X13858250Y-11051000D03*
%TD*%
D16*
%TO.C,R22*%
X13852500Y-12220940D03*
X13733000Y-12220940D03*
%TD*%
D17*
%TO.C,C4*%
X15087250Y-10770500D03*
X15200750Y-10770500D03*
%TD*%
D29*
%TO.C,J2*%
X15522000Y-11042000D03*
X15522000Y-11092000D03*
X15522000Y-11142000D03*
X15522000Y-11192000D03*
X15522000Y-11242000D03*
X15522000Y-11292000D03*
X15522000Y-11342000D03*
X15522000Y-11392000D03*
X15522000Y-11442000D03*
X15522000Y-11492000D03*
X15522000Y-11542000D03*
X15522000Y-11592000D03*
X15522000Y-11642000D03*
X15522000Y-11692000D03*
X15522000Y-11742000D03*
X15522000Y-11792000D03*
X15522000Y-11842000D03*
X15522000Y-11892000D03*
X15522000Y-10992000D03*
X15522000Y-11942000D03*
D30*
X15752000Y-10909500D03*
X15752000Y-12024500D03*
%TD*%
D21*
%TO.C,R12*%
X14262500Y-10658000D03*
X14382000Y-10658000D03*
%TD*%
D16*
%TO.C,R10*%
X15206000Y-10671500D03*
X15086500Y-10671500D03*
%TD*%
D17*
%TO.C,C17*%
X14587250Y-12438000D03*
X14700750Y-12438000D03*
%TD*%
D31*
%TO.C,U6*%
X14249760Y-11829000D03*
X14249760Y-11924000D03*
X14249760Y-12019000D03*
X14011000Y-12019000D03*
X14011000Y-11829000D03*
%TD*%
D32*
%TO.C,U3*%
X14340000Y-10800000D03*
X14340000Y-10880000D03*
X14340000Y-10960000D03*
X14340000Y-11040000D03*
X14340000Y-11120000D03*
X14340000Y-11200000D03*
X14340000Y-11280000D03*
X14100000Y-11280000D03*
X14100000Y-11200000D03*
X14100000Y-11120000D03*
X14100000Y-11040000D03*
X14100000Y-10960000D03*
X14100000Y-10880000D03*
X14100000Y-10800000D03*
%TD*%
D17*
%TO.C,C16*%
X14074250Y-11692000D03*
X14187750Y-11692000D03*
%TD*%
M02*
