%TF.GenerationSoftware,KiCad,Pcbnew,9.0.7*%
%TF.CreationDate,2026-04-29T04:09:03+05:30*%
%TF.ProjectId,SmartWatch_MT2025513,536d6172-7457-4617-9463-685f4d543230,rev?*%
%TF.SameCoordinates,Original*%
%TF.FileFunction,Copper,L1,Top*%
%TF.FilePolarity,Positive*%
%FSLAX45Y45*%
G04 Gerber Fmt 4.5, Leading zero omitted, Abs format (unit mm)*
G04 Created by KiCad (PCBNEW 9.0.7) date 2026-04-29 04:09:03*
%MOMM*%
%LPD*%
G01*
G04 APERTURE LIST*
G04 Aperture macros list*
%AMRoundRect*
0 Rectangle with rounded corners*
0 $1 Rounding radius*
0 $2 $3 $4 $5 $6 $7 $8 $9 X,Y pos of 4 corners*
0 Add a 4 corners polygon primitive as box body*
4,1,4,$2,$3,$4,$5,$6,$7,$8,$9,$2,$3,0*
0 Add four circle primitives for the rounded corners*
1,1,$1+$1,$2,$3*
1,1,$1+$1,$4,$5*
1,1,$1+$1,$6,$7*
1,1,$1+$1,$8,$9*
0 Add four rect primitives between the rounded corners*
20,1,$1+$1,$2,$3,$4,$5,0*
20,1,$1+$1,$4,$5,$6,$7,0*
20,1,$1+$1,$6,$7,$8,$9,0*
20,1,$1+$1,$8,$9,$2,$3,0*%
%AMFreePoly0*
4,1,102,-0.508464,0.666036,-0.507003,0.662685,-0.505014,0.609006,-0.496114,0.556591,-0.482239,0.506049,-0.463414,0.456509,-0.439652,0.408984,-0.410940,0.364431,-0.377284,0.322856,-0.339644,0.285216,-0.298068,0.251559,-0.253516,0.222848,-0.205990,0.199085,-0.156450,0.180260,-0.105908,0.166385,-0.053493,0.157485,0.000000,0.155503,0.053493,0.157485,0.105908,0.166385,0.156450,0.180260,
0.205990,0.199085,0.253516,0.222848,0.298068,0.251559,0.339644,0.285216,0.377284,0.322856,0.410940,0.364431,0.439652,0.408984,0.463414,0.456509,0.482239,0.506049,0.496114,0.556591,0.505014,0.609006,0.507003,0.662685,0.508598,0.666164,0.512000,0.667500,0.813000,0.667500,0.816536,0.666036,0.818000,0.662500,0.817991,0.662206,0.812991,0.577206,0.812941,0.576735,
0.799941,0.492735,0.799829,0.492204,0.777829,0.410204,0.777654,0.409674,0.746654,0.330674,0.746472,0.330264,0.708472,0.254264,0.708187,0.253767,0.661187,0.181767,0.660899,0.181369,0.607899,0.115369,0.607536,0.114964,0.547536,0.054964,0.547131,0.054601,0.481131,0.001601,0.480733,0.001313,0.408733,-0.045687,0.408236,-0.045972,0.332236,-0.083972,0.331826,-0.084154,
0.252826,-0.115154,0.252296,-0.115329,0.170296,-0.137329,0.169765,-0.137441,0.085765,-0.150441,0.085235,-0.150494,0.000235,-0.154494,-0.000235,-0.154494,-0.085235,-0.150494,-0.085765,-0.150441,-0.169765,-0.137441,-0.170296,-0.137329,-0.252296,-0.115329,-0.252826,-0.115154,-0.331826,-0.084154,-0.332236,-0.083972,-0.408236,-0.045972,-0.408733,-0.045687,-0.480733,0.001313,-0.481131,0.001601,
-0.547131,0.054601,-0.547536,0.054964,-0.607536,0.114964,-0.607899,0.115369,-0.660899,0.181369,-0.661187,0.181767,-0.708187,0.253767,-0.708472,0.254264,-0.746472,0.330264,-0.746654,0.330674,-0.777654,0.409674,-0.777829,0.410204,-0.799829,0.492204,-0.799941,0.492735,-0.812941,0.576735,-0.812991,0.577206,-0.817991,0.662206,-0.816737,0.665822,-0.813294,0.667491,-0.813000,0.667500,
-0.512000,0.667500,-0.508464,0.666036,-0.508464,0.666036,$1*%
%AMFreePoly1*
4,1,102,0.085294,0.150491,0.085765,0.150441,0.169765,0.137441,0.170296,0.137329,0.252296,0.115329,0.252826,0.115154,0.331826,0.084154,0.332236,0.083972,0.408236,0.045972,0.408733,0.045687,0.480733,-0.001313,0.481131,-0.001601,0.547131,-0.054601,0.547536,-0.054964,0.607536,-0.114964,0.607899,-0.115369,0.660899,-0.181369,0.661187,-0.181767,0.708187,-0.253767,0.708472,-0.254264,
0.746472,-0.330264,0.746654,-0.330674,0.777654,-0.409674,0.777829,-0.410204,0.799829,-0.492204,0.799941,-0.492735,0.812941,-0.576735,0.812991,-0.577206,0.817991,-0.662206,0.816737,-0.665822,0.813294,-0.667491,0.813000,-0.667500,0.512000,-0.667500,0.508464,-0.666036,0.507003,-0.662685,0.505014,-0.609006,0.496114,-0.556591,0.482239,-0.506049,0.463414,-0.456509,0.439652,-0.408984,
0.410940,-0.364431,0.377284,-0.322856,0.339644,-0.285216,0.298068,-0.251559,0.253516,-0.222848,0.205990,-0.199085,0.156450,-0.180260,0.105908,-0.166385,0.053493,-0.157485,0.000000,-0.155503,-0.053493,-0.157485,-0.105908,-0.166385,-0.156450,-0.180260,-0.205990,-0.199085,-0.253516,-0.222848,-0.298068,-0.251559,-0.339644,-0.285216,-0.377284,-0.322856,-0.410940,-0.364431,-0.439652,-0.408984,
-0.463414,-0.456509,-0.482239,-0.506049,-0.496114,-0.556591,-0.505014,-0.609006,-0.507003,-0.662685,-0.508598,-0.666164,-0.512000,-0.667500,-0.813000,-0.667500,-0.816536,-0.666036,-0.818000,-0.662500,-0.817991,-0.662206,-0.812991,-0.577206,-0.812941,-0.576735,-0.799941,-0.492735,-0.799829,-0.492204,-0.777829,-0.410204,-0.777654,-0.409674,-0.746654,-0.330674,-0.746472,-0.330264,-0.708472,-0.254264,
-0.708187,-0.253767,-0.661187,-0.181767,-0.660899,-0.181369,-0.607899,-0.115369,-0.607536,-0.114964,-0.547536,-0.054964,-0.547131,-0.054601,-0.481131,-0.001601,-0.480733,-0.001313,-0.408733,0.045687,-0.408236,0.045972,-0.332236,0.083972,-0.331826,0.084154,-0.252826,0.115154,-0.252296,0.115329,-0.170296,0.137329,-0.169765,0.137441,-0.085765,0.150441,-0.085294,0.150491,-0.000294,0.155491,
0.000294,0.155491,0.085294,0.150491,0.085294,0.150491,$1*%
G04 Aperture macros list end*
%TA.AperFunction,SMDPad,CuDef*%
%ADD10R,1.400000X0.800000*%
%TD*%
%TA.AperFunction,ComponentPad*%
%ADD11O,1.550000X0.900000*%
%TD*%
%TA.AperFunction,ComponentPad*%
%ADD12C,0.500000*%
%TD*%
%TA.AperFunction,HeatsinkPad*%
%ADD13C,0.600000*%
%TD*%
%TA.AperFunction,HeatsinkPad*%
%ADD14R,3.900000X3.900000*%
%TD*%
%TA.AperFunction,SMDPad,CuDef*%
%ADD15R,1.500000X0.900000*%
%TD*%
%TA.AperFunction,SMDPad,CuDef*%
%ADD16R,0.900000X1.500000*%
%TD*%
%TA.AperFunction,SMDPad,CuDef*%
%ADD17R,0.522000X0.600000*%
%TD*%
%TA.AperFunction,SMDPad,CuDef*%
%ADD18R,0.300000X0.300000*%
%TD*%
%TA.AperFunction,SMDPad,CuDef*%
%ADD19FreePoly0,90.000000*%
%TD*%
%TA.AperFunction,SMDPad,CuDef*%
%ADD20FreePoly1,90.000000*%
%TD*%
%TA.AperFunction,HeatsinkPad*%
%ADD21O,1.800000X1.000000*%
%TD*%
%TA.AperFunction,HeatsinkPad*%
%ADD22O,2.100000X1.000000*%
%TD*%
%TA.AperFunction,SMDPad,CuDef*%
%ADD23RoundRect,0.150000X-0.425000X0.150000X-0.425000X-0.150000X0.425000X-0.150000X0.425000X0.150000X0*%
%TD*%
%TA.AperFunction,SMDPad,CuDef*%
%ADD24RoundRect,0.075000X-0.500000X0.075000X-0.500000X-0.075000X0.500000X-0.075000X0.500000X0.075000X0*%
%TD*%
%TA.AperFunction,SMDPad,CuDef*%
%ADD25R,1.000000X0.700000*%
%TD*%
%TA.AperFunction,SMDPad,CuDef*%
%ADD26C,1.000000*%
%TD*%
%TA.AperFunction,SMDPad,CuDef*%
%ADD27RoundRect,0.160000X-0.160000X0.197500X-0.160000X-0.197500X0.160000X-0.197500X0.160000X0.197500X0*%
%TD*%
%TA.AperFunction,SMDPad,CuDef*%
%ADD28RoundRect,0.155000X-0.155000X0.212500X-0.155000X-0.212500X0.155000X-0.212500X0.155000X0.212500X0*%
%TD*%
%TA.AperFunction,SMDPad,CuDef*%
%ADD29RoundRect,0.160000X-0.197500X-0.160000X0.197500X-0.160000X0.197500X0.160000X-0.197500X0.160000X0*%
%TD*%
%TA.AperFunction,SMDPad,CuDef*%
%ADD30RoundRect,0.160000X0.160000X-0.197500X0.160000X0.197500X-0.160000X0.197500X-0.160000X-0.197500X0*%
%TD*%
%TA.AperFunction,SMDPad,CuDef*%
%ADD31RoundRect,0.160000X0.197500X0.160000X-0.197500X0.160000X-0.197500X-0.160000X0.197500X-0.160000X0*%
%TD*%
%TA.AperFunction,SMDPad,CuDef*%
%ADD32RoundRect,0.155000X-0.212500X-0.155000X0.212500X-0.155000X0.212500X0.155000X-0.212500X0.155000X0*%
%TD*%
%TA.AperFunction,SMDPad,CuDef*%
%ADD33RoundRect,0.237500X0.287500X0.237500X-0.287500X0.237500X-0.287500X-0.237500X0.287500X-0.237500X0*%
%TD*%
%TA.AperFunction,SMDPad,CuDef*%
%ADD34RoundRect,0.155000X0.155000X-0.212500X0.155000X0.212500X-0.155000X0.212500X-0.155000X-0.212500X0*%
%TD*%
%TA.AperFunction,ViaPad*%
%ADD35C,0.600000*%
%TD*%
%TA.AperFunction,Conductor*%
%ADD36C,0.200000*%
%TD*%
G04 APERTURE END LIST*
D10*
%TO.P,S1,1*%
%TO.N,GND*%
X15733250Y-10657000D03*
%TO.P,S1,2*%
%TO.N,/mcu-esp32/SW*%
X15733250Y-10542000D03*
%TO.P,S1,3*%
%TO.N,GND*%
X15733250Y-10427000D03*
D11*
%TO.P,S1,S1,SHIELD*%
X15788250Y-10777000D03*
%TO.P,S1,S2,SHIELD__1*%
X15788250Y-10307000D03*
%TD*%
D12*
%TO.P,U7,11,PGND*%
%TO.N,GND*%
X14276500Y-12322000D03*
X14334000Y-12227000D03*
X14334000Y-12417000D03*
X14391500Y-12322000D03*
%TD*%
D13*
%TO.P,U1,41,GND*%
%TO.N,GND*%
X14513000Y-11182000D03*
X14513000Y-11042000D03*
X14443000Y-11252000D03*
X14443000Y-11112000D03*
X14443000Y-10972000D03*
X14373000Y-11182000D03*
D14*
X14373000Y-11112000D03*
D13*
X14373000Y-11042000D03*
X14303000Y-11252000D03*
X14303000Y-11112000D03*
X14303000Y-10972000D03*
X14233000Y-11182000D03*
X14233000Y-11042000D03*
D15*
%TO.P,U1,40,GND*%
X15398000Y-10340000D03*
%TO.P,U1,39,IO1*%
%TO.N,/mcu-esp32/SW*%
X15398000Y-10467000D03*
%TO.P,U1,38,IO2*%
%TO.N,Net-(D1-A)*%
X15398000Y-10594000D03*
%TO.P,U1,37,TXD0*%
%TO.N,/mcu-esp32/UART_TX*%
X15398000Y-10721000D03*
%TO.P,U1,36,RXD0*%
%TO.N,/mcu-esp32/UART_RX*%
X15398000Y-10848000D03*
%TO.P,U1,35,IO42*%
%TO.N,unconnected-(U1-IO42-Pad35)*%
X15398000Y-10975000D03*
%TO.P,U1,34,IO41*%
%TO.N,unconnected-(U1-IO41-Pad34)*%
X15398000Y-11102000D03*
%TO.P,U1,33,IO40*%
%TO.N,unconnected-(U1-IO40-Pad33)*%
X15398000Y-11229000D03*
%TO.P,U1,32,IO39*%
%TO.N,unconnected-(U1-IO39-Pad32)*%
X15398000Y-11356000D03*
%TO.P,U1,31,IO38*%
%TO.N,/imu-sensor/~{BOOT}*%
X15398000Y-11483000D03*
%TO.P,U1,30,IO37*%
%TO.N,unconnected-(U1-IO37-Pad30)*%
X15398000Y-11610000D03*
%TO.P,U1,29,IO36*%
%TO.N,unconnected-(U1-IO36-Pad29)*%
X15398000Y-11737000D03*
%TO.P,U1,28,IO35*%
%TO.N,unconnected-(U1-IO35-Pad28)*%
X15398000Y-11864000D03*
%TO.P,U1,27,IO0*%
%TO.N,/mcu-esp32/GPIO0*%
X15398000Y-11991000D03*
D16*
%TO.P,U1,26,IO45*%
%TO.N,unconnected-(U1-IO45-Pad26)*%
X15221500Y-12116000D03*
%TO.P,U1,25,IO48*%
%TO.N,unconnected-(U1-IO48-Pad25)*%
X15094500Y-12116000D03*
%TO.P,U1,24,IO47*%
%TO.N,unconnected-(U1-IO47-Pad24)*%
X14967500Y-12116000D03*
%TO.P,U1,23,IO21*%
%TO.N,/disp-conn/RST*%
X14840500Y-12116000D03*
%TO.P,U1,22,IO14*%
%TO.N,/disp-conn/LCD.RST*%
X14713500Y-12116000D03*
%TO.P,U1,21,IO13*%
%TO.N,/disp-conn/LCD.DC*%
X14586500Y-12116000D03*
%TO.P,U1,20,IO12*%
%TO.N,/disp-conn/LCD.SCLK*%
X14459500Y-12116000D03*
%TO.P,U1,19,IO11*%
%TO.N,/disp-conn/LCD.MOSI*%
X14332500Y-12116000D03*
%TO.P,U1,18,IO10*%
%TO.N,/disp-conn/LCD.CS*%
X14205500Y-12116000D03*
%TO.P,U1,17,IO9*%
%TO.N,/disp-conn/I2C.SCL*%
X14078500Y-12116000D03*
%TO.P,U1,16,IO46*%
%TO.N,unconnected-(U1-IO46-Pad16)*%
X13951500Y-12116000D03*
%TO.P,U1,15,IO3*%
%TO.N,unconnected-(U1-IO3-Pad15)*%
X13824500Y-12116000D03*
D15*
%TO.P,U1,14,USB_D+*%
%TO.N,Net-(U1-USB_D+)*%
X13648000Y-11991000D03*
%TO.P,U1,13,USB_D-*%
%TO.N,Net-(U1-USB_D-)*%
X13648000Y-11864000D03*
%TO.P,U1,12,IO8*%
%TO.N,/disp-conn/I2C.SDA*%
X13648000Y-11737000D03*
%TO.P,U1,11,IO18*%
%TO.N,/disp-conn/INT*%
X13648000Y-11610000D03*
%TO.P,U1,10,IO17*%
%TO.N,/mcu-esp32/nINT*%
X13648000Y-11483000D03*
%TO.P,U1,9,IO16*%
%TO.N,/imu-sensor/~{INT}*%
X13648000Y-11356000D03*
%TO.P,U1,8,IO15*%
%TO.N,/disp-conn/LCD.BL*%
X13648000Y-11229000D03*
%TO.P,U1,7,IO7*%
%TO.N,/imu-sensor/~{RST}*%
X13648000Y-11102000D03*
%TO.P,U1,6,IO6*%
%TO.N,/mcu-esp32/DATA*%
X13648000Y-10975000D03*
%TO.P,U1,5,IO5*%
%TO.N,/mcu-esp32/LRCLK*%
X13648000Y-10848000D03*
%TO.P,U1,4,IO4*%
%TO.N,/mcu-esp32/BCLK*%
X13648000Y-10721000D03*
%TO.P,U1,3,EN*%
%TO.N,/mcu-esp32/EN*%
X13648000Y-10594000D03*
%TO.P,U1,2,3V3*%
%TO.N,3p3V*%
X13648000Y-10467000D03*
%TO.P,U1,1,GND*%
%TO.N,GND*%
X13648000Y-10340000D03*
%TD*%
D17*
%TO.P,MK1,8,SD*%
%TO.N,/mcu-esp32/DATA*%
X14898000Y-12477000D03*
%TO.P,MK1,7,VDD*%
%TO.N,1p8V*%
X14898000Y-12387000D03*
%TO.P,MK1,6,SCK*%
%TO.N,/mcu-esp32/BCLK*%
X14980000Y-12387000D03*
D18*
%TO.P,MK1,5,THSEL*%
%TO.N,unconnected-(MK1-THSEL-Pad5)*%
X15181700Y-12372000D03*
%TO.P,MK1,4,WAKE*%
%TO.N,unconnected-(MK1-WAKE-Pad4)*%
X15181700Y-12582000D03*
D19*
%TO.P,MK1,3_2,GND__1*%
%TO.N,GND*%
X15171450Y-12477000D03*
D20*
%TO.P,MK1,3_1,GND*%
X15038950Y-12477000D03*
D17*
%TO.P,MK1,2,LR*%
X14980000Y-12567000D03*
%TO.P,MK1,1,WS*%
%TO.N,/mcu-esp32/LRCLK*%
X14898000Y-12567000D03*
%TD*%
D21*
%TO.P,J1,S1,SHIELD*%
%TO.N,GND*%
X12730000Y-12310000D03*
D22*
X13148000Y-12310000D03*
D21*
X12730000Y-11446000D03*
D22*
X13148000Y-11446000D03*
D23*
%TO.P,J1,B12,GND*%
X13205500Y-11558000D03*
%TO.P,J1,B9,VBUS*%
%TO.N,/pm/VBUS*%
X13205500Y-11638000D03*
D24*
%TO.P,J1,B8,SBU2*%
%TO.N,unconnected-(J1-SBU2-PadB8)*%
X13205500Y-11703000D03*
%TO.P,J1,B7,D-*%
%TO.N,/mcu-esp32/USB.Dm*%
X13205500Y-11803000D03*
%TO.P,J1,B6,D+*%
%TO.N,/mcu-esp32/USB.Dp*%
X13205500Y-11953000D03*
%TO.P,J1,B5,CC2*%
%TO.N,Net-(J1-CC2)*%
X13205500Y-12053000D03*
D23*
%TO.P,J1,B4,VBUS*%
%TO.N,/pm/VBUS*%
X13205500Y-12118000D03*
%TO.P,J1,B1,GND*%
%TO.N,GND*%
X13205500Y-12198000D03*
%TO.P,J1,A12,GND*%
X13205500Y-12198000D03*
%TO.P,J1,A9,VBUS*%
%TO.N,/pm/VBUS*%
X13205500Y-12118000D03*
D24*
%TO.P,J1,A8,SBU1*%
%TO.N,unconnected-(J1-SBU1-PadA8)*%
X13205500Y-12003000D03*
%TO.P,J1,A7,D-*%
%TO.N,/mcu-esp32/USB.Dm*%
X13205500Y-11903000D03*
%TO.P,J1,A6,D+*%
%TO.N,/mcu-esp32/USB.Dp*%
X13205500Y-11853000D03*
%TO.P,J1,A5,CC1*%
%TO.N,Net-(J1-CC1)*%
X13205500Y-11753000D03*
D23*
%TO.P,J1,A4,VBUS*%
%TO.N,/pm/VBUS*%
X13205500Y-11638000D03*
%TO.P,J1,A1,GND*%
%TO.N,GND*%
X13205500Y-11558000D03*
%TD*%
D25*
%TO.P,SW1,4*%
%TO.N,/mcu-esp32/EN*%
X13399000Y-10675000D03*
%TO.P,SW1,3*%
X12799000Y-10675000D03*
%TO.P,SW1,2*%
%TO.N,GND*%
X13399000Y-10305000D03*
%TO.P,SW1,1*%
X12799000Y-10305000D03*
%TD*%
D26*
%TO.P,TX1,1,1*%
%TO.N,/mcu-esp32/UART_TX*%
X15828000Y-11522000D03*
%TD*%
D27*
%TO.P,R19,1*%
%TO.N,/mcu-esp32/DATA*%
X14781000Y-12477250D03*
%TO.P,R19,2*%
%TO.N,GND*%
X14781000Y-12596750D03*
%TD*%
D28*
%TO.P,C2,1*%
%TO.N,GND*%
X12689000Y-11115250D03*
%TO.P,C2,2*%
%TO.N,/mcu-esp32/GPIO0*%
X12689000Y-11228750D03*
%TD*%
D29*
%TO.P,R1,1*%
%TO.N,GND*%
X15651750Y-10908000D03*
%TO.P,R1,2*%
%TO.N,Net-(D1-K)*%
X15771250Y-10908000D03*
%TD*%
D26*
%TO.P,GPIO1,1,1*%
%TO.N,/mcu-esp32/GPIO0*%
X15828000Y-12402000D03*
%TD*%
D30*
%TO.P,R4,1*%
%TO.N,/mcu-esp32/EN*%
X12686000Y-10442750D03*
%TO.P,R4,2*%
%TO.N,3p3V*%
X12686000Y-10323250D03*
%TD*%
D31*
%TO.P,R5,1*%
%TO.N,Net-(U1-USB_D-)*%
X13490750Y-11878000D03*
%TO.P,R5,2*%
%TO.N,/mcu-esp32/USB.Dm*%
X13371250Y-11878000D03*
%TD*%
D26*
%TO.P,RX1,1,1*%
%TO.N,/mcu-esp32/UART_RX*%
X15828000Y-11742000D03*
%TD*%
D31*
%TO.P,R6,1*%
%TO.N,Net-(U1-USB_D+)*%
X13490750Y-11978000D03*
%TO.P,R6,2*%
%TO.N,/mcu-esp32/USB.Dp*%
X13371250Y-11978000D03*
%TD*%
D32*
%TO.P,C12,1*%
%TO.N,1p8V*%
X14898250Y-12268000D03*
%TO.P,C12,2*%
%TO.N,GND*%
X15011750Y-12268000D03*
%TD*%
D30*
%TO.P,R3,1*%
%TO.N,/mcu-esp32/GPIO0*%
X12688000Y-11005750D03*
%TO.P,R3,2*%
%TO.N,3p3V*%
X12688000Y-10886250D03*
%TD*%
D25*
%TO.P,SW2,1*%
%TO.N,GND*%
X12799000Y-10859000D03*
%TO.P,SW2,2*%
X13399000Y-10859000D03*
%TO.P,SW2,3*%
%TO.N,/mcu-esp32/GPIO0*%
X12799000Y-11229000D03*
%TO.P,SW2,4*%
X13399000Y-11229000D03*
%TD*%
D26*
%TO.P,EN1,1,1*%
%TO.N,/mcu-esp32/EN*%
X15828000Y-12182000D03*
%TD*%
D33*
%TO.P,D1,1,K*%
%TO.N,Net-(D1-K)*%
X15852500Y-11034000D03*
%TO.P,D1,2,A*%
%TO.N,Net-(D1-A)*%
X15677500Y-11034000D03*
%TD*%
D30*
%TO.P,R2,1*%
%TO.N,/mcu-esp32/SW*%
X15592000Y-10367750D03*
%TO.P,R2,2*%
%TO.N,3p3V*%
X15592000Y-10248250D03*
%TD*%
D34*
%TO.P,C3,1*%
%TO.N,GND*%
X15593000Y-10590750D03*
%TO.P,C3,2*%
%TO.N,/mcu-esp32/SW*%
X15593000Y-10477250D03*
%TD*%
D29*
%TO.P,R7,1*%
%TO.N,Net-(J1-CC2)*%
X13371250Y-12078000D03*
%TO.P,R7,2*%
%TO.N,GND*%
X13490750Y-12078000D03*
%TD*%
D26*
%TO.P,VDD1,1,1*%
%TO.N,3p3V*%
X15828000Y-11962000D03*
%TD*%
D29*
%TO.P,R8,1*%
%TO.N,Net-(J1-CC1)*%
X13371250Y-11753000D03*
%TO.P,R8,2*%
%TO.N,GND*%
X13490750Y-11753000D03*
%TD*%
D26*
%TO.P,GND1,1,1*%
%TO.N,GND*%
X15828000Y-11302000D03*
%TD*%
D28*
%TO.P,C1,1*%
%TO.N,GND*%
X12686000Y-10552250D03*
%TO.P,C1,2*%
%TO.N,/mcu-esp32/EN*%
X12686000Y-10665750D03*
%TD*%
D35*
%TO.N,GND*%
X15081000Y-11720350D03*
X14653789Y-11670250D03*
X13895000Y-10953200D03*
X15281894Y-10722895D03*
X14704878Y-12527250D03*
X14700750Y-12427250D03*
X14887000Y-11088000D03*
X14280951Y-11951060D03*
X14398000Y-11933750D03*
%TO.N,3p3V*%
X14519086Y-11541375D03*
%TO.N,GND*%
X13377000Y-11566100D03*
X13492051Y-12139940D03*
%TO.N,3p3V*%
X14129799Y-11960790D03*
X15121605Y-11011605D03*
X14616000Y-11011000D03*
%TO.N,GND*%
X12871000Y-10377000D03*
%TO.N,/mcu-esp32/EN*%
X12845000Y-10759000D03*
X13209710Y-12399776D03*
X13729471Y-12571947D03*
X15678855Y-12182145D03*
%TO.N,/bat-conn/BatP*%
X13661893Y-12553692D03*
X13139711Y-12400000D03*
%TO.N,/disp-conn/I2C.SCL*%
X14687565Y-11372896D03*
%TO.N,/disp-conn/LCD.CS*%
X15461805Y-12211905D03*
%TO.N,/disp-conn/I2C.SDA*%
X14443855Y-11696144D03*
X15513306Y-12016595D03*
X15592381Y-11700982D03*
X14716000Y-11215000D03*
%TO.N,/disp-conn/LCD.MOSI*%
X15207500Y-11200789D03*
%TO.N,/disp-conn/LCD.SCLK*%
X15287109Y-11166341D03*
%TO.N,/disp-conn/LCD.BL*%
X14315231Y-11542479D03*
%TO.N,/disp-conn/INT*%
X14393855Y-11646145D03*
%TO.N,1p8V*%
X13879000Y-11829000D03*
%TO.N,3p3V*%
X15673940Y-10272060D03*
X15585000Y-11044274D03*
%TO.N,/disp-conn/LCD.BL*%
X14085007Y-11406000D03*
X15153838Y-11136543D03*
%TO.N,/disp-conn/LCD.RST*%
X15283589Y-11552750D03*
%TO.N,/mcu-esp32/LRCLK*%
X14836664Y-12537026D03*
X13468284Y-11659824D03*
%TO.N,/mcu-esp32/nINT*%
X13752243Y-11428292D03*
%TO.N,/mcu-esp32/BCLK*%
X14210000Y-11533000D03*
X14954991Y-12326435D03*
%TO.N,/mcu-esp32/DATA*%
X13999020Y-12325020D03*
X13533632Y-11684918D03*
%TO.N,/imu-sensor/~{RST}*%
X14157139Y-11407139D03*
%TO.N,/imu-sensor/~{INT}*%
X13964648Y-11356352D03*
%TO.N,/disp-conn/LCD.DC*%
X15283000Y-11267039D03*
%TO.N,/disp-conn/RST*%
X15283000Y-11712236D03*
%TO.N,/pm/VBUS*%
X13335926Y-12147968D03*
%TO.N,/imu-sensor/~{BOOT}*%
X15315895Y-11477105D03*
%TO.N,/disp-conn/I2C.SCL*%
X14469000Y-11834568D03*
%TD*%
D36*
%TO.N,GND*%
X14980000Y-12535950D02*
X15038950Y-12477000D01*
X14980000Y-12567000D02*
X14980000Y-12535950D01*
X15511905Y-12232657D02*
X15267563Y-12477000D01*
X15408605Y-12161805D02*
X15482557Y-12161805D01*
X15482557Y-12161805D02*
X15511905Y-12191153D01*
X15286600Y-12039800D02*
X15408605Y-12161805D01*
X15286600Y-11925950D02*
X15286600Y-12039800D01*
X15511905Y-12191153D02*
X15511905Y-12232657D01*
X15081000Y-11720350D02*
X15286600Y-11925950D01*
X15267563Y-12477000D02*
X15171450Y-12477000D01*
%TO.N,/disp-conn/LCD.CS*%
X14205500Y-12162281D02*
X14205500Y-12116000D01*
X14315319Y-12272100D02*
X14205500Y-12162281D01*
X14806624Y-12272100D02*
X14315319Y-12272100D01*
X14867624Y-12211100D02*
X14806624Y-12272100D01*
X15461000Y-12211100D02*
X14867624Y-12211100D01*
%TO.N,/disp-conn/RST*%
X15229000Y-11659000D02*
X14947703Y-11659000D01*
X14947703Y-11659000D02*
X14840500Y-11766203D01*
X14840500Y-11766203D02*
X14840500Y-12116000D01*
X15282236Y-11712236D02*
X15229000Y-11659000D01*
X15283000Y-11712236D02*
X15282236Y-11712236D01*
%TO.N,/disp-conn/I2C.SCL*%
X14687565Y-11384685D02*
X14687565Y-11372896D01*
X14570000Y-11502250D02*
X14687565Y-11384685D01*
X14570000Y-11734000D02*
X14570000Y-11502250D01*
X14469432Y-11834568D02*
X14570000Y-11734000D01*
X14469000Y-11834568D02*
X14469432Y-11834568D01*
%TO.N,GND*%
X14440670Y-11933750D02*
X14398000Y-11933750D01*
X14653789Y-11720630D02*
X14440670Y-11933750D01*
X14653789Y-11670250D02*
X14653789Y-11720630D01*
%TO.N,/disp-conn/I2C.SCL*%
X14443568Y-11860000D02*
X14301300Y-11860000D01*
X14469000Y-11834568D02*
X14443568Y-11860000D01*
X14479740Y-11845307D02*
X14479740Y-11846284D01*
X14078500Y-12082800D02*
X14078500Y-12116000D01*
X14469000Y-11834568D02*
X14479740Y-11845307D01*
X14301300Y-11860000D02*
X14078500Y-12082800D01*
%TO.N,GND*%
X13895000Y-10953200D02*
X13895000Y-10557000D01*
X13895000Y-10557000D02*
X13678000Y-10340000D01*
X13678000Y-10340000D02*
X13648000Y-10340000D01*
X15281894Y-10426106D02*
X15281894Y-10722895D01*
X15368000Y-10340000D02*
X15281894Y-10426106D01*
X15398000Y-10340000D02*
X15368000Y-10340000D01*
X14774378Y-12596750D02*
X14704878Y-12527250D01*
X14781000Y-12596750D02*
X14774378Y-12596750D01*
X14690500Y-12417000D02*
X14700750Y-12427250D01*
X14334000Y-12417000D02*
X14690500Y-12417000D01*
X14887000Y-11088000D02*
X14607000Y-11088000D01*
X14607000Y-11088000D02*
X14513000Y-11182000D01*
%TO.N,/disp-conn/LCD.BL*%
X15061432Y-11322000D02*
X15153838Y-11229594D01*
X15153838Y-11229594D02*
X15153838Y-11136543D01*
X14667750Y-11322000D02*
X15061432Y-11322000D01*
X14446750Y-11543000D02*
X14667750Y-11322000D01*
X14315752Y-11543000D02*
X14446750Y-11543000D01*
X14315231Y-11542479D02*
X14315752Y-11543000D01*
%TO.N,GND*%
X14380690Y-11951060D02*
X14398000Y-11933750D01*
X14280951Y-11951060D02*
X14380690Y-11951060D01*
%TO.N,3p3V*%
X14261024Y-11829565D02*
X14381286Y-11829565D01*
X14129799Y-11960790D02*
X14261024Y-11829565D01*
X14519086Y-11691766D02*
X14519086Y-11541375D01*
X14381286Y-11829565D02*
X14519086Y-11691766D01*
%TO.N,GND*%
X13377000Y-11566100D02*
X13303850Y-11566100D01*
X13295750Y-11558000D02*
X13303850Y-11566100D01*
X13472940Y-12139940D02*
X13492051Y-12139940D01*
X13450875Y-12117875D02*
X13472940Y-12139940D01*
X13450875Y-12117875D02*
X13490750Y-12078000D01*
%TO.N,/imu-sensor/~{INT}*%
X13964648Y-11356352D02*
X13964297Y-11356000D01*
X13964297Y-11356000D02*
X13648000Y-11356000D01*
%TO.N,3p3V*%
X15121000Y-11011000D02*
X15121605Y-11011605D01*
X14616000Y-11011000D02*
X15121000Y-11011000D01*
%TO.N,GND*%
X12799000Y-10305000D02*
X12871000Y-10377000D01*
%TO.N,/mcu-esp32/EN*%
X13729471Y-12550418D02*
X13729471Y-12571947D01*
X13574669Y-12395616D02*
X13729471Y-12550418D01*
X13213871Y-12395616D02*
X13574669Y-12395616D01*
X13209710Y-12399776D02*
X13213871Y-12395616D01*
X12845000Y-10721000D02*
X12799000Y-10675000D01*
X12845000Y-10759000D02*
X12845000Y-10721000D01*
%TO.N,/bat-conn/BatP*%
X13292692Y-12553692D02*
X13661893Y-12553692D01*
X13169855Y-12430145D02*
X13169855Y-12430855D01*
X13139711Y-12400000D02*
X13169855Y-12430145D01*
X13169855Y-12430855D02*
X13292692Y-12553692D01*
%TO.N,/mcu-esp32/GPIO0*%
X15422000Y-12402000D02*
X15828000Y-12402000D01*
X15171400Y-12652600D02*
X15422000Y-12402000D01*
X12660964Y-12380100D02*
X13049100Y-12380100D01*
X12619900Y-11297850D02*
X12619900Y-12339036D01*
X12619900Y-12339036D02*
X12660964Y-12380100D01*
X12689000Y-11228750D02*
X12619900Y-11297850D01*
X13049100Y-12380100D02*
X13321600Y-12652600D01*
X13321600Y-12652600D02*
X15171400Y-12652600D01*
%TO.N,/mcu-esp32/EN*%
X15679000Y-12182000D02*
X15678855Y-12182145D01*
X15828000Y-12182000D02*
X15679000Y-12182000D01*
%TO.N,3p3V*%
X15650130Y-10248250D02*
X15592000Y-10248250D01*
X15673940Y-10272060D02*
X15650130Y-10248250D01*
%TO.N,/disp-conn/LCD.RST*%
X14713500Y-11850636D02*
X15011386Y-11552750D01*
X14713500Y-12116000D02*
X14713500Y-11850636D01*
X15011386Y-11552750D02*
X15283589Y-11552750D01*
%TO.N,/disp-conn/LCD.DC*%
X15254528Y-11267039D02*
X14586500Y-11935068D01*
X14586500Y-11935068D02*
X14586500Y-12116000D01*
X15283000Y-11267039D02*
X15254528Y-11267039D01*
%TO.N,GND*%
X13471900Y-11281300D02*
X13307200Y-11446000D01*
X13471900Y-10948332D02*
X13471900Y-11281300D01*
X13475000Y-10945232D02*
X13471900Y-10948332D01*
X13475000Y-10935000D02*
X13475000Y-10945232D01*
X13307200Y-11446000D02*
X13148000Y-11446000D01*
X13399000Y-10859000D02*
X13475000Y-10935000D01*
%TO.N,/disp-conn/I2C.SDA*%
X14297945Y-11596045D02*
X14414607Y-11596045D01*
X14262803Y-11560903D02*
X14297945Y-11596045D01*
X14262803Y-11524197D02*
X14262803Y-11560903D01*
X14403000Y-11737000D02*
X13648000Y-11737000D01*
X14443955Y-11696044D02*
X14403000Y-11737000D01*
X14443955Y-11625392D02*
X14443955Y-11696044D01*
X14414607Y-11596045D02*
X14443955Y-11625392D01*
X14294479Y-11492379D02*
X14265131Y-11521727D01*
X14265131Y-11521869D02*
X14262803Y-11524197D01*
X14294621Y-11492379D02*
X14294479Y-11492379D01*
X14294752Y-11492248D02*
X14294621Y-11492379D01*
X14454934Y-11492248D02*
X14294752Y-11492248D01*
X14716000Y-11231182D02*
X14454934Y-11492248D01*
X14716000Y-11215000D02*
X14716000Y-11231182D01*
X14265131Y-11521727D02*
X14265131Y-11521869D01*
X15592381Y-11937519D02*
X15513306Y-12016595D01*
X15592381Y-11700982D02*
X15592381Y-11937519D01*
%TO.N,/mcu-esp32/BCLK*%
X13681000Y-10721000D02*
X13648000Y-10721000D01*
X13806000Y-10846000D02*
X13681000Y-10721000D01*
X14210000Y-11376000D02*
X14161100Y-11327100D01*
X14210000Y-11533000D02*
X14210000Y-11376000D01*
X14161100Y-11327100D02*
X14160100Y-11327100D01*
X13806000Y-10973000D02*
X13806000Y-10846000D01*
X14160100Y-11327100D02*
X13806000Y-10973000D01*
%TO.N,1p8V*%
X14898250Y-12268000D02*
X14894150Y-12272100D01*
%TO.N,3p3V*%
X15898100Y-11471236D02*
X15585000Y-11158136D01*
X15585000Y-11158136D02*
X15585000Y-11044274D01*
X15898100Y-11891900D02*
X15898100Y-11471236D01*
X15828000Y-11962000D02*
X15898100Y-11891900D01*
%TO.N,/mcu-esp32/LRCLK*%
X13502000Y-10960800D02*
X13502000Y-11626108D01*
X13502000Y-11626108D02*
X13468284Y-11659824D01*
X13614800Y-10848000D02*
X13502000Y-10960800D01*
X13648000Y-10848000D02*
X13614800Y-10848000D01*
%TO.N,/disp-conn/LCD.BL*%
X14085007Y-11406000D02*
X13908007Y-11229000D01*
X13908007Y-11229000D02*
X13648000Y-11229000D01*
%TO.N,/mcu-esp32/LRCLK*%
X14868000Y-12537000D02*
X14898000Y-12567000D01*
X14836690Y-12537000D02*
X14868000Y-12537000D01*
X14836664Y-12537026D02*
X14836690Y-12537000D01*
%TO.N,/imu-sensor/~{RST}*%
X13852000Y-11102000D02*
X13648000Y-11102000D01*
X14157139Y-11407139D02*
X13852000Y-11102000D01*
%TO.N,/mcu-esp32/nINT*%
X13697535Y-11483000D02*
X13648000Y-11483000D01*
X13752243Y-11428292D02*
X13697535Y-11483000D01*
%TO.N,/mcu-esp32/BCLK*%
X14980000Y-12351444D02*
X14954991Y-12326435D01*
X14980000Y-12387000D02*
X14980000Y-12351444D01*
%TO.N,/mcu-esp32/DATA*%
X13533632Y-11056168D02*
X13533632Y-11684918D01*
X13614800Y-10975000D02*
X13533632Y-11056168D01*
X13648000Y-10975000D02*
X13614800Y-10975000D01*
%TO.N,/pm/VBUS*%
X13097000Y-12067000D02*
X13097000Y-11689000D01*
X13097000Y-11689000D02*
X13148000Y-11638000D01*
X13148000Y-11638000D02*
X13205500Y-11638000D01*
X13148000Y-12118000D02*
X13097000Y-12067000D01*
X13205500Y-12118000D02*
X13148000Y-12118000D01*
%TO.N,/mcu-esp32/USB.Dm*%
X13256000Y-11903000D02*
X13205500Y-11903000D01*
X13283100Y-11833860D02*
X13283100Y-11875900D01*
X13252240Y-11803000D02*
X13283100Y-11833860D01*
X13205500Y-11803000D02*
X13252240Y-11803000D01*
X13283100Y-11875900D02*
X13256000Y-11903000D01*
%TO.N,/mcu-esp32/USB.Dp*%
X13148000Y-11853000D02*
X13205500Y-11853000D01*
X13127900Y-11873100D02*
X13148000Y-11853000D01*
X13127900Y-11922140D02*
X13127900Y-11873100D01*
X13205500Y-11953000D02*
X13158760Y-11953000D01*
X13158760Y-11953000D02*
X13127900Y-11922140D01*
%TO.N,/pm/VBUS*%
X13305958Y-12118000D02*
X13335926Y-12147968D01*
X13205500Y-12118000D02*
X13305958Y-12118000D01*
%TO.N,/imu-sensor/~{BOOT}*%
X15392105Y-11477105D02*
X15398000Y-11483000D01*
X15315895Y-11477105D02*
X15392105Y-11477105D01*
%TO.N,GND*%
X15788250Y-10372000D02*
X15733250Y-10427000D01*
X13399000Y-10305000D02*
X13613000Y-10305000D01*
X15433900Y-10304100D02*
X15398000Y-10340000D01*
X13613000Y-10305000D02*
X13648000Y-10340000D01*
X14980000Y-12570900D02*
X14980000Y-12567000D01*
X12799000Y-10859000D02*
X13399000Y-10859000D01*
X13303850Y-11566100D02*
X13490750Y-11753000D01*
X15651750Y-10908000D02*
X15657250Y-10908000D01*
X15623397Y-10304100D02*
X15433900Y-10304100D01*
X15011750Y-12268000D02*
X15038950Y-12295200D01*
X12634900Y-10702176D02*
X12634900Y-10603350D01*
X14801350Y-12617100D02*
X14933800Y-12617100D01*
X15038950Y-12295200D02*
X15038950Y-12477000D01*
X13205500Y-11558000D02*
X13205500Y-11503500D01*
X15733250Y-10427000D02*
X15733250Y-10413953D01*
X14933800Y-12617100D02*
X14980000Y-12570900D01*
X13434900Y-11808850D02*
X13434900Y-12022150D01*
X15795250Y-10777000D02*
X15782750Y-10777000D01*
X12799000Y-10859000D02*
X12799000Y-11005250D01*
X13205500Y-12198000D02*
X13370750Y-12198000D01*
X12791724Y-10859000D02*
X12634900Y-10702176D01*
X15788250Y-10712000D02*
X15733250Y-10657000D01*
X15925100Y-10913850D02*
X15788250Y-10777000D01*
X15828000Y-11302000D02*
X15925100Y-11204900D01*
X15733250Y-10413953D02*
X15623397Y-10304100D01*
X13205500Y-12252500D02*
X13148000Y-12310000D01*
X12799000Y-10305000D02*
X13399000Y-10305000D01*
X15659250Y-10657000D02*
X15593000Y-10590750D01*
X12799000Y-11005250D02*
X12689000Y-11115250D01*
X13434900Y-12022150D02*
X13490750Y-12078000D01*
X13205500Y-12198000D02*
X13205500Y-12252500D01*
X14781000Y-12596750D02*
X14801350Y-12617100D01*
X15657250Y-10908000D02*
X15788250Y-10777000D01*
X15788250Y-10307000D02*
X15788250Y-10372000D01*
X13490750Y-11753000D02*
X13434900Y-11808850D01*
X12799000Y-10859000D02*
X12791724Y-10859000D01*
X12634900Y-10603350D02*
X12686000Y-10552250D01*
X13205500Y-11558000D02*
X13295750Y-11558000D01*
X15925100Y-11204900D02*
X15925100Y-10913850D01*
X12730000Y-11446000D02*
X13148000Y-11446000D01*
X13370750Y-12198000D02*
X13450875Y-12117875D01*
X15733250Y-10657000D02*
X15659250Y-10657000D01*
X15788250Y-10777000D02*
X15788250Y-10712000D01*
X13205500Y-11503500D02*
X13148000Y-11446000D01*
X12730000Y-12310000D02*
X13148000Y-12310000D01*
%TO.N,1p8V*%
X14898250Y-12268000D02*
X14898250Y-12386750D01*
X14898250Y-12386750D02*
X14898000Y-12387000D01*
%TO.N,3p3V*%
X12725250Y-10248250D02*
X12686000Y-10287500D01*
X12686000Y-10287500D02*
X12686000Y-10323250D01*
X13648000Y-10467000D02*
X12829750Y-10467000D01*
X12604800Y-10404450D02*
X12686000Y-10323250D01*
X12604800Y-10803050D02*
X12604800Y-10404450D01*
X12688000Y-10886250D02*
X12604800Y-10803050D01*
X15592000Y-10248250D02*
X12725250Y-10248250D01*
X12829750Y-10467000D02*
X12686000Y-10323250D01*
%TO.N,/mcu-esp32/EN*%
X13399000Y-10675000D02*
X13480000Y-10594000D01*
X12686000Y-10665750D02*
X12737100Y-10614650D01*
X12695250Y-10675000D02*
X12686000Y-10665750D01*
X12799000Y-10675000D02*
X13399000Y-10675000D01*
X12737100Y-10614650D02*
X12737100Y-10493850D01*
X13480000Y-10594000D02*
X13648000Y-10594000D01*
X12737100Y-10493850D02*
X12686000Y-10442750D01*
X12799000Y-10675000D02*
X12695250Y-10675000D01*
%TO.N,/mcu-esp32/GPIO0*%
X12689000Y-11228750D02*
X12798750Y-11228750D01*
X15417000Y-11991000D02*
X15398000Y-11991000D01*
X12637900Y-11177650D02*
X12637900Y-11055850D01*
X12689000Y-11228750D02*
X12637900Y-11177650D01*
X12637900Y-11055850D02*
X12688000Y-11005750D01*
X13399000Y-11229000D02*
X12799000Y-11229000D01*
X15828000Y-12402000D02*
X15417000Y-11991000D01*
X12798750Y-11228750D02*
X12799000Y-11229000D01*
%TO.N,/mcu-esp32/SW*%
X15657750Y-10542000D02*
X15593000Y-10477250D01*
X15592000Y-10476250D02*
X15593000Y-10477250D01*
X15733250Y-10542000D02*
X15657750Y-10542000D01*
X15592000Y-10367750D02*
X15592000Y-10476250D01*
X15582750Y-10467000D02*
X15593000Y-10477250D01*
X15398000Y-10467000D02*
X15582750Y-10467000D01*
%TO.N,Net-(D1-K)*%
X15852500Y-10989250D02*
X15771250Y-10908000D01*
X15852500Y-11034000D02*
X15852500Y-10989250D01*
%TO.N,/mcu-esp32/USB.Dm*%
X13346250Y-11903000D02*
X13371250Y-11878000D01*
X13205500Y-11903000D02*
X13346250Y-11903000D01*
%TO.N,/mcu-esp32/USB.Dp*%
X13346250Y-11953000D02*
X13371250Y-11978000D01*
X13205500Y-11953000D02*
X13346250Y-11953000D01*
%TO.N,Net-(J1-CC1)*%
X13371250Y-11753000D02*
X13205500Y-11753000D01*
%TO.N,Net-(J1-CC2)*%
X13205500Y-12053000D02*
X13346250Y-12053000D01*
X13346250Y-12053000D02*
X13371250Y-12078000D01*
%TO.N,/mcu-esp32/DATA*%
X14781250Y-12477000D02*
X14781000Y-12477250D01*
X14898000Y-12477000D02*
X14781250Y-12477000D01*
%TO.N,/mcu-esp32/UART_TX*%
X15828000Y-11522000D02*
X15530000Y-11224000D01*
X15530000Y-10819800D02*
X15431200Y-10721000D01*
X15530000Y-11224000D02*
X15530000Y-10819800D01*
X15431200Y-10721000D02*
X15398000Y-10721000D01*
%TO.N,/mcu-esp32/UART_RX*%
X15500000Y-10916800D02*
X15500000Y-11414000D01*
X15398000Y-10848000D02*
X15431200Y-10848000D01*
X15500000Y-11414000D02*
X15828000Y-11742000D01*
X15431200Y-10848000D02*
X15500000Y-10916800D01*
%TO.N,Net-(D1-A)*%
X15677500Y-11034000D02*
X15560100Y-10916600D01*
X15431200Y-10594000D02*
X15398000Y-10594000D01*
X15560100Y-10722900D02*
X15431200Y-10594000D01*
X15560100Y-10916600D02*
X15560100Y-10722900D01*
%TO.N,Net-(U1-USB_D-)*%
X13634000Y-11878000D02*
X13648000Y-11864000D01*
X13490750Y-11878000D02*
X13634000Y-11878000D01*
%TO.N,Net-(U1-USB_D+)*%
X13635000Y-11978000D02*
X13648000Y-11991000D01*
X13490750Y-11978000D02*
X13635000Y-11978000D01*
%TO.N,/disp-conn/INT*%
X13686000Y-11648000D02*
X13648000Y-11610000D01*
X14370000Y-11648000D02*
X13686000Y-11648000D01*
X14371855Y-11646145D02*
X14370000Y-11648000D01*
X14393855Y-11646145D02*
X14371855Y-11646145D01*
%TO.N,/disp-conn/LCD.SCLK*%
X14459500Y-12019500D02*
X14459500Y-12116000D01*
X15287109Y-11191891D02*
X14459500Y-12019500D01*
X15287109Y-11166341D02*
X15287109Y-11191891D01*
%TO.N,/disp-conn/LCD.MOSI*%
X14332500Y-12093500D02*
X14332500Y-12116000D01*
X15200032Y-11225968D02*
X14332500Y-12093500D01*
X15200032Y-11208257D02*
X15200032Y-11225968D01*
X15207500Y-11200789D02*
X15200032Y-11208257D01*
%TO.N,/mcu-esp32/DATA*%
X13999020Y-12325020D02*
X14151250Y-12477250D01*
X14151250Y-12477250D02*
X14781000Y-12477250D01*
%TO.N,/disp-conn/I2C.SCL*%
X14078500Y-12116000D02*
X14078500Y-12149200D01*
%TO.N,1p8V*%
X13759400Y-12211100D02*
X13759400Y-11948600D01*
X13820400Y-12272100D02*
X13759400Y-12211100D01*
X14158832Y-12272100D02*
X14258632Y-12371900D01*
X14258632Y-12371900D02*
X14882900Y-12371900D01*
X13820400Y-12272100D02*
X14158832Y-12272100D01*
X14882900Y-12371900D02*
X14898000Y-12387000D01*
X13759400Y-11948600D02*
X13879000Y-11829000D01*
%TD*%
M02*
