%TF.GenerationSoftware,KiCad,Pcbnew,9.0.7*%
%TF.CreationDate,2026-04-29T04:09:03+05:30*%
%TF.ProjectId,SmartWatch_MT2025513,536d6172-7457-4617-9463-685f4d543230,rev?*%
%TF.SameCoordinates,Original*%
%TF.FileFunction,AssemblyDrawing,Top*%
%FSLAX45Y45*%
G04 Gerber Fmt 4.5, Leading zero omitted, Abs format (unit mm)*
G04 Created by KiCad (PCBNEW 9.0.7) date 2026-04-29 04:09:03*
%MOMM*%
%LPD*%
G01*
G04 APERTURE LIST*
%ADD10C,0.150000*%
%ADD11C,0.040000*%
%ADD12C,0.060000*%
%ADD13C,0.127000*%
%ADD14C,0.200000*%
%ADD15C,0.100000*%
G04 APERTURE END LIST*
D10*
X15570232Y-10279905D02*
X15470232Y-10279905D01*
X15470232Y-10279905D02*
X15470232Y-10241810D01*
X15470232Y-10241810D02*
X15474994Y-10232286D01*
X15474994Y-10232286D02*
X15479756Y-10227524D01*
X15479756Y-10227524D02*
X15489279Y-10222762D01*
X15489279Y-10222762D02*
X15503565Y-10222762D01*
X15503565Y-10222762D02*
X15513089Y-10227524D01*
X15513089Y-10227524D02*
X15517851Y-10232286D01*
X15517851Y-10232286D02*
X15522613Y-10241810D01*
X15522613Y-10241810D02*
X15522613Y-10279905D01*
X15470232Y-10194190D02*
X15470232Y-10137048D01*
X15570232Y-10165619D02*
X15470232Y-10165619D01*
X15565470Y-10108476D02*
X15570232Y-10094190D01*
X15570232Y-10094190D02*
X15570232Y-10070381D01*
X15570232Y-10070381D02*
X15565470Y-10060857D01*
X15565470Y-10060857D02*
X15560708Y-10056095D01*
X15560708Y-10056095D02*
X15551184Y-10051333D01*
X15551184Y-10051333D02*
X15541660Y-10051333D01*
X15541660Y-10051333D02*
X15532137Y-10056095D01*
X15532137Y-10056095D02*
X15527375Y-10060857D01*
X15527375Y-10060857D02*
X15522613Y-10070381D01*
X15522613Y-10070381D02*
X15517851Y-10089429D01*
X15517851Y-10089429D02*
X15513089Y-10098952D01*
X15513089Y-10098952D02*
X15508327Y-10103714D01*
X15508327Y-10103714D02*
X15498803Y-10108476D01*
X15498803Y-10108476D02*
X15489279Y-10108476D01*
X15489279Y-10108476D02*
X15479756Y-10103714D01*
X15479756Y-10103714D02*
X15474994Y-10098952D01*
X15474994Y-10098952D02*
X15470232Y-10089429D01*
X15470232Y-10089429D02*
X15470232Y-10065619D01*
X15470232Y-10065619D02*
X15474994Y-10051333D01*
X15513089Y-9994190D02*
X15508327Y-10003714D01*
X15508327Y-10003714D02*
X15503565Y-10008476D01*
X15503565Y-10008476D02*
X15494041Y-10013238D01*
X15494041Y-10013238D02*
X15489279Y-10013238D01*
X15489279Y-10013238D02*
X15479756Y-10008476D01*
X15479756Y-10008476D02*
X15474994Y-10003714D01*
X15474994Y-10003714D02*
X15470232Y-9994190D01*
X15470232Y-9994190D02*
X15470232Y-9975143D01*
X15470232Y-9975143D02*
X15474994Y-9965619D01*
X15474994Y-9965619D02*
X15479756Y-9960857D01*
X15479756Y-9960857D02*
X15489279Y-9956095D01*
X15489279Y-9956095D02*
X15494041Y-9956095D01*
X15494041Y-9956095D02*
X15503565Y-9960857D01*
X15503565Y-9960857D02*
X15508327Y-9965619D01*
X15508327Y-9965619D02*
X15513089Y-9975143D01*
X15513089Y-9975143D02*
X15513089Y-9994190D01*
X15513089Y-9994190D02*
X15517851Y-10003714D01*
X15517851Y-10003714D02*
X15522613Y-10008476D01*
X15522613Y-10008476D02*
X15532137Y-10013238D01*
X15532137Y-10013238D02*
X15551184Y-10013238D01*
X15551184Y-10013238D02*
X15560708Y-10008476D01*
X15560708Y-10008476D02*
X15565470Y-10003714D01*
X15565470Y-10003714D02*
X15570232Y-9994190D01*
X15570232Y-9994190D02*
X15570232Y-9975143D01*
X15570232Y-9975143D02*
X15565470Y-9965619D01*
X15565470Y-9965619D02*
X15560708Y-9960857D01*
X15560708Y-9960857D02*
X15551184Y-9956095D01*
X15551184Y-9956095D02*
X15532137Y-9956095D01*
X15532137Y-9956095D02*
X15522613Y-9960857D01*
X15522613Y-9960857D02*
X15517851Y-9965619D01*
X15517851Y-9965619D02*
X15513089Y-9975143D01*
X15503565Y-9870381D02*
X15570232Y-9870381D01*
X15465470Y-9894190D02*
X15536898Y-9918000D01*
X15536898Y-9918000D02*
X15536898Y-9856095D01*
X15470232Y-9827524D02*
X15470232Y-9760857D01*
X15470232Y-9760857D02*
X15570232Y-9803714D01*
X15570232Y-9722762D02*
X15470232Y-9722762D01*
X15470232Y-9722762D02*
X15541660Y-9689429D01*
X15541660Y-9689429D02*
X15470232Y-9656095D01*
X15470232Y-9656095D02*
X15570232Y-9656095D01*
X15570232Y-9608476D02*
X15470232Y-9608476D01*
X15470232Y-9608476D02*
X15541660Y-9575143D01*
X15541660Y-9575143D02*
X15470232Y-9541810D01*
X15470232Y-9541810D02*
X15570232Y-9541810D01*
X15570232Y-9441810D02*
X15570232Y-9498952D01*
X15570232Y-9470381D02*
X15470232Y-9470381D01*
X15470232Y-9470381D02*
X15484518Y-9479905D01*
X15484518Y-9479905D02*
X15494041Y-9489429D01*
X15494041Y-9489429D02*
X15498803Y-9498952D01*
X15470232Y-9356095D02*
X15470232Y-9375143D01*
X15470232Y-9375143D02*
X15474994Y-9384667D01*
X15474994Y-9384667D02*
X15479756Y-9389429D01*
X15479756Y-9389429D02*
X15494041Y-9398952D01*
X15494041Y-9398952D02*
X15513089Y-9403714D01*
X15513089Y-9403714D02*
X15551184Y-9403714D01*
X15551184Y-9403714D02*
X15560708Y-9398952D01*
X15560708Y-9398952D02*
X15565470Y-9394190D01*
X15565470Y-9394190D02*
X15570232Y-9384667D01*
X15570232Y-9384667D02*
X15570232Y-9365619D01*
X15570232Y-9365619D02*
X15565470Y-9356095D01*
X15565470Y-9356095D02*
X15560708Y-9351333D01*
X15560708Y-9351333D02*
X15551184Y-9346571D01*
X15551184Y-9346571D02*
X15527375Y-9346571D01*
X15527375Y-9346571D02*
X15517851Y-9351333D01*
X15517851Y-9351333D02*
X15513089Y-9356095D01*
X15513089Y-9356095D02*
X15508327Y-9365619D01*
X15508327Y-9365619D02*
X15508327Y-9384667D01*
X15508327Y-9384667D02*
X15513089Y-9394190D01*
X15513089Y-9394190D02*
X15517851Y-9398952D01*
X15517851Y-9398952D02*
X15527375Y-9403714D01*
X15470232Y-9284667D02*
X15470232Y-9275143D01*
X15470232Y-9275143D02*
X15474994Y-9265619D01*
X15474994Y-9265619D02*
X15479756Y-9260857D01*
X15479756Y-9260857D02*
X15489279Y-9256095D01*
X15489279Y-9256095D02*
X15508327Y-9251333D01*
X15508327Y-9251333D02*
X15532137Y-9251333D01*
X15532137Y-9251333D02*
X15551184Y-9256095D01*
X15551184Y-9256095D02*
X15560708Y-9260857D01*
X15560708Y-9260857D02*
X15565470Y-9265619D01*
X15565470Y-9265619D02*
X15570232Y-9275143D01*
X15570232Y-9275143D02*
X15570232Y-9284667D01*
X15570232Y-9284667D02*
X15565470Y-9294190D01*
X15565470Y-9294190D02*
X15560708Y-9298952D01*
X15560708Y-9298952D02*
X15551184Y-9303714D01*
X15551184Y-9303714D02*
X15532137Y-9308476D01*
X15532137Y-9308476D02*
X15508327Y-9308476D01*
X15508327Y-9308476D02*
X15489279Y-9303714D01*
X15489279Y-9303714D02*
X15479756Y-9298952D01*
X15479756Y-9298952D02*
X15474994Y-9294190D01*
X15474994Y-9294190D02*
X15470232Y-9284667D01*
X15570232Y-9160857D02*
X15570232Y-9208476D01*
X15570232Y-9208476D02*
X15470232Y-9208476D01*
X15565470Y-9132286D02*
X15570232Y-9118000D01*
X15570232Y-9118000D02*
X15570232Y-9094190D01*
X15570232Y-9094190D02*
X15565470Y-9084667D01*
X15565470Y-9084667D02*
X15560708Y-9079905D01*
X15560708Y-9079905D02*
X15551184Y-9075143D01*
X15551184Y-9075143D02*
X15541660Y-9075143D01*
X15541660Y-9075143D02*
X15532137Y-9079905D01*
X15532137Y-9079905D02*
X15527375Y-9084667D01*
X15527375Y-9084667D02*
X15522613Y-9094190D01*
X15522613Y-9094190D02*
X15517851Y-9113238D01*
X15517851Y-9113238D02*
X15513089Y-9122762D01*
X15513089Y-9122762D02*
X15508327Y-9127524D01*
X15508327Y-9127524D02*
X15498803Y-9132286D01*
X15498803Y-9132286D02*
X15489279Y-9132286D01*
X15489279Y-9132286D02*
X15479756Y-9127524D01*
X15479756Y-9127524D02*
X15474994Y-9122762D01*
X15474994Y-9122762D02*
X15470232Y-9113238D01*
X15470232Y-9113238D02*
X15470232Y-9089429D01*
X15470232Y-9089429D02*
X15474994Y-9075143D01*
X15570232Y-9032286D02*
X15470232Y-9032286D01*
X15470232Y-9032286D02*
X15541660Y-8998952D01*
X15541660Y-8998952D02*
X15470232Y-8965619D01*
X15470232Y-8965619D02*
X15570232Y-8965619D01*
X15470232Y-8932286D02*
X15470232Y-8875143D01*
X15570232Y-8903714D02*
X15470232Y-8903714D01*
X15570232Y-8784667D02*
X15522613Y-8818000D01*
X15570232Y-8841809D02*
X15470232Y-8841809D01*
X15470232Y-8841809D02*
X15470232Y-8803714D01*
X15470232Y-8803714D02*
X15474994Y-8794190D01*
X15474994Y-8794190D02*
X15479756Y-8789429D01*
X15479756Y-8789429D02*
X15489279Y-8784667D01*
X15489279Y-8784667D02*
X15503565Y-8784667D01*
X15503565Y-8784667D02*
X15513089Y-8789429D01*
X15513089Y-8789429D02*
X15517851Y-8794190D01*
X15517851Y-8794190D02*
X15522613Y-8803714D01*
X15522613Y-8803714D02*
X15522613Y-8841809D01*
X15479756Y-8746571D02*
X15474994Y-8741809D01*
X15474994Y-8741809D02*
X15470232Y-8732286D01*
X15470232Y-8732286D02*
X15470232Y-8708476D01*
X15470232Y-8708476D02*
X15474994Y-8698952D01*
X15474994Y-8698952D02*
X15479756Y-8694190D01*
X15479756Y-8694190D02*
X15489279Y-8689429D01*
X15489279Y-8689429D02*
X15498803Y-8689429D01*
X15498803Y-8689429D02*
X15513089Y-8694190D01*
X15513089Y-8694190D02*
X15570232Y-8751333D01*
X15570232Y-8751333D02*
X15570232Y-8689429D01*
X15579756Y-8670381D02*
X15579756Y-8594190D01*
X15570232Y-8522762D02*
X15570232Y-8570381D01*
X15570232Y-8570381D02*
X15470232Y-8570381D01*
X15517851Y-8456095D02*
X15517851Y-8489428D01*
X15570232Y-8489428D02*
X15470232Y-8489428D01*
X15470232Y-8489428D02*
X15470232Y-8441809D01*
X15565470Y-8408476D02*
X15570232Y-8394190D01*
X15570232Y-8394190D02*
X15570232Y-8370381D01*
X15570232Y-8370381D02*
X15565470Y-8360857D01*
X15565470Y-8360857D02*
X15560708Y-8356095D01*
X15560708Y-8356095D02*
X15551184Y-8351333D01*
X15551184Y-8351333D02*
X15541660Y-8351333D01*
X15541660Y-8351333D02*
X15532137Y-8356095D01*
X15532137Y-8356095D02*
X15527375Y-8360857D01*
X15527375Y-8360857D02*
X15522613Y-8370381D01*
X15522613Y-8370381D02*
X15517851Y-8389428D01*
X15517851Y-8389428D02*
X15513089Y-8398952D01*
X15513089Y-8398952D02*
X15508327Y-8403714D01*
X15508327Y-8403714D02*
X15498803Y-8408476D01*
X15498803Y-8408476D02*
X15489279Y-8408476D01*
X15489279Y-8408476D02*
X15479756Y-8403714D01*
X15479756Y-8403714D02*
X15474994Y-8398952D01*
X15474994Y-8398952D02*
X15470232Y-8389428D01*
X15470232Y-8389428D02*
X15470232Y-8365619D01*
X15470232Y-8365619D02*
X15474994Y-8351333D01*
X13711095Y-12319101D02*
X13744429Y-12319101D01*
X13758714Y-12371482D02*
X13711095Y-12371482D01*
X13711095Y-12371482D02*
X13711095Y-12271482D01*
X13711095Y-12271482D02*
X13758714Y-12271482D01*
X13796810Y-12366720D02*
X13811095Y-12371482D01*
X13811095Y-12371482D02*
X13834905Y-12371482D01*
X13834905Y-12371482D02*
X13844429Y-12366720D01*
X13844429Y-12366720D02*
X13849190Y-12361958D01*
X13849190Y-12361958D02*
X13853952Y-12352434D01*
X13853952Y-12352434D02*
X13853952Y-12342910D01*
X13853952Y-12342910D02*
X13849190Y-12333387D01*
X13849190Y-12333387D02*
X13844429Y-12328625D01*
X13844429Y-12328625D02*
X13834905Y-12323863D01*
X13834905Y-12323863D02*
X13815857Y-12319101D01*
X13815857Y-12319101D02*
X13806333Y-12314339D01*
X13806333Y-12314339D02*
X13801571Y-12309577D01*
X13801571Y-12309577D02*
X13796810Y-12300053D01*
X13796810Y-12300053D02*
X13796810Y-12290529D01*
X13796810Y-12290529D02*
X13801571Y-12281006D01*
X13801571Y-12281006D02*
X13806333Y-12276244D01*
X13806333Y-12276244D02*
X13815857Y-12271482D01*
X13815857Y-12271482D02*
X13839667Y-12271482D01*
X13839667Y-12271482D02*
X13853952Y-12276244D01*
X13896810Y-12371482D02*
X13896810Y-12271482D01*
X13896810Y-12271482D02*
X13934905Y-12271482D01*
X13934905Y-12271482D02*
X13944429Y-12276244D01*
X13944429Y-12276244D02*
X13949190Y-12281006D01*
X13949190Y-12281006D02*
X13953952Y-12290529D01*
X13953952Y-12290529D02*
X13953952Y-12304815D01*
X13953952Y-12304815D02*
X13949190Y-12314339D01*
X13949190Y-12314339D02*
X13944429Y-12319101D01*
X13944429Y-12319101D02*
X13934905Y-12323863D01*
X13934905Y-12323863D02*
X13896810Y-12323863D01*
X13987286Y-12271482D02*
X14049190Y-12271482D01*
X14049190Y-12271482D02*
X14015857Y-12309577D01*
X14015857Y-12309577D02*
X14030143Y-12309577D01*
X14030143Y-12309577D02*
X14039667Y-12314339D01*
X14039667Y-12314339D02*
X14044429Y-12319101D01*
X14044429Y-12319101D02*
X14049190Y-12328625D01*
X14049190Y-12328625D02*
X14049190Y-12352434D01*
X14049190Y-12352434D02*
X14044429Y-12361958D01*
X14044429Y-12361958D02*
X14039667Y-12366720D01*
X14039667Y-12366720D02*
X14030143Y-12371482D01*
X14030143Y-12371482D02*
X14001571Y-12371482D01*
X14001571Y-12371482D02*
X13992048Y-12366720D01*
X13992048Y-12366720D02*
X13987286Y-12361958D01*
X14087286Y-12281006D02*
X14092048Y-12276244D01*
X14092048Y-12276244D02*
X14101571Y-12271482D01*
X14101571Y-12271482D02*
X14125381Y-12271482D01*
X14125381Y-12271482D02*
X14134905Y-12276244D01*
X14134905Y-12276244D02*
X14139667Y-12281006D01*
X14139667Y-12281006D02*
X14144429Y-12290529D01*
X14144429Y-12290529D02*
X14144429Y-12300053D01*
X14144429Y-12300053D02*
X14139667Y-12314339D01*
X14139667Y-12314339D02*
X14082524Y-12371482D01*
X14082524Y-12371482D02*
X14144429Y-12371482D01*
X14187286Y-12333387D02*
X14263476Y-12333387D01*
X14306333Y-12366720D02*
X14320619Y-12371482D01*
X14320619Y-12371482D02*
X14344429Y-12371482D01*
X14344429Y-12371482D02*
X14353952Y-12366720D01*
X14353952Y-12366720D02*
X14358714Y-12361958D01*
X14358714Y-12361958D02*
X14363476Y-12352434D01*
X14363476Y-12352434D02*
X14363476Y-12342910D01*
X14363476Y-12342910D02*
X14358714Y-12333387D01*
X14358714Y-12333387D02*
X14353952Y-12328625D01*
X14353952Y-12328625D02*
X14344429Y-12323863D01*
X14344429Y-12323863D02*
X14325381Y-12319101D01*
X14325381Y-12319101D02*
X14315857Y-12314339D01*
X14315857Y-12314339D02*
X14311095Y-12309577D01*
X14311095Y-12309577D02*
X14306333Y-12300053D01*
X14306333Y-12300053D02*
X14306333Y-12290529D01*
X14306333Y-12290529D02*
X14311095Y-12281006D01*
X14311095Y-12281006D02*
X14315857Y-12276244D01*
X14315857Y-12276244D02*
X14325381Y-12271482D01*
X14325381Y-12271482D02*
X14349190Y-12271482D01*
X14349190Y-12271482D02*
X14363476Y-12276244D01*
X14396810Y-12271482D02*
X14458714Y-12271482D01*
X14458714Y-12271482D02*
X14425381Y-12309577D01*
X14425381Y-12309577D02*
X14439667Y-12309577D01*
X14439667Y-12309577D02*
X14449190Y-12314339D01*
X14449190Y-12314339D02*
X14453952Y-12319101D01*
X14453952Y-12319101D02*
X14458714Y-12328625D01*
X14458714Y-12328625D02*
X14458714Y-12352434D01*
X14458714Y-12352434D02*
X14453952Y-12361958D01*
X14453952Y-12361958D02*
X14449190Y-12366720D01*
X14449190Y-12366720D02*
X14439667Y-12371482D01*
X14439667Y-12371482D02*
X14411095Y-12371482D01*
X14411095Y-12371482D02*
X14401571Y-12366720D01*
X14401571Y-12366720D02*
X14396810Y-12361958D01*
X14501571Y-12333387D02*
X14577762Y-12333387D01*
X14615857Y-12271482D02*
X14639667Y-12371482D01*
X14639667Y-12371482D02*
X14658714Y-12300053D01*
X14658714Y-12300053D02*
X14677762Y-12371482D01*
X14677762Y-12371482D02*
X14701571Y-12271482D01*
X14796809Y-12371482D02*
X14763476Y-12323863D01*
X14739667Y-12371482D02*
X14739667Y-12271482D01*
X14739667Y-12271482D02*
X14777762Y-12271482D01*
X14777762Y-12271482D02*
X14787286Y-12276244D01*
X14787286Y-12276244D02*
X14792048Y-12281006D01*
X14792048Y-12281006D02*
X14796809Y-12290529D01*
X14796809Y-12290529D02*
X14796809Y-12304815D01*
X14796809Y-12304815D02*
X14792048Y-12314339D01*
X14792048Y-12314339D02*
X14787286Y-12319101D01*
X14787286Y-12319101D02*
X14777762Y-12323863D01*
X14777762Y-12323863D02*
X14739667Y-12323863D01*
X14858714Y-12271482D02*
X14877762Y-12271482D01*
X14877762Y-12271482D02*
X14887286Y-12276244D01*
X14887286Y-12276244D02*
X14896809Y-12285768D01*
X14896809Y-12285768D02*
X14901571Y-12304815D01*
X14901571Y-12304815D02*
X14901571Y-12338148D01*
X14901571Y-12338148D02*
X14896809Y-12357196D01*
X14896809Y-12357196D02*
X14887286Y-12366720D01*
X14887286Y-12366720D02*
X14877762Y-12371482D01*
X14877762Y-12371482D02*
X14858714Y-12371482D01*
X14858714Y-12371482D02*
X14849190Y-12366720D01*
X14849190Y-12366720D02*
X14839667Y-12357196D01*
X14839667Y-12357196D02*
X14834905Y-12338148D01*
X14834905Y-12338148D02*
X14834905Y-12304815D01*
X14834905Y-12304815D02*
X14839667Y-12285768D01*
X14839667Y-12285768D02*
X14849190Y-12276244D01*
X14849190Y-12276244D02*
X14858714Y-12271482D01*
X14963476Y-12271482D02*
X14982524Y-12271482D01*
X14982524Y-12271482D02*
X14992048Y-12276244D01*
X14992048Y-12276244D02*
X15001571Y-12285768D01*
X15001571Y-12285768D02*
X15006333Y-12304815D01*
X15006333Y-12304815D02*
X15006333Y-12338148D01*
X15006333Y-12338148D02*
X15001571Y-12357196D01*
X15001571Y-12357196D02*
X14992048Y-12366720D01*
X14992048Y-12366720D02*
X14982524Y-12371482D01*
X14982524Y-12371482D02*
X14963476Y-12371482D01*
X14963476Y-12371482D02*
X14953952Y-12366720D01*
X14953952Y-12366720D02*
X14944429Y-12357196D01*
X14944429Y-12357196D02*
X14939667Y-12338148D01*
X14939667Y-12338148D02*
X14939667Y-12304815D01*
X14939667Y-12304815D02*
X14944429Y-12285768D01*
X14944429Y-12285768D02*
X14953952Y-12276244D01*
X14953952Y-12276244D02*
X14963476Y-12271482D01*
X15049190Y-12371482D02*
X15049190Y-12271482D01*
X15049190Y-12271482D02*
X15082524Y-12342910D01*
X15082524Y-12342910D02*
X15115857Y-12271482D01*
X15115857Y-12271482D02*
X15115857Y-12371482D01*
X15163476Y-12333387D02*
X15239667Y-12333387D01*
X15339667Y-12371482D02*
X15282524Y-12371482D01*
X15311095Y-12371482D02*
X15311095Y-12271482D01*
X15311095Y-12271482D02*
X15301571Y-12285768D01*
X15301571Y-12285768D02*
X15292048Y-12295291D01*
X15292048Y-12295291D02*
X15282524Y-12300053D01*
X14446809Y-10751482D02*
X14446809Y-10832434D01*
X14446809Y-10832434D02*
X14451571Y-10841958D01*
X14451571Y-10841958D02*
X14456333Y-10846720D01*
X14456333Y-10846720D02*
X14465857Y-10851482D01*
X14465857Y-10851482D02*
X14484905Y-10851482D01*
X14484905Y-10851482D02*
X14494428Y-10846720D01*
X14494428Y-10846720D02*
X14499190Y-10841958D01*
X14499190Y-10841958D02*
X14503952Y-10832434D01*
X14503952Y-10832434D02*
X14503952Y-10751482D01*
X14603952Y-10851482D02*
X14546809Y-10851482D01*
X14575381Y-10851482D02*
X14575381Y-10751482D01*
X14575381Y-10751482D02*
X14565857Y-10765768D01*
X14565857Y-10765768D02*
X14556333Y-10775291D01*
X14556333Y-10775291D02*
X14546809Y-10780053D01*
X15344847Y-12221301D02*
X15266106Y-12221301D01*
X15266106Y-12221301D02*
X15322349Y-12195054D01*
X15322349Y-12195054D02*
X15266106Y-12168808D01*
X15266106Y-12168808D02*
X15344847Y-12168808D01*
X15344847Y-12131312D02*
X15266106Y-12131312D01*
X15266106Y-12131312D02*
X15322349Y-12105066D01*
X15322349Y-12105066D02*
X15266106Y-12078819D01*
X15266106Y-12078819D02*
X15344847Y-12078819D01*
X15344847Y-12041323D02*
X15266106Y-12041323D01*
X15337348Y-11958834D02*
X15341097Y-11962583D01*
X15341097Y-11962583D02*
X15344847Y-11973832D01*
X15344847Y-11973832D02*
X15344847Y-11981331D01*
X15344847Y-11981331D02*
X15341097Y-11992580D01*
X15341097Y-11992580D02*
X15333598Y-12000079D01*
X15333598Y-12000079D02*
X15326099Y-12003828D01*
X15326099Y-12003828D02*
X15311101Y-12007578D01*
X15311101Y-12007578D02*
X15299852Y-12007578D01*
X15299852Y-12007578D02*
X15284854Y-12003828D01*
X15284854Y-12003828D02*
X15277355Y-12000079D01*
X15277355Y-12000079D02*
X15269856Y-11992580D01*
X15269856Y-11992580D02*
X15266106Y-11981331D01*
X15266106Y-11981331D02*
X15266106Y-11973832D01*
X15266106Y-11973832D02*
X15269856Y-11962583D01*
X15269856Y-11962583D02*
X15273606Y-11958834D01*
X15266106Y-11936337D02*
X15266106Y-11891342D01*
X15344847Y-11913839D02*
X15266106Y-11913839D01*
X15266106Y-11827600D02*
X15266106Y-11865095D01*
X15266106Y-11865095D02*
X15303602Y-11868845D01*
X15303602Y-11868845D02*
X15299852Y-11865095D01*
X15299852Y-11865095D02*
X15296103Y-11857596D01*
X15296103Y-11857596D02*
X15296103Y-11838849D01*
X15296103Y-11838849D02*
X15299852Y-11831350D01*
X15299852Y-11831350D02*
X15303602Y-11827600D01*
X15303602Y-11827600D02*
X15311101Y-11823851D01*
X15311101Y-11823851D02*
X15329849Y-11823851D01*
X15329849Y-11823851D02*
X15337348Y-11827600D01*
X15337348Y-11827600D02*
X15341097Y-11831350D01*
X15341097Y-11831350D02*
X15344847Y-11838849D01*
X15344847Y-11838849D02*
X15344847Y-11857596D01*
X15344847Y-11857596D02*
X15341097Y-11865095D01*
X15341097Y-11865095D02*
X15337348Y-11868845D01*
X15299852Y-11778856D02*
X15296103Y-11786355D01*
X15296103Y-11786355D02*
X15292353Y-11790105D01*
X15292353Y-11790105D02*
X15284854Y-11793854D01*
X15284854Y-11793854D02*
X15281105Y-11793854D01*
X15281105Y-11793854D02*
X15273606Y-11790105D01*
X15273606Y-11790105D02*
X15269856Y-11786355D01*
X15269856Y-11786355D02*
X15266106Y-11778856D01*
X15266106Y-11778856D02*
X15266106Y-11763858D01*
X15266106Y-11763858D02*
X15269856Y-11756359D01*
X15269856Y-11756359D02*
X15273606Y-11752609D01*
X15273606Y-11752609D02*
X15281105Y-11748860D01*
X15281105Y-11748860D02*
X15284854Y-11748860D01*
X15284854Y-11748860D02*
X15292353Y-11752609D01*
X15292353Y-11752609D02*
X15296103Y-11756359D01*
X15296103Y-11756359D02*
X15299852Y-11763858D01*
X15299852Y-11763858D02*
X15299852Y-11778856D01*
X15299852Y-11778856D02*
X15303602Y-11786355D01*
X15303602Y-11786355D02*
X15307351Y-11790105D01*
X15307351Y-11790105D02*
X15314850Y-11793854D01*
X15314850Y-11793854D02*
X15329849Y-11793854D01*
X15329849Y-11793854D02*
X15337348Y-11790105D01*
X15337348Y-11790105D02*
X15341097Y-11786355D01*
X15341097Y-11786355D02*
X15344847Y-11778856D01*
X15344847Y-11778856D02*
X15344847Y-11763858D01*
X15344847Y-11763858D02*
X15341097Y-11756359D01*
X15341097Y-11756359D02*
X15337348Y-11752609D01*
X15337348Y-11752609D02*
X15329849Y-11748860D01*
X15329849Y-11748860D02*
X15314850Y-11748860D01*
X15314850Y-11748860D02*
X15307351Y-11752609D01*
X15307351Y-11752609D02*
X15303602Y-11756359D01*
X15303602Y-11756359D02*
X15299852Y-11763858D01*
X15292353Y-11681368D02*
X15344847Y-11681368D01*
X15262357Y-11700116D02*
X15318600Y-11718864D01*
X15318600Y-11718864D02*
X15318600Y-11670120D01*
X15299852Y-11628875D02*
X15296103Y-11636374D01*
X15296103Y-11636374D02*
X15292353Y-11640123D01*
X15292353Y-11640123D02*
X15284854Y-11643873D01*
X15284854Y-11643873D02*
X15281105Y-11643873D01*
X15281105Y-11643873D02*
X15273606Y-11640123D01*
X15273606Y-11640123D02*
X15269856Y-11636374D01*
X15269856Y-11636374D02*
X15266106Y-11628875D01*
X15266106Y-11628875D02*
X15266106Y-11613877D01*
X15266106Y-11613877D02*
X15269856Y-11606378D01*
X15269856Y-11606378D02*
X15273606Y-11602628D01*
X15273606Y-11602628D02*
X15281105Y-11598878D01*
X15281105Y-11598878D02*
X15284854Y-11598878D01*
X15284854Y-11598878D02*
X15292353Y-11602628D01*
X15292353Y-11602628D02*
X15296103Y-11606378D01*
X15296103Y-11606378D02*
X15299852Y-11613877D01*
X15299852Y-11613877D02*
X15299852Y-11628875D01*
X15299852Y-11628875D02*
X15303602Y-11636374D01*
X15303602Y-11636374D02*
X15307351Y-11640123D01*
X15307351Y-11640123D02*
X15314850Y-11643873D01*
X15314850Y-11643873D02*
X15329849Y-11643873D01*
X15329849Y-11643873D02*
X15337348Y-11640123D01*
X15337348Y-11640123D02*
X15341097Y-11636374D01*
X15341097Y-11636374D02*
X15344847Y-11628875D01*
X15344847Y-11628875D02*
X15344847Y-11613877D01*
X15344847Y-11613877D02*
X15341097Y-11606378D01*
X15341097Y-11606378D02*
X15337348Y-11602628D01*
X15337348Y-11602628D02*
X15329849Y-11598878D01*
X15329849Y-11598878D02*
X15314850Y-11598878D01*
X15314850Y-11598878D02*
X15307351Y-11602628D01*
X15307351Y-11602628D02*
X15303602Y-11606378D01*
X15303602Y-11606378D02*
X15299852Y-11613877D01*
X15314850Y-11565133D02*
X15314850Y-11505140D01*
X15266106Y-11452647D02*
X15266106Y-11445148D01*
X15266106Y-11445148D02*
X15269856Y-11437648D01*
X15269856Y-11437648D02*
X15273606Y-11433899D01*
X15273606Y-11433899D02*
X15281105Y-11430149D01*
X15281105Y-11430149D02*
X15296103Y-11426400D01*
X15296103Y-11426400D02*
X15314850Y-11426400D01*
X15314850Y-11426400D02*
X15329849Y-11430149D01*
X15329849Y-11430149D02*
X15337348Y-11433899D01*
X15337348Y-11433899D02*
X15341097Y-11437648D01*
X15341097Y-11437648D02*
X15344847Y-11445148D01*
X15344847Y-11445148D02*
X15344847Y-11452647D01*
X15344847Y-11452647D02*
X15341097Y-11460146D01*
X15341097Y-11460146D02*
X15337348Y-11463895D01*
X15337348Y-11463895D02*
X15329849Y-11467645D01*
X15329849Y-11467645D02*
X15314850Y-11471394D01*
X15314850Y-11471394D02*
X15296103Y-11471394D01*
X15296103Y-11471394D02*
X15281105Y-11467645D01*
X15281105Y-11467645D02*
X15273606Y-11463895D01*
X15273606Y-11463895D02*
X15269856Y-11460146D01*
X15269856Y-11460146D02*
X15266106Y-11452647D01*
X15266106Y-11377656D02*
X15266106Y-11370157D01*
X15266106Y-11370157D02*
X15269856Y-11362658D01*
X15269856Y-11362658D02*
X15273606Y-11358908D01*
X15273606Y-11358908D02*
X15281105Y-11355159D01*
X15281105Y-11355159D02*
X15296103Y-11351409D01*
X15296103Y-11351409D02*
X15314850Y-11351409D01*
X15314850Y-11351409D02*
X15329849Y-11355159D01*
X15329849Y-11355159D02*
X15337348Y-11358908D01*
X15337348Y-11358908D02*
X15341097Y-11362658D01*
X15341097Y-11362658D02*
X15344847Y-11370157D01*
X15344847Y-11370157D02*
X15344847Y-11377656D01*
X15344847Y-11377656D02*
X15341097Y-11385155D01*
X15341097Y-11385155D02*
X15337348Y-11388905D01*
X15337348Y-11388905D02*
X15329849Y-11392654D01*
X15329849Y-11392654D02*
X15314850Y-11396404D01*
X15314850Y-11396404D02*
X15296103Y-11396404D01*
X15296103Y-11396404D02*
X15281105Y-11392654D01*
X15281105Y-11392654D02*
X15273606Y-11388905D01*
X15273606Y-11388905D02*
X15269856Y-11385155D01*
X15269856Y-11385155D02*
X15266106Y-11377656D01*
X15314850Y-11317663D02*
X15314850Y-11257671D01*
X15266106Y-11205177D02*
X15266106Y-11197678D01*
X15266106Y-11197678D02*
X15269856Y-11190179D01*
X15269856Y-11190179D02*
X15273606Y-11186430D01*
X15273606Y-11186430D02*
X15281105Y-11182680D01*
X15281105Y-11182680D02*
X15296103Y-11178931D01*
X15296103Y-11178931D02*
X15314850Y-11178931D01*
X15314850Y-11178931D02*
X15329849Y-11182680D01*
X15329849Y-11182680D02*
X15337348Y-11186430D01*
X15337348Y-11186430D02*
X15341097Y-11190179D01*
X15341097Y-11190179D02*
X15344847Y-11197678D01*
X15344847Y-11197678D02*
X15344847Y-11205177D01*
X15344847Y-11205177D02*
X15341097Y-11212676D01*
X15341097Y-11212676D02*
X15337348Y-11216426D01*
X15337348Y-11216426D02*
X15329849Y-11220175D01*
X15329849Y-11220175D02*
X15314850Y-11223925D01*
X15314850Y-11223925D02*
X15296103Y-11223925D01*
X15296103Y-11223925D02*
X15281105Y-11220175D01*
X15281105Y-11220175D02*
X15273606Y-11216426D01*
X15273606Y-11216426D02*
X15269856Y-11212676D01*
X15269856Y-11212676D02*
X15266106Y-11205177D01*
X15344847Y-11103940D02*
X15344847Y-11148934D01*
X15344847Y-11126437D02*
X15266106Y-11126437D01*
X15266106Y-11126437D02*
X15277355Y-11133936D01*
X15277355Y-11133936D02*
X15284854Y-11141435D01*
X15284854Y-11141435D02*
X15288604Y-11148934D01*
X15273606Y-11073944D02*
X15269856Y-11070194D01*
X15269856Y-11070194D02*
X15266106Y-11062695D01*
X15266106Y-11062695D02*
X15266106Y-11043947D01*
X15266106Y-11043947D02*
X15269856Y-11036448D01*
X15269856Y-11036448D02*
X15273606Y-11032699D01*
X15273606Y-11032699D02*
X15281105Y-11028949D01*
X15281105Y-11028949D02*
X15288604Y-11028949D01*
X15288604Y-11028949D02*
X15299852Y-11032699D01*
X15299852Y-11032699D02*
X15344847Y-11077693D01*
X15344847Y-11077693D02*
X15344847Y-11028949D01*
X12392018Y-10725619D02*
X12311066Y-10725619D01*
X12311066Y-10725619D02*
X12301542Y-10730381D01*
X12301542Y-10730381D02*
X12296780Y-10735143D01*
X12296780Y-10735143D02*
X12292018Y-10744667D01*
X12292018Y-10744667D02*
X12292018Y-10763714D01*
X12292018Y-10763714D02*
X12296780Y-10773238D01*
X12296780Y-10773238D02*
X12301542Y-10778000D01*
X12301542Y-10778000D02*
X12311066Y-10782762D01*
X12311066Y-10782762D02*
X12392018Y-10782762D01*
X12296780Y-10825619D02*
X12292018Y-10839905D01*
X12292018Y-10839905D02*
X12292018Y-10863714D01*
X12292018Y-10863714D02*
X12296780Y-10873238D01*
X12296780Y-10873238D02*
X12301542Y-10878000D01*
X12301542Y-10878000D02*
X12311066Y-10882762D01*
X12311066Y-10882762D02*
X12320589Y-10882762D01*
X12320589Y-10882762D02*
X12330113Y-10878000D01*
X12330113Y-10878000D02*
X12334875Y-10873238D01*
X12334875Y-10873238D02*
X12339637Y-10863714D01*
X12339637Y-10863714D02*
X12344399Y-10844667D01*
X12344399Y-10844667D02*
X12349161Y-10835143D01*
X12349161Y-10835143D02*
X12353923Y-10830381D01*
X12353923Y-10830381D02*
X12363447Y-10825619D01*
X12363447Y-10825619D02*
X12372970Y-10825619D01*
X12372970Y-10825619D02*
X12382494Y-10830381D01*
X12382494Y-10830381D02*
X12387256Y-10835143D01*
X12387256Y-10835143D02*
X12392018Y-10844667D01*
X12392018Y-10844667D02*
X12392018Y-10868476D01*
X12392018Y-10868476D02*
X12387256Y-10882762D01*
X12344399Y-10958952D02*
X12339637Y-10973238D01*
X12339637Y-10973238D02*
X12334875Y-10978000D01*
X12334875Y-10978000D02*
X12325351Y-10982762D01*
X12325351Y-10982762D02*
X12311066Y-10982762D01*
X12311066Y-10982762D02*
X12301542Y-10978000D01*
X12301542Y-10978000D02*
X12296780Y-10973238D01*
X12296780Y-10973238D02*
X12292018Y-10963714D01*
X12292018Y-10963714D02*
X12292018Y-10925619D01*
X12292018Y-10925619D02*
X12392018Y-10925619D01*
X12392018Y-10925619D02*
X12392018Y-10958952D01*
X12392018Y-10958952D02*
X12387256Y-10968476D01*
X12387256Y-10968476D02*
X12382494Y-10973238D01*
X12382494Y-10973238D02*
X12372970Y-10978000D01*
X12372970Y-10978000D02*
X12363447Y-10978000D01*
X12363447Y-10978000D02*
X12353923Y-10973238D01*
X12353923Y-10973238D02*
X12349161Y-10968476D01*
X12349161Y-10968476D02*
X12344399Y-10958952D01*
X12344399Y-10958952D02*
X12344399Y-10925619D01*
X12282494Y-11001809D02*
X12282494Y-11078000D01*
X12301542Y-11158952D02*
X12296780Y-11154190D01*
X12296780Y-11154190D02*
X12292018Y-11139905D01*
X12292018Y-11139905D02*
X12292018Y-11130381D01*
X12292018Y-11130381D02*
X12296780Y-11116095D01*
X12296780Y-11116095D02*
X12306304Y-11106571D01*
X12306304Y-11106571D02*
X12315828Y-11101809D01*
X12315828Y-11101809D02*
X12334875Y-11097048D01*
X12334875Y-11097048D02*
X12349161Y-11097048D01*
X12349161Y-11097048D02*
X12368208Y-11101809D01*
X12368208Y-11101809D02*
X12377732Y-11106571D01*
X12377732Y-11106571D02*
X12387256Y-11116095D01*
X12387256Y-11116095D02*
X12392018Y-11130381D01*
X12392018Y-11130381D02*
X12392018Y-11139905D01*
X12392018Y-11139905D02*
X12387256Y-11154190D01*
X12387256Y-11154190D02*
X12382494Y-11158952D01*
X12282494Y-11178000D02*
X12282494Y-11254190D01*
X12292018Y-11335143D02*
X12339637Y-11301809D01*
X12292018Y-11278000D02*
X12392018Y-11278000D01*
X12392018Y-11278000D02*
X12392018Y-11316095D01*
X12392018Y-11316095D02*
X12387256Y-11325619D01*
X12387256Y-11325619D02*
X12382494Y-11330381D01*
X12382494Y-11330381D02*
X12372970Y-11335143D01*
X12372970Y-11335143D02*
X12358685Y-11335143D01*
X12358685Y-11335143D02*
X12349161Y-11330381D01*
X12349161Y-11330381D02*
X12344399Y-11325619D01*
X12344399Y-11325619D02*
X12339637Y-11316095D01*
X12339637Y-11316095D02*
X12339637Y-11278000D01*
X12296780Y-11416095D02*
X12292018Y-11406571D01*
X12292018Y-11406571D02*
X12292018Y-11387524D01*
X12292018Y-11387524D02*
X12296780Y-11378000D01*
X12296780Y-11378000D02*
X12306304Y-11373238D01*
X12306304Y-11373238D02*
X12344399Y-11373238D01*
X12344399Y-11373238D02*
X12353923Y-11378000D01*
X12353923Y-11378000D02*
X12358685Y-11387524D01*
X12358685Y-11387524D02*
X12358685Y-11406571D01*
X12358685Y-11406571D02*
X12353923Y-11416095D01*
X12353923Y-11416095D02*
X12344399Y-11420857D01*
X12344399Y-11420857D02*
X12334875Y-11420857D01*
X12334875Y-11420857D02*
X12325351Y-11373238D01*
X12296780Y-11506571D02*
X12292018Y-11497047D01*
X12292018Y-11497047D02*
X12292018Y-11478000D01*
X12292018Y-11478000D02*
X12296780Y-11468476D01*
X12296780Y-11468476D02*
X12301542Y-11463714D01*
X12301542Y-11463714D02*
X12311066Y-11458952D01*
X12311066Y-11458952D02*
X12339637Y-11458952D01*
X12339637Y-11458952D02*
X12349161Y-11463714D01*
X12349161Y-11463714D02*
X12353923Y-11468476D01*
X12353923Y-11468476D02*
X12358685Y-11478000D01*
X12358685Y-11478000D02*
X12358685Y-11497047D01*
X12358685Y-11497047D02*
X12353923Y-11506571D01*
X12296780Y-11587524D02*
X12292018Y-11578000D01*
X12292018Y-11578000D02*
X12292018Y-11558952D01*
X12292018Y-11558952D02*
X12296780Y-11549428D01*
X12296780Y-11549428D02*
X12306304Y-11544667D01*
X12306304Y-11544667D02*
X12344399Y-11544667D01*
X12344399Y-11544667D02*
X12353923Y-11549428D01*
X12353923Y-11549428D02*
X12358685Y-11558952D01*
X12358685Y-11558952D02*
X12358685Y-11578000D01*
X12358685Y-11578000D02*
X12353923Y-11587524D01*
X12353923Y-11587524D02*
X12344399Y-11592286D01*
X12344399Y-11592286D02*
X12334875Y-11592286D01*
X12334875Y-11592286D02*
X12325351Y-11544667D01*
X12358685Y-11635143D02*
X12258685Y-11635143D01*
X12353923Y-11635143D02*
X12358685Y-11644667D01*
X12358685Y-11644667D02*
X12358685Y-11663714D01*
X12358685Y-11663714D02*
X12353923Y-11673238D01*
X12353923Y-11673238D02*
X12349161Y-11678000D01*
X12349161Y-11678000D02*
X12339637Y-11682762D01*
X12339637Y-11682762D02*
X12311066Y-11682762D01*
X12311066Y-11682762D02*
X12301542Y-11678000D01*
X12301542Y-11678000D02*
X12296780Y-11673238D01*
X12296780Y-11673238D02*
X12292018Y-11663714D01*
X12292018Y-11663714D02*
X12292018Y-11644667D01*
X12292018Y-11644667D02*
X12296780Y-11635143D01*
X12358685Y-11711333D02*
X12358685Y-11749428D01*
X12392018Y-11725619D02*
X12306304Y-11725619D01*
X12306304Y-11725619D02*
X12296780Y-11730381D01*
X12296780Y-11730381D02*
X12292018Y-11739905D01*
X12292018Y-11739905D02*
X12292018Y-11749428D01*
X12292018Y-11825619D02*
X12344399Y-11825619D01*
X12344399Y-11825619D02*
X12353923Y-11820857D01*
X12353923Y-11820857D02*
X12358685Y-11811333D01*
X12358685Y-11811333D02*
X12358685Y-11792286D01*
X12358685Y-11792286D02*
X12353923Y-11782762D01*
X12296780Y-11825619D02*
X12292018Y-11816095D01*
X12292018Y-11816095D02*
X12292018Y-11792286D01*
X12292018Y-11792286D02*
X12296780Y-11782762D01*
X12296780Y-11782762D02*
X12306304Y-11778000D01*
X12306304Y-11778000D02*
X12315828Y-11778000D01*
X12315828Y-11778000D02*
X12325351Y-11782762D01*
X12325351Y-11782762D02*
X12330113Y-11792286D01*
X12330113Y-11792286D02*
X12330113Y-11816095D01*
X12330113Y-11816095D02*
X12334875Y-11825619D01*
X12296780Y-11916095D02*
X12292018Y-11906571D01*
X12292018Y-11906571D02*
X12292018Y-11887524D01*
X12292018Y-11887524D02*
X12296780Y-11878000D01*
X12296780Y-11878000D02*
X12301542Y-11873238D01*
X12301542Y-11873238D02*
X12311066Y-11868476D01*
X12311066Y-11868476D02*
X12339637Y-11868476D01*
X12339637Y-11868476D02*
X12349161Y-11873238D01*
X12349161Y-11873238D02*
X12353923Y-11878000D01*
X12353923Y-11878000D02*
X12358685Y-11887524D01*
X12358685Y-11887524D02*
X12358685Y-11906571D01*
X12358685Y-11906571D02*
X12353923Y-11916095D01*
X12292018Y-11973238D02*
X12296780Y-11963714D01*
X12296780Y-11963714D02*
X12306304Y-11958952D01*
X12306304Y-11958952D02*
X12392018Y-11958952D01*
X12296780Y-12049429D02*
X12292018Y-12039905D01*
X12292018Y-12039905D02*
X12292018Y-12020857D01*
X12292018Y-12020857D02*
X12296780Y-12011333D01*
X12296780Y-12011333D02*
X12306304Y-12006571D01*
X12306304Y-12006571D02*
X12344399Y-12006571D01*
X12344399Y-12006571D02*
X12353923Y-12011333D01*
X12353923Y-12011333D02*
X12358685Y-12020857D01*
X12358685Y-12020857D02*
X12358685Y-12039905D01*
X12358685Y-12039905D02*
X12353923Y-12049429D01*
X12353923Y-12049429D02*
X12344399Y-12054190D01*
X12344399Y-12054190D02*
X12334875Y-12054190D01*
X12334875Y-12054190D02*
X12325351Y-12006571D01*
X12282494Y-12073238D02*
X12282494Y-12149429D01*
X12392018Y-12173238D02*
X12311066Y-12173238D01*
X12311066Y-12173238D02*
X12301542Y-12178000D01*
X12301542Y-12178000D02*
X12296780Y-12182762D01*
X12296780Y-12182762D02*
X12292018Y-12192286D01*
X12292018Y-12192286D02*
X12292018Y-12211333D01*
X12292018Y-12211333D02*
X12296780Y-12220857D01*
X12296780Y-12220857D02*
X12301542Y-12225619D01*
X12301542Y-12225619D02*
X12311066Y-12230381D01*
X12311066Y-12230381D02*
X12392018Y-12230381D01*
X12296780Y-12273238D02*
X12292018Y-12287524D01*
X12292018Y-12287524D02*
X12292018Y-12311333D01*
X12292018Y-12311333D02*
X12296780Y-12320857D01*
X12296780Y-12320857D02*
X12301542Y-12325619D01*
X12301542Y-12325619D02*
X12311066Y-12330381D01*
X12311066Y-12330381D02*
X12320589Y-12330381D01*
X12320589Y-12330381D02*
X12330113Y-12325619D01*
X12330113Y-12325619D02*
X12334875Y-12320857D01*
X12334875Y-12320857D02*
X12339637Y-12311333D01*
X12339637Y-12311333D02*
X12344399Y-12292286D01*
X12344399Y-12292286D02*
X12349161Y-12282762D01*
X12349161Y-12282762D02*
X12353923Y-12278000D01*
X12353923Y-12278000D02*
X12363447Y-12273238D01*
X12363447Y-12273238D02*
X12372970Y-12273238D01*
X12372970Y-12273238D02*
X12382494Y-12278000D01*
X12382494Y-12278000D02*
X12387256Y-12282762D01*
X12387256Y-12282762D02*
X12392018Y-12292286D01*
X12392018Y-12292286D02*
X12392018Y-12316095D01*
X12392018Y-12316095D02*
X12387256Y-12330381D01*
X12344399Y-12406571D02*
X12339637Y-12420857D01*
X12339637Y-12420857D02*
X12334875Y-12425619D01*
X12334875Y-12425619D02*
X12325351Y-12430381D01*
X12325351Y-12430381D02*
X12311066Y-12430381D01*
X12311066Y-12430381D02*
X12301542Y-12425619D01*
X12301542Y-12425619D02*
X12296780Y-12420857D01*
X12296780Y-12420857D02*
X12292018Y-12411333D01*
X12292018Y-12411333D02*
X12292018Y-12373238D01*
X12292018Y-12373238D02*
X12392018Y-12373238D01*
X12392018Y-12373238D02*
X12392018Y-12406571D01*
X12392018Y-12406571D02*
X12387256Y-12416095D01*
X12387256Y-12416095D02*
X12382494Y-12420857D01*
X12382494Y-12420857D02*
X12372970Y-12425619D01*
X12372970Y-12425619D02*
X12363447Y-12425619D01*
X12363447Y-12425619D02*
X12353923Y-12420857D01*
X12353923Y-12420857D02*
X12349161Y-12416095D01*
X12349161Y-12416095D02*
X12344399Y-12406571D01*
X12344399Y-12406571D02*
X12344399Y-12373238D01*
X12382494Y-12468476D02*
X12387256Y-12473238D01*
X12387256Y-12473238D02*
X12392018Y-12482762D01*
X12392018Y-12482762D02*
X12392018Y-12506571D01*
X12392018Y-12506571D02*
X12387256Y-12516095D01*
X12387256Y-12516095D02*
X12382494Y-12520857D01*
X12382494Y-12520857D02*
X12372970Y-12525619D01*
X12372970Y-12525619D02*
X12363447Y-12525619D01*
X12363447Y-12525619D02*
X12349161Y-12520857D01*
X12349161Y-12520857D02*
X12292018Y-12463714D01*
X12292018Y-12463714D02*
X12292018Y-12525619D01*
X12301542Y-12568476D02*
X12296780Y-12573238D01*
X12296780Y-12573238D02*
X12292018Y-12568476D01*
X12292018Y-12568476D02*
X12296780Y-12563714D01*
X12296780Y-12563714D02*
X12301542Y-12568476D01*
X12301542Y-12568476D02*
X12292018Y-12568476D01*
X12392018Y-12635143D02*
X12392018Y-12644667D01*
X12392018Y-12644667D02*
X12387256Y-12654190D01*
X12387256Y-12654190D02*
X12382494Y-12658952D01*
X12382494Y-12658952D02*
X12372970Y-12663714D01*
X12372970Y-12663714D02*
X12353923Y-12668476D01*
X12353923Y-12668476D02*
X12330113Y-12668476D01*
X12330113Y-12668476D02*
X12311066Y-12663714D01*
X12311066Y-12663714D02*
X12301542Y-12658952D01*
X12301542Y-12658952D02*
X12296780Y-12654190D01*
X12296780Y-12654190D02*
X12292018Y-12644667D01*
X12292018Y-12644667D02*
X12292018Y-12635143D01*
X12292018Y-12635143D02*
X12296780Y-12625619D01*
X12296780Y-12625619D02*
X12301542Y-12620857D01*
X12301542Y-12620857D02*
X12311066Y-12616095D01*
X12311066Y-12616095D02*
X12330113Y-12611333D01*
X12330113Y-12611333D02*
X12353923Y-12611333D01*
X12353923Y-12611333D02*
X12372970Y-12616095D01*
X12372970Y-12616095D02*
X12382494Y-12620857D01*
X12382494Y-12620857D02*
X12387256Y-12625619D01*
X12387256Y-12625619D02*
X12392018Y-12635143D01*
X12282494Y-12687524D02*
X12282494Y-12763714D01*
X12292018Y-12839905D02*
X12292018Y-12782762D01*
X12292018Y-12811333D02*
X12392018Y-12811333D01*
X12392018Y-12811333D02*
X12377732Y-12801810D01*
X12377732Y-12801810D02*
X12368208Y-12792286D01*
X12368208Y-12792286D02*
X12363447Y-12782762D01*
X12392018Y-12925619D02*
X12392018Y-12906571D01*
X12392018Y-12906571D02*
X12387256Y-12897048D01*
X12387256Y-12897048D02*
X12382494Y-12892286D01*
X12382494Y-12892286D02*
X12368208Y-12882762D01*
X12368208Y-12882762D02*
X12349161Y-12878000D01*
X12349161Y-12878000D02*
X12311066Y-12878000D01*
X12311066Y-12878000D02*
X12301542Y-12882762D01*
X12301542Y-12882762D02*
X12296780Y-12887524D01*
X12296780Y-12887524D02*
X12292018Y-12897048D01*
X12292018Y-12897048D02*
X12292018Y-12916095D01*
X12292018Y-12916095D02*
X12296780Y-12925619D01*
X12296780Y-12925619D02*
X12301542Y-12930381D01*
X12301542Y-12930381D02*
X12311066Y-12935143D01*
X12311066Y-12935143D02*
X12334875Y-12935143D01*
X12334875Y-12935143D02*
X12344399Y-12930381D01*
X12344399Y-12930381D02*
X12349161Y-12925619D01*
X12349161Y-12925619D02*
X12353923Y-12916095D01*
X12353923Y-12916095D02*
X12353923Y-12897048D01*
X12353923Y-12897048D02*
X12349161Y-12887524D01*
X12349161Y-12887524D02*
X12344399Y-12882762D01*
X12344399Y-12882762D02*
X12334875Y-12878000D01*
X12292018Y-12978000D02*
X12392018Y-12978000D01*
X12392018Y-12978000D02*
X12392018Y-13016095D01*
X12392018Y-13016095D02*
X12387256Y-13025619D01*
X12387256Y-13025619D02*
X12382494Y-13030381D01*
X12382494Y-13030381D02*
X12372970Y-13035143D01*
X12372970Y-13035143D02*
X12358685Y-13035143D01*
X12358685Y-13035143D02*
X12349161Y-13030381D01*
X12349161Y-13030381D02*
X12344399Y-13025619D01*
X12344399Y-13025619D02*
X12339637Y-13016095D01*
X12339637Y-13016095D02*
X12339637Y-12978000D01*
X12892018Y-11844667D02*
X12820589Y-11844667D01*
X12820589Y-11844667D02*
X12806304Y-11839905D01*
X12806304Y-11839905D02*
X12796780Y-11830381D01*
X12796780Y-11830381D02*
X12792018Y-11816095D01*
X12792018Y-11816095D02*
X12792018Y-11806571D01*
X12792018Y-11944667D02*
X12792018Y-11887524D01*
X12792018Y-11916095D02*
X12892018Y-11916095D01*
X12892018Y-11916095D02*
X12877732Y-11906571D01*
X12877732Y-11906571D02*
X12868208Y-11897048D01*
X12868208Y-11897048D02*
X12863447Y-11887524D01*
X14991428Y-9780482D02*
X14991428Y-9680482D01*
X14991428Y-9680482D02*
X15024762Y-9751910D01*
X15024762Y-9751910D02*
X15058095Y-9680482D01*
X15058095Y-9680482D02*
X15058095Y-9780482D01*
X15120000Y-9780482D02*
X15110476Y-9775720D01*
X15110476Y-9775720D02*
X15105714Y-9770958D01*
X15105714Y-9770958D02*
X15100952Y-9761434D01*
X15100952Y-9761434D02*
X15100952Y-9732863D01*
X15100952Y-9732863D02*
X15105714Y-9723339D01*
X15105714Y-9723339D02*
X15110476Y-9718577D01*
X15110476Y-9718577D02*
X15120000Y-9713815D01*
X15120000Y-9713815D02*
X15134286Y-9713815D01*
X15134286Y-9713815D02*
X15143809Y-9718577D01*
X15143809Y-9718577D02*
X15148571Y-9723339D01*
X15148571Y-9723339D02*
X15153333Y-9732863D01*
X15153333Y-9732863D02*
X15153333Y-9761434D01*
X15153333Y-9761434D02*
X15148571Y-9770958D01*
X15148571Y-9770958D02*
X15143809Y-9775720D01*
X15143809Y-9775720D02*
X15134286Y-9780482D01*
X15134286Y-9780482D02*
X15120000Y-9780482D01*
X15239047Y-9713815D02*
X15239047Y-9780482D01*
X15196190Y-9713815D02*
X15196190Y-9766196D01*
X15196190Y-9766196D02*
X15200952Y-9775720D01*
X15200952Y-9775720D02*
X15210476Y-9780482D01*
X15210476Y-9780482D02*
X15224762Y-9780482D01*
X15224762Y-9780482D02*
X15234286Y-9775720D01*
X15234286Y-9775720D02*
X15239047Y-9770958D01*
X15286667Y-9713815D02*
X15286667Y-9780482D01*
X15286667Y-9723339D02*
X15291428Y-9718577D01*
X15291428Y-9718577D02*
X15300952Y-9713815D01*
X15300952Y-9713815D02*
X15315238Y-9713815D01*
X15315238Y-9713815D02*
X15324762Y-9718577D01*
X15324762Y-9718577D02*
X15329524Y-9728101D01*
X15329524Y-9728101D02*
X15329524Y-9780482D01*
X15362857Y-9713815D02*
X15400952Y-9713815D01*
X15377143Y-9680482D02*
X15377143Y-9766196D01*
X15377143Y-9766196D02*
X15381905Y-9775720D01*
X15381905Y-9775720D02*
X15391428Y-9780482D01*
X15391428Y-9780482D02*
X15400952Y-9780482D01*
X15434286Y-9780482D02*
X15434286Y-9713815D01*
X15434286Y-9680482D02*
X15429524Y-9685244D01*
X15429524Y-9685244D02*
X15434286Y-9690006D01*
X15434286Y-9690006D02*
X15439048Y-9685244D01*
X15439048Y-9685244D02*
X15434286Y-9680482D01*
X15434286Y-9680482D02*
X15434286Y-9690006D01*
X15481905Y-9713815D02*
X15481905Y-9780482D01*
X15481905Y-9723339D02*
X15486667Y-9718577D01*
X15486667Y-9718577D02*
X15496190Y-9713815D01*
X15496190Y-9713815D02*
X15510476Y-9713815D01*
X15510476Y-9713815D02*
X15520000Y-9718577D01*
X15520000Y-9718577D02*
X15524762Y-9728101D01*
X15524762Y-9728101D02*
X15524762Y-9780482D01*
X15615238Y-9713815D02*
X15615238Y-9794768D01*
X15615238Y-9794768D02*
X15610476Y-9804291D01*
X15610476Y-9804291D02*
X15605714Y-9809053D01*
X15605714Y-9809053D02*
X15596190Y-9813815D01*
X15596190Y-9813815D02*
X15581905Y-9813815D01*
X15581905Y-9813815D02*
X15572381Y-9809053D01*
X15615238Y-9775720D02*
X15605714Y-9780482D01*
X15605714Y-9780482D02*
X15586667Y-9780482D01*
X15586667Y-9780482D02*
X15577143Y-9775720D01*
X15577143Y-9775720D02*
X15572381Y-9770958D01*
X15572381Y-9770958D02*
X15567619Y-9761434D01*
X15567619Y-9761434D02*
X15567619Y-9732863D01*
X15567619Y-9732863D02*
X15572381Y-9723339D01*
X15572381Y-9723339D02*
X15577143Y-9718577D01*
X15577143Y-9718577D02*
X15586667Y-9713815D01*
X15586667Y-9713815D02*
X15605714Y-9713815D01*
X15605714Y-9713815D02*
X15615238Y-9718577D01*
X15662857Y-9780482D02*
X15662857Y-9680482D01*
X15662857Y-9728101D02*
X15720000Y-9728101D01*
X15720000Y-9780482D02*
X15720000Y-9680482D01*
X15781905Y-9780482D02*
X15772381Y-9775720D01*
X15772381Y-9775720D02*
X15767619Y-9770958D01*
X15767619Y-9770958D02*
X15762857Y-9761434D01*
X15762857Y-9761434D02*
X15762857Y-9732863D01*
X15762857Y-9732863D02*
X15767619Y-9723339D01*
X15767619Y-9723339D02*
X15772381Y-9718577D01*
X15772381Y-9718577D02*
X15781905Y-9713815D01*
X15781905Y-9713815D02*
X15796190Y-9713815D01*
X15796190Y-9713815D02*
X15805714Y-9718577D01*
X15805714Y-9718577D02*
X15810476Y-9723339D01*
X15810476Y-9723339D02*
X15815238Y-9732863D01*
X15815238Y-9732863D02*
X15815238Y-9761434D01*
X15815238Y-9761434D02*
X15810476Y-9770958D01*
X15810476Y-9770958D02*
X15805714Y-9775720D01*
X15805714Y-9775720D02*
X15796190Y-9780482D01*
X15796190Y-9780482D02*
X15781905Y-9780482D01*
X15872381Y-9780482D02*
X15862857Y-9775720D01*
X15862857Y-9775720D02*
X15858095Y-9766196D01*
X15858095Y-9766196D02*
X15858095Y-9680482D01*
X15948571Y-9775720D02*
X15939048Y-9780482D01*
X15939048Y-9780482D02*
X15920000Y-9780482D01*
X15920000Y-9780482D02*
X15910476Y-9775720D01*
X15910476Y-9775720D02*
X15905714Y-9766196D01*
X15905714Y-9766196D02*
X15905714Y-9728101D01*
X15905714Y-9728101D02*
X15910476Y-9718577D01*
X15910476Y-9718577D02*
X15920000Y-9713815D01*
X15920000Y-9713815D02*
X15939048Y-9713815D01*
X15939048Y-9713815D02*
X15948571Y-9718577D01*
X15948571Y-9718577D02*
X15953333Y-9728101D01*
X15953333Y-9728101D02*
X15953333Y-9737625D01*
X15953333Y-9737625D02*
X15905714Y-9747149D01*
X15393809Y-9485482D02*
X15393809Y-9385482D01*
X15393809Y-9433101D02*
X15450952Y-9433101D01*
X15450952Y-9485482D02*
X15450952Y-9385482D01*
X15541428Y-9418815D02*
X15541428Y-9485482D01*
X15517619Y-9380720D02*
X15493809Y-9452149D01*
X15493809Y-9452149D02*
X15555714Y-9452149D01*
X14991428Y-12980482D02*
X14991428Y-12880482D01*
X14991428Y-12880482D02*
X15024762Y-12951910D01*
X15024762Y-12951910D02*
X15058095Y-12880482D01*
X15058095Y-12880482D02*
X15058095Y-12980482D01*
X15120000Y-12980482D02*
X15110476Y-12975720D01*
X15110476Y-12975720D02*
X15105714Y-12970958D01*
X15105714Y-12970958D02*
X15100952Y-12961434D01*
X15100952Y-12961434D02*
X15100952Y-12932863D01*
X15100952Y-12932863D02*
X15105714Y-12923339D01*
X15105714Y-12923339D02*
X15110476Y-12918577D01*
X15110476Y-12918577D02*
X15120000Y-12913815D01*
X15120000Y-12913815D02*
X15134286Y-12913815D01*
X15134286Y-12913815D02*
X15143809Y-12918577D01*
X15143809Y-12918577D02*
X15148571Y-12923339D01*
X15148571Y-12923339D02*
X15153333Y-12932863D01*
X15153333Y-12932863D02*
X15153333Y-12961434D01*
X15153333Y-12961434D02*
X15148571Y-12970958D01*
X15148571Y-12970958D02*
X15143809Y-12975720D01*
X15143809Y-12975720D02*
X15134286Y-12980482D01*
X15134286Y-12980482D02*
X15120000Y-12980482D01*
X15239047Y-12913815D02*
X15239047Y-12980482D01*
X15196190Y-12913815D02*
X15196190Y-12966196D01*
X15196190Y-12966196D02*
X15200952Y-12975720D01*
X15200952Y-12975720D02*
X15210476Y-12980482D01*
X15210476Y-12980482D02*
X15224762Y-12980482D01*
X15224762Y-12980482D02*
X15234286Y-12975720D01*
X15234286Y-12975720D02*
X15239047Y-12970958D01*
X15286667Y-12913815D02*
X15286667Y-12980482D01*
X15286667Y-12923339D02*
X15291428Y-12918577D01*
X15291428Y-12918577D02*
X15300952Y-12913815D01*
X15300952Y-12913815D02*
X15315238Y-12913815D01*
X15315238Y-12913815D02*
X15324762Y-12918577D01*
X15324762Y-12918577D02*
X15329524Y-12928101D01*
X15329524Y-12928101D02*
X15329524Y-12980482D01*
X15362857Y-12913815D02*
X15400952Y-12913815D01*
X15377143Y-12880482D02*
X15377143Y-12966196D01*
X15377143Y-12966196D02*
X15381905Y-12975720D01*
X15381905Y-12975720D02*
X15391428Y-12980482D01*
X15391428Y-12980482D02*
X15400952Y-12980482D01*
X15434286Y-12980482D02*
X15434286Y-12913815D01*
X15434286Y-12880482D02*
X15429524Y-12885244D01*
X15429524Y-12885244D02*
X15434286Y-12890006D01*
X15434286Y-12890006D02*
X15439048Y-12885244D01*
X15439048Y-12885244D02*
X15434286Y-12880482D01*
X15434286Y-12880482D02*
X15434286Y-12890006D01*
X15481905Y-12913815D02*
X15481905Y-12980482D01*
X15481905Y-12923339D02*
X15486667Y-12918577D01*
X15486667Y-12918577D02*
X15496190Y-12913815D01*
X15496190Y-12913815D02*
X15510476Y-12913815D01*
X15510476Y-12913815D02*
X15520000Y-12918577D01*
X15520000Y-12918577D02*
X15524762Y-12928101D01*
X15524762Y-12928101D02*
X15524762Y-12980482D01*
X15615238Y-12913815D02*
X15615238Y-12994768D01*
X15615238Y-12994768D02*
X15610476Y-13004291D01*
X15610476Y-13004291D02*
X15605714Y-13009053D01*
X15605714Y-13009053D02*
X15596190Y-13013815D01*
X15596190Y-13013815D02*
X15581905Y-13013815D01*
X15581905Y-13013815D02*
X15572381Y-13009053D01*
X15615238Y-12975720D02*
X15605714Y-12980482D01*
X15605714Y-12980482D02*
X15586667Y-12980482D01*
X15586667Y-12980482D02*
X15577143Y-12975720D01*
X15577143Y-12975720D02*
X15572381Y-12970958D01*
X15572381Y-12970958D02*
X15567619Y-12961434D01*
X15567619Y-12961434D02*
X15567619Y-12932863D01*
X15567619Y-12932863D02*
X15572381Y-12923339D01*
X15572381Y-12923339D02*
X15577143Y-12918577D01*
X15577143Y-12918577D02*
X15586667Y-12913815D01*
X15586667Y-12913815D02*
X15605714Y-12913815D01*
X15605714Y-12913815D02*
X15615238Y-12918577D01*
X15662857Y-12980482D02*
X15662857Y-12880482D01*
X15662857Y-12928101D02*
X15720000Y-12928101D01*
X15720000Y-12980482D02*
X15720000Y-12880482D01*
X15781905Y-12980482D02*
X15772381Y-12975720D01*
X15772381Y-12975720D02*
X15767619Y-12970958D01*
X15767619Y-12970958D02*
X15762857Y-12961434D01*
X15762857Y-12961434D02*
X15762857Y-12932863D01*
X15762857Y-12932863D02*
X15767619Y-12923339D01*
X15767619Y-12923339D02*
X15772381Y-12918577D01*
X15772381Y-12918577D02*
X15781905Y-12913815D01*
X15781905Y-12913815D02*
X15796190Y-12913815D01*
X15796190Y-12913815D02*
X15805714Y-12918577D01*
X15805714Y-12918577D02*
X15810476Y-12923339D01*
X15810476Y-12923339D02*
X15815238Y-12932863D01*
X15815238Y-12932863D02*
X15815238Y-12961434D01*
X15815238Y-12961434D02*
X15810476Y-12970958D01*
X15810476Y-12970958D02*
X15805714Y-12975720D01*
X15805714Y-12975720D02*
X15796190Y-12980482D01*
X15796190Y-12980482D02*
X15781905Y-12980482D01*
X15872381Y-12980482D02*
X15862857Y-12975720D01*
X15862857Y-12975720D02*
X15858095Y-12966196D01*
X15858095Y-12966196D02*
X15858095Y-12880482D01*
X15948571Y-12975720D02*
X15939048Y-12980482D01*
X15939048Y-12980482D02*
X15920000Y-12980482D01*
X15920000Y-12980482D02*
X15910476Y-12975720D01*
X15910476Y-12975720D02*
X15905714Y-12966196D01*
X15905714Y-12966196D02*
X15905714Y-12928101D01*
X15905714Y-12928101D02*
X15910476Y-12918577D01*
X15910476Y-12918577D02*
X15920000Y-12913815D01*
X15920000Y-12913815D02*
X15939048Y-12913815D01*
X15939048Y-12913815D02*
X15948571Y-12918577D01*
X15948571Y-12918577D02*
X15953333Y-12928101D01*
X15953333Y-12928101D02*
X15953333Y-12937625D01*
X15953333Y-12937625D02*
X15905714Y-12947148D01*
X15393809Y-12685482D02*
X15393809Y-12585482D01*
X15393809Y-12633101D02*
X15450952Y-12633101D01*
X15450952Y-12685482D02*
X15450952Y-12585482D01*
X15489048Y-12585482D02*
X15550952Y-12585482D01*
X15550952Y-12585482D02*
X15517619Y-12623577D01*
X15517619Y-12623577D02*
X15531905Y-12623577D01*
X15531905Y-12623577D02*
X15541428Y-12628339D01*
X15541428Y-12628339D02*
X15546190Y-12633101D01*
X15546190Y-12633101D02*
X15550952Y-12642625D01*
X15550952Y-12642625D02*
X15550952Y-12666434D01*
X15550952Y-12666434D02*
X15546190Y-12675958D01*
X15546190Y-12675958D02*
X15541428Y-12680720D01*
X15541428Y-12680720D02*
X15531905Y-12685482D01*
X15531905Y-12685482D02*
X15503333Y-12685482D01*
X15503333Y-12685482D02*
X15493809Y-12680720D01*
X15493809Y-12680720D02*
X15489048Y-12675958D01*
X12491428Y-12980482D02*
X12491428Y-12880482D01*
X12491428Y-12880482D02*
X12524762Y-12951910D01*
X12524762Y-12951910D02*
X12558095Y-12880482D01*
X12558095Y-12880482D02*
X12558095Y-12980482D01*
X12620000Y-12980482D02*
X12610476Y-12975720D01*
X12610476Y-12975720D02*
X12605714Y-12970958D01*
X12605714Y-12970958D02*
X12600952Y-12961434D01*
X12600952Y-12961434D02*
X12600952Y-12932863D01*
X12600952Y-12932863D02*
X12605714Y-12923339D01*
X12605714Y-12923339D02*
X12610476Y-12918577D01*
X12610476Y-12918577D02*
X12620000Y-12913815D01*
X12620000Y-12913815D02*
X12634286Y-12913815D01*
X12634286Y-12913815D02*
X12643809Y-12918577D01*
X12643809Y-12918577D02*
X12648571Y-12923339D01*
X12648571Y-12923339D02*
X12653333Y-12932863D01*
X12653333Y-12932863D02*
X12653333Y-12961434D01*
X12653333Y-12961434D02*
X12648571Y-12970958D01*
X12648571Y-12970958D02*
X12643809Y-12975720D01*
X12643809Y-12975720D02*
X12634286Y-12980482D01*
X12634286Y-12980482D02*
X12620000Y-12980482D01*
X12739047Y-12913815D02*
X12739047Y-12980482D01*
X12696190Y-12913815D02*
X12696190Y-12966196D01*
X12696190Y-12966196D02*
X12700952Y-12975720D01*
X12700952Y-12975720D02*
X12710476Y-12980482D01*
X12710476Y-12980482D02*
X12724762Y-12980482D01*
X12724762Y-12980482D02*
X12734286Y-12975720D01*
X12734286Y-12975720D02*
X12739047Y-12970958D01*
X12786667Y-12913815D02*
X12786667Y-12980482D01*
X12786667Y-12923339D02*
X12791428Y-12918577D01*
X12791428Y-12918577D02*
X12800952Y-12913815D01*
X12800952Y-12913815D02*
X12815238Y-12913815D01*
X12815238Y-12913815D02*
X12824762Y-12918577D01*
X12824762Y-12918577D02*
X12829524Y-12928101D01*
X12829524Y-12928101D02*
X12829524Y-12980482D01*
X12862857Y-12913815D02*
X12900952Y-12913815D01*
X12877143Y-12880482D02*
X12877143Y-12966196D01*
X12877143Y-12966196D02*
X12881905Y-12975720D01*
X12881905Y-12975720D02*
X12891428Y-12980482D01*
X12891428Y-12980482D02*
X12900952Y-12980482D01*
X12934286Y-12980482D02*
X12934286Y-12913815D01*
X12934286Y-12880482D02*
X12929524Y-12885244D01*
X12929524Y-12885244D02*
X12934286Y-12890006D01*
X12934286Y-12890006D02*
X12939048Y-12885244D01*
X12939048Y-12885244D02*
X12934286Y-12880482D01*
X12934286Y-12880482D02*
X12934286Y-12890006D01*
X12981905Y-12913815D02*
X12981905Y-12980482D01*
X12981905Y-12923339D02*
X12986667Y-12918577D01*
X12986667Y-12918577D02*
X12996190Y-12913815D01*
X12996190Y-12913815D02*
X13010476Y-12913815D01*
X13010476Y-12913815D02*
X13020000Y-12918577D01*
X13020000Y-12918577D02*
X13024762Y-12928101D01*
X13024762Y-12928101D02*
X13024762Y-12980482D01*
X13115238Y-12913815D02*
X13115238Y-12994768D01*
X13115238Y-12994768D02*
X13110476Y-13004291D01*
X13110476Y-13004291D02*
X13105714Y-13009053D01*
X13105714Y-13009053D02*
X13096190Y-13013815D01*
X13096190Y-13013815D02*
X13081905Y-13013815D01*
X13081905Y-13013815D02*
X13072381Y-13009053D01*
X13115238Y-12975720D02*
X13105714Y-12980482D01*
X13105714Y-12980482D02*
X13086667Y-12980482D01*
X13086667Y-12980482D02*
X13077143Y-12975720D01*
X13077143Y-12975720D02*
X13072381Y-12970958D01*
X13072381Y-12970958D02*
X13067619Y-12961434D01*
X13067619Y-12961434D02*
X13067619Y-12932863D01*
X13067619Y-12932863D02*
X13072381Y-12923339D01*
X13072381Y-12923339D02*
X13077143Y-12918577D01*
X13077143Y-12918577D02*
X13086667Y-12913815D01*
X13086667Y-12913815D02*
X13105714Y-12913815D01*
X13105714Y-12913815D02*
X13115238Y-12918577D01*
X13162857Y-12980482D02*
X13162857Y-12880482D01*
X13162857Y-12928101D02*
X13220000Y-12928101D01*
X13220000Y-12980482D02*
X13220000Y-12880482D01*
X13281905Y-12980482D02*
X13272381Y-12975720D01*
X13272381Y-12975720D02*
X13267619Y-12970958D01*
X13267619Y-12970958D02*
X13262857Y-12961434D01*
X13262857Y-12961434D02*
X13262857Y-12932863D01*
X13262857Y-12932863D02*
X13267619Y-12923339D01*
X13267619Y-12923339D02*
X13272381Y-12918577D01*
X13272381Y-12918577D02*
X13281905Y-12913815D01*
X13281905Y-12913815D02*
X13296190Y-12913815D01*
X13296190Y-12913815D02*
X13305714Y-12918577D01*
X13305714Y-12918577D02*
X13310476Y-12923339D01*
X13310476Y-12923339D02*
X13315238Y-12932863D01*
X13315238Y-12932863D02*
X13315238Y-12961434D01*
X13315238Y-12961434D02*
X13310476Y-12970958D01*
X13310476Y-12970958D02*
X13305714Y-12975720D01*
X13305714Y-12975720D02*
X13296190Y-12980482D01*
X13296190Y-12980482D02*
X13281905Y-12980482D01*
X13372381Y-12980482D02*
X13362857Y-12975720D01*
X13362857Y-12975720D02*
X13358095Y-12966196D01*
X13358095Y-12966196D02*
X13358095Y-12880482D01*
X13448571Y-12975720D02*
X13439048Y-12980482D01*
X13439048Y-12980482D02*
X13420000Y-12980482D01*
X13420000Y-12980482D02*
X13410476Y-12975720D01*
X13410476Y-12975720D02*
X13405714Y-12966196D01*
X13405714Y-12966196D02*
X13405714Y-12928101D01*
X13405714Y-12928101D02*
X13410476Y-12918577D01*
X13410476Y-12918577D02*
X13420000Y-12913815D01*
X13420000Y-12913815D02*
X13439048Y-12913815D01*
X13439048Y-12913815D02*
X13448571Y-12918577D01*
X13448571Y-12918577D02*
X13453333Y-12928101D01*
X13453333Y-12928101D02*
X13453333Y-12937625D01*
X13453333Y-12937625D02*
X13405714Y-12947148D01*
X12893809Y-12685482D02*
X12893809Y-12585482D01*
X12893809Y-12633101D02*
X12950952Y-12633101D01*
X12950952Y-12685482D02*
X12950952Y-12585482D01*
X12993809Y-12595006D02*
X12998571Y-12590244D01*
X12998571Y-12590244D02*
X13008095Y-12585482D01*
X13008095Y-12585482D02*
X13031905Y-12585482D01*
X13031905Y-12585482D02*
X13041428Y-12590244D01*
X13041428Y-12590244D02*
X13046190Y-12595006D01*
X13046190Y-12595006D02*
X13050952Y-12604529D01*
X13050952Y-12604529D02*
X13050952Y-12614053D01*
X13050952Y-12614053D02*
X13046190Y-12628339D01*
X13046190Y-12628339D02*
X12989048Y-12685482D01*
X12989048Y-12685482D02*
X13050952Y-12685482D01*
X12491428Y-9780482D02*
X12491428Y-9680482D01*
X12491428Y-9680482D02*
X12524762Y-9751910D01*
X12524762Y-9751910D02*
X12558095Y-9680482D01*
X12558095Y-9680482D02*
X12558095Y-9780482D01*
X12620000Y-9780482D02*
X12610476Y-9775720D01*
X12610476Y-9775720D02*
X12605714Y-9770958D01*
X12605714Y-9770958D02*
X12600952Y-9761434D01*
X12600952Y-9761434D02*
X12600952Y-9732863D01*
X12600952Y-9732863D02*
X12605714Y-9723339D01*
X12605714Y-9723339D02*
X12610476Y-9718577D01*
X12610476Y-9718577D02*
X12620000Y-9713815D01*
X12620000Y-9713815D02*
X12634286Y-9713815D01*
X12634286Y-9713815D02*
X12643809Y-9718577D01*
X12643809Y-9718577D02*
X12648571Y-9723339D01*
X12648571Y-9723339D02*
X12653333Y-9732863D01*
X12653333Y-9732863D02*
X12653333Y-9761434D01*
X12653333Y-9761434D02*
X12648571Y-9770958D01*
X12648571Y-9770958D02*
X12643809Y-9775720D01*
X12643809Y-9775720D02*
X12634286Y-9780482D01*
X12634286Y-9780482D02*
X12620000Y-9780482D01*
X12739047Y-9713815D02*
X12739047Y-9780482D01*
X12696190Y-9713815D02*
X12696190Y-9766196D01*
X12696190Y-9766196D02*
X12700952Y-9775720D01*
X12700952Y-9775720D02*
X12710476Y-9780482D01*
X12710476Y-9780482D02*
X12724762Y-9780482D01*
X12724762Y-9780482D02*
X12734286Y-9775720D01*
X12734286Y-9775720D02*
X12739047Y-9770958D01*
X12786667Y-9713815D02*
X12786667Y-9780482D01*
X12786667Y-9723339D02*
X12791428Y-9718577D01*
X12791428Y-9718577D02*
X12800952Y-9713815D01*
X12800952Y-9713815D02*
X12815238Y-9713815D01*
X12815238Y-9713815D02*
X12824762Y-9718577D01*
X12824762Y-9718577D02*
X12829524Y-9728101D01*
X12829524Y-9728101D02*
X12829524Y-9780482D01*
X12862857Y-9713815D02*
X12900952Y-9713815D01*
X12877143Y-9680482D02*
X12877143Y-9766196D01*
X12877143Y-9766196D02*
X12881905Y-9775720D01*
X12881905Y-9775720D02*
X12891428Y-9780482D01*
X12891428Y-9780482D02*
X12900952Y-9780482D01*
X12934286Y-9780482D02*
X12934286Y-9713815D01*
X12934286Y-9680482D02*
X12929524Y-9685244D01*
X12929524Y-9685244D02*
X12934286Y-9690006D01*
X12934286Y-9690006D02*
X12939048Y-9685244D01*
X12939048Y-9685244D02*
X12934286Y-9680482D01*
X12934286Y-9680482D02*
X12934286Y-9690006D01*
X12981905Y-9713815D02*
X12981905Y-9780482D01*
X12981905Y-9723339D02*
X12986667Y-9718577D01*
X12986667Y-9718577D02*
X12996190Y-9713815D01*
X12996190Y-9713815D02*
X13010476Y-9713815D01*
X13010476Y-9713815D02*
X13020000Y-9718577D01*
X13020000Y-9718577D02*
X13024762Y-9728101D01*
X13024762Y-9728101D02*
X13024762Y-9780482D01*
X13115238Y-9713815D02*
X13115238Y-9794768D01*
X13115238Y-9794768D02*
X13110476Y-9804291D01*
X13110476Y-9804291D02*
X13105714Y-9809053D01*
X13105714Y-9809053D02*
X13096190Y-9813815D01*
X13096190Y-9813815D02*
X13081905Y-9813815D01*
X13081905Y-9813815D02*
X13072381Y-9809053D01*
X13115238Y-9775720D02*
X13105714Y-9780482D01*
X13105714Y-9780482D02*
X13086667Y-9780482D01*
X13086667Y-9780482D02*
X13077143Y-9775720D01*
X13077143Y-9775720D02*
X13072381Y-9770958D01*
X13072381Y-9770958D02*
X13067619Y-9761434D01*
X13067619Y-9761434D02*
X13067619Y-9732863D01*
X13067619Y-9732863D02*
X13072381Y-9723339D01*
X13072381Y-9723339D02*
X13077143Y-9718577D01*
X13077143Y-9718577D02*
X13086667Y-9713815D01*
X13086667Y-9713815D02*
X13105714Y-9713815D01*
X13105714Y-9713815D02*
X13115238Y-9718577D01*
X13162857Y-9780482D02*
X13162857Y-9680482D01*
X13162857Y-9728101D02*
X13220000Y-9728101D01*
X13220000Y-9780482D02*
X13220000Y-9680482D01*
X13281905Y-9780482D02*
X13272381Y-9775720D01*
X13272381Y-9775720D02*
X13267619Y-9770958D01*
X13267619Y-9770958D02*
X13262857Y-9761434D01*
X13262857Y-9761434D02*
X13262857Y-9732863D01*
X13262857Y-9732863D02*
X13267619Y-9723339D01*
X13267619Y-9723339D02*
X13272381Y-9718577D01*
X13272381Y-9718577D02*
X13281905Y-9713815D01*
X13281905Y-9713815D02*
X13296190Y-9713815D01*
X13296190Y-9713815D02*
X13305714Y-9718577D01*
X13305714Y-9718577D02*
X13310476Y-9723339D01*
X13310476Y-9723339D02*
X13315238Y-9732863D01*
X13315238Y-9732863D02*
X13315238Y-9761434D01*
X13315238Y-9761434D02*
X13310476Y-9770958D01*
X13310476Y-9770958D02*
X13305714Y-9775720D01*
X13305714Y-9775720D02*
X13296190Y-9780482D01*
X13296190Y-9780482D02*
X13281905Y-9780482D01*
X13372381Y-9780482D02*
X13362857Y-9775720D01*
X13362857Y-9775720D02*
X13358095Y-9766196D01*
X13358095Y-9766196D02*
X13358095Y-9680482D01*
X13448571Y-9775720D02*
X13439048Y-9780482D01*
X13439048Y-9780482D02*
X13420000Y-9780482D01*
X13420000Y-9780482D02*
X13410476Y-9775720D01*
X13410476Y-9775720D02*
X13405714Y-9766196D01*
X13405714Y-9766196D02*
X13405714Y-9728101D01*
X13405714Y-9728101D02*
X13410476Y-9718577D01*
X13410476Y-9718577D02*
X13420000Y-9713815D01*
X13420000Y-9713815D02*
X13439048Y-9713815D01*
X13439048Y-9713815D02*
X13448571Y-9718577D01*
X13448571Y-9718577D02*
X13453333Y-9728101D01*
X13453333Y-9728101D02*
X13453333Y-9737625D01*
X13453333Y-9737625D02*
X13405714Y-9747149D01*
X12893809Y-9485482D02*
X12893809Y-9385482D01*
X12893809Y-9433101D02*
X12950952Y-9433101D01*
X12950952Y-9485482D02*
X12950952Y-9385482D01*
X13050952Y-9485482D02*
X12993809Y-9485482D01*
X13022381Y-9485482D02*
X13022381Y-9385482D01*
X13022381Y-9385482D02*
X13012857Y-9399768D01*
X13012857Y-9399768D02*
X13003333Y-9409291D01*
X13003333Y-9409291D02*
X12993809Y-9414053D01*
X12158524Y-10906482D02*
X12158524Y-10806482D01*
X12158524Y-10806482D02*
X12196619Y-10806482D01*
X12196619Y-10806482D02*
X12206143Y-10811244D01*
X12206143Y-10811244D02*
X12210905Y-10816006D01*
X12210905Y-10816006D02*
X12215666Y-10825530D01*
X12215666Y-10825530D02*
X12215666Y-10839815D01*
X12215666Y-10839815D02*
X12210905Y-10849339D01*
X12210905Y-10849339D02*
X12206143Y-10854101D01*
X12206143Y-10854101D02*
X12196619Y-10858863D01*
X12196619Y-10858863D02*
X12158524Y-10858863D01*
X12244238Y-10806482D02*
X12301381Y-10806482D01*
X12272809Y-10906482D02*
X12272809Y-10806482D01*
X12329952Y-10901720D02*
X12344238Y-10906482D01*
X12344238Y-10906482D02*
X12368047Y-10906482D01*
X12368047Y-10906482D02*
X12377571Y-10901720D01*
X12377571Y-10901720D02*
X12382333Y-10896958D01*
X12382333Y-10896958D02*
X12387095Y-10887434D01*
X12387095Y-10887434D02*
X12387095Y-10877910D01*
X12387095Y-10877910D02*
X12382333Y-10868387D01*
X12382333Y-10868387D02*
X12377571Y-10863625D01*
X12377571Y-10863625D02*
X12368047Y-10858863D01*
X12368047Y-10858863D02*
X12349000Y-10854101D01*
X12349000Y-10854101D02*
X12339476Y-10849339D01*
X12339476Y-10849339D02*
X12334714Y-10844577D01*
X12334714Y-10844577D02*
X12329952Y-10835053D01*
X12329952Y-10835053D02*
X12329952Y-10825530D01*
X12329952Y-10825530D02*
X12334714Y-10816006D01*
X12334714Y-10816006D02*
X12339476Y-10811244D01*
X12339476Y-10811244D02*
X12349000Y-10806482D01*
X12349000Y-10806482D02*
X12372809Y-10806482D01*
X12372809Y-10806482D02*
X12387095Y-10811244D01*
X12477571Y-10806482D02*
X12429952Y-10806482D01*
X12429952Y-10806482D02*
X12425190Y-10854101D01*
X12425190Y-10854101D02*
X12429952Y-10849339D01*
X12429952Y-10849339D02*
X12439476Y-10844577D01*
X12439476Y-10844577D02*
X12463286Y-10844577D01*
X12463286Y-10844577D02*
X12472809Y-10849339D01*
X12472809Y-10849339D02*
X12477571Y-10854101D01*
X12477571Y-10854101D02*
X12482333Y-10863625D01*
X12482333Y-10863625D02*
X12482333Y-10887434D01*
X12482333Y-10887434D02*
X12477571Y-10896958D01*
X12477571Y-10896958D02*
X12472809Y-10901720D01*
X12472809Y-10901720D02*
X12463286Y-10906482D01*
X12463286Y-10906482D02*
X12439476Y-10906482D01*
X12439476Y-10906482D02*
X12429952Y-10901720D01*
X12429952Y-10901720D02*
X12425190Y-10896958D01*
X12520428Y-10816006D02*
X12525190Y-10811244D01*
X12525190Y-10811244D02*
X12534714Y-10806482D01*
X12534714Y-10806482D02*
X12558524Y-10806482D01*
X12558524Y-10806482D02*
X12568047Y-10811244D01*
X12568047Y-10811244D02*
X12572809Y-10816006D01*
X12572809Y-10816006D02*
X12577571Y-10825530D01*
X12577571Y-10825530D02*
X12577571Y-10835053D01*
X12577571Y-10835053D02*
X12572809Y-10849339D01*
X12572809Y-10849339D02*
X12515667Y-10906482D01*
X12515667Y-10906482D02*
X12577571Y-10906482D01*
X12663286Y-10806482D02*
X12644238Y-10806482D01*
X12644238Y-10806482D02*
X12634714Y-10811244D01*
X12634714Y-10811244D02*
X12629952Y-10816006D01*
X12629952Y-10816006D02*
X12620428Y-10830291D01*
X12620428Y-10830291D02*
X12615667Y-10849339D01*
X12615667Y-10849339D02*
X12615667Y-10887434D01*
X12615667Y-10887434D02*
X12620428Y-10896958D01*
X12620428Y-10896958D02*
X12625190Y-10901720D01*
X12625190Y-10901720D02*
X12634714Y-10906482D01*
X12634714Y-10906482D02*
X12653762Y-10906482D01*
X12653762Y-10906482D02*
X12663286Y-10901720D01*
X12663286Y-10901720D02*
X12668047Y-10896958D01*
X12668047Y-10896958D02*
X12672809Y-10887434D01*
X12672809Y-10887434D02*
X12672809Y-10863625D01*
X12672809Y-10863625D02*
X12668047Y-10854101D01*
X12668047Y-10854101D02*
X12663286Y-10849339D01*
X12663286Y-10849339D02*
X12653762Y-10844577D01*
X12653762Y-10844577D02*
X12634714Y-10844577D01*
X12634714Y-10844577D02*
X12625190Y-10849339D01*
X12625190Y-10849339D02*
X12620428Y-10854101D01*
X12620428Y-10854101D02*
X12615667Y-10863625D01*
X12691857Y-10916006D02*
X12768047Y-10916006D01*
X12787095Y-10901720D02*
X12801381Y-10906482D01*
X12801381Y-10906482D02*
X12825190Y-10906482D01*
X12825190Y-10906482D02*
X12834714Y-10901720D01*
X12834714Y-10901720D02*
X12839476Y-10896958D01*
X12839476Y-10896958D02*
X12844238Y-10887434D01*
X12844238Y-10887434D02*
X12844238Y-10877910D01*
X12844238Y-10877910D02*
X12839476Y-10868387D01*
X12839476Y-10868387D02*
X12834714Y-10863625D01*
X12834714Y-10863625D02*
X12825190Y-10858863D01*
X12825190Y-10858863D02*
X12806143Y-10854101D01*
X12806143Y-10854101D02*
X12796619Y-10849339D01*
X12796619Y-10849339D02*
X12791857Y-10844577D01*
X12791857Y-10844577D02*
X12787095Y-10835053D01*
X12787095Y-10835053D02*
X12787095Y-10825530D01*
X12787095Y-10825530D02*
X12791857Y-10816006D01*
X12791857Y-10816006D02*
X12796619Y-10811244D01*
X12796619Y-10811244D02*
X12806143Y-10806482D01*
X12806143Y-10806482D02*
X12829952Y-10806482D01*
X12829952Y-10806482D02*
X12844238Y-10811244D01*
X12887095Y-10906482D02*
X12887095Y-10806482D01*
X12887095Y-10806482D02*
X12920428Y-10877910D01*
X12920428Y-10877910D02*
X12953762Y-10806482D01*
X12953762Y-10806482D02*
X12953762Y-10906482D01*
X13053762Y-10906482D02*
X12996619Y-10906482D01*
X13025190Y-10906482D02*
X13025190Y-10806482D01*
X13025190Y-10806482D02*
X13015667Y-10820768D01*
X13015667Y-10820768D02*
X13006143Y-10830291D01*
X13006143Y-10830291D02*
X12996619Y-10835053D01*
X13144238Y-10806482D02*
X13096619Y-10806482D01*
X13096619Y-10806482D02*
X13091857Y-10854101D01*
X13091857Y-10854101D02*
X13096619Y-10849339D01*
X13096619Y-10849339D02*
X13106143Y-10844577D01*
X13106143Y-10844577D02*
X13129952Y-10844577D01*
X13129952Y-10844577D02*
X13139476Y-10849339D01*
X13139476Y-10849339D02*
X13144238Y-10854101D01*
X13144238Y-10854101D02*
X13149000Y-10863625D01*
X13149000Y-10863625D02*
X13149000Y-10887434D01*
X13149000Y-10887434D02*
X13144238Y-10896958D01*
X13144238Y-10896958D02*
X13139476Y-10901720D01*
X13139476Y-10901720D02*
X13129952Y-10906482D01*
X13129952Y-10906482D02*
X13106143Y-10906482D01*
X13106143Y-10906482D02*
X13096619Y-10901720D01*
X13096619Y-10901720D02*
X13091857Y-10896958D01*
X13168048Y-10916006D02*
X13244238Y-10916006D01*
X13263286Y-10901720D02*
X13277571Y-10906482D01*
X13277571Y-10906482D02*
X13301381Y-10906482D01*
X13301381Y-10906482D02*
X13310905Y-10901720D01*
X13310905Y-10901720D02*
X13315667Y-10896958D01*
X13315667Y-10896958D02*
X13320428Y-10887434D01*
X13320428Y-10887434D02*
X13320428Y-10877910D01*
X13320428Y-10877910D02*
X13315667Y-10868387D01*
X13315667Y-10868387D02*
X13310905Y-10863625D01*
X13310905Y-10863625D02*
X13301381Y-10858863D01*
X13301381Y-10858863D02*
X13282333Y-10854101D01*
X13282333Y-10854101D02*
X13272809Y-10849339D01*
X13272809Y-10849339D02*
X13268048Y-10844577D01*
X13268048Y-10844577D02*
X13263286Y-10835053D01*
X13263286Y-10835053D02*
X13263286Y-10825530D01*
X13263286Y-10825530D02*
X13268048Y-10816006D01*
X13268048Y-10816006D02*
X13272809Y-10811244D01*
X13272809Y-10811244D02*
X13282333Y-10806482D01*
X13282333Y-10806482D02*
X13306143Y-10806482D01*
X13306143Y-10806482D02*
X13320428Y-10811244D01*
X13363286Y-10906482D02*
X13363286Y-10806482D01*
X13363286Y-10806482D02*
X13396619Y-10877910D01*
X13396619Y-10877910D02*
X13429952Y-10806482D01*
X13429952Y-10806482D02*
X13429952Y-10906482D01*
X13463286Y-10806482D02*
X13520428Y-10806482D01*
X13491857Y-10906482D02*
X13491857Y-10806482D01*
X13610905Y-10906482D02*
X13577571Y-10858863D01*
X13553762Y-10906482D02*
X13553762Y-10806482D01*
X13553762Y-10806482D02*
X13591857Y-10806482D01*
X13591857Y-10806482D02*
X13601381Y-10811244D01*
X13601381Y-10811244D02*
X13606143Y-10816006D01*
X13606143Y-10816006D02*
X13610905Y-10825530D01*
X13610905Y-10825530D02*
X13610905Y-10839815D01*
X13610905Y-10839815D02*
X13606143Y-10849339D01*
X13606143Y-10849339D02*
X13601381Y-10854101D01*
X13601381Y-10854101D02*
X13591857Y-10858863D01*
X13591857Y-10858863D02*
X13553762Y-10858863D01*
X13649000Y-10816006D02*
X13653762Y-10811244D01*
X13653762Y-10811244D02*
X13663286Y-10806482D01*
X13663286Y-10806482D02*
X13687095Y-10806482D01*
X13687095Y-10806482D02*
X13696619Y-10811244D01*
X13696619Y-10811244D02*
X13701381Y-10816006D01*
X13701381Y-10816006D02*
X13706143Y-10825530D01*
X13706143Y-10825530D02*
X13706143Y-10835053D01*
X13706143Y-10835053D02*
X13701381Y-10849339D01*
X13701381Y-10849339D02*
X13644238Y-10906482D01*
X13644238Y-10906482D02*
X13706143Y-10906482D01*
X13725190Y-10916006D02*
X13801381Y-10916006D01*
X13872809Y-10906482D02*
X13825190Y-10906482D01*
X13825190Y-10906482D02*
X13825190Y-10806482D01*
X13939476Y-10854101D02*
X13906143Y-10854101D01*
X13906143Y-10906482D02*
X13906143Y-10806482D01*
X13906143Y-10806482D02*
X13953762Y-10806482D01*
X13987095Y-10901720D02*
X14001381Y-10906482D01*
X14001381Y-10906482D02*
X14025190Y-10906482D01*
X14025190Y-10906482D02*
X14034714Y-10901720D01*
X14034714Y-10901720D02*
X14039476Y-10896958D01*
X14039476Y-10896958D02*
X14044238Y-10887434D01*
X14044238Y-10887434D02*
X14044238Y-10877910D01*
X14044238Y-10877910D02*
X14039476Y-10868387D01*
X14039476Y-10868387D02*
X14034714Y-10863625D01*
X14034714Y-10863625D02*
X14025190Y-10858863D01*
X14025190Y-10858863D02*
X14006143Y-10854101D01*
X14006143Y-10854101D02*
X13996619Y-10849339D01*
X13996619Y-10849339D02*
X13991857Y-10844577D01*
X13991857Y-10844577D02*
X13987095Y-10835053D01*
X13987095Y-10835053D02*
X13987095Y-10825530D01*
X13987095Y-10825530D02*
X13991857Y-10816006D01*
X13991857Y-10816006D02*
X13996619Y-10811244D01*
X13996619Y-10811244D02*
X14006143Y-10806482D01*
X14006143Y-10806482D02*
X14029952Y-10806482D01*
X14029952Y-10806482D02*
X14044238Y-10811244D01*
X15494667Y-11622482D02*
X15551809Y-11622482D01*
X15523238Y-11722482D02*
X15523238Y-11622482D01*
X15623238Y-11717720D02*
X15613714Y-11722482D01*
X15613714Y-11722482D02*
X15594667Y-11722482D01*
X15594667Y-11722482D02*
X15585143Y-11717720D01*
X15585143Y-11717720D02*
X15580381Y-11708196D01*
X15580381Y-11708196D02*
X15580381Y-11670101D01*
X15580381Y-11670101D02*
X15585143Y-11660577D01*
X15585143Y-11660577D02*
X15594667Y-11655815D01*
X15594667Y-11655815D02*
X15613714Y-11655815D01*
X15613714Y-11655815D02*
X15623238Y-11660577D01*
X15623238Y-11660577D02*
X15628000Y-11670101D01*
X15628000Y-11670101D02*
X15628000Y-11679625D01*
X15628000Y-11679625D02*
X15580381Y-11689148D01*
X15666095Y-11717720D02*
X15675619Y-11722482D01*
X15675619Y-11722482D02*
X15694667Y-11722482D01*
X15694667Y-11722482D02*
X15704190Y-11717720D01*
X15704190Y-11717720D02*
X15708952Y-11708196D01*
X15708952Y-11708196D02*
X15708952Y-11703434D01*
X15708952Y-11703434D02*
X15704190Y-11693910D01*
X15704190Y-11693910D02*
X15694667Y-11689148D01*
X15694667Y-11689148D02*
X15680381Y-11689148D01*
X15680381Y-11689148D02*
X15670857Y-11684387D01*
X15670857Y-11684387D02*
X15666095Y-11674863D01*
X15666095Y-11674863D02*
X15666095Y-11670101D01*
X15666095Y-11670101D02*
X15670857Y-11660577D01*
X15670857Y-11660577D02*
X15680381Y-11655815D01*
X15680381Y-11655815D02*
X15694667Y-11655815D01*
X15694667Y-11655815D02*
X15704190Y-11660577D01*
X15737524Y-11655815D02*
X15775619Y-11655815D01*
X15751809Y-11622482D02*
X15751809Y-11708196D01*
X15751809Y-11708196D02*
X15756571Y-11717720D01*
X15756571Y-11717720D02*
X15766095Y-11722482D01*
X15766095Y-11722482D02*
X15775619Y-11722482D01*
X15808952Y-11722482D02*
X15808952Y-11622482D01*
X15808952Y-11622482D02*
X15847048Y-11622482D01*
X15847048Y-11622482D02*
X15856571Y-11627244D01*
X15856571Y-11627244D02*
X15861333Y-11632006D01*
X15861333Y-11632006D02*
X15866095Y-11641529D01*
X15866095Y-11641529D02*
X15866095Y-11655815D01*
X15866095Y-11655815D02*
X15861333Y-11665339D01*
X15861333Y-11665339D02*
X15856571Y-11670101D01*
X15856571Y-11670101D02*
X15847048Y-11674863D01*
X15847048Y-11674863D02*
X15808952Y-11674863D01*
X15923238Y-11722482D02*
X15913714Y-11717720D01*
X15913714Y-11717720D02*
X15908952Y-11712958D01*
X15908952Y-11712958D02*
X15904190Y-11703434D01*
X15904190Y-11703434D02*
X15904190Y-11674863D01*
X15904190Y-11674863D02*
X15908952Y-11665339D01*
X15908952Y-11665339D02*
X15913714Y-11660577D01*
X15913714Y-11660577D02*
X15923238Y-11655815D01*
X15923238Y-11655815D02*
X15937524Y-11655815D01*
X15937524Y-11655815D02*
X15947048Y-11660577D01*
X15947048Y-11660577D02*
X15951809Y-11665339D01*
X15951809Y-11665339D02*
X15956571Y-11674863D01*
X15956571Y-11674863D02*
X15956571Y-11703434D01*
X15956571Y-11703434D02*
X15951809Y-11712958D01*
X15951809Y-11712958D02*
X15947048Y-11717720D01*
X15947048Y-11717720D02*
X15937524Y-11722482D01*
X15937524Y-11722482D02*
X15923238Y-11722482D01*
X15999429Y-11722482D02*
X15999429Y-11655815D01*
X15999429Y-11622482D02*
X15994667Y-11627244D01*
X15994667Y-11627244D02*
X15999429Y-11632006D01*
X15999429Y-11632006D02*
X16004190Y-11627244D01*
X16004190Y-11627244D02*
X15999429Y-11622482D01*
X15999429Y-11622482D02*
X15999429Y-11632006D01*
X16047048Y-11655815D02*
X16047048Y-11722482D01*
X16047048Y-11665339D02*
X16051809Y-11660577D01*
X16051809Y-11660577D02*
X16061333Y-11655815D01*
X16061333Y-11655815D02*
X16075619Y-11655815D01*
X16075619Y-11655815D02*
X16085143Y-11660577D01*
X16085143Y-11660577D02*
X16089905Y-11670101D01*
X16089905Y-11670101D02*
X16089905Y-11722482D01*
X16123238Y-11655815D02*
X16161333Y-11655815D01*
X16137524Y-11622482D02*
X16137524Y-11708196D01*
X16137524Y-11708196D02*
X16142286Y-11717720D01*
X16142286Y-11717720D02*
X16151809Y-11722482D01*
X16151809Y-11722482D02*
X16161333Y-11722482D01*
X15704190Y-11322482D02*
X15761333Y-11322482D01*
X15732762Y-11422482D02*
X15732762Y-11322482D01*
X15785143Y-11322482D02*
X15851809Y-11422482D01*
X15851809Y-11322482D02*
X15785143Y-11422482D01*
X15942286Y-11422482D02*
X15885143Y-11422482D01*
X15913714Y-11422482D02*
X15913714Y-11322482D01*
X15913714Y-11322482D02*
X15904190Y-11336768D01*
X15904190Y-11336768D02*
X15894667Y-11346291D01*
X15894667Y-11346291D02*
X15885143Y-11351053D01*
X14709482Y-12644143D02*
X14709482Y-12701286D01*
X14709482Y-12672714D02*
X14609482Y-12672714D01*
X14609482Y-12672714D02*
X14623768Y-12682238D01*
X14623768Y-12682238D02*
X14633291Y-12691762D01*
X14633291Y-12691762D02*
X14638053Y-12701286D01*
X14609482Y-12582238D02*
X14609482Y-12572714D01*
X14609482Y-12572714D02*
X14614244Y-12563190D01*
X14614244Y-12563190D02*
X14619006Y-12558428D01*
X14619006Y-12558428D02*
X14628529Y-12553667D01*
X14628529Y-12553667D02*
X14647577Y-12548905D01*
X14647577Y-12548905D02*
X14671387Y-12548905D01*
X14671387Y-12548905D02*
X14690434Y-12553667D01*
X14690434Y-12553667D02*
X14699958Y-12558428D01*
X14699958Y-12558428D02*
X14704720Y-12563190D01*
X14704720Y-12563190D02*
X14709482Y-12572714D01*
X14709482Y-12572714D02*
X14709482Y-12582238D01*
X14709482Y-12582238D02*
X14704720Y-12591762D01*
X14704720Y-12591762D02*
X14699958Y-12596524D01*
X14699958Y-12596524D02*
X14690434Y-12601286D01*
X14690434Y-12601286D02*
X14671387Y-12606047D01*
X14671387Y-12606047D02*
X14647577Y-12606047D01*
X14647577Y-12606047D02*
X14628529Y-12601286D01*
X14628529Y-12601286D02*
X14619006Y-12596524D01*
X14619006Y-12596524D02*
X14614244Y-12591762D01*
X14614244Y-12591762D02*
X14609482Y-12582238D01*
X14609482Y-12487000D02*
X14609482Y-12477476D01*
X14609482Y-12477476D02*
X14614244Y-12467952D01*
X14614244Y-12467952D02*
X14619006Y-12463190D01*
X14619006Y-12463190D02*
X14628529Y-12458428D01*
X14628529Y-12458428D02*
X14647577Y-12453667D01*
X14647577Y-12453667D02*
X14671387Y-12453667D01*
X14671387Y-12453667D02*
X14690434Y-12458428D01*
X14690434Y-12458428D02*
X14699958Y-12463190D01*
X14699958Y-12463190D02*
X14704720Y-12467952D01*
X14704720Y-12467952D02*
X14709482Y-12477476D01*
X14709482Y-12477476D02*
X14709482Y-12487000D01*
X14709482Y-12487000D02*
X14704720Y-12496524D01*
X14704720Y-12496524D02*
X14699958Y-12501286D01*
X14699958Y-12501286D02*
X14690434Y-12506047D01*
X14690434Y-12506047D02*
X14671387Y-12510809D01*
X14671387Y-12510809D02*
X14647577Y-12510809D01*
X14647577Y-12510809D02*
X14628529Y-12506047D01*
X14628529Y-12506047D02*
X14619006Y-12501286D01*
X14619006Y-12501286D02*
X14614244Y-12496524D01*
X14614244Y-12496524D02*
X14609482Y-12487000D01*
X14709482Y-12410809D02*
X14609482Y-12410809D01*
X14671387Y-12401286D02*
X14709482Y-12372714D01*
X14642815Y-12372714D02*
X14680910Y-12410809D01*
D11*
X14792820Y-12553714D02*
X14780439Y-12562381D01*
X14792820Y-12568571D02*
X14766820Y-12568571D01*
X14766820Y-12568571D02*
X14766820Y-12558667D01*
X14766820Y-12558667D02*
X14768058Y-12556190D01*
X14768058Y-12556190D02*
X14769296Y-12554952D01*
X14769296Y-12554952D02*
X14771772Y-12553714D01*
X14771772Y-12553714D02*
X14775487Y-12553714D01*
X14775487Y-12553714D02*
X14777963Y-12554952D01*
X14777963Y-12554952D02*
X14779201Y-12556190D01*
X14779201Y-12556190D02*
X14780439Y-12558667D01*
X14780439Y-12558667D02*
X14780439Y-12568571D01*
X14792820Y-12528952D02*
X14792820Y-12543809D01*
X14792820Y-12536381D02*
X14766820Y-12536381D01*
X14766820Y-12536381D02*
X14770534Y-12538857D01*
X14770534Y-12538857D02*
X14773010Y-12541333D01*
X14773010Y-12541333D02*
X14774249Y-12543809D01*
X14792820Y-12516571D02*
X14792820Y-12511619D01*
X14792820Y-12511619D02*
X14791582Y-12509143D01*
X14791582Y-12509143D02*
X14790344Y-12507905D01*
X14790344Y-12507905D02*
X14786630Y-12505428D01*
X14786630Y-12505428D02*
X14781677Y-12504190D01*
X14781677Y-12504190D02*
X14771772Y-12504190D01*
X14771772Y-12504190D02*
X14769296Y-12505428D01*
X14769296Y-12505428D02*
X14768058Y-12506667D01*
X14768058Y-12506667D02*
X14766820Y-12509143D01*
X14766820Y-12509143D02*
X14766820Y-12514095D01*
X14766820Y-12514095D02*
X14768058Y-12516571D01*
X14768058Y-12516571D02*
X14769296Y-12517809D01*
X14769296Y-12517809D02*
X14771772Y-12519048D01*
X14771772Y-12519048D02*
X14777963Y-12519048D01*
X14777963Y-12519048D02*
X14780439Y-12517809D01*
X14780439Y-12517809D02*
X14781677Y-12516571D01*
X14781677Y-12516571D02*
X14782915Y-12514095D01*
X14782915Y-12514095D02*
X14782915Y-12509143D01*
X14782915Y-12509143D02*
X14781677Y-12506667D01*
X14781677Y-12506667D02*
X14780439Y-12505428D01*
X14780439Y-12505428D02*
X14777963Y-12504190D01*
D10*
X12518482Y-11336286D02*
X12518482Y-11326762D01*
X12518482Y-11326762D02*
X12523244Y-11317238D01*
X12523244Y-11317238D02*
X12528006Y-11312476D01*
X12528006Y-11312476D02*
X12537529Y-11307714D01*
X12537529Y-11307714D02*
X12556577Y-11302952D01*
X12556577Y-11302952D02*
X12580387Y-11302952D01*
X12580387Y-11302952D02*
X12599434Y-11307714D01*
X12599434Y-11307714D02*
X12608958Y-11312476D01*
X12608958Y-11312476D02*
X12613720Y-11317238D01*
X12613720Y-11317238D02*
X12618482Y-11326762D01*
X12618482Y-11326762D02*
X12618482Y-11336286D01*
X12618482Y-11336286D02*
X12613720Y-11345809D01*
X12613720Y-11345809D02*
X12608958Y-11350571D01*
X12608958Y-11350571D02*
X12599434Y-11355333D01*
X12599434Y-11355333D02*
X12580387Y-11360095D01*
X12580387Y-11360095D02*
X12556577Y-11360095D01*
X12556577Y-11360095D02*
X12537529Y-11355333D01*
X12537529Y-11355333D02*
X12528006Y-11350571D01*
X12528006Y-11350571D02*
X12523244Y-11345809D01*
X12523244Y-11345809D02*
X12518482Y-11336286D01*
X12608958Y-11260095D02*
X12613720Y-11255333D01*
X12613720Y-11255333D02*
X12618482Y-11260095D01*
X12618482Y-11260095D02*
X12613720Y-11264857D01*
X12613720Y-11264857D02*
X12608958Y-11260095D01*
X12608958Y-11260095D02*
X12618482Y-11260095D01*
X12618482Y-11160095D02*
X12618482Y-11217238D01*
X12618482Y-11188667D02*
X12518482Y-11188667D01*
X12518482Y-11188667D02*
X12532768Y-11198190D01*
X12532768Y-11198190D02*
X12542291Y-11207714D01*
X12542291Y-11207714D02*
X12547053Y-11217238D01*
X12551815Y-11074381D02*
X12618482Y-11074381D01*
X12551815Y-11117238D02*
X12604196Y-11117238D01*
X12604196Y-11117238D02*
X12613720Y-11112476D01*
X12613720Y-11112476D02*
X12618482Y-11102952D01*
X12618482Y-11102952D02*
X12618482Y-11088667D01*
X12618482Y-11088667D02*
X12613720Y-11079143D01*
X12613720Y-11079143D02*
X12608958Y-11074381D01*
X12566101Y-10993429D02*
X12566101Y-11026762D01*
X12618482Y-11026762D02*
X12518482Y-11026762D01*
X12518482Y-11026762D02*
X12518482Y-10979143D01*
D11*
X12697976Y-11176167D02*
X12699167Y-11177357D01*
X12699167Y-11177357D02*
X12700357Y-11180929D01*
X12700357Y-11180929D02*
X12700357Y-11183309D01*
X12700357Y-11183309D02*
X12699167Y-11186881D01*
X12699167Y-11186881D02*
X12696786Y-11189262D01*
X12696786Y-11189262D02*
X12694405Y-11190452D01*
X12694405Y-11190452D02*
X12689643Y-11191643D01*
X12689643Y-11191643D02*
X12686072Y-11191643D01*
X12686072Y-11191643D02*
X12681310Y-11190452D01*
X12681310Y-11190452D02*
X12678929Y-11189262D01*
X12678929Y-11189262D02*
X12676548Y-11186881D01*
X12676548Y-11186881D02*
X12675357Y-11183309D01*
X12675357Y-11183309D02*
X12675357Y-11180929D01*
X12675357Y-11180929D02*
X12676548Y-11177357D01*
X12676548Y-11177357D02*
X12677738Y-11176167D01*
X12677738Y-11166643D02*
X12676548Y-11165452D01*
X12676548Y-11165452D02*
X12675357Y-11163071D01*
X12675357Y-11163071D02*
X12675357Y-11157119D01*
X12675357Y-11157119D02*
X12676548Y-11154738D01*
X12676548Y-11154738D02*
X12677738Y-11153548D01*
X12677738Y-11153548D02*
X12680119Y-11152357D01*
X12680119Y-11152357D02*
X12682500Y-11152357D01*
X12682500Y-11152357D02*
X12686072Y-11153548D01*
X12686072Y-11153548D02*
X12700357Y-11167833D01*
X12700357Y-11167833D02*
X12700357Y-11152357D01*
D10*
X15561500Y-11013339D02*
X15551976Y-11008577D01*
X15551976Y-11008577D02*
X15547214Y-11003815D01*
X15547214Y-11003815D02*
X15542452Y-10994291D01*
X15542452Y-10994291D02*
X15542452Y-10989530D01*
X15542452Y-10989530D02*
X15547214Y-10980006D01*
X15547214Y-10980006D02*
X15551976Y-10975244D01*
X15551976Y-10975244D02*
X15561500Y-10970482D01*
X15561500Y-10970482D02*
X15580548Y-10970482D01*
X15580548Y-10970482D02*
X15590071Y-10975244D01*
X15590071Y-10975244D02*
X15594833Y-10980006D01*
X15594833Y-10980006D02*
X15599595Y-10989530D01*
X15599595Y-10989530D02*
X15599595Y-10994291D01*
X15599595Y-10994291D02*
X15594833Y-11003815D01*
X15594833Y-11003815D02*
X15590071Y-11008577D01*
X15590071Y-11008577D02*
X15580548Y-11013339D01*
X15580548Y-11013339D02*
X15561500Y-11013339D01*
X15561500Y-11013339D02*
X15551976Y-11018101D01*
X15551976Y-11018101D02*
X15547214Y-11022863D01*
X15547214Y-11022863D02*
X15542452Y-11032387D01*
X15542452Y-11032387D02*
X15542452Y-11051434D01*
X15542452Y-11051434D02*
X15547214Y-11060958D01*
X15547214Y-11060958D02*
X15551976Y-11065720D01*
X15551976Y-11065720D02*
X15561500Y-11070482D01*
X15561500Y-11070482D02*
X15580548Y-11070482D01*
X15580548Y-11070482D02*
X15590071Y-11065720D01*
X15590071Y-11065720D02*
X15594833Y-11060958D01*
X15594833Y-11060958D02*
X15599595Y-11051434D01*
X15599595Y-11051434D02*
X15599595Y-11032387D01*
X15599595Y-11032387D02*
X15594833Y-11022863D01*
X15594833Y-11022863D02*
X15590071Y-11018101D01*
X15590071Y-11018101D02*
X15580548Y-11013339D01*
X15637690Y-10980006D02*
X15642452Y-10975244D01*
X15642452Y-10975244D02*
X15651976Y-10970482D01*
X15651976Y-10970482D02*
X15675786Y-10970482D01*
X15675786Y-10970482D02*
X15685309Y-10975244D01*
X15685309Y-10975244D02*
X15690071Y-10980006D01*
X15690071Y-10980006D02*
X15694833Y-10989530D01*
X15694833Y-10989530D02*
X15694833Y-10999053D01*
X15694833Y-10999053D02*
X15690071Y-11013339D01*
X15690071Y-11013339D02*
X15632929Y-11070482D01*
X15632929Y-11070482D02*
X15694833Y-11070482D01*
X15756738Y-10970482D02*
X15766262Y-10970482D01*
X15766262Y-10970482D02*
X15775786Y-10975244D01*
X15775786Y-10975244D02*
X15780548Y-10980006D01*
X15780548Y-10980006D02*
X15785309Y-10989530D01*
X15785309Y-10989530D02*
X15790071Y-11008577D01*
X15790071Y-11008577D02*
X15790071Y-11032387D01*
X15790071Y-11032387D02*
X15785309Y-11051434D01*
X15785309Y-11051434D02*
X15780548Y-11060958D01*
X15780548Y-11060958D02*
X15775786Y-11065720D01*
X15775786Y-11065720D02*
X15766262Y-11070482D01*
X15766262Y-11070482D02*
X15756738Y-11070482D01*
X15756738Y-11070482D02*
X15747214Y-11065720D01*
X15747214Y-11065720D02*
X15742452Y-11060958D01*
X15742452Y-11060958D02*
X15737690Y-11051434D01*
X15737690Y-11051434D02*
X15732929Y-11032387D01*
X15732929Y-11032387D02*
X15732929Y-11008577D01*
X15732929Y-11008577D02*
X15737690Y-10989530D01*
X15737690Y-10989530D02*
X15742452Y-10980006D01*
X15742452Y-10980006D02*
X15747214Y-10975244D01*
X15747214Y-10975244D02*
X15756738Y-10970482D01*
X15832929Y-11018101D02*
X15866262Y-11018101D01*
X15880548Y-11070482D02*
X15832929Y-11070482D01*
X15832929Y-11070482D02*
X15832929Y-10970482D01*
X15832929Y-10970482D02*
X15880548Y-10970482D01*
D11*
X15707167Y-10919820D02*
X15698500Y-10907439D01*
X15692309Y-10919820D02*
X15692309Y-10893820D01*
X15692309Y-10893820D02*
X15702214Y-10893820D01*
X15702214Y-10893820D02*
X15704690Y-10895058D01*
X15704690Y-10895058D02*
X15705929Y-10896296D01*
X15705929Y-10896296D02*
X15707167Y-10898772D01*
X15707167Y-10898772D02*
X15707167Y-10902487D01*
X15707167Y-10902487D02*
X15705929Y-10904963D01*
X15705929Y-10904963D02*
X15704690Y-10906201D01*
X15704690Y-10906201D02*
X15702214Y-10907439D01*
X15702214Y-10907439D02*
X15692309Y-10907439D01*
X15731929Y-10919820D02*
X15717071Y-10919820D01*
X15724500Y-10919820D02*
X15724500Y-10893820D01*
X15724500Y-10893820D02*
X15722024Y-10897534D01*
X15722024Y-10897534D02*
X15719548Y-10900011D01*
X15719548Y-10900011D02*
X15717071Y-10901249D01*
D10*
X15494667Y-12502482D02*
X15551809Y-12502482D01*
X15523238Y-12602482D02*
X15523238Y-12502482D01*
X15623238Y-12597720D02*
X15613714Y-12602482D01*
X15613714Y-12602482D02*
X15594667Y-12602482D01*
X15594667Y-12602482D02*
X15585143Y-12597720D01*
X15585143Y-12597720D02*
X15580381Y-12588196D01*
X15580381Y-12588196D02*
X15580381Y-12550101D01*
X15580381Y-12550101D02*
X15585143Y-12540577D01*
X15585143Y-12540577D02*
X15594667Y-12535815D01*
X15594667Y-12535815D02*
X15613714Y-12535815D01*
X15613714Y-12535815D02*
X15623238Y-12540577D01*
X15623238Y-12540577D02*
X15628000Y-12550101D01*
X15628000Y-12550101D02*
X15628000Y-12559625D01*
X15628000Y-12559625D02*
X15580381Y-12569148D01*
X15666095Y-12597720D02*
X15675619Y-12602482D01*
X15675619Y-12602482D02*
X15694667Y-12602482D01*
X15694667Y-12602482D02*
X15704190Y-12597720D01*
X15704190Y-12597720D02*
X15708952Y-12588196D01*
X15708952Y-12588196D02*
X15708952Y-12583434D01*
X15708952Y-12583434D02*
X15704190Y-12573910D01*
X15704190Y-12573910D02*
X15694667Y-12569148D01*
X15694667Y-12569148D02*
X15680381Y-12569148D01*
X15680381Y-12569148D02*
X15670857Y-12564387D01*
X15670857Y-12564387D02*
X15666095Y-12554863D01*
X15666095Y-12554863D02*
X15666095Y-12550101D01*
X15666095Y-12550101D02*
X15670857Y-12540577D01*
X15670857Y-12540577D02*
X15680381Y-12535815D01*
X15680381Y-12535815D02*
X15694667Y-12535815D01*
X15694667Y-12535815D02*
X15704190Y-12540577D01*
X15737524Y-12535815D02*
X15775619Y-12535815D01*
X15751809Y-12502482D02*
X15751809Y-12588196D01*
X15751809Y-12588196D02*
X15756571Y-12597720D01*
X15756571Y-12597720D02*
X15766095Y-12602482D01*
X15766095Y-12602482D02*
X15775619Y-12602482D01*
X15808952Y-12602482D02*
X15808952Y-12502482D01*
X15808952Y-12502482D02*
X15847048Y-12502482D01*
X15847048Y-12502482D02*
X15856571Y-12507244D01*
X15856571Y-12507244D02*
X15861333Y-12512006D01*
X15861333Y-12512006D02*
X15866095Y-12521529D01*
X15866095Y-12521529D02*
X15866095Y-12535815D01*
X15866095Y-12535815D02*
X15861333Y-12545339D01*
X15861333Y-12545339D02*
X15856571Y-12550101D01*
X15856571Y-12550101D02*
X15847048Y-12554863D01*
X15847048Y-12554863D02*
X15808952Y-12554863D01*
X15923238Y-12602482D02*
X15913714Y-12597720D01*
X15913714Y-12597720D02*
X15908952Y-12592958D01*
X15908952Y-12592958D02*
X15904190Y-12583434D01*
X15904190Y-12583434D02*
X15904190Y-12554863D01*
X15904190Y-12554863D02*
X15908952Y-12545339D01*
X15908952Y-12545339D02*
X15913714Y-12540577D01*
X15913714Y-12540577D02*
X15923238Y-12535815D01*
X15923238Y-12535815D02*
X15937524Y-12535815D01*
X15937524Y-12535815D02*
X15947048Y-12540577D01*
X15947048Y-12540577D02*
X15951809Y-12545339D01*
X15951809Y-12545339D02*
X15956571Y-12554863D01*
X15956571Y-12554863D02*
X15956571Y-12583434D01*
X15956571Y-12583434D02*
X15951809Y-12592958D01*
X15951809Y-12592958D02*
X15947048Y-12597720D01*
X15947048Y-12597720D02*
X15937524Y-12602482D01*
X15937524Y-12602482D02*
X15923238Y-12602482D01*
X15999429Y-12602482D02*
X15999429Y-12535815D01*
X15999429Y-12502482D02*
X15994667Y-12507244D01*
X15994667Y-12507244D02*
X15999429Y-12512006D01*
X15999429Y-12512006D02*
X16004190Y-12507244D01*
X16004190Y-12507244D02*
X15999429Y-12502482D01*
X15999429Y-12502482D02*
X15999429Y-12512006D01*
X16047048Y-12535815D02*
X16047048Y-12602482D01*
X16047048Y-12545339D02*
X16051809Y-12540577D01*
X16051809Y-12540577D02*
X16061333Y-12535815D01*
X16061333Y-12535815D02*
X16075619Y-12535815D01*
X16075619Y-12535815D02*
X16085143Y-12540577D01*
X16085143Y-12540577D02*
X16089905Y-12550101D01*
X16089905Y-12550101D02*
X16089905Y-12602482D01*
X16123238Y-12535815D02*
X16161333Y-12535815D01*
X16137524Y-12502482D02*
X16137524Y-12588196D01*
X16137524Y-12588196D02*
X16142286Y-12597720D01*
X16142286Y-12597720D02*
X16151809Y-12602482D01*
X16151809Y-12602482D02*
X16161333Y-12602482D01*
X15680381Y-12207244D02*
X15670857Y-12202482D01*
X15670857Y-12202482D02*
X15656571Y-12202482D01*
X15656571Y-12202482D02*
X15642286Y-12207244D01*
X15642286Y-12207244D02*
X15632762Y-12216768D01*
X15632762Y-12216768D02*
X15628000Y-12226291D01*
X15628000Y-12226291D02*
X15623238Y-12245339D01*
X15623238Y-12245339D02*
X15623238Y-12259625D01*
X15623238Y-12259625D02*
X15628000Y-12278672D01*
X15628000Y-12278672D02*
X15632762Y-12288196D01*
X15632762Y-12288196D02*
X15642286Y-12297720D01*
X15642286Y-12297720D02*
X15656571Y-12302482D01*
X15656571Y-12302482D02*
X15666095Y-12302482D01*
X15666095Y-12302482D02*
X15680381Y-12297720D01*
X15680381Y-12297720D02*
X15685143Y-12292958D01*
X15685143Y-12292958D02*
X15685143Y-12259625D01*
X15685143Y-12259625D02*
X15666095Y-12259625D01*
X15728000Y-12302482D02*
X15728000Y-12202482D01*
X15728000Y-12202482D02*
X15766095Y-12202482D01*
X15766095Y-12202482D02*
X15775619Y-12207244D01*
X15775619Y-12207244D02*
X15780381Y-12212006D01*
X15780381Y-12212006D02*
X15785143Y-12221529D01*
X15785143Y-12221529D02*
X15785143Y-12235815D01*
X15785143Y-12235815D02*
X15780381Y-12245339D01*
X15780381Y-12245339D02*
X15775619Y-12250101D01*
X15775619Y-12250101D02*
X15766095Y-12254863D01*
X15766095Y-12254863D02*
X15728000Y-12254863D01*
X15828000Y-12302482D02*
X15828000Y-12202482D01*
X15894667Y-12202482D02*
X15913714Y-12202482D01*
X15913714Y-12202482D02*
X15923238Y-12207244D01*
X15923238Y-12207244D02*
X15932762Y-12216768D01*
X15932762Y-12216768D02*
X15937524Y-12235815D01*
X15937524Y-12235815D02*
X15937524Y-12269148D01*
X15937524Y-12269148D02*
X15932762Y-12288196D01*
X15932762Y-12288196D02*
X15923238Y-12297720D01*
X15923238Y-12297720D02*
X15913714Y-12302482D01*
X15913714Y-12302482D02*
X15894667Y-12302482D01*
X15894667Y-12302482D02*
X15885143Y-12297720D01*
X15885143Y-12297720D02*
X15875619Y-12288196D01*
X15875619Y-12288196D02*
X15870857Y-12269148D01*
X15870857Y-12269148D02*
X15870857Y-12235815D01*
X15870857Y-12235815D02*
X15875619Y-12216768D01*
X15875619Y-12216768D02*
X15885143Y-12207244D01*
X15885143Y-12207244D02*
X15894667Y-12202482D01*
X16032762Y-12302482D02*
X15975619Y-12302482D01*
X16004190Y-12302482D02*
X16004190Y-12202482D01*
X16004190Y-12202482D02*
X15994667Y-12216768D01*
X15994667Y-12216768D02*
X15985143Y-12226291D01*
X15985143Y-12226291D02*
X15975619Y-12231053D01*
X12848482Y-10442524D02*
X12848482Y-10499667D01*
X12848482Y-10471095D02*
X12748482Y-10471095D01*
X12748482Y-10471095D02*
X12762768Y-10480619D01*
X12762768Y-10480619D02*
X12772291Y-10490143D01*
X12772291Y-10490143D02*
X12777053Y-10499667D01*
X12748482Y-10380619D02*
X12748482Y-10371095D01*
X12748482Y-10371095D02*
X12753244Y-10361571D01*
X12753244Y-10361571D02*
X12758006Y-10356810D01*
X12758006Y-10356810D02*
X12767529Y-10352048D01*
X12767529Y-10352048D02*
X12786577Y-10347286D01*
X12786577Y-10347286D02*
X12810387Y-10347286D01*
X12810387Y-10347286D02*
X12829434Y-10352048D01*
X12829434Y-10352048D02*
X12838958Y-10356810D01*
X12838958Y-10356810D02*
X12843720Y-10361571D01*
X12843720Y-10361571D02*
X12848482Y-10371095D01*
X12848482Y-10371095D02*
X12848482Y-10380619D01*
X12848482Y-10380619D02*
X12843720Y-10390143D01*
X12843720Y-10390143D02*
X12838958Y-10394905D01*
X12838958Y-10394905D02*
X12829434Y-10399667D01*
X12829434Y-10399667D02*
X12810387Y-10404429D01*
X12810387Y-10404429D02*
X12786577Y-10404429D01*
X12786577Y-10404429D02*
X12767529Y-10399667D01*
X12767529Y-10399667D02*
X12758006Y-10394905D01*
X12758006Y-10394905D02*
X12753244Y-10390143D01*
X12753244Y-10390143D02*
X12748482Y-10380619D01*
X12848482Y-10304429D02*
X12748482Y-10304429D01*
X12810387Y-10294905D02*
X12848482Y-10266333D01*
X12781815Y-10266333D02*
X12819910Y-10304429D01*
D11*
X12697820Y-10387333D02*
X12685439Y-10396000D01*
X12697820Y-10402190D02*
X12671820Y-10402190D01*
X12671820Y-10402190D02*
X12671820Y-10392286D01*
X12671820Y-10392286D02*
X12673058Y-10389809D01*
X12673058Y-10389809D02*
X12674296Y-10388571D01*
X12674296Y-10388571D02*
X12676772Y-10387333D01*
X12676772Y-10387333D02*
X12680487Y-10387333D01*
X12680487Y-10387333D02*
X12682963Y-10388571D01*
X12682963Y-10388571D02*
X12684201Y-10389809D01*
X12684201Y-10389809D02*
X12685439Y-10392286D01*
X12685439Y-10392286D02*
X12685439Y-10402190D01*
X12680487Y-10365048D02*
X12697820Y-10365048D01*
X12670582Y-10371238D02*
X12689153Y-10377429D01*
X12689153Y-10377429D02*
X12689153Y-10361333D01*
D10*
X13309571Y-11716006D02*
X13314333Y-11711244D01*
X13314333Y-11711244D02*
X13323857Y-11706482D01*
X13323857Y-11706482D02*
X13347667Y-11706482D01*
X13347667Y-11706482D02*
X13357190Y-11711244D01*
X13357190Y-11711244D02*
X13361952Y-11716006D01*
X13361952Y-11716006D02*
X13366714Y-11725529D01*
X13366714Y-11725529D02*
X13366714Y-11735053D01*
X13366714Y-11735053D02*
X13361952Y-11749339D01*
X13361952Y-11749339D02*
X13304809Y-11806482D01*
X13304809Y-11806482D02*
X13366714Y-11806482D01*
X13404809Y-11716006D02*
X13409571Y-11711244D01*
X13409571Y-11711244D02*
X13419095Y-11706482D01*
X13419095Y-11706482D02*
X13442905Y-11706482D01*
X13442905Y-11706482D02*
X13452428Y-11711244D01*
X13452428Y-11711244D02*
X13457190Y-11716006D01*
X13457190Y-11716006D02*
X13461952Y-11725529D01*
X13461952Y-11725529D02*
X13461952Y-11735053D01*
X13461952Y-11735053D02*
X13457190Y-11749339D01*
X13457190Y-11749339D02*
X13400048Y-11806482D01*
X13400048Y-11806482D02*
X13461952Y-11806482D01*
X13504809Y-11754101D02*
X13538143Y-11754101D01*
X13552428Y-11806482D02*
X13504809Y-11806482D01*
X13504809Y-11806482D02*
X13504809Y-11706482D01*
X13504809Y-11706482D02*
X13552428Y-11706482D01*
D11*
X13426667Y-11889820D02*
X13418000Y-11877439D01*
X13411809Y-11889820D02*
X13411809Y-11863820D01*
X13411809Y-11863820D02*
X13421714Y-11863820D01*
X13421714Y-11863820D02*
X13424190Y-11865058D01*
X13424190Y-11865058D02*
X13425429Y-11866296D01*
X13425429Y-11866296D02*
X13426667Y-11868772D01*
X13426667Y-11868772D02*
X13426667Y-11872487D01*
X13426667Y-11872487D02*
X13425429Y-11874963D01*
X13425429Y-11874963D02*
X13424190Y-11876201D01*
X13424190Y-11876201D02*
X13421714Y-11877439D01*
X13421714Y-11877439D02*
X13411809Y-11877439D01*
X13450190Y-11863820D02*
X13437809Y-11863820D01*
X13437809Y-11863820D02*
X13436571Y-11876201D01*
X13436571Y-11876201D02*
X13437809Y-11874963D01*
X13437809Y-11874963D02*
X13440286Y-11873725D01*
X13440286Y-11873725D02*
X13446476Y-11873725D01*
X13446476Y-11873725D02*
X13448952Y-11874963D01*
X13448952Y-11874963D02*
X13450190Y-11876201D01*
X13450190Y-11876201D02*
X13451429Y-11878677D01*
X13451429Y-11878677D02*
X13451429Y-11884868D01*
X13451429Y-11884868D02*
X13450190Y-11887344D01*
X13450190Y-11887344D02*
X13448952Y-11888582D01*
X13448952Y-11888582D02*
X13446476Y-11889820D01*
X13446476Y-11889820D02*
X13440286Y-11889820D01*
X13440286Y-11889820D02*
X13437809Y-11888582D01*
X13437809Y-11888582D02*
X13436571Y-11887344D01*
D10*
X15494667Y-11842482D02*
X15551809Y-11842482D01*
X15523238Y-11942482D02*
X15523238Y-11842482D01*
X15623238Y-11937720D02*
X15613714Y-11942482D01*
X15613714Y-11942482D02*
X15594667Y-11942482D01*
X15594667Y-11942482D02*
X15585143Y-11937720D01*
X15585143Y-11937720D02*
X15580381Y-11928196D01*
X15580381Y-11928196D02*
X15580381Y-11890101D01*
X15580381Y-11890101D02*
X15585143Y-11880577D01*
X15585143Y-11880577D02*
X15594667Y-11875815D01*
X15594667Y-11875815D02*
X15613714Y-11875815D01*
X15613714Y-11875815D02*
X15623238Y-11880577D01*
X15623238Y-11880577D02*
X15628000Y-11890101D01*
X15628000Y-11890101D02*
X15628000Y-11899625D01*
X15628000Y-11899625D02*
X15580381Y-11909148D01*
X15666095Y-11937720D02*
X15675619Y-11942482D01*
X15675619Y-11942482D02*
X15694667Y-11942482D01*
X15694667Y-11942482D02*
X15704190Y-11937720D01*
X15704190Y-11937720D02*
X15708952Y-11928196D01*
X15708952Y-11928196D02*
X15708952Y-11923434D01*
X15708952Y-11923434D02*
X15704190Y-11913910D01*
X15704190Y-11913910D02*
X15694667Y-11909148D01*
X15694667Y-11909148D02*
X15680381Y-11909148D01*
X15680381Y-11909148D02*
X15670857Y-11904387D01*
X15670857Y-11904387D02*
X15666095Y-11894863D01*
X15666095Y-11894863D02*
X15666095Y-11890101D01*
X15666095Y-11890101D02*
X15670857Y-11880577D01*
X15670857Y-11880577D02*
X15680381Y-11875815D01*
X15680381Y-11875815D02*
X15694667Y-11875815D01*
X15694667Y-11875815D02*
X15704190Y-11880577D01*
X15737524Y-11875815D02*
X15775619Y-11875815D01*
X15751809Y-11842482D02*
X15751809Y-11928196D01*
X15751809Y-11928196D02*
X15756571Y-11937720D01*
X15756571Y-11937720D02*
X15766095Y-11942482D01*
X15766095Y-11942482D02*
X15775619Y-11942482D01*
X15808952Y-11942482D02*
X15808952Y-11842482D01*
X15808952Y-11842482D02*
X15847048Y-11842482D01*
X15847048Y-11842482D02*
X15856571Y-11847244D01*
X15856571Y-11847244D02*
X15861333Y-11852006D01*
X15861333Y-11852006D02*
X15866095Y-11861529D01*
X15866095Y-11861529D02*
X15866095Y-11875815D01*
X15866095Y-11875815D02*
X15861333Y-11885339D01*
X15861333Y-11885339D02*
X15856571Y-11890101D01*
X15856571Y-11890101D02*
X15847048Y-11894863D01*
X15847048Y-11894863D02*
X15808952Y-11894863D01*
X15923238Y-11942482D02*
X15913714Y-11937720D01*
X15913714Y-11937720D02*
X15908952Y-11932958D01*
X15908952Y-11932958D02*
X15904190Y-11923434D01*
X15904190Y-11923434D02*
X15904190Y-11894863D01*
X15904190Y-11894863D02*
X15908952Y-11885339D01*
X15908952Y-11885339D02*
X15913714Y-11880577D01*
X15913714Y-11880577D02*
X15923238Y-11875815D01*
X15923238Y-11875815D02*
X15937524Y-11875815D01*
X15937524Y-11875815D02*
X15947048Y-11880577D01*
X15947048Y-11880577D02*
X15951809Y-11885339D01*
X15951809Y-11885339D02*
X15956571Y-11894863D01*
X15956571Y-11894863D02*
X15956571Y-11923434D01*
X15956571Y-11923434D02*
X15951809Y-11932958D01*
X15951809Y-11932958D02*
X15947048Y-11937720D01*
X15947048Y-11937720D02*
X15937524Y-11942482D01*
X15937524Y-11942482D02*
X15923238Y-11942482D01*
X15999429Y-11942482D02*
X15999429Y-11875815D01*
X15999429Y-11842482D02*
X15994667Y-11847244D01*
X15994667Y-11847244D02*
X15999429Y-11852006D01*
X15999429Y-11852006D02*
X16004190Y-11847244D01*
X16004190Y-11847244D02*
X15999429Y-11842482D01*
X15999429Y-11842482D02*
X15999429Y-11852006D01*
X16047048Y-11875815D02*
X16047048Y-11942482D01*
X16047048Y-11885339D02*
X16051809Y-11880577D01*
X16051809Y-11880577D02*
X16061333Y-11875815D01*
X16061333Y-11875815D02*
X16075619Y-11875815D01*
X16075619Y-11875815D02*
X16085143Y-11880577D01*
X16085143Y-11880577D02*
X16089905Y-11890101D01*
X16089905Y-11890101D02*
X16089905Y-11942482D01*
X16123238Y-11875815D02*
X16161333Y-11875815D01*
X16137524Y-11842482D02*
X16137524Y-11928196D01*
X16137524Y-11928196D02*
X16142286Y-11937720D01*
X16142286Y-11937720D02*
X16151809Y-11942482D01*
X16151809Y-11942482D02*
X16161333Y-11942482D01*
X15763714Y-11642482D02*
X15730381Y-11594863D01*
X15706571Y-11642482D02*
X15706571Y-11542482D01*
X15706571Y-11542482D02*
X15744667Y-11542482D01*
X15744667Y-11542482D02*
X15754190Y-11547244D01*
X15754190Y-11547244D02*
X15758952Y-11552006D01*
X15758952Y-11552006D02*
X15763714Y-11561529D01*
X15763714Y-11561529D02*
X15763714Y-11575815D01*
X15763714Y-11575815D02*
X15758952Y-11585339D01*
X15758952Y-11585339D02*
X15754190Y-11590101D01*
X15754190Y-11590101D02*
X15744667Y-11594863D01*
X15744667Y-11594863D02*
X15706571Y-11594863D01*
X15797048Y-11542482D02*
X15863714Y-11642482D01*
X15863714Y-11542482D02*
X15797048Y-11642482D01*
X15954190Y-11642482D02*
X15897048Y-11642482D01*
X15925619Y-11642482D02*
X15925619Y-11542482D01*
X15925619Y-11542482D02*
X15916095Y-11556768D01*
X15916095Y-11556768D02*
X15906571Y-11566291D01*
X15906571Y-11566291D02*
X15897048Y-11571053D01*
X13309571Y-11816006D02*
X13314333Y-11811244D01*
X13314333Y-11811244D02*
X13323857Y-11806482D01*
X13323857Y-11806482D02*
X13347667Y-11806482D01*
X13347667Y-11806482D02*
X13357190Y-11811244D01*
X13357190Y-11811244D02*
X13361952Y-11816006D01*
X13361952Y-11816006D02*
X13366714Y-11825529D01*
X13366714Y-11825529D02*
X13366714Y-11835053D01*
X13366714Y-11835053D02*
X13361952Y-11849339D01*
X13361952Y-11849339D02*
X13304809Y-11906482D01*
X13304809Y-11906482D02*
X13366714Y-11906482D01*
X13404809Y-11816006D02*
X13409571Y-11811244D01*
X13409571Y-11811244D02*
X13419095Y-11806482D01*
X13419095Y-11806482D02*
X13442905Y-11806482D01*
X13442905Y-11806482D02*
X13452428Y-11811244D01*
X13452428Y-11811244D02*
X13457190Y-11816006D01*
X13457190Y-11816006D02*
X13461952Y-11825529D01*
X13461952Y-11825529D02*
X13461952Y-11835053D01*
X13461952Y-11835053D02*
X13457190Y-11849339D01*
X13457190Y-11849339D02*
X13400048Y-11906482D01*
X13400048Y-11906482D02*
X13461952Y-11906482D01*
X13504809Y-11854101D02*
X13538143Y-11854101D01*
X13552428Y-11906482D02*
X13504809Y-11906482D01*
X13504809Y-11906482D02*
X13504809Y-11806482D01*
X13504809Y-11806482D02*
X13552428Y-11806482D01*
D11*
X13426667Y-11989820D02*
X13418000Y-11977439D01*
X13411809Y-11989820D02*
X13411809Y-11963820D01*
X13411809Y-11963820D02*
X13421714Y-11963820D01*
X13421714Y-11963820D02*
X13424190Y-11965058D01*
X13424190Y-11965058D02*
X13425429Y-11966296D01*
X13425429Y-11966296D02*
X13426667Y-11968772D01*
X13426667Y-11968772D02*
X13426667Y-11972487D01*
X13426667Y-11972487D02*
X13425429Y-11974963D01*
X13425429Y-11974963D02*
X13424190Y-11976201D01*
X13424190Y-11976201D02*
X13421714Y-11977439D01*
X13421714Y-11977439D02*
X13411809Y-11977439D01*
X13448952Y-11963820D02*
X13444000Y-11963820D01*
X13444000Y-11963820D02*
X13441524Y-11965058D01*
X13441524Y-11965058D02*
X13440286Y-11966296D01*
X13440286Y-11966296D02*
X13437809Y-11970010D01*
X13437809Y-11970010D02*
X13436571Y-11974963D01*
X13436571Y-11974963D02*
X13436571Y-11984868D01*
X13436571Y-11984868D02*
X13437809Y-11987344D01*
X13437809Y-11987344D02*
X13439048Y-11988582D01*
X13439048Y-11988582D02*
X13441524Y-11989820D01*
X13441524Y-11989820D02*
X13446476Y-11989820D01*
X13446476Y-11989820D02*
X13448952Y-11988582D01*
X13448952Y-11988582D02*
X13450190Y-11987344D01*
X13450190Y-11987344D02*
X13451429Y-11984868D01*
X13451429Y-11984868D02*
X13451429Y-11978677D01*
X13451429Y-11978677D02*
X13450190Y-11976201D01*
X13450190Y-11976201D02*
X13448952Y-11974963D01*
X13448952Y-11974963D02*
X13446476Y-11973725D01*
X13446476Y-11973725D02*
X13441524Y-11973725D01*
X13441524Y-11973725D02*
X13439048Y-11974963D01*
X13439048Y-11974963D02*
X13437809Y-11976201D01*
X13437809Y-11976201D02*
X13436571Y-11978677D01*
D10*
X14790714Y-12329482D02*
X14800238Y-12329482D01*
X14800238Y-12329482D02*
X14809762Y-12334244D01*
X14809762Y-12334244D02*
X14814524Y-12339006D01*
X14814524Y-12339006D02*
X14819286Y-12348529D01*
X14819286Y-12348529D02*
X14824048Y-12367577D01*
X14824048Y-12367577D02*
X14824048Y-12391387D01*
X14824048Y-12391387D02*
X14819286Y-12410434D01*
X14819286Y-12410434D02*
X14814524Y-12419958D01*
X14814524Y-12419958D02*
X14809762Y-12424720D01*
X14809762Y-12424720D02*
X14800238Y-12429482D01*
X14800238Y-12429482D02*
X14790714Y-12429482D01*
X14790714Y-12429482D02*
X14781190Y-12424720D01*
X14781190Y-12424720D02*
X14776429Y-12419958D01*
X14776429Y-12419958D02*
X14771667Y-12410434D01*
X14771667Y-12410434D02*
X14766905Y-12391387D01*
X14766905Y-12391387D02*
X14766905Y-12367577D01*
X14766905Y-12367577D02*
X14771667Y-12348529D01*
X14771667Y-12348529D02*
X14776429Y-12339006D01*
X14776429Y-12339006D02*
X14781190Y-12334244D01*
X14781190Y-12334244D02*
X14790714Y-12329482D01*
X14866905Y-12419958D02*
X14871667Y-12424720D01*
X14871667Y-12424720D02*
X14866905Y-12429482D01*
X14866905Y-12429482D02*
X14862143Y-12424720D01*
X14862143Y-12424720D02*
X14866905Y-12419958D01*
X14866905Y-12419958D02*
X14866905Y-12429482D01*
X14966905Y-12429482D02*
X14909762Y-12429482D01*
X14938333Y-12429482D02*
X14938333Y-12329482D01*
X14938333Y-12329482D02*
X14928809Y-12343768D01*
X14928809Y-12343768D02*
X14919286Y-12353291D01*
X14919286Y-12353291D02*
X14909762Y-12358053D01*
X15052619Y-12362815D02*
X15052619Y-12429482D01*
X15009762Y-12362815D02*
X15009762Y-12415196D01*
X15009762Y-12415196D02*
X15014524Y-12424720D01*
X15014524Y-12424720D02*
X15024048Y-12429482D01*
X15024048Y-12429482D02*
X15038333Y-12429482D01*
X15038333Y-12429482D02*
X15047857Y-12424720D01*
X15047857Y-12424720D02*
X15052619Y-12419958D01*
X15133571Y-12377101D02*
X15100238Y-12377101D01*
X15100238Y-12429482D02*
X15100238Y-12329482D01*
X15100238Y-12329482D02*
X15147857Y-12329482D01*
D11*
X14938928Y-12276976D02*
X14937738Y-12278167D01*
X14937738Y-12278167D02*
X14934167Y-12279357D01*
X14934167Y-12279357D02*
X14931786Y-12279357D01*
X14931786Y-12279357D02*
X14928214Y-12278167D01*
X14928214Y-12278167D02*
X14925833Y-12275786D01*
X14925833Y-12275786D02*
X14924643Y-12273405D01*
X14924643Y-12273405D02*
X14923452Y-12268643D01*
X14923452Y-12268643D02*
X14923452Y-12265072D01*
X14923452Y-12265072D02*
X14924643Y-12260310D01*
X14924643Y-12260310D02*
X14925833Y-12257929D01*
X14925833Y-12257929D02*
X14928214Y-12255548D01*
X14928214Y-12255548D02*
X14931786Y-12254357D01*
X14931786Y-12254357D02*
X14934167Y-12254357D01*
X14934167Y-12254357D02*
X14937738Y-12255548D01*
X14937738Y-12255548D02*
X14938928Y-12256738D01*
X14962738Y-12279357D02*
X14948452Y-12279357D01*
X14955595Y-12279357D02*
X14955595Y-12254357D01*
X14955595Y-12254357D02*
X14953214Y-12257929D01*
X14953214Y-12257929D02*
X14950833Y-12260310D01*
X14950833Y-12260310D02*
X14948452Y-12261500D01*
X14972262Y-12256738D02*
X14973452Y-12255548D01*
X14973452Y-12255548D02*
X14975833Y-12254357D01*
X14975833Y-12254357D02*
X14981786Y-12254357D01*
X14981786Y-12254357D02*
X14984167Y-12255548D01*
X14984167Y-12255548D02*
X14985357Y-12256738D01*
X14985357Y-12256738D02*
X14986548Y-12259119D01*
X14986548Y-12259119D02*
X14986548Y-12261500D01*
X14986548Y-12261500D02*
X14985357Y-12265072D01*
X14985357Y-12265072D02*
X14971071Y-12279357D01*
X14971071Y-12279357D02*
X14986548Y-12279357D01*
D10*
X12850482Y-11005524D02*
X12850482Y-11062667D01*
X12850482Y-11034095D02*
X12750482Y-11034095D01*
X12750482Y-11034095D02*
X12764768Y-11043619D01*
X12764768Y-11043619D02*
X12774291Y-11053143D01*
X12774291Y-11053143D02*
X12779053Y-11062667D01*
X12750482Y-10943619D02*
X12750482Y-10934095D01*
X12750482Y-10934095D02*
X12755244Y-10924571D01*
X12755244Y-10924571D02*
X12760006Y-10919810D01*
X12760006Y-10919810D02*
X12769529Y-10915048D01*
X12769529Y-10915048D02*
X12788577Y-10910286D01*
X12788577Y-10910286D02*
X12812387Y-10910286D01*
X12812387Y-10910286D02*
X12831434Y-10915048D01*
X12831434Y-10915048D02*
X12840958Y-10919810D01*
X12840958Y-10919810D02*
X12845720Y-10924571D01*
X12845720Y-10924571D02*
X12850482Y-10934095D01*
X12850482Y-10934095D02*
X12850482Y-10943619D01*
X12850482Y-10943619D02*
X12845720Y-10953143D01*
X12845720Y-10953143D02*
X12840958Y-10957905D01*
X12840958Y-10957905D02*
X12831434Y-10962667D01*
X12831434Y-10962667D02*
X12812387Y-10967429D01*
X12812387Y-10967429D02*
X12788577Y-10967429D01*
X12788577Y-10967429D02*
X12769529Y-10962667D01*
X12769529Y-10962667D02*
X12760006Y-10957905D01*
X12760006Y-10957905D02*
X12755244Y-10953143D01*
X12755244Y-10953143D02*
X12750482Y-10943619D01*
X12850482Y-10867429D02*
X12750482Y-10867429D01*
X12812387Y-10857905D02*
X12850482Y-10829333D01*
X12783815Y-10829333D02*
X12821910Y-10867429D01*
D11*
X12699820Y-10950333D02*
X12687439Y-10959000D01*
X12699820Y-10965190D02*
X12673820Y-10965190D01*
X12673820Y-10965190D02*
X12673820Y-10955286D01*
X12673820Y-10955286D02*
X12675058Y-10952809D01*
X12675058Y-10952809D02*
X12676296Y-10951571D01*
X12676296Y-10951571D02*
X12678772Y-10950333D01*
X12678772Y-10950333D02*
X12682487Y-10950333D01*
X12682487Y-10950333D02*
X12684963Y-10951571D01*
X12684963Y-10951571D02*
X12686201Y-10952809D01*
X12686201Y-10952809D02*
X12687439Y-10955286D01*
X12687439Y-10955286D02*
X12687439Y-10965190D01*
X12673820Y-10941667D02*
X12673820Y-10925571D01*
X12673820Y-10925571D02*
X12683725Y-10934238D01*
X12683725Y-10934238D02*
X12683725Y-10930524D01*
X12683725Y-10930524D02*
X12684963Y-10928048D01*
X12684963Y-10928048D02*
X12686201Y-10926809D01*
X12686201Y-10926809D02*
X12688677Y-10925571D01*
X12688677Y-10925571D02*
X12694868Y-10925571D01*
X12694868Y-10925571D02*
X12697344Y-10926809D01*
X12697344Y-10926809D02*
X12698582Y-10928048D01*
X12698582Y-10928048D02*
X12699820Y-10930524D01*
X12699820Y-10930524D02*
X12699820Y-10937952D01*
X12699820Y-10937952D02*
X12698582Y-10940429D01*
X12698582Y-10940429D02*
X12697344Y-10941667D01*
D10*
X12158524Y-11460482D02*
X12158524Y-11360482D01*
X12158524Y-11360482D02*
X12196619Y-11360482D01*
X12196619Y-11360482D02*
X12206143Y-11365244D01*
X12206143Y-11365244D02*
X12210905Y-11370006D01*
X12210905Y-11370006D02*
X12215666Y-11379529D01*
X12215666Y-11379529D02*
X12215666Y-11393815D01*
X12215666Y-11393815D02*
X12210905Y-11403339D01*
X12210905Y-11403339D02*
X12206143Y-11408101D01*
X12206143Y-11408101D02*
X12196619Y-11412863D01*
X12196619Y-11412863D02*
X12158524Y-11412863D01*
X12244238Y-11360482D02*
X12301381Y-11360482D01*
X12272809Y-11460482D02*
X12272809Y-11360482D01*
X12329952Y-11455720D02*
X12344238Y-11460482D01*
X12344238Y-11460482D02*
X12368047Y-11460482D01*
X12368047Y-11460482D02*
X12377571Y-11455720D01*
X12377571Y-11455720D02*
X12382333Y-11450958D01*
X12382333Y-11450958D02*
X12387095Y-11441434D01*
X12387095Y-11441434D02*
X12387095Y-11431910D01*
X12387095Y-11431910D02*
X12382333Y-11422387D01*
X12382333Y-11422387D02*
X12377571Y-11417625D01*
X12377571Y-11417625D02*
X12368047Y-11412863D01*
X12368047Y-11412863D02*
X12349000Y-11408101D01*
X12349000Y-11408101D02*
X12339476Y-11403339D01*
X12339476Y-11403339D02*
X12334714Y-11398577D01*
X12334714Y-11398577D02*
X12329952Y-11389053D01*
X12329952Y-11389053D02*
X12329952Y-11379529D01*
X12329952Y-11379529D02*
X12334714Y-11370006D01*
X12334714Y-11370006D02*
X12339476Y-11365244D01*
X12339476Y-11365244D02*
X12349000Y-11360482D01*
X12349000Y-11360482D02*
X12372809Y-11360482D01*
X12372809Y-11360482D02*
X12387095Y-11365244D01*
X12477571Y-11360482D02*
X12429952Y-11360482D01*
X12429952Y-11360482D02*
X12425190Y-11408101D01*
X12425190Y-11408101D02*
X12429952Y-11403339D01*
X12429952Y-11403339D02*
X12439476Y-11398577D01*
X12439476Y-11398577D02*
X12463286Y-11398577D01*
X12463286Y-11398577D02*
X12472809Y-11403339D01*
X12472809Y-11403339D02*
X12477571Y-11408101D01*
X12477571Y-11408101D02*
X12482333Y-11417625D01*
X12482333Y-11417625D02*
X12482333Y-11441434D01*
X12482333Y-11441434D02*
X12477571Y-11450958D01*
X12477571Y-11450958D02*
X12472809Y-11455720D01*
X12472809Y-11455720D02*
X12463286Y-11460482D01*
X12463286Y-11460482D02*
X12439476Y-11460482D01*
X12439476Y-11460482D02*
X12429952Y-11455720D01*
X12429952Y-11455720D02*
X12425190Y-11450958D01*
X12520428Y-11370006D02*
X12525190Y-11365244D01*
X12525190Y-11365244D02*
X12534714Y-11360482D01*
X12534714Y-11360482D02*
X12558524Y-11360482D01*
X12558524Y-11360482D02*
X12568047Y-11365244D01*
X12568047Y-11365244D02*
X12572809Y-11370006D01*
X12572809Y-11370006D02*
X12577571Y-11379529D01*
X12577571Y-11379529D02*
X12577571Y-11389053D01*
X12577571Y-11389053D02*
X12572809Y-11403339D01*
X12572809Y-11403339D02*
X12515667Y-11460482D01*
X12515667Y-11460482D02*
X12577571Y-11460482D01*
X12663286Y-11360482D02*
X12644238Y-11360482D01*
X12644238Y-11360482D02*
X12634714Y-11365244D01*
X12634714Y-11365244D02*
X12629952Y-11370006D01*
X12629952Y-11370006D02*
X12620428Y-11384291D01*
X12620428Y-11384291D02*
X12615667Y-11403339D01*
X12615667Y-11403339D02*
X12615667Y-11441434D01*
X12615667Y-11441434D02*
X12620428Y-11450958D01*
X12620428Y-11450958D02*
X12625190Y-11455720D01*
X12625190Y-11455720D02*
X12634714Y-11460482D01*
X12634714Y-11460482D02*
X12653762Y-11460482D01*
X12653762Y-11460482D02*
X12663286Y-11455720D01*
X12663286Y-11455720D02*
X12668047Y-11450958D01*
X12668047Y-11450958D02*
X12672809Y-11441434D01*
X12672809Y-11441434D02*
X12672809Y-11417625D01*
X12672809Y-11417625D02*
X12668047Y-11408101D01*
X12668047Y-11408101D02*
X12663286Y-11403339D01*
X12663286Y-11403339D02*
X12653762Y-11398577D01*
X12653762Y-11398577D02*
X12634714Y-11398577D01*
X12634714Y-11398577D02*
X12625190Y-11403339D01*
X12625190Y-11403339D02*
X12620428Y-11408101D01*
X12620428Y-11408101D02*
X12615667Y-11417625D01*
X12691857Y-11470006D02*
X12768047Y-11470006D01*
X12787095Y-11455720D02*
X12801381Y-11460482D01*
X12801381Y-11460482D02*
X12825190Y-11460482D01*
X12825190Y-11460482D02*
X12834714Y-11455720D01*
X12834714Y-11455720D02*
X12839476Y-11450958D01*
X12839476Y-11450958D02*
X12844238Y-11441434D01*
X12844238Y-11441434D02*
X12844238Y-11431910D01*
X12844238Y-11431910D02*
X12839476Y-11422387D01*
X12839476Y-11422387D02*
X12834714Y-11417625D01*
X12834714Y-11417625D02*
X12825190Y-11412863D01*
X12825190Y-11412863D02*
X12806143Y-11408101D01*
X12806143Y-11408101D02*
X12796619Y-11403339D01*
X12796619Y-11403339D02*
X12791857Y-11398577D01*
X12791857Y-11398577D02*
X12787095Y-11389053D01*
X12787095Y-11389053D02*
X12787095Y-11379529D01*
X12787095Y-11379529D02*
X12791857Y-11370006D01*
X12791857Y-11370006D02*
X12796619Y-11365244D01*
X12796619Y-11365244D02*
X12806143Y-11360482D01*
X12806143Y-11360482D02*
X12829952Y-11360482D01*
X12829952Y-11360482D02*
X12844238Y-11365244D01*
X12887095Y-11460482D02*
X12887095Y-11360482D01*
X12887095Y-11360482D02*
X12920428Y-11431910D01*
X12920428Y-11431910D02*
X12953762Y-11360482D01*
X12953762Y-11360482D02*
X12953762Y-11460482D01*
X13053762Y-11460482D02*
X12996619Y-11460482D01*
X13025190Y-11460482D02*
X13025190Y-11360482D01*
X13025190Y-11360482D02*
X13015667Y-11374768D01*
X13015667Y-11374768D02*
X13006143Y-11384291D01*
X13006143Y-11384291D02*
X12996619Y-11389053D01*
X13144238Y-11360482D02*
X13096619Y-11360482D01*
X13096619Y-11360482D02*
X13091857Y-11408101D01*
X13091857Y-11408101D02*
X13096619Y-11403339D01*
X13096619Y-11403339D02*
X13106143Y-11398577D01*
X13106143Y-11398577D02*
X13129952Y-11398577D01*
X13129952Y-11398577D02*
X13139476Y-11403339D01*
X13139476Y-11403339D02*
X13144238Y-11408101D01*
X13144238Y-11408101D02*
X13149000Y-11417625D01*
X13149000Y-11417625D02*
X13149000Y-11441434D01*
X13149000Y-11441434D02*
X13144238Y-11450958D01*
X13144238Y-11450958D02*
X13139476Y-11455720D01*
X13139476Y-11455720D02*
X13129952Y-11460482D01*
X13129952Y-11460482D02*
X13106143Y-11460482D01*
X13106143Y-11460482D02*
X13096619Y-11455720D01*
X13096619Y-11455720D02*
X13091857Y-11450958D01*
X13168048Y-11470006D02*
X13244238Y-11470006D01*
X13263286Y-11455720D02*
X13277571Y-11460482D01*
X13277571Y-11460482D02*
X13301381Y-11460482D01*
X13301381Y-11460482D02*
X13310905Y-11455720D01*
X13310905Y-11455720D02*
X13315667Y-11450958D01*
X13315667Y-11450958D02*
X13320428Y-11441434D01*
X13320428Y-11441434D02*
X13320428Y-11431910D01*
X13320428Y-11431910D02*
X13315667Y-11422387D01*
X13315667Y-11422387D02*
X13310905Y-11417625D01*
X13310905Y-11417625D02*
X13301381Y-11412863D01*
X13301381Y-11412863D02*
X13282333Y-11408101D01*
X13282333Y-11408101D02*
X13272809Y-11403339D01*
X13272809Y-11403339D02*
X13268048Y-11398577D01*
X13268048Y-11398577D02*
X13263286Y-11389053D01*
X13263286Y-11389053D02*
X13263286Y-11379529D01*
X13263286Y-11379529D02*
X13268048Y-11370006D01*
X13268048Y-11370006D02*
X13272809Y-11365244D01*
X13272809Y-11365244D02*
X13282333Y-11360482D01*
X13282333Y-11360482D02*
X13306143Y-11360482D01*
X13306143Y-11360482D02*
X13320428Y-11365244D01*
X13363286Y-11460482D02*
X13363286Y-11360482D01*
X13363286Y-11360482D02*
X13396619Y-11431910D01*
X13396619Y-11431910D02*
X13429952Y-11360482D01*
X13429952Y-11360482D02*
X13429952Y-11460482D01*
X13463286Y-11360482D02*
X13520428Y-11360482D01*
X13491857Y-11460482D02*
X13491857Y-11360482D01*
X13610905Y-11460482D02*
X13577571Y-11412863D01*
X13553762Y-11460482D02*
X13553762Y-11360482D01*
X13553762Y-11360482D02*
X13591857Y-11360482D01*
X13591857Y-11360482D02*
X13601381Y-11365244D01*
X13601381Y-11365244D02*
X13606143Y-11370006D01*
X13606143Y-11370006D02*
X13610905Y-11379529D01*
X13610905Y-11379529D02*
X13610905Y-11393815D01*
X13610905Y-11393815D02*
X13606143Y-11403339D01*
X13606143Y-11403339D02*
X13601381Y-11408101D01*
X13601381Y-11408101D02*
X13591857Y-11412863D01*
X13591857Y-11412863D02*
X13553762Y-11412863D01*
X13649000Y-11370006D02*
X13653762Y-11365244D01*
X13653762Y-11365244D02*
X13663286Y-11360482D01*
X13663286Y-11360482D02*
X13687095Y-11360482D01*
X13687095Y-11360482D02*
X13696619Y-11365244D01*
X13696619Y-11365244D02*
X13701381Y-11370006D01*
X13701381Y-11370006D02*
X13706143Y-11379529D01*
X13706143Y-11379529D02*
X13706143Y-11389053D01*
X13706143Y-11389053D02*
X13701381Y-11403339D01*
X13701381Y-11403339D02*
X13644238Y-11460482D01*
X13644238Y-11460482D02*
X13706143Y-11460482D01*
X13725190Y-11470006D02*
X13801381Y-11470006D01*
X13872809Y-11460482D02*
X13825190Y-11460482D01*
X13825190Y-11460482D02*
X13825190Y-11360482D01*
X13939476Y-11408101D02*
X13906143Y-11408101D01*
X13906143Y-11460482D02*
X13906143Y-11360482D01*
X13906143Y-11360482D02*
X13953762Y-11360482D01*
X13987095Y-11455720D02*
X14001381Y-11460482D01*
X14001381Y-11460482D02*
X14025190Y-11460482D01*
X14025190Y-11460482D02*
X14034714Y-11455720D01*
X14034714Y-11455720D02*
X14039476Y-11450958D01*
X14039476Y-11450958D02*
X14044238Y-11441434D01*
X14044238Y-11441434D02*
X14044238Y-11431910D01*
X14044238Y-11431910D02*
X14039476Y-11422387D01*
X14039476Y-11422387D02*
X14034714Y-11417625D01*
X14034714Y-11417625D02*
X14025190Y-11412863D01*
X14025190Y-11412863D02*
X14006143Y-11408101D01*
X14006143Y-11408101D02*
X13996619Y-11403339D01*
X13996619Y-11403339D02*
X13991857Y-11398577D01*
X13991857Y-11398577D02*
X13987095Y-11389053D01*
X13987095Y-11389053D02*
X13987095Y-11379529D01*
X13987095Y-11379529D02*
X13991857Y-11370006D01*
X13991857Y-11370006D02*
X13996619Y-11365244D01*
X13996619Y-11365244D02*
X14006143Y-11360482D01*
X14006143Y-11360482D02*
X14029952Y-11360482D01*
X14029952Y-11360482D02*
X14044238Y-11365244D01*
X15494667Y-12282482D02*
X15551809Y-12282482D01*
X15523238Y-12382482D02*
X15523238Y-12282482D01*
X15623238Y-12377720D02*
X15613714Y-12382482D01*
X15613714Y-12382482D02*
X15594667Y-12382482D01*
X15594667Y-12382482D02*
X15585143Y-12377720D01*
X15585143Y-12377720D02*
X15580381Y-12368196D01*
X15580381Y-12368196D02*
X15580381Y-12330101D01*
X15580381Y-12330101D02*
X15585143Y-12320577D01*
X15585143Y-12320577D02*
X15594667Y-12315815D01*
X15594667Y-12315815D02*
X15613714Y-12315815D01*
X15613714Y-12315815D02*
X15623238Y-12320577D01*
X15623238Y-12320577D02*
X15628000Y-12330101D01*
X15628000Y-12330101D02*
X15628000Y-12339625D01*
X15628000Y-12339625D02*
X15580381Y-12349148D01*
X15666095Y-12377720D02*
X15675619Y-12382482D01*
X15675619Y-12382482D02*
X15694667Y-12382482D01*
X15694667Y-12382482D02*
X15704190Y-12377720D01*
X15704190Y-12377720D02*
X15708952Y-12368196D01*
X15708952Y-12368196D02*
X15708952Y-12363434D01*
X15708952Y-12363434D02*
X15704190Y-12353910D01*
X15704190Y-12353910D02*
X15694667Y-12349148D01*
X15694667Y-12349148D02*
X15680381Y-12349148D01*
X15680381Y-12349148D02*
X15670857Y-12344387D01*
X15670857Y-12344387D02*
X15666095Y-12334863D01*
X15666095Y-12334863D02*
X15666095Y-12330101D01*
X15666095Y-12330101D02*
X15670857Y-12320577D01*
X15670857Y-12320577D02*
X15680381Y-12315815D01*
X15680381Y-12315815D02*
X15694667Y-12315815D01*
X15694667Y-12315815D02*
X15704190Y-12320577D01*
X15737524Y-12315815D02*
X15775619Y-12315815D01*
X15751809Y-12282482D02*
X15751809Y-12368196D01*
X15751809Y-12368196D02*
X15756571Y-12377720D01*
X15756571Y-12377720D02*
X15766095Y-12382482D01*
X15766095Y-12382482D02*
X15775619Y-12382482D01*
X15808952Y-12382482D02*
X15808952Y-12282482D01*
X15808952Y-12282482D02*
X15847048Y-12282482D01*
X15847048Y-12282482D02*
X15856571Y-12287244D01*
X15856571Y-12287244D02*
X15861333Y-12292006D01*
X15861333Y-12292006D02*
X15866095Y-12301529D01*
X15866095Y-12301529D02*
X15866095Y-12315815D01*
X15866095Y-12315815D02*
X15861333Y-12325339D01*
X15861333Y-12325339D02*
X15856571Y-12330101D01*
X15856571Y-12330101D02*
X15847048Y-12334863D01*
X15847048Y-12334863D02*
X15808952Y-12334863D01*
X15923238Y-12382482D02*
X15913714Y-12377720D01*
X15913714Y-12377720D02*
X15908952Y-12372958D01*
X15908952Y-12372958D02*
X15904190Y-12363434D01*
X15904190Y-12363434D02*
X15904190Y-12334863D01*
X15904190Y-12334863D02*
X15908952Y-12325339D01*
X15908952Y-12325339D02*
X15913714Y-12320577D01*
X15913714Y-12320577D02*
X15923238Y-12315815D01*
X15923238Y-12315815D02*
X15937524Y-12315815D01*
X15937524Y-12315815D02*
X15947048Y-12320577D01*
X15947048Y-12320577D02*
X15951809Y-12325339D01*
X15951809Y-12325339D02*
X15956571Y-12334863D01*
X15956571Y-12334863D02*
X15956571Y-12363434D01*
X15956571Y-12363434D02*
X15951809Y-12372958D01*
X15951809Y-12372958D02*
X15947048Y-12377720D01*
X15947048Y-12377720D02*
X15937524Y-12382482D01*
X15937524Y-12382482D02*
X15923238Y-12382482D01*
X15999429Y-12382482D02*
X15999429Y-12315815D01*
X15999429Y-12282482D02*
X15994667Y-12287244D01*
X15994667Y-12287244D02*
X15999429Y-12292006D01*
X15999429Y-12292006D02*
X16004190Y-12287244D01*
X16004190Y-12287244D02*
X15999429Y-12282482D01*
X15999429Y-12282482D02*
X15999429Y-12292006D01*
X16047048Y-12315815D02*
X16047048Y-12382482D01*
X16047048Y-12325339D02*
X16051809Y-12320577D01*
X16051809Y-12320577D02*
X16061333Y-12315815D01*
X16061333Y-12315815D02*
X16075619Y-12315815D01*
X16075619Y-12315815D02*
X16085143Y-12320577D01*
X16085143Y-12320577D02*
X16089905Y-12330101D01*
X16089905Y-12330101D02*
X16089905Y-12382482D01*
X16123238Y-12315815D02*
X16161333Y-12315815D01*
X16137524Y-12282482D02*
X16137524Y-12368196D01*
X16137524Y-12368196D02*
X16142286Y-12377720D01*
X16142286Y-12377720D02*
X16151809Y-12382482D01*
X16151809Y-12382482D02*
X16161333Y-12382482D01*
X15706571Y-12030101D02*
X15739905Y-12030101D01*
X15754190Y-12082482D02*
X15706571Y-12082482D01*
X15706571Y-12082482D02*
X15706571Y-11982482D01*
X15706571Y-11982482D02*
X15754190Y-11982482D01*
X15797048Y-12082482D02*
X15797048Y-11982482D01*
X15797048Y-11982482D02*
X15854190Y-12082482D01*
X15854190Y-12082482D02*
X15854190Y-11982482D01*
X15954190Y-12082482D02*
X15897048Y-12082482D01*
X15925619Y-12082482D02*
X15925619Y-11982482D01*
X15925619Y-11982482D02*
X15916095Y-11996768D01*
X15916095Y-11996768D02*
X15906571Y-12006291D01*
X15906571Y-12006291D02*
X15897048Y-12011053D01*
X15424524Y-10841244D02*
X15415000Y-10836482D01*
X15415000Y-10836482D02*
X15400714Y-10836482D01*
X15400714Y-10836482D02*
X15386428Y-10841244D01*
X15386428Y-10841244D02*
X15376905Y-10850768D01*
X15376905Y-10850768D02*
X15372143Y-10860291D01*
X15372143Y-10860291D02*
X15367381Y-10879339D01*
X15367381Y-10879339D02*
X15367381Y-10893625D01*
X15367381Y-10893625D02*
X15372143Y-10912672D01*
X15372143Y-10912672D02*
X15376905Y-10922196D01*
X15376905Y-10922196D02*
X15386428Y-10931720D01*
X15386428Y-10931720D02*
X15400714Y-10936482D01*
X15400714Y-10936482D02*
X15410238Y-10936482D01*
X15410238Y-10936482D02*
X15424524Y-10931720D01*
X15424524Y-10931720D02*
X15429286Y-10926958D01*
X15429286Y-10926958D02*
X15429286Y-10893625D01*
X15429286Y-10893625D02*
X15410238Y-10893625D01*
X15529286Y-10936482D02*
X15495952Y-10888863D01*
X15472143Y-10936482D02*
X15472143Y-10836482D01*
X15472143Y-10836482D02*
X15510238Y-10836482D01*
X15510238Y-10836482D02*
X15519762Y-10841244D01*
X15519762Y-10841244D02*
X15524524Y-10846006D01*
X15524524Y-10846006D02*
X15529286Y-10855530D01*
X15529286Y-10855530D02*
X15529286Y-10869815D01*
X15529286Y-10869815D02*
X15524524Y-10879339D01*
X15524524Y-10879339D02*
X15519762Y-10884101D01*
X15519762Y-10884101D02*
X15510238Y-10888863D01*
X15510238Y-10888863D02*
X15472143Y-10888863D01*
X15572143Y-10884101D02*
X15605476Y-10884101D01*
X15619762Y-10936482D02*
X15572143Y-10936482D01*
X15572143Y-10936482D02*
X15572143Y-10836482D01*
X15572143Y-10836482D02*
X15619762Y-10836482D01*
X15662619Y-10884101D02*
X15695952Y-10884101D01*
X15710238Y-10936482D02*
X15662619Y-10936482D01*
X15662619Y-10936482D02*
X15662619Y-10836482D01*
X15662619Y-10836482D02*
X15710238Y-10836482D01*
X15753095Y-10936482D02*
X15753095Y-10836482D01*
X15753095Y-10836482D02*
X15810238Y-10936482D01*
X15810238Y-10936482D02*
X15810238Y-10836482D01*
X15981667Y-10936482D02*
X15934048Y-10936482D01*
X15934048Y-10936482D02*
X15934048Y-10836482D01*
X16015000Y-10884101D02*
X16048333Y-10884101D01*
X16062619Y-10936482D02*
X16015000Y-10936482D01*
X16015000Y-10936482D02*
X16015000Y-10836482D01*
X16015000Y-10836482D02*
X16062619Y-10836482D01*
X16105476Y-10936482D02*
X16105476Y-10836482D01*
X16105476Y-10836482D02*
X16129286Y-10836482D01*
X16129286Y-10836482D02*
X16143571Y-10841244D01*
X16143571Y-10841244D02*
X16153095Y-10850768D01*
X16153095Y-10850768D02*
X16157857Y-10860291D01*
X16157857Y-10860291D02*
X16162619Y-10879339D01*
X16162619Y-10879339D02*
X16162619Y-10893625D01*
X16162619Y-10893625D02*
X16157857Y-10912672D01*
X16157857Y-10912672D02*
X16153095Y-10922196D01*
X16153095Y-10922196D02*
X16143571Y-10931720D01*
X16143571Y-10931720D02*
X16129286Y-10936482D01*
X16129286Y-10936482D02*
X16105476Y-10936482D01*
D12*
X15735476Y-11052193D02*
X15735476Y-11012193D01*
X15735476Y-11012193D02*
X15745000Y-11012193D01*
X15745000Y-11012193D02*
X15750714Y-11014098D01*
X15750714Y-11014098D02*
X15754524Y-11017907D01*
X15754524Y-11017907D02*
X15756428Y-11021717D01*
X15756428Y-11021717D02*
X15758333Y-11029336D01*
X15758333Y-11029336D02*
X15758333Y-11035050D01*
X15758333Y-11035050D02*
X15756428Y-11042669D01*
X15756428Y-11042669D02*
X15754524Y-11046478D01*
X15754524Y-11046478D02*
X15750714Y-11050288D01*
X15750714Y-11050288D02*
X15745000Y-11052193D01*
X15745000Y-11052193D02*
X15735476Y-11052193D01*
X15796428Y-11052193D02*
X15773571Y-11052193D01*
X15785000Y-11052193D02*
X15785000Y-11012193D01*
X15785000Y-11012193D02*
X15781190Y-11017907D01*
X15781190Y-11017907D02*
X15777381Y-11021717D01*
X15777381Y-11021717D02*
X15773571Y-11023621D01*
D10*
X15754482Y-10367524D02*
X15754482Y-10424667D01*
X15754482Y-10396095D02*
X15654482Y-10396095D01*
X15654482Y-10396095D02*
X15668768Y-10405619D01*
X15668768Y-10405619D02*
X15678291Y-10415143D01*
X15678291Y-10415143D02*
X15683053Y-10424667D01*
X15654482Y-10305619D02*
X15654482Y-10296095D01*
X15654482Y-10296095D02*
X15659244Y-10286571D01*
X15659244Y-10286571D02*
X15664006Y-10281810D01*
X15664006Y-10281810D02*
X15673529Y-10277048D01*
X15673529Y-10277048D02*
X15692577Y-10272286D01*
X15692577Y-10272286D02*
X15716387Y-10272286D01*
X15716387Y-10272286D02*
X15735434Y-10277048D01*
X15735434Y-10277048D02*
X15744958Y-10281810D01*
X15744958Y-10281810D02*
X15749720Y-10286571D01*
X15749720Y-10286571D02*
X15754482Y-10296095D01*
X15754482Y-10296095D02*
X15754482Y-10305619D01*
X15754482Y-10305619D02*
X15749720Y-10315143D01*
X15749720Y-10315143D02*
X15744958Y-10319905D01*
X15744958Y-10319905D02*
X15735434Y-10324667D01*
X15735434Y-10324667D02*
X15716387Y-10329429D01*
X15716387Y-10329429D02*
X15692577Y-10329429D01*
X15692577Y-10329429D02*
X15673529Y-10324667D01*
X15673529Y-10324667D02*
X15664006Y-10319905D01*
X15664006Y-10319905D02*
X15659244Y-10315143D01*
X15659244Y-10315143D02*
X15654482Y-10305619D01*
X15754482Y-10229429D02*
X15654482Y-10229429D01*
X15716387Y-10219905D02*
X15754482Y-10191333D01*
X15687815Y-10191333D02*
X15725910Y-10229429D01*
D11*
X15603820Y-10312333D02*
X15591439Y-10321000D01*
X15603820Y-10327190D02*
X15577820Y-10327190D01*
X15577820Y-10327190D02*
X15577820Y-10317286D01*
X15577820Y-10317286D02*
X15579058Y-10314809D01*
X15579058Y-10314809D02*
X15580296Y-10313571D01*
X15580296Y-10313571D02*
X15582772Y-10312333D01*
X15582772Y-10312333D02*
X15586487Y-10312333D01*
X15586487Y-10312333D02*
X15588963Y-10313571D01*
X15588963Y-10313571D02*
X15590201Y-10314809D01*
X15590201Y-10314809D02*
X15591439Y-10317286D01*
X15591439Y-10317286D02*
X15591439Y-10327190D01*
X15580296Y-10302429D02*
X15579058Y-10301190D01*
X15579058Y-10301190D02*
X15577820Y-10298714D01*
X15577820Y-10298714D02*
X15577820Y-10292524D01*
X15577820Y-10292524D02*
X15579058Y-10290048D01*
X15579058Y-10290048D02*
X15580296Y-10288809D01*
X15580296Y-10288809D02*
X15582772Y-10287571D01*
X15582772Y-10287571D02*
X15585249Y-10287571D01*
X15585249Y-10287571D02*
X15588963Y-10288809D01*
X15588963Y-10288809D02*
X15603820Y-10303667D01*
X15603820Y-10303667D02*
X15603820Y-10287571D01*
D10*
X15654482Y-10698286D02*
X15654482Y-10688762D01*
X15654482Y-10688762D02*
X15659244Y-10679238D01*
X15659244Y-10679238D02*
X15664006Y-10674476D01*
X15664006Y-10674476D02*
X15673529Y-10669714D01*
X15673529Y-10669714D02*
X15692577Y-10664952D01*
X15692577Y-10664952D02*
X15716387Y-10664952D01*
X15716387Y-10664952D02*
X15735434Y-10669714D01*
X15735434Y-10669714D02*
X15744958Y-10674476D01*
X15744958Y-10674476D02*
X15749720Y-10679238D01*
X15749720Y-10679238D02*
X15754482Y-10688762D01*
X15754482Y-10688762D02*
X15754482Y-10698286D01*
X15754482Y-10698286D02*
X15749720Y-10707809D01*
X15749720Y-10707809D02*
X15744958Y-10712571D01*
X15744958Y-10712571D02*
X15735434Y-10717333D01*
X15735434Y-10717333D02*
X15716387Y-10722095D01*
X15716387Y-10722095D02*
X15692577Y-10722095D01*
X15692577Y-10722095D02*
X15673529Y-10717333D01*
X15673529Y-10717333D02*
X15664006Y-10712571D01*
X15664006Y-10712571D02*
X15659244Y-10707809D01*
X15659244Y-10707809D02*
X15654482Y-10698286D01*
X15744958Y-10622095D02*
X15749720Y-10617333D01*
X15749720Y-10617333D02*
X15754482Y-10622095D01*
X15754482Y-10622095D02*
X15749720Y-10626857D01*
X15749720Y-10626857D02*
X15744958Y-10622095D01*
X15744958Y-10622095D02*
X15754482Y-10622095D01*
X15754482Y-10522095D02*
X15754482Y-10579238D01*
X15754482Y-10550667D02*
X15654482Y-10550667D01*
X15654482Y-10550667D02*
X15668768Y-10560190D01*
X15668768Y-10560190D02*
X15678291Y-10569714D01*
X15678291Y-10569714D02*
X15683053Y-10579238D01*
X15687815Y-10436381D02*
X15754482Y-10436381D01*
X15687815Y-10479238D02*
X15740196Y-10479238D01*
X15740196Y-10479238D02*
X15749720Y-10474476D01*
X15749720Y-10474476D02*
X15754482Y-10464952D01*
X15754482Y-10464952D02*
X15754482Y-10450667D01*
X15754482Y-10450667D02*
X15749720Y-10441143D01*
X15749720Y-10441143D02*
X15744958Y-10436381D01*
X15702101Y-10355429D02*
X15702101Y-10388762D01*
X15754482Y-10388762D02*
X15654482Y-10388762D01*
X15654482Y-10388762D02*
X15654482Y-10341143D01*
D11*
X15601976Y-10538167D02*
X15603167Y-10539357D01*
X15603167Y-10539357D02*
X15604357Y-10542929D01*
X15604357Y-10542929D02*
X15604357Y-10545309D01*
X15604357Y-10545309D02*
X15603167Y-10548881D01*
X15603167Y-10548881D02*
X15600786Y-10551262D01*
X15600786Y-10551262D02*
X15598405Y-10552452D01*
X15598405Y-10552452D02*
X15593643Y-10553643D01*
X15593643Y-10553643D02*
X15590072Y-10553643D01*
X15590072Y-10553643D02*
X15585310Y-10552452D01*
X15585310Y-10552452D02*
X15582929Y-10551262D01*
X15582929Y-10551262D02*
X15580548Y-10548881D01*
X15580548Y-10548881D02*
X15579357Y-10545309D01*
X15579357Y-10545309D02*
X15579357Y-10542929D01*
X15579357Y-10542929D02*
X15580548Y-10539357D01*
X15580548Y-10539357D02*
X15581738Y-10538167D01*
X15579357Y-10529833D02*
X15579357Y-10514357D01*
X15579357Y-10514357D02*
X15588881Y-10522690D01*
X15588881Y-10522690D02*
X15588881Y-10519119D01*
X15588881Y-10519119D02*
X15590072Y-10516738D01*
X15590072Y-10516738D02*
X15591262Y-10515548D01*
X15591262Y-10515548D02*
X15593643Y-10514357D01*
X15593643Y-10514357D02*
X15599595Y-10514357D01*
X15599595Y-10514357D02*
X15601976Y-10515548D01*
X15601976Y-10515548D02*
X15603167Y-10516738D01*
X15603167Y-10516738D02*
X15604357Y-10519119D01*
X15604357Y-10519119D02*
X15604357Y-10526262D01*
X15604357Y-10526262D02*
X15603167Y-10528643D01*
X15603167Y-10528643D02*
X15601976Y-10529833D01*
D10*
X13342905Y-12140482D02*
X13295286Y-12140482D01*
X13295286Y-12140482D02*
X13290524Y-12188101D01*
X13290524Y-12188101D02*
X13295286Y-12183339D01*
X13295286Y-12183339D02*
X13304809Y-12178577D01*
X13304809Y-12178577D02*
X13328619Y-12178577D01*
X13328619Y-12178577D02*
X13338143Y-12183339D01*
X13338143Y-12183339D02*
X13342905Y-12188101D01*
X13342905Y-12188101D02*
X13347667Y-12197625D01*
X13347667Y-12197625D02*
X13347667Y-12221434D01*
X13347667Y-12221434D02*
X13342905Y-12230958D01*
X13342905Y-12230958D02*
X13338143Y-12235720D01*
X13338143Y-12235720D02*
X13328619Y-12240482D01*
X13328619Y-12240482D02*
X13304809Y-12240482D01*
X13304809Y-12240482D02*
X13295286Y-12235720D01*
X13295286Y-12235720D02*
X13290524Y-12230958D01*
X13390524Y-12230958D02*
X13395286Y-12235720D01*
X13395286Y-12235720D02*
X13390524Y-12240482D01*
X13390524Y-12240482D02*
X13385762Y-12235720D01*
X13385762Y-12235720D02*
X13390524Y-12230958D01*
X13390524Y-12230958D02*
X13390524Y-12240482D01*
X13490524Y-12240482D02*
X13433381Y-12240482D01*
X13461952Y-12240482D02*
X13461952Y-12140482D01*
X13461952Y-12140482D02*
X13452428Y-12154768D01*
X13452428Y-12154768D02*
X13442905Y-12164291D01*
X13442905Y-12164291D02*
X13433381Y-12169053D01*
X13533381Y-12240482D02*
X13533381Y-12140482D01*
X13542905Y-12202387D02*
X13571476Y-12240482D01*
X13571476Y-12173815D02*
X13533381Y-12211910D01*
D11*
X13426667Y-12089820D02*
X13418000Y-12077439D01*
X13411809Y-12089820D02*
X13411809Y-12063820D01*
X13411809Y-12063820D02*
X13421714Y-12063820D01*
X13421714Y-12063820D02*
X13424190Y-12065058D01*
X13424190Y-12065058D02*
X13425429Y-12066296D01*
X13425429Y-12066296D02*
X13426667Y-12068772D01*
X13426667Y-12068772D02*
X13426667Y-12072487D01*
X13426667Y-12072487D02*
X13425429Y-12074963D01*
X13425429Y-12074963D02*
X13424190Y-12076201D01*
X13424190Y-12076201D02*
X13421714Y-12077439D01*
X13421714Y-12077439D02*
X13411809Y-12077439D01*
X13435333Y-12063820D02*
X13452667Y-12063820D01*
X13452667Y-12063820D02*
X13441524Y-12089820D01*
D10*
X15494667Y-12062482D02*
X15551809Y-12062482D01*
X15523238Y-12162482D02*
X15523238Y-12062482D01*
X15623238Y-12157720D02*
X15613714Y-12162482D01*
X15613714Y-12162482D02*
X15594667Y-12162482D01*
X15594667Y-12162482D02*
X15585143Y-12157720D01*
X15585143Y-12157720D02*
X15580381Y-12148196D01*
X15580381Y-12148196D02*
X15580381Y-12110101D01*
X15580381Y-12110101D02*
X15585143Y-12100577D01*
X15585143Y-12100577D02*
X15594667Y-12095815D01*
X15594667Y-12095815D02*
X15613714Y-12095815D01*
X15613714Y-12095815D02*
X15623238Y-12100577D01*
X15623238Y-12100577D02*
X15628000Y-12110101D01*
X15628000Y-12110101D02*
X15628000Y-12119625D01*
X15628000Y-12119625D02*
X15580381Y-12129148D01*
X15666095Y-12157720D02*
X15675619Y-12162482D01*
X15675619Y-12162482D02*
X15694667Y-12162482D01*
X15694667Y-12162482D02*
X15704190Y-12157720D01*
X15704190Y-12157720D02*
X15708952Y-12148196D01*
X15708952Y-12148196D02*
X15708952Y-12143434D01*
X15708952Y-12143434D02*
X15704190Y-12133910D01*
X15704190Y-12133910D02*
X15694667Y-12129148D01*
X15694667Y-12129148D02*
X15680381Y-12129148D01*
X15680381Y-12129148D02*
X15670857Y-12124387D01*
X15670857Y-12124387D02*
X15666095Y-12114863D01*
X15666095Y-12114863D02*
X15666095Y-12110101D01*
X15666095Y-12110101D02*
X15670857Y-12100577D01*
X15670857Y-12100577D02*
X15680381Y-12095815D01*
X15680381Y-12095815D02*
X15694667Y-12095815D01*
X15694667Y-12095815D02*
X15704190Y-12100577D01*
X15737524Y-12095815D02*
X15775619Y-12095815D01*
X15751809Y-12062482D02*
X15751809Y-12148196D01*
X15751809Y-12148196D02*
X15756571Y-12157720D01*
X15756571Y-12157720D02*
X15766095Y-12162482D01*
X15766095Y-12162482D02*
X15775619Y-12162482D01*
X15808952Y-12162482D02*
X15808952Y-12062482D01*
X15808952Y-12062482D02*
X15847048Y-12062482D01*
X15847048Y-12062482D02*
X15856571Y-12067244D01*
X15856571Y-12067244D02*
X15861333Y-12072006D01*
X15861333Y-12072006D02*
X15866095Y-12081529D01*
X15866095Y-12081529D02*
X15866095Y-12095815D01*
X15866095Y-12095815D02*
X15861333Y-12105339D01*
X15861333Y-12105339D02*
X15856571Y-12110101D01*
X15856571Y-12110101D02*
X15847048Y-12114863D01*
X15847048Y-12114863D02*
X15808952Y-12114863D01*
X15923238Y-12162482D02*
X15913714Y-12157720D01*
X15913714Y-12157720D02*
X15908952Y-12152958D01*
X15908952Y-12152958D02*
X15904190Y-12143434D01*
X15904190Y-12143434D02*
X15904190Y-12114863D01*
X15904190Y-12114863D02*
X15908952Y-12105339D01*
X15908952Y-12105339D02*
X15913714Y-12100577D01*
X15913714Y-12100577D02*
X15923238Y-12095815D01*
X15923238Y-12095815D02*
X15937524Y-12095815D01*
X15937524Y-12095815D02*
X15947048Y-12100577D01*
X15947048Y-12100577D02*
X15951809Y-12105339D01*
X15951809Y-12105339D02*
X15956571Y-12114863D01*
X15956571Y-12114863D02*
X15956571Y-12143434D01*
X15956571Y-12143434D02*
X15951809Y-12152958D01*
X15951809Y-12152958D02*
X15947048Y-12157720D01*
X15947048Y-12157720D02*
X15937524Y-12162482D01*
X15937524Y-12162482D02*
X15923238Y-12162482D01*
X15999429Y-12162482D02*
X15999429Y-12095815D01*
X15999429Y-12062482D02*
X15994667Y-12067244D01*
X15994667Y-12067244D02*
X15999429Y-12072006D01*
X15999429Y-12072006D02*
X16004190Y-12067244D01*
X16004190Y-12067244D02*
X15999429Y-12062482D01*
X15999429Y-12062482D02*
X15999429Y-12072006D01*
X16047048Y-12095815D02*
X16047048Y-12162482D01*
X16047048Y-12105339D02*
X16051809Y-12100577D01*
X16051809Y-12100577D02*
X16061333Y-12095815D01*
X16061333Y-12095815D02*
X16075619Y-12095815D01*
X16075619Y-12095815D02*
X16085143Y-12100577D01*
X16085143Y-12100577D02*
X16089905Y-12110101D01*
X16089905Y-12110101D02*
X16089905Y-12162482D01*
X16123238Y-12095815D02*
X16161333Y-12095815D01*
X16137524Y-12062482D02*
X16137524Y-12148196D01*
X16137524Y-12148196D02*
X16142286Y-12157720D01*
X16142286Y-12157720D02*
X16151809Y-12162482D01*
X16151809Y-12162482D02*
X16161333Y-12162482D01*
X15647048Y-11762482D02*
X15680381Y-11862482D01*
X15680381Y-11862482D02*
X15713714Y-11762482D01*
X15747048Y-11862482D02*
X15747048Y-11762482D01*
X15747048Y-11762482D02*
X15770857Y-11762482D01*
X15770857Y-11762482D02*
X15785143Y-11767244D01*
X15785143Y-11767244D02*
X15794667Y-11776768D01*
X15794667Y-11776768D02*
X15799428Y-11786291D01*
X15799428Y-11786291D02*
X15804190Y-11805339D01*
X15804190Y-11805339D02*
X15804190Y-11819625D01*
X15804190Y-11819625D02*
X15799428Y-11838672D01*
X15799428Y-11838672D02*
X15794667Y-11848196D01*
X15794667Y-11848196D02*
X15785143Y-11857720D01*
X15785143Y-11857720D02*
X15770857Y-11862482D01*
X15770857Y-11862482D02*
X15747048Y-11862482D01*
X15847048Y-11862482D02*
X15847048Y-11762482D01*
X15847048Y-11762482D02*
X15870857Y-11762482D01*
X15870857Y-11762482D02*
X15885143Y-11767244D01*
X15885143Y-11767244D02*
X15894667Y-11776768D01*
X15894667Y-11776768D02*
X15899428Y-11786291D01*
X15899428Y-11786291D02*
X15904190Y-11805339D01*
X15904190Y-11805339D02*
X15904190Y-11819625D01*
X15904190Y-11819625D02*
X15899428Y-11838672D01*
X15899428Y-11838672D02*
X15894667Y-11848196D01*
X15894667Y-11848196D02*
X15885143Y-11857720D01*
X15885143Y-11857720D02*
X15870857Y-11862482D01*
X15870857Y-11862482D02*
X15847048Y-11862482D01*
X15999428Y-11862482D02*
X15942286Y-11862482D01*
X15970857Y-11862482D02*
X15970857Y-11762482D01*
X15970857Y-11762482D02*
X15961333Y-11776768D01*
X15961333Y-11776768D02*
X15951809Y-11786291D01*
X15951809Y-11786291D02*
X15942286Y-11791053D01*
X13342905Y-11815482D02*
X13295286Y-11815482D01*
X13295286Y-11815482D02*
X13290524Y-11863101D01*
X13290524Y-11863101D02*
X13295286Y-11858339D01*
X13295286Y-11858339D02*
X13304809Y-11853577D01*
X13304809Y-11853577D02*
X13328619Y-11853577D01*
X13328619Y-11853577D02*
X13338143Y-11858339D01*
X13338143Y-11858339D02*
X13342905Y-11863101D01*
X13342905Y-11863101D02*
X13347667Y-11872625D01*
X13347667Y-11872625D02*
X13347667Y-11896434D01*
X13347667Y-11896434D02*
X13342905Y-11905958D01*
X13342905Y-11905958D02*
X13338143Y-11910720D01*
X13338143Y-11910720D02*
X13328619Y-11915482D01*
X13328619Y-11915482D02*
X13304809Y-11915482D01*
X13304809Y-11915482D02*
X13295286Y-11910720D01*
X13295286Y-11910720D02*
X13290524Y-11905958D01*
X13390524Y-11905958D02*
X13395286Y-11910720D01*
X13395286Y-11910720D02*
X13390524Y-11915482D01*
X13390524Y-11915482D02*
X13385762Y-11910720D01*
X13385762Y-11910720D02*
X13390524Y-11905958D01*
X13390524Y-11905958D02*
X13390524Y-11915482D01*
X13490524Y-11915482D02*
X13433381Y-11915482D01*
X13461952Y-11915482D02*
X13461952Y-11815482D01*
X13461952Y-11815482D02*
X13452428Y-11829768D01*
X13452428Y-11829768D02*
X13442905Y-11839291D01*
X13442905Y-11839291D02*
X13433381Y-11844053D01*
X13533381Y-11915482D02*
X13533381Y-11815482D01*
X13542905Y-11877387D02*
X13571476Y-11915482D01*
X13571476Y-11848815D02*
X13533381Y-11886910D01*
D11*
X13426667Y-11764820D02*
X13418000Y-11752439D01*
X13411809Y-11764820D02*
X13411809Y-11738820D01*
X13411809Y-11738820D02*
X13421714Y-11738820D01*
X13421714Y-11738820D02*
X13424190Y-11740058D01*
X13424190Y-11740058D02*
X13425429Y-11741296D01*
X13425429Y-11741296D02*
X13426667Y-11743772D01*
X13426667Y-11743772D02*
X13426667Y-11747487D01*
X13426667Y-11747487D02*
X13425429Y-11749963D01*
X13425429Y-11749963D02*
X13424190Y-11751201D01*
X13424190Y-11751201D02*
X13421714Y-11752439D01*
X13421714Y-11752439D02*
X13411809Y-11752439D01*
X13441524Y-11749963D02*
X13439048Y-11748725D01*
X13439048Y-11748725D02*
X13437809Y-11747487D01*
X13437809Y-11747487D02*
X13436571Y-11745010D01*
X13436571Y-11745010D02*
X13436571Y-11743772D01*
X13436571Y-11743772D02*
X13437809Y-11741296D01*
X13437809Y-11741296D02*
X13439048Y-11740058D01*
X13439048Y-11740058D02*
X13441524Y-11738820D01*
X13441524Y-11738820D02*
X13446476Y-11738820D01*
X13446476Y-11738820D02*
X13448952Y-11740058D01*
X13448952Y-11740058D02*
X13450190Y-11741296D01*
X13450190Y-11741296D02*
X13451429Y-11743772D01*
X13451429Y-11743772D02*
X13451429Y-11745010D01*
X13451429Y-11745010D02*
X13450190Y-11747487D01*
X13450190Y-11747487D02*
X13448952Y-11748725D01*
X13448952Y-11748725D02*
X13446476Y-11749963D01*
X13446476Y-11749963D02*
X13441524Y-11749963D01*
X13441524Y-11749963D02*
X13439048Y-11751201D01*
X13439048Y-11751201D02*
X13437809Y-11752439D01*
X13437809Y-11752439D02*
X13436571Y-11754915D01*
X13436571Y-11754915D02*
X13436571Y-11759868D01*
X13436571Y-11759868D02*
X13437809Y-11762344D01*
X13437809Y-11762344D02*
X13439048Y-11763582D01*
X13439048Y-11763582D02*
X13441524Y-11764820D01*
X13441524Y-11764820D02*
X13446476Y-11764820D01*
X13446476Y-11764820D02*
X13448952Y-11763582D01*
X13448952Y-11763582D02*
X13450190Y-11762344D01*
X13450190Y-11762344D02*
X13451429Y-11759868D01*
X13451429Y-11759868D02*
X13451429Y-11754915D01*
X13451429Y-11754915D02*
X13450190Y-11752439D01*
X13450190Y-11752439D02*
X13448952Y-11751201D01*
X13448952Y-11751201D02*
X13446476Y-11749963D01*
D10*
X15494667Y-11402482D02*
X15551809Y-11402482D01*
X15523238Y-11502482D02*
X15523238Y-11402482D01*
X15623238Y-11497720D02*
X15613714Y-11502482D01*
X15613714Y-11502482D02*
X15594667Y-11502482D01*
X15594667Y-11502482D02*
X15585143Y-11497720D01*
X15585143Y-11497720D02*
X15580381Y-11488196D01*
X15580381Y-11488196D02*
X15580381Y-11450101D01*
X15580381Y-11450101D02*
X15585143Y-11440577D01*
X15585143Y-11440577D02*
X15594667Y-11435815D01*
X15594667Y-11435815D02*
X15613714Y-11435815D01*
X15613714Y-11435815D02*
X15623238Y-11440577D01*
X15623238Y-11440577D02*
X15628000Y-11450101D01*
X15628000Y-11450101D02*
X15628000Y-11459625D01*
X15628000Y-11459625D02*
X15580381Y-11469148D01*
X15666095Y-11497720D02*
X15675619Y-11502482D01*
X15675619Y-11502482D02*
X15694667Y-11502482D01*
X15694667Y-11502482D02*
X15704190Y-11497720D01*
X15704190Y-11497720D02*
X15708952Y-11488196D01*
X15708952Y-11488196D02*
X15708952Y-11483434D01*
X15708952Y-11483434D02*
X15704190Y-11473910D01*
X15704190Y-11473910D02*
X15694667Y-11469148D01*
X15694667Y-11469148D02*
X15680381Y-11469148D01*
X15680381Y-11469148D02*
X15670857Y-11464387D01*
X15670857Y-11464387D02*
X15666095Y-11454863D01*
X15666095Y-11454863D02*
X15666095Y-11450101D01*
X15666095Y-11450101D02*
X15670857Y-11440577D01*
X15670857Y-11440577D02*
X15680381Y-11435815D01*
X15680381Y-11435815D02*
X15694667Y-11435815D01*
X15694667Y-11435815D02*
X15704190Y-11440577D01*
X15737524Y-11435815D02*
X15775619Y-11435815D01*
X15751809Y-11402482D02*
X15751809Y-11488196D01*
X15751809Y-11488196D02*
X15756571Y-11497720D01*
X15756571Y-11497720D02*
X15766095Y-11502482D01*
X15766095Y-11502482D02*
X15775619Y-11502482D01*
X15808952Y-11502482D02*
X15808952Y-11402482D01*
X15808952Y-11402482D02*
X15847048Y-11402482D01*
X15847048Y-11402482D02*
X15856571Y-11407244D01*
X15856571Y-11407244D02*
X15861333Y-11412006D01*
X15861333Y-11412006D02*
X15866095Y-11421529D01*
X15866095Y-11421529D02*
X15866095Y-11435815D01*
X15866095Y-11435815D02*
X15861333Y-11445339D01*
X15861333Y-11445339D02*
X15856571Y-11450101D01*
X15856571Y-11450101D02*
X15847048Y-11454863D01*
X15847048Y-11454863D02*
X15808952Y-11454863D01*
X15923238Y-11502482D02*
X15913714Y-11497720D01*
X15913714Y-11497720D02*
X15908952Y-11492958D01*
X15908952Y-11492958D02*
X15904190Y-11483434D01*
X15904190Y-11483434D02*
X15904190Y-11454863D01*
X15904190Y-11454863D02*
X15908952Y-11445339D01*
X15908952Y-11445339D02*
X15913714Y-11440577D01*
X15913714Y-11440577D02*
X15923238Y-11435815D01*
X15923238Y-11435815D02*
X15937524Y-11435815D01*
X15937524Y-11435815D02*
X15947048Y-11440577D01*
X15947048Y-11440577D02*
X15951809Y-11445339D01*
X15951809Y-11445339D02*
X15956571Y-11454863D01*
X15956571Y-11454863D02*
X15956571Y-11483434D01*
X15956571Y-11483434D02*
X15951809Y-11492958D01*
X15951809Y-11492958D02*
X15947048Y-11497720D01*
X15947048Y-11497720D02*
X15937524Y-11502482D01*
X15937524Y-11502482D02*
X15923238Y-11502482D01*
X15999429Y-11502482D02*
X15999429Y-11435815D01*
X15999429Y-11402482D02*
X15994667Y-11407244D01*
X15994667Y-11407244D02*
X15999429Y-11412006D01*
X15999429Y-11412006D02*
X16004190Y-11407244D01*
X16004190Y-11407244D02*
X15999429Y-11402482D01*
X15999429Y-11402482D02*
X15999429Y-11412006D01*
X16047048Y-11435815D02*
X16047048Y-11502482D01*
X16047048Y-11445339D02*
X16051809Y-11440577D01*
X16051809Y-11440577D02*
X16061333Y-11435815D01*
X16061333Y-11435815D02*
X16075619Y-11435815D01*
X16075619Y-11435815D02*
X16085143Y-11440577D01*
X16085143Y-11440577D02*
X16089905Y-11450101D01*
X16089905Y-11450101D02*
X16089905Y-11502482D01*
X16123238Y-11435815D02*
X16161333Y-11435815D01*
X16137524Y-11402482D02*
X16137524Y-11488196D01*
X16137524Y-11488196D02*
X16142286Y-11497720D01*
X16142286Y-11497720D02*
X16151809Y-11502482D01*
X16151809Y-11502482D02*
X16161333Y-11502482D01*
X15704190Y-11107244D02*
X15694667Y-11102482D01*
X15694667Y-11102482D02*
X15680381Y-11102482D01*
X15680381Y-11102482D02*
X15666095Y-11107244D01*
X15666095Y-11107244D02*
X15656571Y-11116768D01*
X15656571Y-11116768D02*
X15651809Y-11126291D01*
X15651809Y-11126291D02*
X15647048Y-11145339D01*
X15647048Y-11145339D02*
X15647048Y-11159625D01*
X15647048Y-11159625D02*
X15651809Y-11178672D01*
X15651809Y-11178672D02*
X15656571Y-11188196D01*
X15656571Y-11188196D02*
X15666095Y-11197720D01*
X15666095Y-11197720D02*
X15680381Y-11202482D01*
X15680381Y-11202482D02*
X15689905Y-11202482D01*
X15689905Y-11202482D02*
X15704190Y-11197720D01*
X15704190Y-11197720D02*
X15708952Y-11192958D01*
X15708952Y-11192958D02*
X15708952Y-11159625D01*
X15708952Y-11159625D02*
X15689905Y-11159625D01*
X15751809Y-11202482D02*
X15751809Y-11102482D01*
X15751809Y-11102482D02*
X15808952Y-11202482D01*
X15808952Y-11202482D02*
X15808952Y-11102482D01*
X15856571Y-11202482D02*
X15856571Y-11102482D01*
X15856571Y-11102482D02*
X15880381Y-11102482D01*
X15880381Y-11102482D02*
X15894667Y-11107244D01*
X15894667Y-11107244D02*
X15904190Y-11116768D01*
X15904190Y-11116768D02*
X15908952Y-11126291D01*
X15908952Y-11126291D02*
X15913714Y-11145339D01*
X15913714Y-11145339D02*
X15913714Y-11159625D01*
X15913714Y-11159625D02*
X15908952Y-11178672D01*
X15908952Y-11178672D02*
X15904190Y-11188196D01*
X15904190Y-11188196D02*
X15894667Y-11197720D01*
X15894667Y-11197720D02*
X15880381Y-11202482D01*
X15880381Y-11202482D02*
X15856571Y-11202482D01*
X16008952Y-11202482D02*
X15951809Y-11202482D01*
X15980381Y-11202482D02*
X15980381Y-11102482D01*
X15980381Y-11102482D02*
X15970857Y-11116768D01*
X15970857Y-11116768D02*
X15961333Y-11126291D01*
X15961333Y-11126291D02*
X15951809Y-11131053D01*
X12515482Y-10773286D02*
X12515482Y-10763762D01*
X12515482Y-10763762D02*
X12520244Y-10754238D01*
X12520244Y-10754238D02*
X12525006Y-10749476D01*
X12525006Y-10749476D02*
X12534529Y-10744714D01*
X12534529Y-10744714D02*
X12553577Y-10739952D01*
X12553577Y-10739952D02*
X12577387Y-10739952D01*
X12577387Y-10739952D02*
X12596434Y-10744714D01*
X12596434Y-10744714D02*
X12605958Y-10749476D01*
X12605958Y-10749476D02*
X12610720Y-10754238D01*
X12610720Y-10754238D02*
X12615482Y-10763762D01*
X12615482Y-10763762D02*
X12615482Y-10773286D01*
X12615482Y-10773286D02*
X12610720Y-10782809D01*
X12610720Y-10782809D02*
X12605958Y-10787571D01*
X12605958Y-10787571D02*
X12596434Y-10792333D01*
X12596434Y-10792333D02*
X12577387Y-10797095D01*
X12577387Y-10797095D02*
X12553577Y-10797095D01*
X12553577Y-10797095D02*
X12534529Y-10792333D01*
X12534529Y-10792333D02*
X12525006Y-10787571D01*
X12525006Y-10787571D02*
X12520244Y-10782809D01*
X12520244Y-10782809D02*
X12515482Y-10773286D01*
X12605958Y-10697095D02*
X12610720Y-10692333D01*
X12610720Y-10692333D02*
X12615482Y-10697095D01*
X12615482Y-10697095D02*
X12610720Y-10701857D01*
X12610720Y-10701857D02*
X12605958Y-10697095D01*
X12605958Y-10697095D02*
X12615482Y-10697095D01*
X12615482Y-10597095D02*
X12615482Y-10654238D01*
X12615482Y-10625667D02*
X12515482Y-10625667D01*
X12515482Y-10625667D02*
X12529768Y-10635190D01*
X12529768Y-10635190D02*
X12539291Y-10644714D01*
X12539291Y-10644714D02*
X12544053Y-10654238D01*
X12548815Y-10511381D02*
X12615482Y-10511381D01*
X12548815Y-10554238D02*
X12601196Y-10554238D01*
X12601196Y-10554238D02*
X12610720Y-10549476D01*
X12610720Y-10549476D02*
X12615482Y-10539952D01*
X12615482Y-10539952D02*
X12615482Y-10525667D01*
X12615482Y-10525667D02*
X12610720Y-10516143D01*
X12610720Y-10516143D02*
X12605958Y-10511381D01*
X12563101Y-10430429D02*
X12563101Y-10463762D01*
X12615482Y-10463762D02*
X12515482Y-10463762D01*
X12515482Y-10463762D02*
X12515482Y-10416143D01*
D11*
X12694976Y-10613167D02*
X12696167Y-10614357D01*
X12696167Y-10614357D02*
X12697357Y-10617929D01*
X12697357Y-10617929D02*
X12697357Y-10620309D01*
X12697357Y-10620309D02*
X12696167Y-10623881D01*
X12696167Y-10623881D02*
X12693786Y-10626262D01*
X12693786Y-10626262D02*
X12691405Y-10627452D01*
X12691405Y-10627452D02*
X12686643Y-10628643D01*
X12686643Y-10628643D02*
X12683072Y-10628643D01*
X12683072Y-10628643D02*
X12678310Y-10627452D01*
X12678310Y-10627452D02*
X12675929Y-10626262D01*
X12675929Y-10626262D02*
X12673548Y-10623881D01*
X12673548Y-10623881D02*
X12672357Y-10620309D01*
X12672357Y-10620309D02*
X12672357Y-10617929D01*
X12672357Y-10617929D02*
X12673548Y-10614357D01*
X12673548Y-10614357D02*
X12674738Y-10613167D01*
X12697357Y-10589357D02*
X12697357Y-10603643D01*
X12697357Y-10596500D02*
X12672357Y-10596500D01*
X12672357Y-10596500D02*
X12675929Y-10598881D01*
X12675929Y-10598881D02*
X12678310Y-10601262D01*
X12678310Y-10601262D02*
X12679500Y-10603643D01*
D13*
%TO.C,S1*%
X15748250Y-10782000D02*
X15748250Y-10302000D01*
X15968250Y-10782000D02*
X15748250Y-10782000D01*
X15968250Y-10652000D02*
X15968250Y-10782000D01*
X16008250Y-10652000D02*
X15968250Y-10652000D01*
X16008250Y-10652000D02*
X16008250Y-10432000D01*
X15968250Y-10432000D02*
X15968250Y-10652000D01*
X16008250Y-10432000D02*
X15968250Y-10432000D01*
X15748250Y-10302000D02*
X15968250Y-10302000D01*
X15968250Y-10302000D02*
X15968250Y-10432000D01*
D14*
X15618250Y-10666500D02*
G75*
G02*
X15598250Y-10666500I-10000J0D01*
G01*
X15598250Y-10666500D02*
G75*
G02*
X15618250Y-10666500I10000J0D01*
G01*
D15*
%TO.C,U1*%
X15423000Y-12141000D02*
X15423000Y-9591000D01*
X13623000Y-12141000D02*
X15423000Y-12141000D01*
X13623000Y-12141000D02*
X13623000Y-9591000D01*
X13623000Y-10191000D02*
X15423000Y-10191000D01*
X13623000Y-9591000D02*
X15423000Y-9591000D01*
D14*
%TO.C,MK1*%
X14908000Y-12662000D02*
G75*
G02*
X14888000Y-12662000I-10000J0D01*
G01*
X14888000Y-12662000D02*
G75*
G02*
X14908000Y-12662000I10000J0D01*
G01*
D13*
X15209200Y-12609500D02*
X14859200Y-12609500D01*
X15209200Y-12344500D02*
X15209200Y-12609500D01*
X14859200Y-12609500D02*
X14859200Y-12344500D01*
X14859200Y-12344500D02*
X15209200Y-12344500D01*
%TO.C,J1*%
D15*
X13205000Y-11431000D02*
X12470000Y-11431000D01*
X12470000Y-12325000D01*
X13205000Y-12325000D01*
X13205000Y-11431000D01*
D14*
%TO.C,SW1*%
X13359000Y-10750000D02*
X12839000Y-10750000D01*
X13359000Y-10230000D02*
X13359000Y-10750000D01*
X12839000Y-10750000D02*
X12839000Y-10230000D01*
X12839000Y-10230000D02*
X13359000Y-10230000D01*
%TO.C,R19*%
D15*
X14808000Y-12484500D02*
X14754000Y-12484500D01*
X14754000Y-12589500D01*
X14808000Y-12589500D01*
X14808000Y-12484500D01*
%TO.C,C2*%
X12714000Y-11122000D02*
X12664000Y-11122000D01*
X12664000Y-11222000D01*
X12714000Y-11222000D01*
X12714000Y-11122000D01*
%TO.C,R1*%
X15659000Y-10881000D02*
X15764000Y-10881000D01*
X15764000Y-10935000D01*
X15659000Y-10935000D01*
X15659000Y-10881000D01*
%TO.C,R4*%
X12659000Y-10435500D02*
X12713000Y-10435500D01*
X12713000Y-10330500D01*
X12659000Y-10330500D01*
X12659000Y-10435500D01*
%TO.C,R5*%
X13483500Y-11905000D02*
X13378500Y-11905000D01*
X13378500Y-11851000D01*
X13483500Y-11851000D01*
X13483500Y-11905000D01*
%TO.C,R6*%
X13483500Y-12005000D02*
X13378500Y-12005000D01*
X13378500Y-11951000D01*
X13483500Y-11951000D01*
X13483500Y-12005000D01*
%TO.C,C12*%
X14905000Y-12243000D02*
X15005000Y-12243000D01*
X15005000Y-12293000D01*
X14905000Y-12293000D01*
X14905000Y-12243000D01*
%TO.C,R3*%
X12661000Y-10998500D02*
X12715000Y-10998500D01*
X12715000Y-10893500D01*
X12661000Y-10893500D01*
X12661000Y-10998500D01*
D14*
%TO.C,SW2*%
X12839000Y-10784000D02*
X13359000Y-10784000D01*
X12839000Y-11304000D02*
X12839000Y-10784000D01*
X13359000Y-10784000D02*
X13359000Y-11304000D01*
X13359000Y-11304000D02*
X12839000Y-11304000D01*
D15*
%TO.C,D1*%
X15685000Y-10994000D02*
X15685000Y-11074000D01*
X15685000Y-11074000D02*
X15815000Y-11074000D01*
X15815000Y-11074000D02*
X15845000Y-11044000D01*
X15845000Y-10994000D02*
X15685000Y-10994000D01*
X15845000Y-11044000D02*
X15845000Y-10994000D01*
%TO.C,R2*%
X15565000Y-10360500D02*
X15619000Y-10360500D01*
X15619000Y-10255500D01*
X15565000Y-10255500D01*
X15565000Y-10360500D01*
%TO.C,C3*%
X15568000Y-10584000D02*
X15618000Y-10584000D01*
X15618000Y-10484000D01*
X15568000Y-10484000D01*
X15568000Y-10584000D01*
%TO.C,R7*%
X13378500Y-12051000D02*
X13483500Y-12051000D01*
X13483500Y-12105000D01*
X13378500Y-12105000D01*
X13378500Y-12051000D01*
%TO.C,R8*%
X13378500Y-11726000D02*
X13483500Y-11726000D01*
X13483500Y-11780000D01*
X13378500Y-11780000D01*
X13378500Y-11726000D01*
%TO.C,C1*%
X12711000Y-10559000D02*
X12661000Y-10559000D01*
X12661000Y-10659000D01*
X12711000Y-10659000D01*
X12711000Y-10559000D01*
%TD*%
M02*
