%TF.GenerationSoftware,KiCad,Pcbnew,9.0.7*%
%TF.CreationDate,2026-04-29T04:09:03+05:30*%
%TF.ProjectId,SmartWatch_MT2025513,536d6172-7457-4617-9463-685f4d543230,rev?*%
%TF.SameCoordinates,Original*%
%TF.FileFunction,OtherDrawing,Comment*%
%FSLAX45Y45*%
G04 Gerber Fmt 4.5, Leading zero omitted, Abs format (unit mm)*
G04 Created by KiCad (PCBNEW 9.0.7) date 2026-04-29 04:09:03*
%MOMM*%
%LPD*%
G01*
G04 APERTURE LIST*
%ADD10C,0.100000*%
G04 APERTURE END LIST*
D10*
X12504889Y-11706571D02*
X12554889Y-11706571D01*
X12554889Y-11706571D02*
X12554889Y-11725619D01*
X12554889Y-11725619D02*
X12552508Y-11730381D01*
X12552508Y-11730381D02*
X12550127Y-11732762D01*
X12550127Y-11732762D02*
X12545365Y-11735143D01*
X12545365Y-11735143D02*
X12538222Y-11735143D01*
X12538222Y-11735143D02*
X12533460Y-11732762D01*
X12533460Y-11732762D02*
X12531079Y-11730381D01*
X12531079Y-11730381D02*
X12528698Y-11725619D01*
X12528698Y-11725619D02*
X12528698Y-11706571D01*
X12509651Y-11785143D02*
X12507270Y-11782762D01*
X12507270Y-11782762D02*
X12504889Y-11775619D01*
X12504889Y-11775619D02*
X12504889Y-11770857D01*
X12504889Y-11770857D02*
X12507270Y-11763714D01*
X12507270Y-11763714D02*
X12512032Y-11758952D01*
X12512032Y-11758952D02*
X12516794Y-11756571D01*
X12516794Y-11756571D02*
X12526318Y-11754190D01*
X12526318Y-11754190D02*
X12533460Y-11754190D01*
X12533460Y-11754190D02*
X12542984Y-11756571D01*
X12542984Y-11756571D02*
X12547746Y-11758952D01*
X12547746Y-11758952D02*
X12552508Y-11763714D01*
X12552508Y-11763714D02*
X12554889Y-11770857D01*
X12554889Y-11770857D02*
X12554889Y-11775619D01*
X12554889Y-11775619D02*
X12552508Y-11782762D01*
X12552508Y-11782762D02*
X12550127Y-11785143D01*
X12531079Y-11823238D02*
X12528698Y-11830381D01*
X12528698Y-11830381D02*
X12526318Y-11832762D01*
X12526318Y-11832762D02*
X12521556Y-11835143D01*
X12521556Y-11835143D02*
X12514413Y-11835143D01*
X12514413Y-11835143D02*
X12509651Y-11832762D01*
X12509651Y-11832762D02*
X12507270Y-11830381D01*
X12507270Y-11830381D02*
X12504889Y-11825619D01*
X12504889Y-11825619D02*
X12504889Y-11806571D01*
X12504889Y-11806571D02*
X12554889Y-11806571D01*
X12554889Y-11806571D02*
X12554889Y-11823238D01*
X12554889Y-11823238D02*
X12552508Y-11828000D01*
X12552508Y-11828000D02*
X12550127Y-11830381D01*
X12550127Y-11830381D02*
X12545365Y-11832762D01*
X12545365Y-11832762D02*
X12540603Y-11832762D01*
X12540603Y-11832762D02*
X12535841Y-11830381D01*
X12535841Y-11830381D02*
X12533460Y-11828000D01*
X12533460Y-11828000D02*
X12531079Y-11823238D01*
X12531079Y-11823238D02*
X12531079Y-11806571D01*
X12531079Y-11894667D02*
X12531079Y-11911333D01*
X12504889Y-11918476D02*
X12504889Y-11894667D01*
X12504889Y-11894667D02*
X12554889Y-11894667D01*
X12554889Y-11894667D02*
X12554889Y-11918476D01*
X12504889Y-11961333D02*
X12554889Y-11961333D01*
X12507270Y-11961333D02*
X12504889Y-11956571D01*
X12504889Y-11956571D02*
X12504889Y-11947048D01*
X12504889Y-11947048D02*
X12507270Y-11942286D01*
X12507270Y-11942286D02*
X12509651Y-11939905D01*
X12509651Y-11939905D02*
X12514413Y-11937524D01*
X12514413Y-11937524D02*
X12528698Y-11937524D01*
X12528698Y-11937524D02*
X12533460Y-11939905D01*
X12533460Y-11939905D02*
X12535841Y-11942286D01*
X12535841Y-11942286D02*
X12538222Y-11947048D01*
X12538222Y-11947048D02*
X12538222Y-11956571D01*
X12538222Y-11956571D02*
X12535841Y-11961333D01*
X12538222Y-12006571D02*
X12497746Y-12006571D01*
X12497746Y-12006571D02*
X12492984Y-12004190D01*
X12492984Y-12004190D02*
X12490603Y-12001809D01*
X12490603Y-12001809D02*
X12488222Y-11997048D01*
X12488222Y-11997048D02*
X12488222Y-11989905D01*
X12488222Y-11989905D02*
X12490603Y-11985143D01*
X12507270Y-12006571D02*
X12504889Y-12001809D01*
X12504889Y-12001809D02*
X12504889Y-11992286D01*
X12504889Y-11992286D02*
X12507270Y-11987524D01*
X12507270Y-11987524D02*
X12509651Y-11985143D01*
X12509651Y-11985143D02*
X12514413Y-11982762D01*
X12514413Y-11982762D02*
X12528698Y-11982762D01*
X12528698Y-11982762D02*
X12533460Y-11985143D01*
X12533460Y-11985143D02*
X12535841Y-11987524D01*
X12535841Y-11987524D02*
X12538222Y-11992286D01*
X12538222Y-11992286D02*
X12538222Y-12001809D01*
X12538222Y-12001809D02*
X12535841Y-12006571D01*
X12507270Y-12049428D02*
X12504889Y-12044667D01*
X12504889Y-12044667D02*
X12504889Y-12035143D01*
X12504889Y-12035143D02*
X12507270Y-12030381D01*
X12507270Y-12030381D02*
X12512032Y-12028000D01*
X12512032Y-12028000D02*
X12531079Y-12028000D01*
X12531079Y-12028000D02*
X12535841Y-12030381D01*
X12535841Y-12030381D02*
X12538222Y-12035143D01*
X12538222Y-12035143D02*
X12538222Y-12044667D01*
X12538222Y-12044667D02*
X12535841Y-12049428D01*
X12535841Y-12049428D02*
X12531079Y-12051809D01*
X12531079Y-12051809D02*
X12526318Y-12051809D01*
X12526318Y-12051809D02*
X12521556Y-12028000D01*
%TO.C,J1*%
X12470000Y-12378000D02*
X12470000Y-11378000D01*
%TD*%
M02*
