%TF.GenerationSoftware,KiCad,Pcbnew,9.0.7*%
%TF.CreationDate,2026-04-29T04:09:03+05:30*%
%TF.ProjectId,SmartWatch_MT2025513,536d6172-7457-4617-9463-685f4d543230,rev?*%
%TF.SameCoordinates,Original*%
%TF.FileFunction,Legend,Bot*%
%TF.FilePolarity,Positive*%
%FSLAX45Y45*%
G04 Gerber Fmt 4.5, Leading zero omitted, Abs format (unit mm)*
G04 Created by KiCad (PCBNEW 9.0.7) date 2026-04-29 04:09:03*
%MOMM*%
%LPD*%
G01*
G04 APERTURE LIST*
%ADD10C,0.100000*%
%ADD11C,0.150000*%
%ADD12C,0.120000*%
%ADD13C,0.200000*%
%ADD14C,0.127000*%
%ADD15C,0.152400*%
%ADD16C,0.010000*%
G04 APERTURE END LIST*
D10*
X14513952Y-12027489D02*
X14513952Y-12092251D01*
X14513952Y-12092251D02*
X14510143Y-12099870D01*
X14510143Y-12099870D02*
X14506333Y-12103680D01*
X14506333Y-12103680D02*
X14498714Y-12107489D01*
X14498714Y-12107489D02*
X14483476Y-12107489D01*
X14483476Y-12107489D02*
X14475857Y-12103680D01*
X14475857Y-12103680D02*
X14472048Y-12099870D01*
X14472048Y-12099870D02*
X14468238Y-12092251D01*
X14468238Y-12092251D02*
X14468238Y-12027489D01*
X14437762Y-12027489D02*
X14384428Y-12027489D01*
X14384428Y-12027489D02*
X14418714Y-12107489D01*
X13190667Y-10476490D02*
X13190667Y-10533632D01*
X13190667Y-10533632D02*
X13194476Y-10545061D01*
X13194476Y-10545061D02*
X13202095Y-10552680D01*
X13202095Y-10552680D02*
X13213524Y-10556490D01*
X13213524Y-10556490D02*
X13221143Y-10556490D01*
X13160190Y-10476490D02*
X13110667Y-10476490D01*
X13110667Y-10476490D02*
X13137333Y-10506966D01*
X13137333Y-10506966D02*
X13125905Y-10506966D01*
X13125905Y-10506966D02*
X13118286Y-10510775D01*
X13118286Y-10510775D02*
X13114476Y-10514585D01*
X13114476Y-10514585D02*
X13110667Y-10522204D01*
X13110667Y-10522204D02*
X13110667Y-10541251D01*
X13110667Y-10541251D02*
X13114476Y-10548870D01*
X13114476Y-10548870D02*
X13118286Y-10552680D01*
X13118286Y-10552680D02*
X13125905Y-10556490D01*
X13125905Y-10556490D02*
X13148762Y-10556490D01*
X13148762Y-10556490D02*
X13156381Y-10552680D01*
X13156381Y-10552680D02*
X13160190Y-10548870D01*
X14900952Y-11139130D02*
X14900952Y-11203891D01*
X14900952Y-11203891D02*
X14897143Y-11211510D01*
X14897143Y-11211510D02*
X14893333Y-11215320D01*
X14893333Y-11215320D02*
X14885714Y-11219129D01*
X14885714Y-11219129D02*
X14870476Y-11219129D01*
X14870476Y-11219129D02*
X14862857Y-11215320D01*
X14862857Y-11215320D02*
X14859048Y-11211510D01*
X14859048Y-11211510D02*
X14855238Y-11203891D01*
X14855238Y-11203891D02*
X14855238Y-11139130D01*
X14782857Y-11165796D02*
X14782857Y-11219129D01*
X14801905Y-11135320D02*
X14820952Y-11192463D01*
X14820952Y-11192463D02*
X14771428Y-11192463D01*
X14794952Y-10869490D02*
X14794952Y-10934251D01*
X14794952Y-10934251D02*
X14791143Y-10941870D01*
X14791143Y-10941870D02*
X14787333Y-10945680D01*
X14787333Y-10945680D02*
X14779714Y-10949490D01*
X14779714Y-10949490D02*
X14764476Y-10949490D01*
X14764476Y-10949490D02*
X14756857Y-10945680D01*
X14756857Y-10945680D02*
X14753048Y-10941870D01*
X14753048Y-10941870D02*
X14749238Y-10934251D01*
X14749238Y-10934251D02*
X14749238Y-10869490D01*
X14714952Y-10877109D02*
X14711143Y-10873299D01*
X14711143Y-10873299D02*
X14703524Y-10869490D01*
X14703524Y-10869490D02*
X14684476Y-10869490D01*
X14684476Y-10869490D02*
X14676857Y-10873299D01*
X14676857Y-10873299D02*
X14673048Y-10877109D01*
X14673048Y-10877109D02*
X14669238Y-10884728D01*
X14669238Y-10884728D02*
X14669238Y-10892347D01*
X14669238Y-10892347D02*
X14673048Y-10903775D01*
X14673048Y-10903775D02*
X14718762Y-10949490D01*
X14718762Y-10949490D02*
X14669238Y-10949490D01*
X13618667Y-12054489D02*
X13618667Y-12119251D01*
X13618667Y-12119251D02*
X13614858Y-12126870D01*
X13614858Y-12126870D02*
X13611048Y-12130680D01*
X13611048Y-12130680D02*
X13603429Y-12134489D01*
X13603429Y-12134489D02*
X13588191Y-12134489D01*
X13588191Y-12134489D02*
X13580572Y-12130680D01*
X13580572Y-12130680D02*
X13576763Y-12126870D01*
X13576763Y-12126870D02*
X13572953Y-12119251D01*
X13572953Y-12119251D02*
X13572953Y-12054489D01*
X13496763Y-12054489D02*
X13534858Y-12054489D01*
X13534858Y-12054489D02*
X13538667Y-12092585D01*
X13538667Y-12092585D02*
X13534858Y-12088775D01*
X13534858Y-12088775D02*
X13527239Y-12084966D01*
X13527239Y-12084966D02*
X13508191Y-12084966D01*
X13508191Y-12084966D02*
X13500572Y-12088775D01*
X13500572Y-12088775D02*
X13496763Y-12092585D01*
X13496763Y-12092585D02*
X13492953Y-12100204D01*
X13492953Y-12100204D02*
X13492953Y-12119251D01*
X13492953Y-12119251D02*
X13496763Y-12126870D01*
X13496763Y-12126870D02*
X13500572Y-12130680D01*
X13500572Y-12130680D02*
X13508191Y-12134489D01*
X13508191Y-12134489D02*
X13527239Y-12134489D01*
X13527239Y-12134489D02*
X13534858Y-12130680D01*
X13534858Y-12130680D02*
X13538667Y-12126870D01*
X15375667Y-10877490D02*
X15375667Y-10934632D01*
X15375667Y-10934632D02*
X15379476Y-10946061D01*
X15379476Y-10946061D02*
X15387095Y-10953680D01*
X15387095Y-10953680D02*
X15398524Y-10957490D01*
X15398524Y-10957490D02*
X15406143Y-10957490D01*
X15341381Y-10885109D02*
X15337571Y-10881299D01*
X15337571Y-10881299D02*
X15329952Y-10877490D01*
X15329952Y-10877490D02*
X15310905Y-10877490D01*
X15310905Y-10877490D02*
X15303286Y-10881299D01*
X15303286Y-10881299D02*
X15299476Y-10885109D01*
X15299476Y-10885109D02*
X15295667Y-10892728D01*
X15295667Y-10892728D02*
X15295667Y-10900347D01*
X15295667Y-10900347D02*
X15299476Y-10911775D01*
X15299476Y-10911775D02*
X15345190Y-10957490D01*
X15345190Y-10957490D02*
X15295667Y-10957490D01*
X14005952Y-11648489D02*
X14005952Y-11713251D01*
X14005952Y-11713251D02*
X14002143Y-11720870D01*
X14002143Y-11720870D02*
X13998333Y-11724680D01*
X13998333Y-11724680D02*
X13990714Y-11728489D01*
X13990714Y-11728489D02*
X13975476Y-11728489D01*
X13975476Y-11728489D02*
X13967857Y-11724680D01*
X13967857Y-11724680D02*
X13964048Y-11720870D01*
X13964048Y-11720870D02*
X13960238Y-11713251D01*
X13960238Y-11713251D02*
X13960238Y-11648489D01*
X13887857Y-11648489D02*
X13903095Y-11648489D01*
X13903095Y-11648489D02*
X13910714Y-11652299D01*
X13910714Y-11652299D02*
X13914524Y-11656108D01*
X13914524Y-11656108D02*
X13922143Y-11667537D01*
X13922143Y-11667537D02*
X13925952Y-11682775D01*
X13925952Y-11682775D02*
X13925952Y-11713251D01*
X13925952Y-11713251D02*
X13922143Y-11720870D01*
X13922143Y-11720870D02*
X13918333Y-11724680D01*
X13918333Y-11724680D02*
X13910714Y-11728489D01*
X13910714Y-11728489D02*
X13895476Y-11728489D01*
X13895476Y-11728489D02*
X13887857Y-11724680D01*
X13887857Y-11724680D02*
X13884048Y-11720870D01*
X13884048Y-11720870D02*
X13880238Y-11713251D01*
X13880238Y-11713251D02*
X13880238Y-11694204D01*
X13880238Y-11694204D02*
X13884048Y-11686585D01*
X13884048Y-11686585D02*
X13887857Y-11682775D01*
X13887857Y-11682775D02*
X13895476Y-11678966D01*
X13895476Y-11678966D02*
X13910714Y-11678966D01*
X13910714Y-11678966D02*
X13918333Y-11682775D01*
X13918333Y-11682775D02*
X13922143Y-11686585D01*
X13922143Y-11686585D02*
X13925952Y-11694204D01*
D11*
X14275160Y-11657642D02*
X14275160Y-11681451D01*
X14298969Y-11671928D02*
X14275160Y-11681451D01*
X14275160Y-11681451D02*
X14251350Y-11671928D01*
X14289446Y-11700499D02*
X14275160Y-11681451D01*
X14275160Y-11681451D02*
X14260874Y-11700499D01*
X14342000Y-11657642D02*
X14342000Y-11681451D01*
X14365809Y-11671928D02*
X14342000Y-11681451D01*
X14342000Y-11681451D02*
X14318190Y-11671928D01*
X14356286Y-11700499D02*
X14342000Y-11681451D01*
X14342000Y-11681451D02*
X14327714Y-11700499D01*
D10*
X14161952Y-10631490D02*
X14161952Y-10696251D01*
X14161952Y-10696251D02*
X14158143Y-10703870D01*
X14158143Y-10703870D02*
X14154333Y-10707680D01*
X14154333Y-10707680D02*
X14146714Y-10711490D01*
X14146714Y-10711490D02*
X14131476Y-10711490D01*
X14131476Y-10711490D02*
X14123857Y-10707680D01*
X14123857Y-10707680D02*
X14120048Y-10703870D01*
X14120048Y-10703870D02*
X14116238Y-10696251D01*
X14116238Y-10696251D02*
X14116238Y-10631490D01*
X14085762Y-10631490D02*
X14036238Y-10631490D01*
X14036238Y-10631490D02*
X14062905Y-10661966D01*
X14062905Y-10661966D02*
X14051476Y-10661966D01*
X14051476Y-10661966D02*
X14043857Y-10665775D01*
X14043857Y-10665775D02*
X14040048Y-10669585D01*
X14040048Y-10669585D02*
X14036238Y-10677204D01*
X14036238Y-10677204D02*
X14036238Y-10696251D01*
X14036238Y-10696251D02*
X14040048Y-10703870D01*
X14040048Y-10703870D02*
X14043857Y-10707680D01*
X14043857Y-10707680D02*
X14051476Y-10711490D01*
X14051476Y-10711490D02*
X14074333Y-10711490D01*
X14074333Y-10711490D02*
X14081952Y-10707680D01*
X14081952Y-10707680D02*
X14085762Y-10703870D01*
D12*
%TO.C,C15*%
X14434000Y-11865416D02*
X14434000Y-11888583D01*
X14362000Y-11865416D02*
X14362000Y-11888583D01*
%TO.C,U7*%
X14526000Y-12161000D02*
X14498000Y-12161000D01*
X14498000Y-12133000D01*
X14526000Y-12161000D01*
G36*
X14526000Y-12161000D02*
G01*
X14498000Y-12161000D01*
X14498000Y-12133000D01*
X14526000Y-12161000D01*
G37*
X14495000Y-12483000D02*
X14397500Y-12483000D01*
X14495000Y-12460000D02*
X14495000Y-12483000D01*
X14466000Y-12161000D02*
X14397500Y-12161000D01*
X14270500Y-12483000D02*
X14173000Y-12483000D01*
X14270500Y-12161000D02*
X14173000Y-12161000D01*
X14173000Y-12460000D02*
X14173000Y-12483000D01*
X14173000Y-12161000D02*
X14173000Y-12184000D01*
D13*
%TO.C,J3*%
X13099000Y-10582500D02*
G75*
G02*
X13079000Y-10582500I-10000J0D01*
G01*
X13079000Y-10582500D02*
G75*
G02*
X13099000Y-10582500I10000J0D01*
G01*
D14*
X12926500Y-10807500D02*
X12926500Y-10644500D01*
X12926500Y-10395500D02*
X12926500Y-10232500D01*
X12926500Y-10232500D02*
X12798500Y-10232500D01*
X12798500Y-10807500D02*
X12926500Y-10807500D01*
X12521500Y-10354500D02*
X12521500Y-10685500D01*
D12*
%TO.C,R16*%
X14830762Y-11682250D02*
X14797238Y-11682250D01*
X14830762Y-11758250D02*
X14797238Y-11758250D01*
%TO.C,C9*%
X15049416Y-11683250D02*
X15072583Y-11683250D01*
X15049416Y-11755250D02*
X15072583Y-11755250D01*
%TO.C,C18*%
X14035583Y-12376000D02*
X14012416Y-12376000D01*
X14035583Y-12448000D02*
X14012416Y-12448000D01*
%TO.C,C7*%
X13926583Y-11216000D02*
X13903416Y-11216000D01*
X13926583Y-11288000D02*
X13903416Y-11288000D01*
%TO.C,C5*%
X13926583Y-10917000D02*
X13903416Y-10917000D01*
X13926583Y-10989000D02*
X13903416Y-10989000D01*
%TO.C,C8*%
X13926583Y-11118000D02*
X13903416Y-11118000D01*
X13926583Y-11190000D02*
X13903416Y-11190000D01*
%TO.C,R20*%
X15336000Y-11665238D02*
X15336000Y-11698762D01*
X15412000Y-11665238D02*
X15412000Y-11698762D01*
%TO.C,L1*%
X14657000Y-12193875D02*
X14657000Y-12141625D01*
X14879000Y-12193875D02*
X14879000Y-12141625D01*
%TO.C,R23*%
X14005238Y-12473000D02*
X14038762Y-12473000D01*
X14005238Y-12549000D02*
X14038762Y-12549000D01*
%TO.C,R17*%
X14553000Y-11519488D02*
X14553000Y-11553012D01*
X14629000Y-11519488D02*
X14629000Y-11553012D01*
%TO.C,D2*%
X13671750Y-12016440D02*
X13900250Y-12016440D01*
X13900250Y-12016440D02*
X13900250Y-12163440D01*
X13900250Y-12163440D02*
X13671750Y-12163440D01*
D14*
%TO.C,U4*%
X14660150Y-11262000D02*
X14660150Y-11333150D01*
X14660150Y-11642000D02*
X14660150Y-11570850D01*
X15197850Y-11262000D02*
X15197850Y-11333150D01*
X15197850Y-11642000D02*
X15197850Y-11570850D01*
D10*
X15159000Y-11212000D02*
G75*
G02*
X15149000Y-11212000I-5000J0D01*
G01*
X15149000Y-11212000D02*
G75*
G02*
X15159000Y-11212000I5000J0D01*
G01*
D12*
%TO.C,R15*%
X15229000Y-11434012D02*
X15229000Y-11400488D01*
X15305000Y-11434012D02*
X15305000Y-11400488D01*
%TO.C,R14*%
X13896238Y-10816000D02*
X13929762Y-10816000D01*
X13896238Y-10892000D02*
X13929762Y-10892000D01*
%TO.C,R18*%
X14553000Y-11291488D02*
X14553000Y-11325012D01*
X14629000Y-11291488D02*
X14629000Y-11325012D01*
%TO.C,R21*%
X13503512Y-12150940D02*
X13469988Y-12150940D01*
X13503512Y-12226940D02*
X13469988Y-12226940D01*
D11*
%TO.C,U2*%
X14571500Y-10511500D02*
X14896500Y-10511500D01*
X14571500Y-10529000D02*
X14571500Y-10511500D01*
X14571500Y-10836500D02*
X14571500Y-10819000D01*
X14571500Y-10836500D02*
X14896500Y-10836500D01*
X14896500Y-10529000D02*
X14896500Y-10511500D01*
X14896500Y-10836500D02*
X14896500Y-10819000D01*
D12*
X14548000Y-10852000D02*
X14500000Y-10852000D01*
X14524000Y-10819000D01*
X14548000Y-10852000D01*
G36*
X14548000Y-10852000D02*
G01*
X14500000Y-10852000D01*
X14524000Y-10819000D01*
X14548000Y-10852000D01*
G37*
%TO.C,C20*%
X14545000Y-12260416D02*
X14545000Y-12283583D01*
X14617000Y-12260416D02*
X14617000Y-12283583D01*
%TO.C,C14*%
X13821750Y-12460523D02*
X13821750Y-12437356D01*
X13893750Y-12460523D02*
X13893750Y-12437356D01*
%TO.C,R11*%
X15162762Y-10533000D02*
X15129238Y-10533000D01*
X15162762Y-10609000D02*
X15129238Y-10609000D01*
D15*
%TO.C,U5*%
X13542500Y-12248060D02*
X13572980Y-12248060D01*
X13572980Y-12248060D02*
X13633940Y-12248060D01*
X13633940Y-12248060D02*
X13664420Y-12248060D01*
D10*
X13633940Y-12248060D02*
G75*
G02*
X13572980Y-12248060I-30480J0D01*
G01*
D12*
%TO.C,C10*%
X15042583Y-11052250D02*
X15019416Y-11052250D01*
X15042583Y-11124250D02*
X15019416Y-11124250D01*
%TO.C,C11*%
X15042583Y-11149250D02*
X15019416Y-11149250D01*
X15042583Y-11221250D02*
X15019416Y-11221250D01*
%TO.C,R13*%
X14305488Y-10520500D02*
X14339012Y-10520500D01*
X14305488Y-10596500D02*
X14339012Y-10596500D01*
%TO.C,R9*%
X15163012Y-10831500D02*
X15129488Y-10831500D01*
X15163012Y-10907500D02*
X15129488Y-10907500D01*
%TO.C,C19*%
X14051000Y-12239416D02*
X14051000Y-12262583D01*
X14123000Y-12239416D02*
X14123000Y-12262583D01*
%TO.C,C13*%
X13519166Y-12549940D02*
X13542333Y-12549940D01*
X13519166Y-12621940D02*
X13542333Y-12621940D01*
%TO.C,C6*%
X13926583Y-11015000D02*
X13903416Y-11015000D01*
X13926583Y-11087000D02*
X13903416Y-11087000D01*
%TO.C,R22*%
X13809512Y-12182940D02*
X13775988Y-12182940D01*
X13809512Y-12258940D02*
X13775988Y-12258940D01*
%TO.C,C4*%
X15132416Y-10734500D02*
X15155583Y-10734500D01*
X15132416Y-10806500D02*
X15155583Y-10806500D01*
D14*
%TO.C,J2*%
X15452000Y-10882000D02*
X15452000Y-10945000D01*
X15452000Y-11989000D02*
X15452000Y-12052000D01*
X15452000Y-12052000D02*
X15670000Y-12052000D01*
X15670000Y-10882000D02*
X15452000Y-10882000D01*
X15802000Y-10961500D02*
X15802000Y-11972500D01*
D13*
X15387000Y-11042000D02*
G75*
G02*
X15367000Y-11042000I-10000J0D01*
G01*
X15367000Y-11042000D02*
G75*
G02*
X15387000Y-11042000I10000J0D01*
G01*
D16*
X15914600Y-10862100D02*
X15917200Y-10862300D01*
X15919800Y-10862600D01*
X15922400Y-10863100D01*
X15924900Y-10863700D01*
X15927500Y-10864400D01*
X15929900Y-10865300D01*
X15932300Y-10866300D01*
X15934700Y-10867400D01*
X15937000Y-10868700D01*
X15939200Y-10870100D01*
X15941400Y-10871500D01*
X15943500Y-10873100D01*
X15945500Y-10874800D01*
X15947400Y-10876600D01*
X15949200Y-10878500D01*
X15950900Y-10880500D01*
X15952500Y-10882600D01*
X15953900Y-10884800D01*
X15955300Y-10887000D01*
X15956600Y-10889300D01*
X15957700Y-10891700D01*
X15958700Y-10894100D01*
X15959600Y-10896500D01*
X15960300Y-10899100D01*
X15960900Y-10901600D01*
X15961400Y-10904200D01*
X15961700Y-10906800D01*
X15961900Y-10909400D01*
X15962000Y-10912000D01*
X15962000Y-10942000D01*
X15942000Y-10942000D01*
X15942000Y-10912000D01*
X15942000Y-10910400D01*
X15941800Y-10908900D01*
X15941600Y-10907300D01*
X15941300Y-10905800D01*
X15941000Y-10904200D01*
X15940500Y-10902700D01*
X15940000Y-10901200D01*
X15939400Y-10899800D01*
X15938700Y-10898400D01*
X15938000Y-10897000D01*
X15937200Y-10895700D01*
X15936300Y-10894400D01*
X15935300Y-10893100D01*
X15934300Y-10891900D01*
X15933200Y-10890800D01*
X15932100Y-10889700D01*
X15930900Y-10888700D01*
X15929600Y-10887700D01*
X15928300Y-10886800D01*
X15927000Y-10886000D01*
X15925600Y-10885300D01*
X15924200Y-10884600D01*
X15922800Y-10884000D01*
X15921300Y-10883500D01*
X15919800Y-10883000D01*
X15918200Y-10882700D01*
X15916700Y-10882400D01*
X15915100Y-10882200D01*
X15913600Y-10882000D01*
X15912000Y-10882000D01*
X15872000Y-10882000D01*
X15870400Y-10882000D01*
X15868900Y-10882200D01*
X15867300Y-10882400D01*
X15865800Y-10882700D01*
X15864200Y-10883000D01*
X15862700Y-10883500D01*
X15861200Y-10884000D01*
X15859800Y-10884600D01*
X15858400Y-10885300D01*
X15857000Y-10886000D01*
X15855700Y-10886800D01*
X15854400Y-10887700D01*
X15853100Y-10888700D01*
X15851900Y-10889700D01*
X15850800Y-10890800D01*
X15849700Y-10891900D01*
X15848700Y-10893100D01*
X15847700Y-10894400D01*
X15846800Y-10895700D01*
X15846000Y-10897000D01*
X15845300Y-10898400D01*
X15844600Y-10899800D01*
X15844000Y-10901200D01*
X15843500Y-10902700D01*
X15843000Y-10904200D01*
X15842700Y-10905800D01*
X15842400Y-10907300D01*
X15842200Y-10908900D01*
X15842000Y-10910400D01*
X15842000Y-10912000D01*
X15842000Y-10942000D01*
X15822000Y-10942000D01*
X15822000Y-10912000D01*
X15822100Y-10909400D01*
X15822300Y-10906800D01*
X15822600Y-10904200D01*
X15823100Y-10901600D01*
X15823700Y-10899100D01*
X15824400Y-10896500D01*
X15825300Y-10894100D01*
X15826300Y-10891700D01*
X15827400Y-10889300D01*
X15828700Y-10887000D01*
X15830100Y-10884800D01*
X15831500Y-10882600D01*
X15833100Y-10880500D01*
X15834800Y-10878500D01*
X15836600Y-10876600D01*
X15838500Y-10874800D01*
X15840500Y-10873100D01*
X15842600Y-10871500D01*
X15844800Y-10870100D01*
X15847000Y-10868700D01*
X15849300Y-10867400D01*
X15851700Y-10866300D01*
X15854100Y-10865300D01*
X15856500Y-10864400D01*
X15859100Y-10863700D01*
X15861600Y-10863100D01*
X15864200Y-10862600D01*
X15866800Y-10862300D01*
X15869400Y-10862100D01*
X15872000Y-10862000D01*
X15912000Y-10862000D01*
X15914600Y-10862100D01*
G36*
X15914600Y-10862100D02*
G01*
X15917200Y-10862300D01*
X15919800Y-10862600D01*
X15922400Y-10863100D01*
X15924900Y-10863700D01*
X15927500Y-10864400D01*
X15929900Y-10865300D01*
X15932300Y-10866300D01*
X15934700Y-10867400D01*
X15937000Y-10868700D01*
X15939200Y-10870100D01*
X15941400Y-10871500D01*
X15943500Y-10873100D01*
X15945500Y-10874800D01*
X15947400Y-10876600D01*
X15949200Y-10878500D01*
X15950900Y-10880500D01*
X15952500Y-10882600D01*
X15953900Y-10884800D01*
X15955300Y-10887000D01*
X15956600Y-10889300D01*
X15957700Y-10891700D01*
X15958700Y-10894100D01*
X15959600Y-10896500D01*
X15960300Y-10899100D01*
X15960900Y-10901600D01*
X15961400Y-10904200D01*
X15961700Y-10906800D01*
X15961900Y-10909400D01*
X15962000Y-10912000D01*
X15962000Y-10942000D01*
X15942000Y-10942000D01*
X15942000Y-10912000D01*
X15942000Y-10910400D01*
X15941800Y-10908900D01*
X15941600Y-10907300D01*
X15941300Y-10905800D01*
X15941000Y-10904200D01*
X15940500Y-10902700D01*
X15940000Y-10901200D01*
X15939400Y-10899800D01*
X15938700Y-10898400D01*
X15938000Y-10897000D01*
X15937200Y-10895700D01*
X15936300Y-10894400D01*
X15935300Y-10893100D01*
X15934300Y-10891900D01*
X15933200Y-10890800D01*
X15932100Y-10889700D01*
X15930900Y-10888700D01*
X15929600Y-10887700D01*
X15928300Y-10886800D01*
X15927000Y-10886000D01*
X15925600Y-10885300D01*
X15924200Y-10884600D01*
X15922800Y-10884000D01*
X15921300Y-10883500D01*
X15919800Y-10883000D01*
X15918200Y-10882700D01*
X15916700Y-10882400D01*
X15915100Y-10882200D01*
X15913600Y-10882000D01*
X15912000Y-10882000D01*
X15872000Y-10882000D01*
X15870400Y-10882000D01*
X15868900Y-10882200D01*
X15867300Y-10882400D01*
X15865800Y-10882700D01*
X15864200Y-10883000D01*
X15862700Y-10883500D01*
X15861200Y-10884000D01*
X15859800Y-10884600D01*
X15858400Y-10885300D01*
X15857000Y-10886000D01*
X15855700Y-10886800D01*
X15854400Y-10887700D01*
X15853100Y-10888700D01*
X15851900Y-10889700D01*
X15850800Y-10890800D01*
X15849700Y-10891900D01*
X15848700Y-10893100D01*
X15847700Y-10894400D01*
X15846800Y-10895700D01*
X15846000Y-10897000D01*
X15845300Y-10898400D01*
X15844600Y-10899800D01*
X15844000Y-10901200D01*
X15843500Y-10902700D01*
X15843000Y-10904200D01*
X15842700Y-10905800D01*
X15842400Y-10907300D01*
X15842200Y-10908900D01*
X15842000Y-10910400D01*
X15842000Y-10912000D01*
X15842000Y-10942000D01*
X15822000Y-10942000D01*
X15822000Y-10912000D01*
X15822100Y-10909400D01*
X15822300Y-10906800D01*
X15822600Y-10904200D01*
X15823100Y-10901600D01*
X15823700Y-10899100D01*
X15824400Y-10896500D01*
X15825300Y-10894100D01*
X15826300Y-10891700D01*
X15827400Y-10889300D01*
X15828700Y-10887000D01*
X15830100Y-10884800D01*
X15831500Y-10882600D01*
X15833100Y-10880500D01*
X15834800Y-10878500D01*
X15836600Y-10876600D01*
X15838500Y-10874800D01*
X15840500Y-10873100D01*
X15842600Y-10871500D01*
X15844800Y-10870100D01*
X15847000Y-10868700D01*
X15849300Y-10867400D01*
X15851700Y-10866300D01*
X15854100Y-10865300D01*
X15856500Y-10864400D01*
X15859100Y-10863700D01*
X15861600Y-10863100D01*
X15864200Y-10862600D01*
X15866800Y-10862300D01*
X15869400Y-10862100D01*
X15872000Y-10862000D01*
X15912000Y-10862000D01*
X15914600Y-10862100D01*
G37*
X15842000Y-12022000D02*
X15842000Y-12023600D01*
X15842200Y-12025100D01*
X15842400Y-12026700D01*
X15842700Y-12028200D01*
X15843000Y-12029800D01*
X15843500Y-12031300D01*
X15844000Y-12032800D01*
X15844600Y-12034200D01*
X15845300Y-12035600D01*
X15846000Y-12037000D01*
X15846800Y-12038300D01*
X15847700Y-12039600D01*
X15848700Y-12040900D01*
X15849700Y-12042100D01*
X15850800Y-12043200D01*
X15851900Y-12044300D01*
X15853100Y-12045300D01*
X15854400Y-12046300D01*
X15855700Y-12047200D01*
X15857000Y-12048000D01*
X15858400Y-12048700D01*
X15859800Y-12049400D01*
X15861200Y-12050000D01*
X15862700Y-12050500D01*
X15864200Y-12051000D01*
X15865800Y-12051300D01*
X15867300Y-12051600D01*
X15868900Y-12051800D01*
X15870400Y-12052000D01*
X15872000Y-12052000D01*
X15912000Y-12052000D01*
X15913600Y-12052000D01*
X15915100Y-12051800D01*
X15916700Y-12051600D01*
X15918200Y-12051300D01*
X15919800Y-12051000D01*
X15921300Y-12050500D01*
X15922800Y-12050000D01*
X15924200Y-12049400D01*
X15925600Y-12048700D01*
X15927000Y-12048000D01*
X15928300Y-12047200D01*
X15929600Y-12046300D01*
X15930900Y-12045300D01*
X15932100Y-12044300D01*
X15933200Y-12043200D01*
X15934300Y-12042100D01*
X15935300Y-12040900D01*
X15936300Y-12039600D01*
X15937200Y-12038300D01*
X15938000Y-12037000D01*
X15938700Y-12035600D01*
X15939400Y-12034200D01*
X15940000Y-12032800D01*
X15940500Y-12031300D01*
X15941000Y-12029800D01*
X15941300Y-12028200D01*
X15941600Y-12026700D01*
X15941800Y-12025100D01*
X15942000Y-12023600D01*
X15942000Y-12022000D01*
X15942000Y-11992000D01*
X15962000Y-11992000D01*
X15962000Y-12022000D01*
X15961900Y-12024600D01*
X15961700Y-12027200D01*
X15961400Y-12029800D01*
X15960900Y-12032400D01*
X15960300Y-12034900D01*
X15959600Y-12037500D01*
X15958700Y-12039900D01*
X15957700Y-12042300D01*
X15956600Y-12044700D01*
X15955300Y-12047000D01*
X15953900Y-12049200D01*
X15952500Y-12051400D01*
X15950900Y-12053500D01*
X15949200Y-12055500D01*
X15947400Y-12057400D01*
X15945500Y-12059200D01*
X15943500Y-12060900D01*
X15941400Y-12062500D01*
X15939200Y-12063900D01*
X15937000Y-12065300D01*
X15934700Y-12066600D01*
X15932300Y-12067700D01*
X15929900Y-12068700D01*
X15927500Y-12069600D01*
X15924900Y-12070300D01*
X15922400Y-12070900D01*
X15919800Y-12071400D01*
X15917200Y-12071700D01*
X15914600Y-12071900D01*
X15912000Y-12072000D01*
X15872000Y-12072000D01*
X15869400Y-12071900D01*
X15866800Y-12071700D01*
X15864200Y-12071400D01*
X15861600Y-12070900D01*
X15859100Y-12070300D01*
X15856500Y-12069600D01*
X15854100Y-12068700D01*
X15851700Y-12067700D01*
X15849300Y-12066600D01*
X15847000Y-12065300D01*
X15844800Y-12063900D01*
X15842600Y-12062500D01*
X15840500Y-12060900D01*
X15838500Y-12059200D01*
X15836600Y-12057400D01*
X15834800Y-12055500D01*
X15833100Y-12053500D01*
X15831500Y-12051400D01*
X15830100Y-12049200D01*
X15828700Y-12047000D01*
X15827400Y-12044700D01*
X15826300Y-12042300D01*
X15825300Y-12039900D01*
X15824400Y-12037500D01*
X15823700Y-12034900D01*
X15823100Y-12032400D01*
X15822600Y-12029800D01*
X15822300Y-12027200D01*
X15822100Y-12024600D01*
X15822000Y-12022000D01*
X15822000Y-11992000D01*
X15842000Y-11992000D01*
X15842000Y-12022000D01*
G36*
X15842000Y-12022000D02*
G01*
X15842000Y-12023600D01*
X15842200Y-12025100D01*
X15842400Y-12026700D01*
X15842700Y-12028200D01*
X15843000Y-12029800D01*
X15843500Y-12031300D01*
X15844000Y-12032800D01*
X15844600Y-12034200D01*
X15845300Y-12035600D01*
X15846000Y-12037000D01*
X15846800Y-12038300D01*
X15847700Y-12039600D01*
X15848700Y-12040900D01*
X15849700Y-12042100D01*
X15850800Y-12043200D01*
X15851900Y-12044300D01*
X15853100Y-12045300D01*
X15854400Y-12046300D01*
X15855700Y-12047200D01*
X15857000Y-12048000D01*
X15858400Y-12048700D01*
X15859800Y-12049400D01*
X15861200Y-12050000D01*
X15862700Y-12050500D01*
X15864200Y-12051000D01*
X15865800Y-12051300D01*
X15867300Y-12051600D01*
X15868900Y-12051800D01*
X15870400Y-12052000D01*
X15872000Y-12052000D01*
X15912000Y-12052000D01*
X15913600Y-12052000D01*
X15915100Y-12051800D01*
X15916700Y-12051600D01*
X15918200Y-12051300D01*
X15919800Y-12051000D01*
X15921300Y-12050500D01*
X15922800Y-12050000D01*
X15924200Y-12049400D01*
X15925600Y-12048700D01*
X15927000Y-12048000D01*
X15928300Y-12047200D01*
X15929600Y-12046300D01*
X15930900Y-12045300D01*
X15932100Y-12044300D01*
X15933200Y-12043200D01*
X15934300Y-12042100D01*
X15935300Y-12040900D01*
X15936300Y-12039600D01*
X15937200Y-12038300D01*
X15938000Y-12037000D01*
X15938700Y-12035600D01*
X15939400Y-12034200D01*
X15940000Y-12032800D01*
X15940500Y-12031300D01*
X15941000Y-12029800D01*
X15941300Y-12028200D01*
X15941600Y-12026700D01*
X15941800Y-12025100D01*
X15942000Y-12023600D01*
X15942000Y-12022000D01*
X15942000Y-11992000D01*
X15962000Y-11992000D01*
X15962000Y-12022000D01*
X15961900Y-12024600D01*
X15961700Y-12027200D01*
X15961400Y-12029800D01*
X15960900Y-12032400D01*
X15960300Y-12034900D01*
X15959600Y-12037500D01*
X15958700Y-12039900D01*
X15957700Y-12042300D01*
X15956600Y-12044700D01*
X15955300Y-12047000D01*
X15953900Y-12049200D01*
X15952500Y-12051400D01*
X15950900Y-12053500D01*
X15949200Y-12055500D01*
X15947400Y-12057400D01*
X15945500Y-12059200D01*
X15943500Y-12060900D01*
X15941400Y-12062500D01*
X15939200Y-12063900D01*
X15937000Y-12065300D01*
X15934700Y-12066600D01*
X15932300Y-12067700D01*
X15929900Y-12068700D01*
X15927500Y-12069600D01*
X15924900Y-12070300D01*
X15922400Y-12070900D01*
X15919800Y-12071400D01*
X15917200Y-12071700D01*
X15914600Y-12071900D01*
X15912000Y-12072000D01*
X15872000Y-12072000D01*
X15869400Y-12071900D01*
X15866800Y-12071700D01*
X15864200Y-12071400D01*
X15861600Y-12070900D01*
X15859100Y-12070300D01*
X15856500Y-12069600D01*
X15854100Y-12068700D01*
X15851700Y-12067700D01*
X15849300Y-12066600D01*
X15847000Y-12065300D01*
X15844800Y-12063900D01*
X15842600Y-12062500D01*
X15840500Y-12060900D01*
X15838500Y-12059200D01*
X15836600Y-12057400D01*
X15834800Y-12055500D01*
X15833100Y-12053500D01*
X15831500Y-12051400D01*
X15830100Y-12049200D01*
X15828700Y-12047000D01*
X15827400Y-12044700D01*
X15826300Y-12042300D01*
X15825300Y-12039900D01*
X15824400Y-12037500D01*
X15823700Y-12034900D01*
X15823100Y-12032400D01*
X15822600Y-12029800D01*
X15822300Y-12027200D01*
X15822100Y-12024600D01*
X15822000Y-12022000D01*
X15822000Y-11992000D01*
X15842000Y-11992000D01*
X15842000Y-12022000D01*
G37*
D12*
%TO.C,R12*%
X14305488Y-10620000D02*
X14339012Y-10620000D01*
X14305488Y-10696000D02*
X14339012Y-10696000D01*
%TO.C,R10*%
X15163012Y-10633500D02*
X15129488Y-10633500D01*
X15163012Y-10709500D02*
X15129488Y-10709500D01*
%TO.C,C17*%
X14632416Y-12402000D02*
X14655583Y-12402000D01*
X14632416Y-12474000D02*
X14655583Y-12474000D01*
D15*
%TO.C,U6*%
X14042750Y-11957786D02*
X14042750Y-11890214D01*
X14096597Y-11774140D02*
X14164163Y-11774140D01*
X14164163Y-12073860D02*
X14096597Y-12073860D01*
D12*
%TO.C,U3*%
X14054000Y-11330000D02*
X14385000Y-11330000D01*
X14345000Y-10748000D02*
X14056000Y-10748000D01*
X14417000Y-10755000D02*
X14389000Y-10755000D01*
X14389000Y-10727000D01*
X14417000Y-10755000D01*
G36*
X14417000Y-10755000D02*
G01*
X14389000Y-10755000D01*
X14389000Y-10727000D01*
X14417000Y-10755000D01*
G37*
%TO.C,C16*%
X14119416Y-11656000D02*
X14142583Y-11656000D01*
X14119416Y-11728000D02*
X14142583Y-11728000D01*
%TD*%
M02*
