%TF.GenerationSoftware,KiCad,Pcbnew,9.0.7*%
%TF.CreationDate,2026-04-29T04:09:03+05:30*%
%TF.ProjectId,SmartWatch_MT2025513,536d6172-7457-4617-9463-685f4d543230,rev?*%
%TF.SameCoordinates,Original*%
%TF.FileFunction,Other,User*%
%FSLAX45Y45*%
G04 Gerber Fmt 4.5, Leading zero omitted, Abs format (unit mm)*
G04 Created by KiCad (PCBNEW 9.0.7) date 2026-04-29 04:09:03*
%MOMM*%
%LPD*%
G01*
G04 APERTURE LIST*
%ADD10C,0.050000*%
G04 APERTURE END LIST*
D10*
%TO.C,S1*%
X15638250Y-10847000D02*
X16033250Y-10847000D01*
X16033250Y-10847000D02*
X16033250Y-10237000D01*
X15638250Y-10237000D02*
X15638250Y-10847000D01*
X16033250Y-10237000D02*
X15638250Y-10237000D01*
%TO.C,U1*%
X16923000Y-10191000D02*
X16923000Y-8091000D01*
X16923000Y-8091000D02*
X12123000Y-8091000D01*
X15498000Y-10191000D02*
X16923000Y-10191000D01*
X15498000Y-10191000D02*
X15498000Y-12211000D01*
X13548000Y-12211000D02*
X15498000Y-12211000D01*
X13548000Y-12211000D02*
X13548000Y-10191000D01*
X12123000Y-10191000D02*
X13548000Y-10191000D01*
X12123000Y-8091000D02*
X12123000Y-10191000D01*
%TO.C,MK1*%
X15234200Y-12634500D02*
X14834200Y-12634500D01*
X15234200Y-12319500D02*
X15234200Y-12634500D01*
X14834200Y-12634500D02*
X14834200Y-12319500D01*
X14834200Y-12319500D02*
X15234200Y-12319500D01*
%TO.C,J1*%
X13313500Y-11346000D02*
X12419500Y-11346000D01*
X12419500Y-12410000D01*
X13313500Y-12410000D01*
X13313500Y-11346000D01*
%TO.C,H4*%
X15695000Y-9440000D02*
G75*
G02*
X15245000Y-9440000I-225000J0D01*
G01*
X15245000Y-9440000D02*
G75*
G02*
X15695000Y-9440000I225000J0D01*
G01*
%TO.C,H3*%
X15695000Y-12640000D02*
G75*
G02*
X15245000Y-12640000I-225000J0D01*
G01*
X15245000Y-12640000D02*
G75*
G02*
X15695000Y-12640000I225000J0D01*
G01*
%TO.C,H2*%
X13195000Y-12640000D02*
G75*
G02*
X12745000Y-12640000I-225000J0D01*
G01*
X12745000Y-12640000D02*
G75*
G02*
X13195000Y-12640000I225000J0D01*
G01*
%TO.C,H1*%
X13195000Y-9440000D02*
G75*
G02*
X12745000Y-9440000I-225000J0D01*
G01*
X12745000Y-9440000D02*
G75*
G02*
X13195000Y-9440000I225000J0D01*
G01*
%TO.C,TX1*%
X15928000Y-11522000D02*
G75*
G02*
X15728000Y-11522000I-100000J0D01*
G01*
X15728000Y-11522000D02*
G75*
G02*
X15928000Y-11522000I100000J0D01*
G01*
%TO.C,R19*%
X14828000Y-12426000D02*
X14734000Y-12426000D01*
X14734000Y-12648000D01*
X14828000Y-12648000D01*
X14828000Y-12426000D01*
%TO.C,C2*%
X12735000Y-11063000D02*
X12643000Y-11063000D01*
X12643000Y-11281000D01*
X12735000Y-11281000D01*
X12735000Y-11063000D01*
%TO.C,R1*%
X15600500Y-10861000D02*
X15822500Y-10861000D01*
X15822500Y-10955000D01*
X15600500Y-10955000D01*
X15600500Y-10861000D01*
%TO.C,GPIO1*%
X15928000Y-12402000D02*
G75*
G02*
X15728000Y-12402000I-100000J0D01*
G01*
X15728000Y-12402000D02*
G75*
G02*
X15928000Y-12402000I100000J0D01*
G01*
%TO.C,R4*%
X12639000Y-10494000D02*
X12733000Y-10494000D01*
X12733000Y-10272000D01*
X12639000Y-10272000D01*
X12639000Y-10494000D01*
%TO.C,R5*%
X13542000Y-11925000D02*
X13320000Y-11925000D01*
X13320000Y-11831000D01*
X13542000Y-11831000D01*
X13542000Y-11925000D01*
%TO.C,RX1*%
X15928000Y-11742000D02*
G75*
G02*
X15728000Y-11742000I-100000J0D01*
G01*
X15728000Y-11742000D02*
G75*
G02*
X15928000Y-11742000I100000J0D01*
G01*
%TO.C,R6*%
X13542000Y-12025000D02*
X13320000Y-12025000D01*
X13320000Y-11931000D01*
X13542000Y-11931000D01*
X13542000Y-12025000D01*
%TO.C,C12*%
X14846000Y-12222000D02*
X15064000Y-12222000D01*
X15064000Y-12314000D01*
X14846000Y-12314000D01*
X14846000Y-12222000D01*
%TO.C,R3*%
X12641000Y-11057000D02*
X12735000Y-11057000D01*
X12735000Y-10835000D01*
X12641000Y-10835000D01*
X12641000Y-11057000D01*
%TO.C,EN1*%
X15928000Y-12182000D02*
G75*
G02*
X15728000Y-12182000I-100000J0D01*
G01*
X15728000Y-12182000D02*
G75*
G02*
X15928000Y-12182000I100000J0D01*
G01*
%TO.C,D1*%
X15930000Y-11107000D02*
X15600000Y-11107000D01*
X15600000Y-10961000D01*
X15930000Y-10961000D01*
X15930000Y-11107000D01*
%TO.C,R2*%
X15545000Y-10419000D02*
X15639000Y-10419000D01*
X15639000Y-10197000D01*
X15545000Y-10197000D01*
X15545000Y-10419000D01*
%TO.C,C3*%
X15547000Y-10643000D02*
X15639000Y-10643000D01*
X15639000Y-10425000D01*
X15547000Y-10425000D01*
X15547000Y-10643000D01*
%TO.C,R7*%
X13320000Y-12031000D02*
X13542000Y-12031000D01*
X13542000Y-12125000D01*
X13320000Y-12125000D01*
X13320000Y-12031000D01*
%TO.C,VDD1*%
X15928000Y-11962000D02*
G75*
G02*
X15728000Y-11962000I-100000J0D01*
G01*
X15728000Y-11962000D02*
G75*
G02*
X15928000Y-11962000I100000J0D01*
G01*
%TO.C,R8*%
X13320000Y-11706000D02*
X13542000Y-11706000D01*
X13542000Y-11800000D01*
X13320000Y-11800000D01*
X13320000Y-11706000D01*
%TO.C,GND1*%
X15928000Y-11302000D02*
G75*
G02*
X15728000Y-11302000I-100000J0D01*
G01*
X15728000Y-11302000D02*
G75*
G02*
X15928000Y-11302000I100000J0D01*
G01*
%TO.C,C1*%
X12732000Y-10500000D02*
X12640000Y-10500000D01*
X12640000Y-10718000D01*
X12732000Y-10718000D01*
X12732000Y-10500000D01*
%TD*%
M02*
