M48
; DRILL file {KiCad 9.0.7} date 2026-04-29T04:09:03+0530
; FORMAT={-:-/ absolute / inch / decimal}
; #@! TF.CreationDate,2026-04-29T04:09:03+05:30
; #@! TF.GenerationSoftware,Kicad,Pcbnew,9.0.7
; #@! TF.FileFunction,MixedPlating,1,2
FMAT,2
INCH
; #@! TA.AperFunction,Plated,PTH,ComponentDrill
T1C0.0079
; #@! TA.AperFunction,Plated,PTH,ViaDrill
T2C0.0118
; #@! TA.AperFunction,Plated,PTH,ComponentDrill
T3C0.0197
; #@! TA.AperFunction,Plated,PTH,ComponentDrill
T4C0.0236
; #@! TA.AperFunction,NonPlated,NPTH,ComponentDrill
T5C0.0236
; #@! TA.AperFunction,NonPlated,NPTH,ComponentDrill
T6C0.0256
; #@! TA.AperFunction,NonPlated,NPTH,ComponentDrill
T7C0.0787
%
G90
G05
T1
X5.6035Y-4.3472
X5.6035Y-4.4024
X5.6207Y-4.8512
X5.6433Y-4.8138
X5.6433Y-4.8886
X5.6659Y-4.8512
X5.6862Y-4.3197
X5.6862Y-4.3748
X5.6862Y-4.4299
X5.7138Y-4.3472
X5.7138Y-4.4024
T2
X5.0571Y-4.2358
X5.0673Y-4.0854
X5.1731Y-4.8819
X5.2007Y-4.8818
X5.2504Y-4.7827
X5.2665Y-4.5536
X5.3025Y-4.5905
X5.3118Y-4.7795
X5.3282Y-4.6004
X5.3787Y-4.9424
X5.4053Y-4.9496
X5.4143Y-4.4993
X5.4642Y-4.6571
X5.4705Y-4.3123
X5.4979Y-4.471
X5.5114Y-4.8524
X5.5453Y-4.4906
X5.5629Y-4.709
X5.5737Y-4.491
X5.5945Y-4.5406
X5.6224Y-4.7051
X5.6359Y-4.5443
X5.6669Y-4.5851
X5.6685Y-4.6983
X5.6866Y-4.6048
X5.6965Y-4.6593
X5.7162Y-4.5438
X5.7543Y-4.335
X5.7692Y-4.5946
X5.7825Y-4.4775
X5.7877Y-4.8926
X5.7893Y-4.932
X5.7937Y-4.4154
X5.8412Y-4.9358
X5.861Y-4.3654
X5.8878Y-4.8529
X5.9374Y-4.6143
X5.9534Y-4.3353
X5.9661Y-4.3845
X5.9872Y-4.4098
X6.0165Y-4.2216
X6.0169Y-4.6111
X6.0169Y-4.4358
X6.0172Y-4.5483
X6.0185Y-4.3962
X6.0299Y-4.5185
X6.0873Y-4.8078
X6.1076Y-4.7309
X6.1358Y-4.3481
X6.1387Y-4.6067
X6.1708Y-4.0441
X6.1728Y-4.7961
T5
X5.9469Y-4.9122
T6
X5.1567Y-4.5626
X5.1567Y-4.7902
T7
X5.1063Y-3.7165
X5.1063Y-4.9764
X6.0906Y-3.7165
X6.0906Y-4.9764
T3
X6.2031Y-4.0579G85X6.2286Y-4.0579
G05
X6.2031Y-4.2429G85X6.2286Y-4.2429
G05
T4
X5.0276Y-4.5063G85X4.9961Y-4.5063
G05
X5.0276Y-4.8465G85X4.9961Y-4.8465
G05
X5.198Y-4.5063G85X5.1547Y-4.5063
G05
X5.198Y-4.8465G85X5.1547Y-4.8465
G05
M30
