%TF.GenerationSoftware,KiCad,Pcbnew,9.0.7*%
%TF.CreationDate,2026-04-29T04:09:03+05:30*%
%TF.ProjectId,SmartWatch_MT2025513,536d6172-7457-4617-9463-685f4d543230,rev?*%
%TF.SameCoordinates,Original*%
%TF.FileFunction,Copper,L2,Bot*%
%TF.FilePolarity,Positive*%
%FSLAX45Y45*%
G04 Gerber Fmt 4.5, Leading zero omitted, Abs format (unit mm)*
G04 Created by KiCad (PCBNEW 9.0.7) date 2026-04-29 04:09:03*
%MOMM*%
%LPD*%
G01*
G04 APERTURE LIST*
G04 Aperture macros list*
%AMRoundRect*
0 Rectangle with rounded corners*
0 $1 Rounding radius*
0 $2 $3 $4 $5 $6 $7 $8 $9 X,Y pos of 4 corners*
0 Add a 4 corners polygon primitive as box body*
4,1,4,$2,$3,$4,$5,$6,$7,$8,$9,$2,$3,0*
0 Add four circle primitives for the rounded corners*
1,1,$1+$1,$2,$3*
1,1,$1+$1,$4,$5*
1,1,$1+$1,$6,$7*
1,1,$1+$1,$8,$9*
0 Add four rect primitives between the rounded corners*
20,1,$1+$1,$2,$3,$4,$5,0*
20,1,$1+$1,$4,$5,$6,$7,0*
20,1,$1+$1,$6,$7,$8,$9,0*
20,1,$1+$1,$8,$9,$2,$3,0*%
%AMFreePoly0*
4,1,21,-0.125000,1.200000,0.125000,1.200000,0.125000,1.700000,0.375000,1.700000,0.375000,1.200000,0.825000,1.200000,0.825000,-1.200000,0.375000,-1.200000,0.375000,-1.700000,0.125000,-1.700000,0.125000,-1.200000,-0.125000,-1.200000,-0.125000,-1.700000,-0.375000,-1.700000,-0.375000,-1.200000,-0.825000,-1.200000,-0.825000,1.200000,-0.375000,1.200000,-0.375000,1.700000,-0.125000,1.700000,
-0.125000,1.200000,-0.125000,1.200000,$1*%
G04 Aperture macros list end*
%TA.AperFunction,SMDPad,CuDef*%
%ADD10RoundRect,0.155000X-0.155000X0.212500X-0.155000X-0.212500X0.155000X-0.212500X0.155000X0.212500X0*%
%TD*%
%TA.AperFunction,ComponentPad*%
%ADD11O,1.550000X0.900000*%
%TD*%
%TA.AperFunction,ComponentPad*%
%ADD12C,0.500000*%
%TD*%
%TA.AperFunction,SMDPad,CuDef*%
%ADD13FreePoly0,180.000000*%
%TD*%
%TA.AperFunction,SMDPad,CuDef*%
%ADD14RoundRect,0.060000X0.240000X0.060000X-0.240000X0.060000X-0.240000X-0.060000X0.240000X-0.060000X0*%
%TD*%
%TA.AperFunction,HeatsinkPad*%
%ADD15C,0.600000*%
%TD*%
%TA.AperFunction,SMDPad,CuDef*%
%ADD16R,1.700000X0.600000*%
%TD*%
%TA.AperFunction,SMDPad,CuDef*%
%ADD17R,2.700000X1.000000*%
%TD*%
%TA.AperFunction,HeatsinkPad*%
%ADD18O,1.800000X1.000000*%
%TD*%
%TA.AperFunction,HeatsinkPad*%
%ADD19O,2.100000X1.000000*%
%TD*%
%TA.AperFunction,SMDPad,CuDef*%
%ADD20RoundRect,0.160000X0.197500X0.160000X-0.197500X0.160000X-0.197500X-0.160000X0.197500X-0.160000X0*%
%TD*%
%TA.AperFunction,SMDPad,CuDef*%
%ADD21RoundRect,0.155000X-0.212500X-0.155000X0.212500X-0.155000X0.212500X0.155000X-0.212500X0.155000X0*%
%TD*%
%TA.AperFunction,SMDPad,CuDef*%
%ADD22RoundRect,0.155000X0.212500X0.155000X-0.212500X0.155000X-0.212500X-0.155000X0.212500X-0.155000X0*%
%TD*%
%TA.AperFunction,SMDPad,CuDef*%
%ADD23RoundRect,0.160000X-0.160000X0.197500X-0.160000X-0.197500X0.160000X-0.197500X0.160000X0.197500X0*%
%TD*%
%TA.AperFunction,SMDPad,CuDef*%
%ADD24RoundRect,0.250001X0.849999X-0.462499X0.849999X0.462499X-0.849999X0.462499X-0.849999X-0.462499X0*%
%TD*%
%TA.AperFunction,SMDPad,CuDef*%
%ADD25RoundRect,0.160000X-0.197500X-0.160000X0.197500X-0.160000X0.197500X0.160000X-0.197500X0.160000X0*%
%TD*%
%TA.AperFunction,SMDPad,CuDef*%
%ADD26RoundRect,0.218750X0.218750X0.256250X-0.218750X0.256250X-0.218750X-0.256250X0.218750X-0.256250X0*%
%TD*%
%TA.AperFunction,SMDPad,CuDef*%
%ADD27R,0.250000X0.675000*%
%TD*%
%TA.AperFunction,SMDPad,CuDef*%
%ADD28R,0.575000X0.250000*%
%TD*%
%TA.AperFunction,SMDPad,CuDef*%
%ADD29RoundRect,0.160000X0.160000X-0.197500X0.160000X0.197500X-0.160000X0.197500X-0.160000X-0.197500X0*%
%TD*%
%TA.AperFunction,SMDPad,CuDef*%
%ADD30R,1.100000X0.400000*%
%TD*%
%TA.AperFunction,SMDPad,CuDef*%
%ADD31RoundRect,0.155000X0.155000X-0.212500X0.155000X0.212500X-0.155000X0.212500X-0.155000X-0.212500X0*%
%TD*%
%TA.AperFunction,SMDPad,CuDef*%
%ADD32R,1.270000X0.558800*%
%TD*%
%TA.AperFunction,SMDPad,CuDef*%
%ADD33R,0.800000X0.300000*%
%TD*%
%TA.AperFunction,SMDPad,CuDef*%
%ADD34R,1.000000X0.400000*%
%TD*%
%TA.AperFunction,SMDPad,CuDef*%
%ADD35R,1.320800X0.558800*%
%TD*%
%TA.AperFunction,SMDPad,CuDef*%
%ADD36RoundRect,0.087500X0.287500X0.087500X-0.287500X0.087500X-0.287500X-0.087500X0.287500X-0.087500X0*%
%TD*%
%TA.AperFunction,ViaPad*%
%ADD37C,0.600000*%
%TD*%
%TA.AperFunction,Conductor*%
%ADD38C,0.200000*%
%TD*%
G04 APERTURE END LIST*
D10*
%TO.P,C15,2*%
%TO.N,GND*%
X14398000Y-11933750D03*
%TO.P,C15,1*%
%TO.N,/bat-conn/BatP*%
X14398000Y-11820250D03*
%TD*%
D11*
%TO.P,S1,S1,SHIELD*%
%TO.N,GND*%
X15788250Y-10777000D03*
%TO.P,S1,S2,SHIELD__1*%
X15788250Y-10307000D03*
%TD*%
D12*
%TO.P,U7,11,PGND*%
%TO.N,GND*%
X14276500Y-12322000D03*
X14334000Y-12227000D03*
D13*
X14334000Y-12322000D03*
D12*
X14334000Y-12417000D03*
X14391500Y-12322000D03*
D14*
%TO.P,U7,10,FB*%
%TO.N,3p3V*%
X14194000Y-12222000D03*
%TO.P,U7,9,GND*%
%TO.N,GND*%
X14194000Y-12272000D03*
%TO.P,U7,8,VINA*%
%TO.N,Net-(U7-EN)*%
X14194000Y-12322000D03*
%TO.P,U7,7,PS/SYNC*%
X14194000Y-12372000D03*
%TO.P,U7,6,EN*%
X14194000Y-12422000D03*
%TO.P,U7,5,VIN*%
%TO.N,/bat-conn/BatP*%
X14474000Y-12422000D03*
%TO.P,U7,4,L1*%
%TO.N,Net-(U7-L1)*%
X14474000Y-12372000D03*
%TO.P,U7,3,PGND*%
%TO.N,GND*%
X14474000Y-12322000D03*
%TO.P,U7,2,L2*%
%TO.N,Net-(U7-L2)*%
X14474000Y-12272000D03*
%TO.P,U7,1,VOUT*%
%TO.N,3p3V*%
X14474000Y-12222000D03*
%TD*%
D15*
%TO.P,U1,41,GND*%
%TO.N,GND*%
X14513000Y-11182000D03*
X14513000Y-11042000D03*
X14443000Y-11252000D03*
X14443000Y-11112000D03*
X14443000Y-10972000D03*
X14233000Y-11182000D03*
X14233000Y-11042000D03*
%TD*%
D16*
%TO.P,J3,2,2*%
%TO.N,GND*%
X12951500Y-10457500D03*
%TO.P,J3,1,1*%
%TO.N,/bat-conn/BatP*%
X12951500Y-10582500D03*
D17*
%TO.P,J3,*%
%TO.N,*%
X12631500Y-10272500D03*
X12631500Y-10767500D03*
%TD*%
D18*
%TO.P,J1,S1,SHIELD*%
%TO.N,GND*%
X12730000Y-12310000D03*
D19*
X13148000Y-12310000D03*
D18*
X12730000Y-11446000D03*
D19*
X13148000Y-11446000D03*
%TD*%
D20*
%TO.P,R16,1*%
%TO.N,3p3V*%
X14873750Y-11720250D03*
%TO.P,R16,2*%
%TO.N,/imu-sensor/~{INT}*%
X14754250Y-11720250D03*
%TD*%
D21*
%TO.P,C9,1*%
%TO.N,Net-(U4-CAP)*%
X15004250Y-11719250D03*
%TO.P,C9,2*%
%TO.N,GND*%
X15117750Y-11719250D03*
%TD*%
D22*
%TO.P,C18,1*%
%TO.N,Net-(U7-EN)*%
X14080750Y-12412000D03*
%TO.P,C18,2*%
%TO.N,GND*%
X13967250Y-12412000D03*
%TD*%
%TO.P,C7,1*%
%TO.N,3p3V*%
X13971750Y-11252000D03*
%TO.P,C7,2*%
%TO.N,GND*%
X13858250Y-11252000D03*
%TD*%
%TO.P,C5,1*%
%TO.N,1p8V*%
X13971750Y-10953000D03*
%TO.P,C5,2*%
%TO.N,GND*%
X13858250Y-10953000D03*
%TD*%
%TO.P,C8,1*%
%TO.N,3p3V*%
X13971750Y-11154000D03*
%TO.P,C8,2*%
%TO.N,GND*%
X13858250Y-11154000D03*
%TD*%
D23*
%TO.P,R20,1*%
%TO.N,3p3V*%
X15374000Y-11622250D03*
%TO.P,R20,2*%
%TO.N,/disp-conn/INT*%
X15374000Y-11741750D03*
%TD*%
D24*
%TO.P,L1,1,1*%
%TO.N,Net-(U7-L1)*%
X14768000Y-12284000D03*
%TO.P,L1,2,2*%
%TO.N,Net-(U7-L2)*%
X14768000Y-12051500D03*
%TD*%
D25*
%TO.P,R23,1*%
%TO.N,/bat-conn/BatP*%
X13962250Y-12511000D03*
%TO.P,R23,2*%
%TO.N,Net-(U7-EN)*%
X14081750Y-12511000D03*
%TD*%
D23*
%TO.P,R17,1*%
%TO.N,Net-(U4-SA0{slash}H_MOSI)*%
X14591000Y-11476500D03*
%TO.P,R17,2*%
%TO.N,GND*%
X14591000Y-11596000D03*
%TD*%
D26*
%TO.P,D2,1,K*%
%TO.N,Net-(D2-K)*%
X13830500Y-12089940D03*
%TO.P,D2,2,A*%
%TO.N,/pm/VBUS*%
X13673000Y-12089940D03*
%TD*%
D27*
%TO.P,U4,1,RESV_NC*%
%TO.N,unconnected-(U4-RESV_NC-Pad1)*%
X15154000Y-11295750D03*
D28*
%TO.P,U4,2,GND*%
%TO.N,GND*%
X15160250Y-11377000D03*
%TO.P,U4,3,VDD*%
%TO.N,3p3V*%
X15160250Y-11427000D03*
%TO.P,U4,4,~{BOOT}*%
%TO.N,/imu-sensor/~{BOOT}*%
X15160250Y-11477000D03*
%TO.P,U4,5,PS1*%
%TO.N,GND*%
X15160250Y-11527000D03*
D27*
%TO.P,U4,6,PS0/WAKE*%
X15154000Y-11608250D03*
%TO.P,U4,7,RESV_NC*%
%TO.N,unconnected-(U4-RESV_NC-Pad7)*%
X15104000Y-11608250D03*
%TO.P,U4,8,RESV_NC*%
%TO.N,unconnected-(U4-RESV_NC-Pad8)*%
X15054000Y-11608250D03*
%TO.P,U4,9,CAP*%
%TO.N,Net-(U4-CAP)*%
X15004000Y-11608250D03*
%TO.P,U4,10,CLKSEL0*%
%TO.N,3p3V*%
X14954000Y-11608250D03*
%TO.P,U4,11,~{RST}*%
%TO.N,/imu-sensor/~{RST}*%
X14904000Y-11608250D03*
%TO.P,U4,12,RESV_NC*%
%TO.N,unconnected-(U4-RESV_NC-Pad12)*%
X14854000Y-11608250D03*
%TO.P,U4,13,RESV_NC*%
%TO.N,unconnected-(U4-RESV_NC-Pad13)*%
X14804000Y-11608250D03*
%TO.P,U4,14,~{H_INT}*%
%TO.N,/imu-sensor/~{INT}*%
X14754000Y-11608250D03*
%TO.P,U4,15,ENV_SCL*%
%TO.N,unconnected-(U4-ENV_SCL-Pad15)*%
X14704000Y-11608250D03*
D28*
%TO.P,U4,16,ENV_SDA*%
%TO.N,unconnected-(U4-ENV_SDA-Pad16)*%
X14697750Y-11527000D03*
%TO.P,U4,17,SA0/H_MOSI*%
%TO.N,Net-(U4-SA0{slash}H_MOSI)*%
X14697750Y-11477000D03*
%TO.P,U4,18,~{H_CS}*%
%TO.N,unconnected-(U4-~{H_CS}-Pad18)*%
X14697750Y-11427000D03*
%TO.P,U4,19,H_SCL/SCK/RX*%
%TO.N,/disp-conn/I2C.SCL*%
X14697750Y-11377000D03*
D27*
%TO.P,U4,20,H_SDA/H_MISO/TX*%
%TO.N,/disp-conn/I2C.SDA*%
X14704000Y-11295750D03*
%TO.P,U4,21,RESV_NC*%
%TO.N,unconnected-(U4-RESV_NC-Pad21)*%
X14754000Y-11295750D03*
%TO.P,U4,22,RESV_NC*%
%TO.N,unconnected-(U4-RESV_NC-Pad22)*%
X14804000Y-11295750D03*
%TO.P,U4,23,RESV_NC*%
%TO.N,unconnected-(U4-RESV_NC-Pad23)*%
X14854000Y-11295750D03*
%TO.P,U4,24,RESV_NC*%
%TO.N,unconnected-(U4-RESV_NC-Pad24)*%
X14904000Y-11295750D03*
%TO.P,U4,25,GNDIO*%
%TO.N,GND*%
X14954000Y-11295750D03*
%TO.P,U4,26,XOUT32/CLKSEL1*%
X15004000Y-11295750D03*
%TO.P,U4,27,XIN32*%
%TO.N,unconnected-(U4-XIN32-Pad27)*%
X15054000Y-11295750D03*
%TO.P,U4,28,VDDIO*%
%TO.N,3p3V*%
X15104000Y-11295750D03*
%TD*%
D29*
%TO.P,R15,1*%
%TO.N,/imu-sensor/~{BOOT}*%
X15267000Y-11477000D03*
%TO.P,R15,2*%
%TO.N,3p3V*%
X15267000Y-11357500D03*
%TD*%
D25*
%TO.P,R14,1*%
%TO.N,1p8V*%
X13853250Y-10854000D03*
%TO.P,R14,2*%
%TO.N,/mcu-esp32/nINT*%
X13972750Y-10854000D03*
%TD*%
D23*
%TO.P,R18,1*%
%TO.N,3p3V*%
X14591000Y-11248500D03*
%TO.P,R18,2*%
%TO.N,Net-(U4-SA0{slash}H_MOSI)*%
X14591000Y-11368000D03*
%TD*%
D20*
%TO.P,R21,1*%
%TO.N,GND*%
X13546500Y-12188940D03*
%TO.P,R21,2*%
%TO.N,Net-(U5-PROG)*%
X13427000Y-12188940D03*
%TD*%
D30*
%TO.P,U2,1,GND*%
%TO.N,GND*%
X14519000Y-10771500D03*
%TO.P,U2,2,VREF1*%
%TO.N,1p8V*%
X14519000Y-10706500D03*
%TO.P,U2,3,SCL1*%
%TO.N,Net-(U2-SCL1)*%
X14519000Y-10641500D03*
%TO.P,U2,4,SDA1*%
%TO.N,Net-(U2-SDA1)*%
X14519000Y-10576500D03*
%TO.P,U2,5,SDA2*%
%TO.N,/disp-conn/I2C.SDA*%
X14949000Y-10576500D03*
%TO.P,U2,6,SCL2*%
%TO.N,/disp-conn/I2C.SCL*%
X14949000Y-10641500D03*
%TO.P,U2,7,VREF2*%
%TO.N,Net-(U2-EN)*%
X14949000Y-10706500D03*
%TO.P,U2,8,EN*%
X14949000Y-10771500D03*
%TD*%
D10*
%TO.P,C20,1*%
%TO.N,3p3V*%
X14581000Y-12215250D03*
%TO.P,C20,2*%
%TO.N,GND*%
X14581000Y-12328750D03*
%TD*%
D31*
%TO.P,C14,1*%
%TO.N,/bat-conn/BatP*%
X13857750Y-12505690D03*
%TO.P,C14,2*%
%TO.N,GND*%
X13857750Y-12392190D03*
%TD*%
D20*
%TO.P,R11,1*%
%TO.N,Net-(U2-EN)*%
X15205750Y-10571000D03*
%TO.P,R11,2*%
%TO.N,/disp-conn/I2C.SDA*%
X15086250Y-10571000D03*
%TD*%
D32*
%TO.P,U5,1,STAT*%
%TO.N,Net-(U5-STAT)*%
X13733000Y-12309020D03*
%TO.P,U5,2,VSS*%
%TO.N,GND*%
X13733000Y-12403000D03*
%TO.P,U5,3,VBAT*%
%TO.N,/bat-conn/BatP*%
X13733000Y-12496980D03*
%TO.P,U5,4,VDD*%
%TO.N,/pm/VBUS*%
X13473920Y-12496980D03*
%TO.P,U5,5,PROG*%
%TO.N,Net-(U5-PROG)*%
X13473920Y-12309020D03*
%TD*%
D22*
%TO.P,C10,1*%
%TO.N,3p3V*%
X15087750Y-11088250D03*
%TO.P,C10,2*%
%TO.N,GND*%
X14974250Y-11088250D03*
%TD*%
%TO.P,C11,1*%
%TO.N,3p3V*%
X15087750Y-11185250D03*
%TO.P,C11,2*%
%TO.N,GND*%
X14974250Y-11185250D03*
%TD*%
D25*
%TO.P,R13,1*%
%TO.N,1p8V*%
X14262500Y-10558500D03*
%TO.P,R13,2*%
%TO.N,Net-(U2-SDA1)*%
X14382000Y-10558500D03*
%TD*%
D20*
%TO.P,R9,1*%
%TO.N,3p3V*%
X15206000Y-10869500D03*
%TO.P,R9,2*%
%TO.N,Net-(U2-EN)*%
X15086500Y-10869500D03*
%TD*%
D10*
%TO.P,C19,1*%
%TO.N,3p3V*%
X14087000Y-12194250D03*
%TO.P,C19,2*%
%TO.N,GND*%
X14087000Y-12307750D03*
%TD*%
D21*
%TO.P,C13,1*%
%TO.N,/pm/VBUS*%
X13474000Y-12585940D03*
%TO.P,C13,2*%
%TO.N,GND*%
X13587500Y-12585940D03*
%TD*%
D22*
%TO.P,C6,1*%
%TO.N,1p8V*%
X13971750Y-11051000D03*
%TO.P,C6,2*%
%TO.N,GND*%
X13858250Y-11051000D03*
%TD*%
D20*
%TO.P,R22,1*%
%TO.N,Net-(D2-K)*%
X13852500Y-12220940D03*
%TO.P,R22,2*%
%TO.N,Net-(U5-STAT)*%
X13733000Y-12220940D03*
%TD*%
D21*
%TO.P,C4,1*%
%TO.N,Net-(U2-EN)*%
X15087250Y-10770500D03*
%TO.P,C4,2*%
%TO.N,GND*%
X15200750Y-10770500D03*
%TD*%
D33*
%TO.P,J2,1,1*%
%TO.N,3p3V*%
X15522000Y-11042000D03*
%TO.P,J2,2,2*%
%TO.N,/disp-conn/LCD.BL*%
X15522000Y-11092000D03*
%TO.P,J2,3,3*%
%TO.N,GND*%
X15522000Y-11142000D03*
%TO.P,J2,4,4*%
%TO.N,/disp-conn/LCD.SCLK*%
X15522000Y-11192000D03*
%TO.P,J2,5,5*%
%TO.N,/disp-conn/LCD.MOSI*%
X15522000Y-11242000D03*
%TO.P,J2,6,6*%
%TO.N,unconnected-(J2-Pad6)*%
X15522000Y-11292000D03*
%TO.P,J2,7,7*%
%TO.N,/disp-conn/LCD.DC*%
X15522000Y-11342000D03*
%TO.P,J2,8,8*%
%TO.N,/disp-conn/LCD.RST*%
X15522000Y-11392000D03*
%TO.P,J2,9,9*%
%TO.N,/disp-conn/LCD.CS*%
X15522000Y-11442000D03*
%TO.P,J2,10,10*%
%TO.N,unconnected-(J2-Pad10)*%
X15522000Y-11492000D03*
%TO.P,J2,11,11*%
%TO.N,unconnected-(J2-Pad11)*%
X15522000Y-11542000D03*
%TO.P,J2,12,12*%
%TO.N,/disp-conn/RST*%
X15522000Y-11592000D03*
%TO.P,J2,13,13*%
%TO.N,/disp-conn/I2C.SCL*%
X15522000Y-11642000D03*
%TO.P,J2,14,14*%
%TO.N,/disp-conn/I2C.SDA*%
X15522000Y-11692000D03*
%TO.P,J2,15,15*%
%TO.N,/disp-conn/INT*%
X15522000Y-11742000D03*
%TO.P,J2,16,16*%
%TO.N,unconnected-(J2-Pad16)*%
X15522000Y-11792000D03*
%TO.P,J2,17,17*%
%TO.N,unconnected-(J2-Pad17)*%
X15522000Y-11842000D03*
%TO.P,J2,18,18*%
%TO.N,unconnected-(J2-Pad18)*%
X15522000Y-11892000D03*
%TO.P,J2,LOCK_1,LOCK*%
%TO.N,unconnected-(J2-LOCK-PadLOCK_1)*%
X15522000Y-10992000D03*
%TO.P,J2,LOCK_2,LOCK__1*%
%TO.N,unconnected-(J2-LOCK__1-PadLOCK_2)*%
X15522000Y-11942000D03*
D34*
%TO.P,J2,SH1,SHIELD*%
%TO.N,GND*%
X15752000Y-10909500D03*
%TO.P,J2,SH2,SHIELD__1*%
X15752000Y-12024500D03*
%TD*%
D25*
%TO.P,R12,1*%
%TO.N,1p8V*%
X14262500Y-10658000D03*
%TO.P,R12,2*%
%TO.N,Net-(U2-SCL1)*%
X14382000Y-10658000D03*
%TD*%
D20*
%TO.P,R10,1*%
%TO.N,Net-(U2-EN)*%
X15206000Y-10671500D03*
%TO.P,R10,2*%
%TO.N,/disp-conn/I2C.SCL*%
X15086500Y-10671500D03*
%TD*%
D21*
%TO.P,C17,1*%
%TO.N,/bat-conn/BatP*%
X14587250Y-12438000D03*
%TO.P,C17,2*%
%TO.N,GND*%
X14700750Y-12438000D03*
%TD*%
D35*
%TO.P,U6,1,VIN*%
%TO.N,/bat-conn/BatP*%
X14249760Y-11829000D03*
%TO.P,U6,2,GND*%
%TO.N,GND*%
X14249760Y-11924000D03*
%TO.P,U6,3,EN*%
%TO.N,/bat-conn/BatP*%
X14249760Y-12019000D03*
%TO.P,U6,4,NC*%
%TO.N,unconnected-(U6-NC-Pad4)*%
X14011000Y-12019000D03*
%TO.P,U6,5,VOUT*%
%TO.N,1p8V*%
X14011000Y-11829000D03*
%TD*%
D36*
%TO.P,U3,1,NC*%
%TO.N,unconnected-(U3-NC-Pad1)*%
X14340000Y-10800000D03*
%TO.P,U3,2,SCL*%
%TO.N,Net-(U2-SCL1)*%
X14340000Y-10880000D03*
%TO.P,U3,3,SDA*%
%TO.N,Net-(U2-SDA1)*%
X14340000Y-10960000D03*
%TO.P,U3,4,PGND*%
%TO.N,GND*%
X14340000Y-11040000D03*
%TO.P,U3,5,NC*%
%TO.N,unconnected-(U3-NC-Pad5)*%
X14340000Y-11120000D03*
%TO.P,U3,6,NC*%
%TO.N,unconnected-(U3-NC-Pad6)*%
X14340000Y-11200000D03*
%TO.P,U3,7,NC*%
%TO.N,unconnected-(U3-NC-Pad7)*%
X14340000Y-11280000D03*
%TO.P,U3,8,NC*%
%TO.N,unconnected-(U3-NC-Pad8)*%
X14100000Y-11280000D03*
%TO.P,U3,9,VLED+*%
%TO.N,3p3V*%
X14100000Y-11200000D03*
%TO.P,U3,10,VLED+*%
X14100000Y-11120000D03*
%TO.P,U3,11,VDD*%
%TO.N,1p8V*%
X14100000Y-11040000D03*
%TO.P,U3,12,GND*%
%TO.N,GND*%
X14100000Y-10960000D03*
%TO.P,U3,13,~{INT}*%
%TO.N,/mcu-esp32/nINT*%
X14100000Y-10880000D03*
%TO.P,U3,14,NC*%
%TO.N,unconnected-(U3-NC-Pad14)*%
X14100000Y-10800000D03*
%TD*%
D21*
%TO.P,C16,1*%
%TO.N,1p8V*%
X14074250Y-11692000D03*
%TO.P,C16,2*%
%TO.N,GND*%
X14187750Y-11692000D03*
%TD*%
D37*
%TO.N,GND*%
X15081000Y-11720350D03*
X14653789Y-11670250D03*
X13895000Y-10953200D03*
X15281894Y-10722895D03*
X14704878Y-12527250D03*
X14700750Y-12427250D03*
X14887000Y-11088000D03*
X14280951Y-11951060D03*
X14398000Y-11933750D03*
%TO.N,3p3V*%
X14519086Y-11541375D03*
%TO.N,GND*%
X13377000Y-11566100D03*
X13492051Y-12139940D03*
%TO.N,3p3V*%
X14129799Y-11960790D03*
X15121605Y-11011605D03*
X14616000Y-11011000D03*
%TO.N,GND*%
X12871000Y-10377000D03*
%TO.N,/mcu-esp32/EN*%
X12845000Y-10759000D03*
X13209710Y-12399776D03*
X13729471Y-12571947D03*
X15678855Y-12182145D03*
%TO.N,/bat-conn/BatP*%
X13661893Y-12553692D03*
X13139711Y-12400000D03*
%TO.N,/disp-conn/I2C.SCL*%
X14687565Y-11372896D03*
%TO.N,/disp-conn/LCD.CS*%
X15461805Y-12211905D03*
%TO.N,/disp-conn/I2C.SDA*%
X14443855Y-11696144D03*
X15513306Y-12016595D03*
X15592381Y-11700982D03*
X14716000Y-11215000D03*
%TO.N,/disp-conn/LCD.MOSI*%
X15207500Y-11200789D03*
%TO.N,/disp-conn/LCD.SCLK*%
X15287109Y-11166341D03*
%TO.N,/disp-conn/LCD.BL*%
X14315231Y-11542479D03*
%TO.N,/disp-conn/INT*%
X14393855Y-11646145D03*
%TO.N,1p8V*%
X13879000Y-11829000D03*
%TO.N,3p3V*%
X15673940Y-10272060D03*
X15585000Y-11044274D03*
%TO.N,/disp-conn/LCD.BL*%
X14085007Y-11406000D03*
X15153838Y-11136543D03*
%TO.N,/disp-conn/LCD.RST*%
X15283589Y-11552750D03*
%TO.N,/mcu-esp32/LRCLK*%
X14836664Y-12537026D03*
X13468284Y-11659824D03*
%TO.N,/mcu-esp32/nINT*%
X13752243Y-11428292D03*
%TO.N,/mcu-esp32/BCLK*%
X14210000Y-11533000D03*
X14954991Y-12326435D03*
%TO.N,/mcu-esp32/DATA*%
X13999020Y-12325020D03*
X13533632Y-11684918D03*
%TO.N,/imu-sensor/~{RST}*%
X14157139Y-11407139D03*
%TO.N,/imu-sensor/~{INT}*%
X13964648Y-11356352D03*
%TO.N,/disp-conn/LCD.DC*%
X15283000Y-11267039D03*
%TO.N,/disp-conn/RST*%
X15283000Y-11712236D03*
%TO.N,/pm/VBUS*%
X13335926Y-12147968D03*
%TO.N,/imu-sensor/~{BOOT}*%
X15315895Y-11477105D03*
%TO.N,/disp-conn/I2C.SCL*%
X14469000Y-11834568D03*
%TD*%
D38*
%TO.N,/disp-conn/LCD.CS*%
X15672581Y-11532581D02*
X15582000Y-11442000D01*
X15672581Y-12003418D02*
X15672581Y-11532581D01*
X15464095Y-12211905D02*
X15672581Y-12003418D01*
X15582000Y-11442000D02*
X15522000Y-11442000D01*
X15461805Y-12211905D02*
X15464095Y-12211905D01*
X15461805Y-12211905D02*
X15463805Y-12213905D01*
%TO.N,/disp-conn/I2C.SCL*%
X14528632Y-11894200D02*
X14469000Y-11834568D01*
X14807091Y-11894200D02*
X14528632Y-11894200D01*
X14904891Y-11992000D02*
X14807091Y-11894200D01*
X14904891Y-12347187D02*
X14904891Y-11992000D01*
X14934239Y-12376535D02*
X14904891Y-12347187D01*
X15642481Y-11960518D02*
X15226465Y-12376535D01*
X15226465Y-12376535D02*
X14934239Y-12376535D01*
X15642481Y-11680229D02*
X15642481Y-11960518D01*
X15604252Y-11642000D02*
X15642481Y-11680229D01*
X15522000Y-11642000D02*
X15604252Y-11642000D01*
%TO.N,GND*%
X15082100Y-11719250D02*
X15081000Y-11720350D01*
X15117750Y-11719250D02*
X15082100Y-11719250D01*
%TO.N,/mcu-esp32/BCLK*%
X14569243Y-11864100D02*
X14843100Y-11864100D01*
X14843100Y-11864100D02*
X14954991Y-11975991D01*
X14451387Y-11746244D02*
X14569243Y-11864100D01*
X14393755Y-11716755D02*
X14393755Y-11716897D01*
X14423103Y-11746244D02*
X14451387Y-11746244D01*
X14210000Y-11533000D02*
X14393755Y-11716755D01*
X14393755Y-11716897D02*
X14423103Y-11746244D01*
X14954991Y-11975991D02*
X14954991Y-12326435D01*
%TO.N,GND*%
X14591000Y-11607461D02*
X14653789Y-11670250D01*
X14591000Y-11596000D02*
X14591000Y-11607461D01*
X13894800Y-10953000D02*
X13895000Y-10953200D01*
X13858250Y-10953000D02*
X13894800Y-10953000D01*
X15234289Y-10770500D02*
X15281894Y-10722895D01*
X15200750Y-10770500D02*
X15234289Y-10770500D01*
X14704878Y-12527250D02*
X14704878Y-12442128D01*
X14704878Y-12442128D02*
X14700750Y-12438000D01*
X14974000Y-11088000D02*
X14974250Y-11088250D01*
X14887000Y-11088000D02*
X14974000Y-11088000D01*
X14253890Y-11924000D02*
X14280951Y-11951060D01*
X14249760Y-11924000D02*
X14253890Y-11924000D01*
%TO.N,/bat-conn/BatP*%
X14287860Y-12019000D02*
X14249760Y-12019000D01*
X14335900Y-11875960D02*
X14335900Y-11970960D01*
X14288940Y-11829000D02*
X14335900Y-11875960D01*
X14249760Y-11829000D02*
X14288940Y-11829000D01*
X14335900Y-11970960D02*
X14287860Y-12019000D01*
%TO.N,3p3V*%
X14519086Y-11541375D02*
X14519086Y-11320414D01*
X14519086Y-11320414D02*
X14591000Y-11248500D01*
%TO.N,GND*%
X14165000Y-11692000D02*
X14187750Y-11692000D01*
X13858250Y-11252000D02*
X13858250Y-11385250D01*
X13858250Y-11385250D02*
X14165000Y-11692000D01*
X13485666Y-11566100D02*
X13377000Y-11566100D01*
X13830256Y-11910690D02*
X13485666Y-11566100D01*
X14236450Y-11910690D02*
X13830256Y-11910690D01*
X14249760Y-11924000D02*
X14236450Y-11910690D01*
%TO.N,3p3V*%
X14130009Y-12111559D02*
X14149850Y-12131400D01*
X14130009Y-11961000D02*
X14130009Y-12111559D01*
X14129799Y-11960790D02*
X14130009Y-11961000D01*
%TO.N,GND*%
X14388250Y-11924000D02*
X14398000Y-11933750D01*
X13497500Y-12139940D02*
X13546500Y-12188940D01*
X13492051Y-12139940D02*
X13497500Y-12139940D01*
%TO.N,/pm/VBUS*%
X13673000Y-12089940D02*
X13393954Y-12089940D01*
X13393954Y-12089940D02*
X13335926Y-12147968D01*
%TO.N,GND*%
X13695340Y-12403000D02*
X13733000Y-12403000D01*
X13546500Y-12254160D02*
X13695340Y-12403000D01*
X13546500Y-12188940D02*
X13546500Y-12254160D01*
%TO.N,/imu-sensor/~{INT}*%
X14263000Y-11356000D02*
X14627250Y-11720250D01*
X13965000Y-11356000D02*
X14263000Y-11356000D01*
X13964648Y-11356352D02*
X13965000Y-11356000D01*
X14627250Y-11720250D02*
X14754250Y-11720250D01*
%TO.N,3p3V*%
X15121605Y-11054395D02*
X15087750Y-11088250D01*
X15121605Y-11011605D02*
X15121605Y-11054395D01*
X14591000Y-11248500D02*
X14591000Y-11036000D01*
X14591000Y-11036000D02*
X14616000Y-11011000D01*
%TO.N,GND*%
X12871000Y-10377000D02*
X12951500Y-10457500D01*
%TO.N,/mcu-esp32/EN*%
X13209710Y-12400852D02*
X13160463Y-12450100D01*
X13209710Y-12399776D02*
X13209710Y-12400852D01*
X13160463Y-12450100D02*
X13091396Y-12450100D01*
X13091396Y-12450100D02*
X12845000Y-12203704D01*
X12845000Y-12203704D02*
X12845000Y-10759000D01*
%TO.N,/bat-conn/BatP*%
X12951500Y-12267636D02*
X12951500Y-11403636D01*
X13139711Y-12400000D02*
X13083863Y-12400000D01*
X13083863Y-12400000D02*
X12951500Y-12267636D01*
%TO.N,/mcu-esp32/EN*%
X13753624Y-12596100D02*
X13729471Y-12571947D01*
X14706738Y-12596100D02*
X13753624Y-12596100D01*
X14815912Y-12486926D02*
X14706738Y-12596100D01*
X14902591Y-12532100D02*
X14857417Y-12486926D01*
X15328900Y-12532100D02*
X14902591Y-12532100D01*
X15678855Y-12182145D02*
X15328900Y-12532100D01*
X14857417Y-12486926D02*
X14815912Y-12486926D01*
%TO.N,3p3V*%
X15673940Y-10272060D02*
X15673940Y-10401560D01*
X15673940Y-10401560D02*
X15206000Y-10869500D01*
%TO.N,/bat-conn/BatP*%
X13661893Y-12553692D02*
X13676288Y-12553692D01*
X13676288Y-12553692D02*
X13733000Y-12496980D01*
X13858248Y-11879100D02*
X13495248Y-11516100D01*
%TO.N,/disp-conn/I2C.SDA*%
X15330711Y-11834000D02*
X14581711Y-11834000D01*
X15513306Y-12016595D02*
X15330711Y-11834000D01*
X14581711Y-11834000D02*
X14443855Y-11696144D01*
%TO.N,/disp-conn/I2C.SCL*%
X14691669Y-11377000D02*
X14697750Y-11377000D01*
X14687565Y-11372896D02*
X14691669Y-11377000D01*
%TO.N,/bat-conn/BatP*%
X12951500Y-11403636D02*
X12951500Y-10582500D01*
X13063964Y-11516100D02*
X12951500Y-11403636D01*
X13495248Y-11516100D02*
X13063964Y-11516100D01*
X14161560Y-11879100D02*
X13858248Y-11879100D01*
X14211660Y-11829000D02*
X14161560Y-11879100D01*
%TO.N,GND*%
X14249760Y-11924000D02*
X14210580Y-11924000D01*
%TO.N,/disp-conn/LCD.BL*%
X14208805Y-11458000D02*
X14137007Y-11458000D01*
X14137007Y-11458000D02*
X14085007Y-11406000D01*
X14315231Y-11542479D02*
X14293285Y-11542479D01*
X14293285Y-11542479D02*
X14208805Y-11458000D01*
%TO.N,/disp-conn/INT*%
X15313300Y-11802450D02*
X15374000Y-11741750D01*
X14467577Y-11646145D02*
X14623882Y-11802450D01*
X14623882Y-11802450D02*
X15313300Y-11802450D01*
X14393855Y-11646145D02*
X14467577Y-11646145D01*
%TO.N,/imu-sensor/~{RST}*%
X14904000Y-11644700D02*
X14904000Y-11608250D01*
X14880550Y-11668150D02*
X14904000Y-11644700D01*
X14830803Y-11668150D02*
X14880550Y-11668150D01*
X14810100Y-11751647D02*
X14810100Y-11688853D01*
X14789397Y-11772350D02*
X14810100Y-11751647D01*
X14636350Y-11772350D02*
X14789397Y-11772350D01*
X14271139Y-11407139D02*
X14636350Y-11772350D01*
X14810100Y-11688853D02*
X14830803Y-11668150D01*
X14157139Y-11407139D02*
X14271139Y-11407139D01*
%TO.N,/disp-conn/I2C.SDA*%
X15583400Y-11692000D02*
X15592381Y-11700982D01*
X15522000Y-11692000D02*
X15583400Y-11692000D01*
%TO.N,3p3V*%
X15267000Y-11331000D02*
X15121250Y-11185250D01*
X15267000Y-11357500D02*
X15267000Y-11331000D01*
X15121250Y-11185250D02*
X15087750Y-11185250D01*
%TO.N,1p8V*%
X13879000Y-11829000D02*
X14011000Y-11829000D01*
%TO.N,GND*%
X15128800Y-11527000D02*
X15160250Y-11527000D01*
X15105000Y-11400800D02*
X15105000Y-11503200D01*
X15128800Y-11377000D02*
X15105000Y-11400800D01*
X15105000Y-11503200D02*
X15128800Y-11527000D01*
X15160250Y-11377000D02*
X15128800Y-11377000D01*
%TO.N,/disp-conn/I2C.SCL*%
X15142100Y-10539603D02*
X15142100Y-10615900D01*
X15121397Y-10518900D02*
X15142100Y-10539603D01*
X14871400Y-10518900D02*
X15121397Y-10518900D01*
X14666000Y-10724300D02*
X14871400Y-10518900D01*
X14666000Y-11345250D02*
X14666000Y-10724300D01*
X14697750Y-11377000D02*
X14666000Y-11345250D01*
X15142100Y-10615900D02*
X15086500Y-10671500D01*
%TO.N,GND*%
X13015500Y-10457500D02*
X12951500Y-10457500D01*
X13148000Y-10590000D02*
X13015500Y-10457500D01*
X13148000Y-11446000D02*
X13148000Y-10590000D01*
X14235000Y-11040000D02*
X14233000Y-11042000D01*
X14340000Y-11040000D02*
X14235000Y-11040000D01*
%TO.N,3p3V*%
X15104000Y-11349500D02*
X15104000Y-11295750D01*
X14954000Y-11499500D02*
X15104000Y-11349500D01*
X14954000Y-11608250D02*
X14954000Y-11499500D01*
X15524274Y-11044274D02*
X15522000Y-11042000D01*
X15585000Y-11044274D02*
X15524274Y-11044274D01*
%TO.N,/disp-conn/LCD.BL*%
X15198381Y-11092000D02*
X15153838Y-11136543D01*
X15522000Y-11092000D02*
X15198381Y-11092000D01*
%TO.N,3p3V*%
X14149850Y-12131400D02*
X14087000Y-12194250D01*
X14581000Y-12215250D02*
X14497150Y-12131400D01*
X14497150Y-12131400D02*
X14149850Y-12131400D01*
%TO.N,/mcu-esp32/LRCLK*%
X13285826Y-11842282D02*
X13468284Y-11659824D01*
X13285826Y-12485291D02*
X13285826Y-11842282D01*
X13437574Y-12637040D02*
X13285826Y-12485291D01*
X14836664Y-12537026D02*
X14836612Y-12537026D01*
X14736598Y-12637040D02*
X13437574Y-12637040D01*
X14836612Y-12537026D02*
X14736598Y-12637040D01*
%TO.N,/mcu-esp32/nINT*%
X13920650Y-10801900D02*
X13972750Y-10854000D01*
X13818103Y-10801900D02*
X13920650Y-10801900D01*
X13764000Y-10856003D02*
X13818103Y-10801900D01*
X13764000Y-11416535D02*
X13764000Y-10856003D01*
X13752243Y-11428292D02*
X13764000Y-11416535D01*
%TO.N,/disp-conn/LCD.DC*%
X15357961Y-11342000D02*
X15522000Y-11342000D01*
X15283000Y-11267039D02*
X15357961Y-11342000D01*
%TO.N,/mcu-esp32/DATA*%
X13533632Y-11684918D02*
X13999020Y-12150306D01*
X13999020Y-12150306D02*
X13999020Y-12325020D01*
%TO.N,/disp-conn/RST*%
X15476800Y-11592000D02*
X15522000Y-11592000D01*
X15465000Y-11603800D02*
X15476800Y-11592000D01*
X15465000Y-11604000D02*
X15465000Y-11603800D01*
X15441000Y-11628000D02*
X15465000Y-11604000D01*
X15350403Y-11678100D02*
X15412900Y-11678100D01*
X15412900Y-11678100D02*
X15441000Y-11650000D01*
X15441000Y-11650000D02*
X15441000Y-11628000D01*
X15316267Y-11712236D02*
X15350403Y-11678100D01*
X15283000Y-11712236D02*
X15283000Y-11712236D01*
X15283000Y-11712236D02*
X15316267Y-11712236D01*
%TO.N,3p3V*%
X15154176Y-11770350D02*
X15302276Y-11622250D01*
X15302276Y-11622250D02*
X15374000Y-11622250D01*
X14923850Y-11770350D02*
X15154176Y-11770350D01*
X14873750Y-11720250D02*
X14923850Y-11770350D01*
%TO.N,GND*%
X15752000Y-10957200D02*
X15752000Y-10909500D01*
X15567200Y-11142000D02*
X15752000Y-10957200D01*
X15522000Y-11142000D02*
X15567200Y-11142000D01*
X15752000Y-10813250D02*
X15788250Y-10777000D01*
X15752000Y-10909500D02*
X15752000Y-10813250D01*
X15752000Y-12024500D02*
X15752000Y-10909500D01*
%TO.N,1p8V*%
X13801400Y-10905850D02*
X13853250Y-10854000D01*
X13801400Y-11419150D02*
X13801400Y-10905850D01*
X14074250Y-11692000D02*
X13801400Y-11419150D01*
%TO.N,Net-(U5-STAT)*%
X13733000Y-12220940D02*
X13733000Y-12309020D01*
%TO.N,Net-(D2-K)*%
X13852500Y-12111940D02*
X13830500Y-12089940D01*
X13852500Y-12220940D02*
X13852500Y-12111940D01*
%TO.N,/pm/VBUS*%
X13335926Y-12358986D02*
X13335926Y-12147968D01*
X13473920Y-12496980D02*
X13335926Y-12358986D01*
%TO.N,GND*%
X14141568Y-10960000D02*
X14100000Y-10960000D01*
X14263968Y-10837600D02*
X14141568Y-10960000D01*
X14452900Y-10837600D02*
X14263968Y-10837600D01*
X14519000Y-10771500D02*
X14452900Y-10837600D01*
%TO.N,1p8V*%
X14262500Y-10796500D02*
X14262500Y-10658000D01*
X14059400Y-10917600D02*
X14141400Y-10917600D01*
X14028000Y-10949000D02*
X14059400Y-10917600D01*
X14141400Y-10917600D02*
X14262500Y-10796500D01*
X14028000Y-10968000D02*
X14028000Y-10949000D01*
X14100000Y-11040000D02*
X14028000Y-10968000D01*
%TO.N,Net-(U2-SDA1)*%
X14378100Y-10921900D02*
X14340000Y-10960000D01*
X14546368Y-10921900D02*
X14378100Y-10921900D01*
X14634200Y-10621500D02*
X14634200Y-10834068D01*
X14634200Y-10834068D02*
X14546368Y-10921900D01*
X14589200Y-10576500D02*
X14634200Y-10621500D01*
X14519000Y-10576500D02*
X14589200Y-10576500D01*
%TO.N,Net-(U2-SCL1)*%
X14604100Y-10651600D02*
X14604100Y-10821600D01*
X14594000Y-10641500D02*
X14604100Y-10651600D01*
X14604100Y-10821600D02*
X14545700Y-10880000D01*
X14519000Y-10641500D02*
X14594000Y-10641500D01*
X14545700Y-10880000D02*
X14340000Y-10880000D01*
%TO.N,/imu-sensor/~{BOOT}*%
X15315789Y-11477000D02*
X15315895Y-11477105D01*
X15267000Y-11477000D02*
X15315789Y-11477000D01*
%TO.N,/pm/VBUS*%
X13673000Y-12089940D02*
X13649400Y-12113540D01*
X13474000Y-12585940D02*
X13474000Y-12497060D01*
X13474000Y-12497060D02*
X13473920Y-12496980D01*
%TO.N,GND*%
X14122750Y-12272000D02*
X14087000Y-12307750D01*
X15154000Y-11608250D02*
X15154000Y-11683000D01*
X15154000Y-11683000D02*
X15117750Y-11719250D01*
X14581000Y-12316750D02*
X14596500Y-12316750D01*
X13695340Y-12403000D02*
X13587500Y-12510840D01*
X13982750Y-12412000D02*
X14087000Y-12307750D01*
X13858250Y-11153200D02*
X13909350Y-11102100D01*
X14194000Y-12272000D02*
X14122750Y-12272000D01*
X15154000Y-11533250D02*
X15160250Y-11527000D01*
X13858250Y-11154000D02*
X13858250Y-11153200D01*
X14954000Y-11295750D02*
X15004000Y-11295750D01*
X14574250Y-12322000D02*
X14581000Y-12328750D01*
X14063857Y-11077600D02*
X14197400Y-11077600D01*
X14474000Y-12322000D02*
X14391500Y-12322000D01*
X15154000Y-11608250D02*
X15154000Y-11533250D01*
X13909350Y-11102100D02*
X14039357Y-11102100D01*
X14194000Y-12272000D02*
X14226500Y-12272000D01*
X15004000Y-11295750D02*
X15004000Y-11215000D01*
X15004000Y-11215000D02*
X14974250Y-11185250D01*
X14444000Y-10971000D02*
X14443000Y-10972000D01*
X14039357Y-11102100D02*
X14063857Y-11077600D01*
X13865560Y-12400000D02*
X13857750Y-12392190D01*
X15144600Y-10826650D02*
X15144600Y-10917900D01*
X15144600Y-10917900D02*
X14974250Y-11088250D01*
X13587500Y-12510840D02*
X13587500Y-12585940D01*
X14197400Y-11077600D02*
X14233000Y-11042000D01*
X14087000Y-12295750D02*
X14071500Y-12295750D01*
X14100000Y-10960000D02*
X14151000Y-10960000D01*
X13858250Y-11252000D02*
X13858250Y-11154000D01*
X13858250Y-10953000D02*
X13858250Y-11051000D01*
X13846940Y-12403000D02*
X13857750Y-12392190D01*
X13858250Y-11051000D02*
X13909350Y-11102100D01*
X15200750Y-10770500D02*
X15144600Y-10826650D01*
X14226500Y-12272000D02*
X14276500Y-12322000D01*
X14974250Y-11088250D02*
X14974250Y-11185250D01*
X13857750Y-12392190D02*
X13947440Y-12392190D01*
X14474000Y-12322000D02*
X14574250Y-12322000D01*
X13967250Y-12412000D02*
X13982750Y-12412000D01*
X15788250Y-10307000D02*
X15788250Y-10777000D01*
X14298645Y-12215000D02*
X14334000Y-12215000D01*
X13947440Y-12392190D02*
X13967250Y-12412000D01*
X14151000Y-10960000D02*
X14233000Y-11042000D01*
X13733000Y-12403000D02*
X13846940Y-12403000D01*
X14574250Y-12310000D02*
X14581000Y-12316750D01*
%TO.N,/bat-conn/BatP*%
X13864440Y-12499000D02*
X13857750Y-12505690D01*
X14571250Y-12422000D02*
X14587250Y-12438000D01*
X13962250Y-12499000D02*
X14029250Y-12566000D01*
X13857750Y-12505690D02*
X13956940Y-12505690D01*
X13956940Y-12505690D02*
X13962250Y-12511000D01*
X13849040Y-12496980D02*
X13857750Y-12505690D01*
X14249760Y-11829000D02*
X14389250Y-11829000D01*
X13733000Y-12496980D02*
X13849040Y-12496980D01*
X14474000Y-12422000D02*
X14571250Y-12422000D01*
X14029250Y-12566000D02*
X14447250Y-12566000D01*
X14447250Y-12566000D02*
X14587250Y-12426000D01*
X14389250Y-11829000D02*
X14398000Y-11820250D01*
%TO.N,1p8V*%
X13872750Y-10854000D02*
X13971750Y-10953000D01*
X14074250Y-11765750D02*
X14011000Y-11829000D01*
X14100000Y-11040000D02*
X13982750Y-11040000D01*
X14315000Y-10711000D02*
X14262500Y-10658500D01*
X14514500Y-10711000D02*
X14315000Y-10711000D01*
X14074250Y-11692000D02*
X14074250Y-11765750D01*
X13971750Y-11051000D02*
X13971750Y-10953000D01*
X14262500Y-10558500D02*
X14262500Y-10658500D01*
X13853250Y-10854000D02*
X13872750Y-10854000D01*
X14519000Y-10706500D02*
X14514500Y-10711000D01*
X13982750Y-11040000D02*
X13971750Y-11051000D01*
%TO.N,3p3V*%
X14100000Y-11120000D02*
X14066000Y-11154000D01*
X14521900Y-11317600D02*
X14591000Y-11248500D01*
X15104000Y-11201500D02*
X15087750Y-11185250D01*
X14954000Y-11608250D02*
X14954000Y-11640000D01*
X14217600Y-11317600D02*
X14521900Y-11317600D01*
X14100000Y-11200000D02*
X14100000Y-11120000D01*
X13971750Y-11252000D02*
X13971750Y-11154000D01*
X15197500Y-11427000D02*
X15267000Y-11357500D01*
X15206000Y-10970000D02*
X15206000Y-10869500D01*
X14194000Y-12222000D02*
X14114750Y-12222000D01*
X15087750Y-11088250D02*
X15206000Y-10970000D01*
X14474000Y-12222000D02*
X14574250Y-12222000D01*
X14100000Y-11200000D02*
X14217600Y-11317600D01*
X15160250Y-11427000D02*
X15197500Y-11427000D01*
X15104000Y-11295750D02*
X15104000Y-11201500D01*
X14066000Y-11154000D02*
X13971750Y-11154000D01*
X15378500Y-11042000D02*
X15522000Y-11042000D01*
X15206000Y-10869500D02*
X15378500Y-11042000D01*
X14954000Y-11640000D02*
X14873750Y-11720250D01*
X14114750Y-12222000D02*
X14087000Y-12194250D01*
X15087750Y-11088250D02*
X15087750Y-11185250D01*
%TO.N,/disp-conn/I2C.SCL*%
X15056500Y-10641500D02*
X15086500Y-10671500D01*
X14949000Y-10641500D02*
X15056500Y-10641500D01*
%TO.N,/disp-conn/I2C.SDA*%
X14878800Y-10576500D02*
X14949000Y-10576500D01*
X15080750Y-10576500D02*
X15086250Y-10571000D01*
X14704000Y-10751300D02*
X14878800Y-10576500D01*
X14949000Y-10576500D02*
X15080750Y-10576500D01*
X14704000Y-11295750D02*
X14704000Y-10751300D01*
%TO.N,/disp-conn/INT*%
X15374250Y-11742000D02*
X15374000Y-11741750D01*
X15522000Y-11742000D02*
X15374250Y-11742000D01*
%TO.N,/mcu-esp32/nINT*%
X13998750Y-10880000D02*
X13972750Y-10854000D01*
X14100000Y-10880000D02*
X13998750Y-10880000D01*
%TO.N,/imu-sensor/~{BOOT}*%
X15160250Y-11477000D02*
X15267000Y-11477000D01*
%TO.N,/imu-sensor/~{INT}*%
X14754000Y-11608250D02*
X14754000Y-11720000D01*
X14754000Y-11720000D02*
X14754250Y-11720250D01*
%TO.N,Net-(U2-EN)*%
X15206000Y-10671500D02*
X15206000Y-10571250D01*
X15107000Y-10770500D02*
X15206000Y-10671500D01*
X15206000Y-10571250D02*
X15205750Y-10571000D01*
X15086250Y-10771500D02*
X15087250Y-10770500D01*
X15086500Y-10869500D02*
X15086500Y-10771250D01*
X15086500Y-10771250D02*
X15087250Y-10770500D01*
X14949000Y-10771500D02*
X14949000Y-10706500D01*
X15087250Y-10770500D02*
X15107000Y-10770500D01*
X14949000Y-10771500D02*
X15086250Y-10771500D01*
%TO.N,Net-(U2-SDA1)*%
X14519000Y-10576500D02*
X14400000Y-10576500D01*
X14400000Y-10576500D02*
X14382000Y-10558500D01*
%TO.N,Net-(U2-SCL1)*%
X14398500Y-10641500D02*
X14519000Y-10641500D01*
X14382000Y-10658000D02*
X14398500Y-10641500D01*
%TO.N,Net-(U4-CAP)*%
X15004000Y-11719000D02*
X15004250Y-11719250D01*
X15004000Y-11608250D02*
X15004000Y-11719000D01*
%TO.N,Net-(U7-EN)*%
X14194000Y-12322000D02*
X14194000Y-12372000D01*
X14090750Y-12410000D02*
X14080750Y-12400000D01*
X14194000Y-12372000D02*
X14194000Y-12422000D01*
X14080750Y-12498000D02*
X14081750Y-12499000D01*
X14194000Y-12422000D02*
X14090750Y-12422000D01*
X14080750Y-12400000D02*
X14080750Y-12498000D01*
X14090750Y-12422000D02*
X14080750Y-12412000D01*
%TO.N,Net-(U7-L1)*%
X14474000Y-12372000D02*
X14487600Y-12385600D01*
X14666400Y-12385600D02*
X14768000Y-12284000D01*
X14487600Y-12385600D02*
X14666400Y-12385600D01*
%TO.N,Net-(U7-L2)*%
X14637900Y-12169600D02*
X14768000Y-12039500D01*
X14612000Y-12272000D02*
X14637900Y-12246100D01*
X14637900Y-12241100D02*
X14637900Y-12169600D01*
X14474000Y-12272000D02*
X14612000Y-12272000D01*
X14637900Y-12246100D02*
X14637900Y-12240000D01*
%TO.N,Net-(U4-SA0{slash}H_MOSI)*%
X14697750Y-11477000D02*
X14591500Y-11477000D01*
X14591000Y-11368000D02*
X14591000Y-11476500D01*
X14591500Y-11477000D02*
X14591000Y-11476500D01*
%TO.N,Net-(U5-PROG)*%
X13427000Y-12262100D02*
X13473920Y-12309020D01*
X13427000Y-12188940D02*
X13427000Y-12262100D01*
%TO.N,/disp-conn/LCD.RST*%
X15316050Y-11552750D02*
X15476800Y-11392000D01*
X15476800Y-11392000D02*
X15522000Y-11392000D01*
X15283589Y-11552750D02*
X15316050Y-11552750D01*
%TO.N,/disp-conn/LCD.SCLK*%
X15452000Y-11192000D02*
X15522000Y-11192000D01*
X15425000Y-11165000D02*
X15452000Y-11192000D01*
X15288310Y-11165000D02*
X15425000Y-11165000D01*
X15287109Y-11163799D02*
X15288310Y-11165000D01*
X15287109Y-11166341D02*
X15287109Y-11163799D01*
%TO.N,/disp-conn/LCD.MOSI*%
X15215100Y-11193189D02*
X15215100Y-11193100D01*
X15207500Y-11200789D02*
X15215100Y-11193189D01*
X15328813Y-11242000D02*
X15522000Y-11242000D01*
X15234714Y-11216939D02*
X15303752Y-11216939D01*
X15213939Y-11196164D02*
X15234714Y-11216939D01*
X15207500Y-11200789D02*
X15212125Y-11196164D01*
X15212125Y-11196164D02*
X15213939Y-11196164D01*
X15303752Y-11216939D02*
X15328813Y-11242000D01*
%TO.N,/disp-conn/I2C.SDA*%
X14704000Y-11243182D02*
X14704000Y-11295750D01*
X14716000Y-11231182D02*
X14704000Y-11243182D01*
X14716000Y-11215000D02*
X14716000Y-11231182D01*
%TO.N,/bat-conn/BatP*%
X14249760Y-11829000D02*
X14211660Y-11829000D01*
%TD*%
M02*
